M48
;DRILL file {KiCad 4.0.7-e2-6376~58~ubuntu16.04.1} date Fri Feb 16 09:21:33 2018
;FORMAT={-:-/ absolute / inch / decimal}
FMAT,2
INCH,TZ
T1C0.016
T2C0.039
T3C0.047
%
G90
G05
M72
T1
X1.15Y-1.87
X1.15Y-2.8543
X1.15Y-3.8385
X1.15Y-4.8228
X1.152Y-1.62
X1.152Y-2.6043
X1.152Y-3.5885
X1.152Y-4.5728
X1.357Y-1.47
X1.357Y-2.4543
X1.357Y-3.4385
X1.357Y-4.4228
X1.708Y-2.02
X1.708Y-3.0043
X1.708Y-3.9885
X1.708Y-4.9728
X2.109Y-1.61
X2.109Y-2.5943
X2.109Y-3.5785
X2.109Y-4.5628
X3.1185Y-1.87
X3.1185Y-2.8543
X3.1185Y-3.8385
X3.1185Y-4.8228
X3.1205Y-1.62
X3.1205Y-2.6043
X3.1205Y-3.5885
X3.1205Y-4.5728
X3.3255Y-1.47
X3.3255Y-2.4543
X3.3255Y-3.4385
X3.3255Y-4.4228
X3.6765Y-2.02
X3.6765Y-3.0043
X3.6765Y-3.9885
X3.6765Y-4.9728
X4.0775Y-1.61
X4.0775Y-2.5943
X4.0775Y-3.5785
X4.0775Y-4.5628
T2
X1.804Y-1.446
X1.804Y-2.046
X1.804Y-2.4303
X1.804Y-3.0303
X1.804Y-3.4145
X1.804Y-4.0145
X1.804Y-4.3988
X1.804Y-4.9988
X1.904Y-1.446
X1.904Y-2.046
X1.904Y-2.4303
X1.904Y-3.0303
X1.904Y-3.4145
X1.904Y-4.0145
X1.904Y-4.3988
X1.904Y-4.9988
X2.004Y-1.446
X2.004Y-2.046
X2.004Y-2.4303
X2.004Y-3.0303
X2.004Y-3.4145
X2.004Y-4.0145
X2.004Y-4.3988
X2.004Y-4.9988
X2.104Y-1.446
X2.104Y-2.046
X2.104Y-2.4303
X2.104Y-3.0303
X2.104Y-3.4145
X2.104Y-4.0145
X2.104Y-4.3988
X2.104Y-4.9988
X2.204Y-1.446
X2.204Y-2.046
X2.204Y-2.4303
X2.204Y-3.0303
X2.204Y-3.4145
X2.204Y-4.0145
X2.204Y-4.3988
X2.204Y-4.9988
X2.304Y-1.446
X2.304Y-2.046
X2.304Y-2.4303
X2.304Y-3.0303
X2.304Y-3.4145
X2.304Y-4.0145
X2.304Y-4.3988
X2.304Y-4.9988
X3.7725Y-1.446
X3.7725Y-2.046
X3.7725Y-2.4303
X3.7725Y-3.0303
X3.7725Y-3.4145
X3.7725Y-4.0145
X3.7725Y-4.3988
X3.7725Y-4.9988
X3.8725Y-1.446
X3.8725Y-2.046
X3.8725Y-2.4303
X3.8725Y-3.0303
X3.8725Y-3.4145
X3.8725Y-4.0145
X3.8725Y-4.3988
X3.8725Y-4.9988
X3.9725Y-1.446
X3.9725Y-2.046
X3.9725Y-2.4303
X3.9725Y-3.0303
X3.9725Y-3.4145
X3.9725Y-4.0145
X3.9725Y-4.3988
X3.9725Y-4.9988
X4.0725Y-1.446
X4.0725Y-2.046
X4.0725Y-2.4303
X4.0725Y-3.0303
X4.0725Y-3.4145
X4.0725Y-4.0145
X4.0725Y-4.3988
X4.0725Y-4.9988
X4.1725Y-1.446
X4.1725Y-2.046
X4.1725Y-2.4303
X4.1725Y-3.0303
X4.1725Y-3.4145
X4.1725Y-4.0145
X4.1725Y-4.3988
X4.1725Y-4.9988
X4.2725Y-1.446
X4.2725Y-2.046
X4.2725Y-2.4303
X4.2725Y-3.0303
X4.2725Y-3.4145
X4.2725Y-4.0145
X4.2725Y-4.3988
X4.2725Y-4.9988
T3
X2.796Y-1.57
X2.796Y-1.67
X2.796Y-1.77
X2.796Y-1.87
X2.796Y-1.97
X2.796Y-2.5543
X2.796Y-2.6543
X2.796Y-2.7543
X2.796Y-2.8543
X2.796Y-2.9543
X2.796Y-3.5385
X2.796Y-3.6385
X2.796Y-3.7385
X2.796Y-3.8385
X2.796Y-3.9385
X2.796Y-4.5228
X2.796Y-4.6228
X2.796Y-4.7228
X2.796Y-4.8228
X2.796Y-4.9228
X4.7645Y-1.57
X4.7645Y-1.67
X4.7645Y-1.77
X4.7645Y-1.87
X4.7645Y-1.97
X4.7645Y-2.5543
X4.7645Y-2.6543
X4.7645Y-2.7543
X4.7645Y-2.8543
X4.7645Y-2.9543
X4.7645Y-3.5385
X4.7645Y-3.6385
X4.7645Y-3.7385
X4.7645Y-3.8385
X4.7645Y-3.9385
X4.7645Y-4.5228
X4.7645Y-4.6228
X4.7645Y-4.7228
X4.7645Y-4.8228
X4.7645Y-4.9228
T0
M30
