G04 #@! TF.FileFunction,Copper,L2,Bot,Signal*
%FSLAX46Y46*%
G04 Gerber Fmt 4.6, Leading zero omitted, Abs format (unit mm)*
G04 Created by KiCad (PCBNEW 4.0.7-e2-6376~58~ubuntu16.04.1) date Fri Feb 16 09:21:29 2018*
%MOMM*%
%LPD*%
G01*
G04 APERTURE LIST*
%ADD10C,0.100000*%
%ADD11C,0.150000*%
%ADD12R,1.500000X1.500000*%
%ADD13C,1.500000*%
%ADD14R,2.600000X2.000000*%
%ADD15O,2.600000X2.000000*%
%ADD16C,0.600000*%
%ADD17C,0.609600*%
%ADD18C,0.812800*%
%ADD19C,0.254000*%
G04 APERTURE END LIST*
D10*
D11*
X26695400Y-132054600D02*
X26441400Y-32486600D01*
X125958600Y-131876800D02*
X26695400Y-132054600D01*
X126060200Y-32689800D02*
X125958600Y-131876800D01*
X26441400Y-32486600D02*
X126060200Y-32689800D01*
D12*
X95821600Y-111728400D03*
D13*
X98361600Y-111728400D03*
X100901600Y-111728400D03*
X103441600Y-111728400D03*
X105981600Y-111728400D03*
X108521600Y-111728400D03*
X108521600Y-126968400D03*
X105981600Y-126968400D03*
X103441600Y-126968400D03*
X100901600Y-126968400D03*
X98361600Y-126968400D03*
X95821600Y-126968400D03*
D12*
X45821600Y-111728400D03*
D13*
X48361600Y-111728400D03*
X50901600Y-111728400D03*
X53441600Y-111728400D03*
X55981600Y-111728400D03*
X58521600Y-111728400D03*
X58521600Y-126968400D03*
X55981600Y-126968400D03*
X53441600Y-126968400D03*
X50901600Y-126968400D03*
X48361600Y-126968400D03*
X45821600Y-126968400D03*
D12*
X95821600Y-86728400D03*
D13*
X98361600Y-86728400D03*
X100901600Y-86728400D03*
X103441600Y-86728400D03*
X105981600Y-86728400D03*
X108521600Y-86728400D03*
X108521600Y-101968400D03*
X105981600Y-101968400D03*
X103441600Y-101968400D03*
X100901600Y-101968400D03*
X98361600Y-101968400D03*
X95821600Y-101968400D03*
D12*
X45821600Y-86728400D03*
D13*
X48361600Y-86728400D03*
X50901600Y-86728400D03*
X53441600Y-86728400D03*
X55981600Y-86728400D03*
X58521600Y-86728400D03*
X58521600Y-101968400D03*
X55981600Y-101968400D03*
X53441600Y-101968400D03*
X50901600Y-101968400D03*
X48361600Y-101968400D03*
X45821600Y-101968400D03*
D12*
X95821600Y-61728400D03*
D13*
X98361600Y-61728400D03*
X100901600Y-61728400D03*
X103441600Y-61728400D03*
X105981600Y-61728400D03*
X108521600Y-61728400D03*
X108521600Y-76968400D03*
X105981600Y-76968400D03*
X103441600Y-76968400D03*
X100901600Y-76968400D03*
X98361600Y-76968400D03*
X95821600Y-76968400D03*
D12*
X45821600Y-61728400D03*
D13*
X48361600Y-61728400D03*
X50901600Y-61728400D03*
X53441600Y-61728400D03*
X55981600Y-61728400D03*
X58521600Y-61728400D03*
X58521600Y-76968400D03*
X55981600Y-76968400D03*
X53441600Y-76968400D03*
X50901600Y-76968400D03*
X48361600Y-76968400D03*
X45821600Y-76968400D03*
D12*
X95821600Y-36728400D03*
D13*
X98361600Y-36728400D03*
X100901600Y-36728400D03*
X103441600Y-36728400D03*
X105981600Y-36728400D03*
X108521600Y-36728400D03*
X108521600Y-51968400D03*
X105981600Y-51968400D03*
X103441600Y-51968400D03*
X100901600Y-51968400D03*
X98361600Y-51968400D03*
X95821600Y-51968400D03*
D14*
X121018400Y-125038000D03*
D15*
X121018400Y-122498000D03*
X121018400Y-119958000D03*
X121018400Y-117418000D03*
X121018400Y-114878000D03*
D14*
X71018400Y-125038000D03*
D15*
X71018400Y-122498000D03*
X71018400Y-119958000D03*
X71018400Y-117418000D03*
X71018400Y-114878000D03*
D14*
X121018400Y-100038000D03*
D15*
X121018400Y-97498000D03*
X121018400Y-94958000D03*
X121018400Y-92418000D03*
X121018400Y-89878000D03*
D14*
X71018400Y-100038000D03*
D15*
X71018400Y-97498000D03*
X71018400Y-94958000D03*
X71018400Y-92418000D03*
X71018400Y-89878000D03*
D14*
X121018400Y-75038000D03*
D15*
X121018400Y-72498000D03*
X121018400Y-69958000D03*
X121018400Y-67418000D03*
X121018400Y-64878000D03*
D14*
X71018400Y-75038000D03*
D15*
X71018400Y-72498000D03*
X71018400Y-69958000D03*
X71018400Y-67418000D03*
X71018400Y-64878000D03*
D14*
X121018400Y-50038000D03*
D15*
X121018400Y-47498000D03*
X121018400Y-44958000D03*
X121018400Y-42418000D03*
X121018400Y-39878000D03*
D12*
X45821600Y-36728400D03*
D13*
X48361600Y-36728400D03*
X50901600Y-36728400D03*
X53441600Y-36728400D03*
X55981600Y-36728400D03*
X58521600Y-36728400D03*
X58521600Y-51968400D03*
X55981600Y-51968400D03*
X53441600Y-51968400D03*
X50901600Y-51968400D03*
X48361600Y-51968400D03*
X45821600Y-51968400D03*
D14*
X71018400Y-50038000D03*
D15*
X71018400Y-47498000D03*
X71018400Y-44958000D03*
X71018400Y-42418000D03*
X71018400Y-39878000D03*
D16*
X84466800Y-112339000D03*
X34466800Y-112339000D03*
X84466800Y-87339000D03*
X34466800Y-87339000D03*
X84466800Y-62339000D03*
X34466800Y-62339000D03*
X84466800Y-37339000D03*
X34466800Y-37339000D03*
X93383200Y-126308000D03*
X43383200Y-126308000D03*
X93383200Y-101308000D03*
X43383200Y-101308000D03*
X93383200Y-76308000D03*
X43383200Y-76308000D03*
X93383200Y-51308000D03*
X43383200Y-51308000D03*
X79211000Y-122499000D03*
X29211000Y-122499000D03*
X79211000Y-97499000D03*
X29211000Y-97499000D03*
X79211000Y-72499000D03*
X29211000Y-72499000D03*
X79211000Y-47499000D03*
X79259800Y-116149000D03*
X29259800Y-116149000D03*
X79259800Y-91149000D03*
X29259800Y-91149000D03*
X79259800Y-66149000D03*
X29259800Y-66149000D03*
X79259800Y-41149000D03*
X29259800Y-41149000D03*
X29211000Y-47499000D03*
X103568600Y-115894000D03*
X53568600Y-115894000D03*
X103568600Y-90894000D03*
X53568600Y-90894000D03*
X103568600Y-65894000D03*
X53568600Y-65894000D03*
X103568600Y-40894000D03*
X53568600Y-40894000D03*
D17*
X88963600Y-115690800D02*
X95770800Y-122498000D01*
X38963600Y-115690800D02*
X45770800Y-122498000D01*
X88963600Y-90690800D02*
X95770800Y-97498000D01*
X38963600Y-90690800D02*
X45770800Y-97498000D01*
X88963600Y-65690800D02*
X95770800Y-72498000D01*
X38963600Y-65690800D02*
X45770800Y-72498000D01*
X88963600Y-40690800D02*
X95770800Y-47498000D01*
X87818600Y-115690800D02*
X88963600Y-115690800D01*
X37818600Y-115690800D02*
X38963600Y-115690800D01*
X87818600Y-90690800D02*
X88963600Y-90690800D01*
X37818600Y-90690800D02*
X38963600Y-90690800D01*
X87818600Y-65690800D02*
X88963600Y-65690800D01*
X37818600Y-65690800D02*
X38963600Y-65690800D01*
X87818600Y-40690800D02*
X88963600Y-40690800D01*
X84466800Y-112339000D02*
X87818600Y-115690800D01*
X34466800Y-112339000D02*
X37818600Y-115690800D01*
X84466800Y-87339000D02*
X87818600Y-90690800D01*
X34466800Y-87339000D02*
X37818600Y-90690800D01*
X84466800Y-62339000D02*
X87818600Y-65690800D01*
X34466800Y-62339000D02*
X37818600Y-65690800D01*
X84466800Y-37339000D02*
X87818600Y-40690800D01*
X95770800Y-122498000D02*
X121018400Y-122498000D01*
X45770800Y-122498000D02*
X71018400Y-122498000D01*
X95770800Y-97498000D02*
X121018400Y-97498000D01*
X45770800Y-97498000D02*
X71018400Y-97498000D01*
X95770800Y-72498000D02*
X121018400Y-72498000D01*
X45770800Y-72498000D02*
X71018400Y-72498000D01*
X95770800Y-47498000D02*
X121018400Y-47498000D01*
X45770800Y-47498000D02*
X71018400Y-47498000D01*
X38963600Y-40690800D02*
X45770800Y-47498000D01*
X37818600Y-40690800D02*
X38963600Y-40690800D01*
X34466800Y-37339000D02*
X37818600Y-40690800D01*
X93383200Y-126308000D02*
X93383200Y-126979106D01*
X43383200Y-126308000D02*
X43383200Y-126979106D01*
X93383200Y-101308000D02*
X93383200Y-101979106D01*
X43383200Y-101308000D02*
X43383200Y-101979106D01*
X93383200Y-76308000D02*
X93383200Y-76979106D01*
X43383200Y-76308000D02*
X43383200Y-76979106D01*
X93383200Y-51308000D02*
X93383200Y-51979106D01*
X122928000Y-119958000D02*
X121018400Y-119958000D01*
X72928000Y-119958000D02*
X71018400Y-119958000D01*
X122928000Y-94958000D02*
X121018400Y-94958000D01*
X72928000Y-94958000D02*
X71018400Y-94958000D01*
X122928000Y-69958000D02*
X121018400Y-69958000D01*
X72928000Y-69958000D02*
X71018400Y-69958000D01*
X122928000Y-44958000D02*
X121018400Y-44958000D01*
X124066400Y-125918642D02*
X124066400Y-121096400D01*
X74066400Y-125918642D02*
X74066400Y-121096400D01*
X124066400Y-100918642D02*
X124066400Y-96096400D01*
X74066400Y-100918642D02*
X74066400Y-96096400D01*
X124066400Y-75918642D02*
X124066400Y-71096400D01*
X74066400Y-75918642D02*
X74066400Y-71096400D01*
X124066400Y-50918642D02*
X124066400Y-46096400D01*
X124066400Y-121096400D02*
X122928000Y-119958000D01*
X74066400Y-121096400D02*
X72928000Y-119958000D01*
X124066400Y-96096400D02*
X122928000Y-94958000D01*
X74066400Y-96096400D02*
X72928000Y-94958000D01*
X124066400Y-71096400D02*
X122928000Y-69958000D01*
X74066400Y-71096400D02*
X72928000Y-69958000D01*
X124066400Y-46096400D02*
X122928000Y-44958000D01*
X120578242Y-129406800D02*
X124066400Y-125918642D01*
X70578242Y-129406800D02*
X74066400Y-125918642D01*
X120578242Y-104406800D02*
X124066400Y-100918642D01*
X70578242Y-104406800D02*
X74066400Y-100918642D01*
X120578242Y-79406800D02*
X124066400Y-75918642D01*
X70578242Y-79406800D02*
X74066400Y-75918642D01*
X120578242Y-54406800D02*
X124066400Y-50918642D01*
X95810894Y-129406800D02*
X120578242Y-129406800D01*
X45810894Y-129406800D02*
X70578242Y-129406800D01*
X95810894Y-104406800D02*
X120578242Y-104406800D01*
X45810894Y-104406800D02*
X70578242Y-104406800D01*
X95810894Y-79406800D02*
X120578242Y-79406800D01*
X45810894Y-79406800D02*
X70578242Y-79406800D01*
X95810894Y-54406800D02*
X120578242Y-54406800D01*
X93383200Y-126979106D02*
X95810894Y-129406800D01*
X43383200Y-126979106D02*
X45810894Y-129406800D01*
X93383200Y-101979106D02*
X95810894Y-104406800D01*
X43383200Y-101979106D02*
X45810894Y-104406800D01*
X93383200Y-76979106D02*
X95810894Y-79406800D01*
X43383200Y-76979106D02*
X45810894Y-79406800D01*
X93383200Y-51979106D02*
X95810894Y-54406800D01*
X72928000Y-44958000D02*
X71018400Y-44958000D01*
X74066400Y-50918642D02*
X74066400Y-46096400D01*
X74066400Y-46096400D02*
X72928000Y-44958000D01*
X70578242Y-54406800D02*
X74066400Y-50918642D01*
X43383200Y-51979106D02*
X45810894Y-54406800D01*
X45810894Y-54406800D02*
X70578242Y-54406800D01*
X43383200Y-51308000D02*
X43383200Y-51979106D01*
D18*
X104584600Y-114878000D02*
X103568600Y-115894000D01*
X54584600Y-114878000D02*
X53568600Y-115894000D01*
X104584600Y-89878000D02*
X103568600Y-90894000D01*
X54584600Y-89878000D02*
X53568600Y-90894000D01*
X104584600Y-64878000D02*
X103568600Y-65894000D01*
X54584600Y-64878000D02*
X53568600Y-65894000D01*
X104584600Y-39878000D02*
X103568600Y-40894000D01*
X121018400Y-114878000D02*
X104584600Y-114878000D01*
X71018400Y-114878000D02*
X54584600Y-114878000D01*
X121018400Y-89878000D02*
X104584600Y-89878000D01*
X71018400Y-89878000D02*
X54584600Y-89878000D01*
X121018400Y-64878000D02*
X104584600Y-64878000D01*
X71018400Y-64878000D02*
X54584600Y-64878000D01*
X121018400Y-39878000D02*
X104584600Y-39878000D01*
X71018400Y-39878000D02*
X54584600Y-39878000D01*
X54584600Y-39878000D02*
X53568600Y-40894000D01*
D19*
G36*
X76200404Y-55803473D02*
X27614444Y-55678121D01*
X27688466Y-37339000D01*
X33435000Y-37339000D01*
X33439779Y-37363024D01*
X33439622Y-37542387D01*
X33508720Y-37709618D01*
X33513541Y-37733853D01*
X33527149Y-37754219D01*
X33595644Y-37919989D01*
X33723477Y-38048045D01*
X33737207Y-38068593D01*
X37089007Y-41420393D01*
X37423747Y-41644059D01*
X37818600Y-41722600D01*
X38536214Y-41722600D01*
X45041205Y-48227590D01*
X45041207Y-48227593D01*
X45375947Y-48451259D01*
X45441458Y-48464290D01*
X45770800Y-48529801D01*
X45770805Y-48529800D01*
X69328574Y-48529800D01*
X69180073Y-48678302D01*
X69083400Y-48911691D01*
X69083400Y-49752250D01*
X69242150Y-49911000D01*
X70891400Y-49911000D01*
X70891400Y-49891000D01*
X71145400Y-49891000D01*
X71145400Y-49911000D01*
X72794650Y-49911000D01*
X72953400Y-49752250D01*
X72953400Y-48911691D01*
X72856727Y-48678302D01*
X72706783Y-48528357D01*
X72953651Y-48158894D01*
X73034600Y-47751936D01*
X73034600Y-50491256D01*
X72953400Y-50572456D01*
X72953400Y-50323750D01*
X72794650Y-50165000D01*
X71145400Y-50165000D01*
X71145400Y-51514250D01*
X71304150Y-51673000D01*
X71852856Y-51673000D01*
X70150856Y-53375000D01*
X58985105Y-53375000D01*
X59357160Y-53221270D01*
X59773009Y-52806146D01*
X59998343Y-52263482D01*
X59998856Y-51675895D01*
X59774470Y-51132840D01*
X59359346Y-50716991D01*
X58816682Y-50491657D01*
X58229095Y-50491144D01*
X57686040Y-50715530D01*
X57270191Y-51130654D01*
X57251834Y-51174863D01*
X57234470Y-51132840D01*
X56819346Y-50716991D01*
X56276682Y-50491657D01*
X55689095Y-50491144D01*
X55146040Y-50715530D01*
X54730191Y-51130654D01*
X54711834Y-51174863D01*
X54694470Y-51132840D01*
X54279346Y-50716991D01*
X53736682Y-50491657D01*
X53149095Y-50491144D01*
X52606040Y-50715530D01*
X52190191Y-51130654D01*
X52171834Y-51174863D01*
X52154470Y-51132840D01*
X51739346Y-50716991D01*
X51196682Y-50491657D01*
X50609095Y-50491144D01*
X50066040Y-50715530D01*
X49650191Y-51130654D01*
X49631834Y-51174863D01*
X49614470Y-51132840D01*
X49199346Y-50716991D01*
X48656682Y-50491657D01*
X48069095Y-50491144D01*
X47526040Y-50715530D01*
X47110191Y-51130654D01*
X47091834Y-51174863D01*
X47074470Y-51132840D01*
X46659346Y-50716991D01*
X46116682Y-50491657D01*
X45529095Y-50491144D01*
X44986040Y-50715530D01*
X44570191Y-51130654D01*
X44415000Y-51504395D01*
X44415000Y-51308000D01*
X44410221Y-51283976D01*
X44410378Y-51104613D01*
X44341280Y-50937382D01*
X44336459Y-50913147D01*
X44322851Y-50892781D01*
X44254356Y-50727011D01*
X44126523Y-50598955D01*
X44112793Y-50578407D01*
X44092424Y-50564797D01*
X43965708Y-50437860D01*
X43798602Y-50368471D01*
X43778053Y-50354741D01*
X43754026Y-50349962D01*
X43690901Y-50323750D01*
X69083400Y-50323750D01*
X69083400Y-51164309D01*
X69180073Y-51397698D01*
X69358701Y-51576327D01*
X69592090Y-51673000D01*
X70732650Y-51673000D01*
X70891400Y-51514250D01*
X70891400Y-50165000D01*
X69242150Y-50165000D01*
X69083400Y-50323750D01*
X43690901Y-50323750D01*
X43588379Y-50281179D01*
X43407436Y-50281021D01*
X43383200Y-50276200D01*
X43359176Y-50280979D01*
X43179813Y-50280822D01*
X43012582Y-50349920D01*
X42988347Y-50354741D01*
X42967981Y-50368349D01*
X42802211Y-50436844D01*
X42674155Y-50564677D01*
X42653607Y-50578407D01*
X42639997Y-50598776D01*
X42513060Y-50725492D01*
X42443671Y-50892598D01*
X42429941Y-50913147D01*
X42425162Y-50937174D01*
X42356379Y-51102821D01*
X42356221Y-51283764D01*
X42351400Y-51308000D01*
X42351400Y-51979106D01*
X42429941Y-52373959D01*
X42653607Y-52708699D01*
X45081301Y-55136393D01*
X45416041Y-55360059D01*
X45810894Y-55438600D01*
X70578242Y-55438600D01*
X70973095Y-55360059D01*
X71307835Y-55136393D01*
X74795993Y-51648235D01*
X75019659Y-51313495D01*
X75098200Y-50918642D01*
X75098200Y-46096405D01*
X75098201Y-46096400D01*
X75019659Y-45701548D01*
X75019659Y-45701547D01*
X74795993Y-45366807D01*
X73657593Y-44228407D01*
X73322853Y-44004741D01*
X72928000Y-43926200D01*
X72705819Y-43926200D01*
X72579284Y-43736827D01*
X72506209Y-43688000D01*
X72579284Y-43639173D01*
X72953651Y-43078894D01*
X73085111Y-42418000D01*
X72953651Y-41757106D01*
X72579284Y-41196827D01*
X72506209Y-41148000D01*
X72579284Y-41099173D01*
X72953651Y-40538894D01*
X73085111Y-39878000D01*
X72953651Y-39217106D01*
X72579284Y-38656827D01*
X72019005Y-38282460D01*
X71358111Y-38151000D01*
X70678689Y-38151000D01*
X70017795Y-38282460D01*
X69457516Y-38656827D01*
X69398868Y-38744600D01*
X54584600Y-38744600D01*
X54150866Y-38830875D01*
X53783165Y-39076565D01*
X52767165Y-40092565D01*
X52521475Y-40460266D01*
X52435200Y-40894000D01*
X52521475Y-41327734D01*
X52767165Y-41695435D01*
X53134866Y-41941125D01*
X53568600Y-42027400D01*
X54002334Y-41941125D01*
X54370035Y-41695435D01*
X55054070Y-41011400D01*
X69398868Y-41011400D01*
X69457516Y-41099173D01*
X69530591Y-41148000D01*
X69457516Y-41196827D01*
X69083149Y-41757106D01*
X68951689Y-42418000D01*
X69083149Y-43078894D01*
X69457516Y-43639173D01*
X69530591Y-43688000D01*
X69457516Y-43736827D01*
X69083149Y-44297106D01*
X68951689Y-44958000D01*
X69083149Y-45618894D01*
X69457516Y-46179173D01*
X69530591Y-46228000D01*
X69457516Y-46276827D01*
X69330981Y-46466200D01*
X46198185Y-46466200D01*
X39693193Y-39961207D01*
X39358453Y-39737541D01*
X38963600Y-39659000D01*
X38245986Y-39659000D01*
X35196393Y-36609407D01*
X35176024Y-36595797D01*
X35049308Y-36468860D01*
X34882202Y-36399471D01*
X34861653Y-36385741D01*
X34837626Y-36380962D01*
X34671979Y-36312179D01*
X34491036Y-36312021D01*
X34466800Y-36307200D01*
X34442776Y-36311979D01*
X34263413Y-36311822D01*
X34096182Y-36380920D01*
X34071947Y-36385741D01*
X34051581Y-36399349D01*
X33885811Y-36467844D01*
X33757755Y-36595677D01*
X33737207Y-36609407D01*
X33723597Y-36629776D01*
X33596660Y-36756492D01*
X33527271Y-36923598D01*
X33513541Y-36944147D01*
X33508762Y-36968174D01*
X33439979Y-37133821D01*
X33439821Y-37314764D01*
X33435000Y-37339000D01*
X27688466Y-37339000D01*
X27693957Y-35978400D01*
X44330358Y-35978400D01*
X44330358Y-37478400D01*
X44381051Y-37747810D01*
X44540272Y-37995246D01*
X44783215Y-38161243D01*
X45071600Y-38219642D01*
X46571600Y-38219642D01*
X46841010Y-38168949D01*
X47088446Y-38009728D01*
X47254443Y-37766785D01*
X47264015Y-37719516D01*
X47523854Y-37979809D01*
X48066518Y-38205143D01*
X48654105Y-38205656D01*
X49197160Y-37981270D01*
X49613009Y-37566146D01*
X49631366Y-37521937D01*
X49648730Y-37563960D01*
X50063854Y-37979809D01*
X50606518Y-38205143D01*
X51194105Y-38205656D01*
X51737160Y-37981270D01*
X52153009Y-37566146D01*
X52171366Y-37521937D01*
X52188730Y-37563960D01*
X52603854Y-37979809D01*
X53146518Y-38205143D01*
X53734105Y-38205656D01*
X54277160Y-37981270D01*
X54693009Y-37566146D01*
X54711366Y-37521937D01*
X54728730Y-37563960D01*
X55143854Y-37979809D01*
X55686518Y-38205143D01*
X56274105Y-38205656D01*
X56817160Y-37981270D01*
X57233009Y-37566146D01*
X57251366Y-37521937D01*
X57268730Y-37563960D01*
X57683854Y-37979809D01*
X58226518Y-38205143D01*
X58814105Y-38205656D01*
X59357160Y-37981270D01*
X59773009Y-37566146D01*
X59998343Y-37023482D01*
X59998856Y-36435895D01*
X59774470Y-35892840D01*
X59359346Y-35476991D01*
X58816682Y-35251657D01*
X58229095Y-35251144D01*
X57686040Y-35475530D01*
X57270191Y-35890654D01*
X57251834Y-35934863D01*
X57234470Y-35892840D01*
X56819346Y-35476991D01*
X56276682Y-35251657D01*
X55689095Y-35251144D01*
X55146040Y-35475530D01*
X54730191Y-35890654D01*
X54711834Y-35934863D01*
X54694470Y-35892840D01*
X54279346Y-35476991D01*
X53736682Y-35251657D01*
X53149095Y-35251144D01*
X52606040Y-35475530D01*
X52190191Y-35890654D01*
X52171834Y-35934863D01*
X52154470Y-35892840D01*
X51739346Y-35476991D01*
X51196682Y-35251657D01*
X50609095Y-35251144D01*
X50066040Y-35475530D01*
X49650191Y-35890654D01*
X49631834Y-35934863D01*
X49614470Y-35892840D01*
X49199346Y-35476991D01*
X48656682Y-35251657D01*
X48069095Y-35251144D01*
X47526040Y-35475530D01*
X47266897Y-35734222D01*
X47262149Y-35708990D01*
X47102928Y-35461554D01*
X46859985Y-35295557D01*
X46571600Y-35237158D01*
X45071600Y-35237158D01*
X44802190Y-35287851D01*
X44554754Y-35447072D01*
X44388757Y-35690015D01*
X44330358Y-35978400D01*
X27693957Y-35978400D01*
X27707141Y-32712345D01*
X76274149Y-32598498D01*
X76200404Y-55803473D01*
X76200404Y-55803473D01*
G37*
X76200404Y-55803473D02*
X27614444Y-55678121D01*
X27688466Y-37339000D01*
X33435000Y-37339000D01*
X33439779Y-37363024D01*
X33439622Y-37542387D01*
X33508720Y-37709618D01*
X33513541Y-37733853D01*
X33527149Y-37754219D01*
X33595644Y-37919989D01*
X33723477Y-38048045D01*
X33737207Y-38068593D01*
X37089007Y-41420393D01*
X37423747Y-41644059D01*
X37818600Y-41722600D01*
X38536214Y-41722600D01*
X45041205Y-48227590D01*
X45041207Y-48227593D01*
X45375947Y-48451259D01*
X45441458Y-48464290D01*
X45770800Y-48529801D01*
X45770805Y-48529800D01*
X69328574Y-48529800D01*
X69180073Y-48678302D01*
X69083400Y-48911691D01*
X69083400Y-49752250D01*
X69242150Y-49911000D01*
X70891400Y-49911000D01*
X70891400Y-49891000D01*
X71145400Y-49891000D01*
X71145400Y-49911000D01*
X72794650Y-49911000D01*
X72953400Y-49752250D01*
X72953400Y-48911691D01*
X72856727Y-48678302D01*
X72706783Y-48528357D01*
X72953651Y-48158894D01*
X73034600Y-47751936D01*
X73034600Y-50491256D01*
X72953400Y-50572456D01*
X72953400Y-50323750D01*
X72794650Y-50165000D01*
X71145400Y-50165000D01*
X71145400Y-51514250D01*
X71304150Y-51673000D01*
X71852856Y-51673000D01*
X70150856Y-53375000D01*
X58985105Y-53375000D01*
X59357160Y-53221270D01*
X59773009Y-52806146D01*
X59998343Y-52263482D01*
X59998856Y-51675895D01*
X59774470Y-51132840D01*
X59359346Y-50716991D01*
X58816682Y-50491657D01*
X58229095Y-50491144D01*
X57686040Y-50715530D01*
X57270191Y-51130654D01*
X57251834Y-51174863D01*
X57234470Y-51132840D01*
X56819346Y-50716991D01*
X56276682Y-50491657D01*
X55689095Y-50491144D01*
X55146040Y-50715530D01*
X54730191Y-51130654D01*
X54711834Y-51174863D01*
X54694470Y-51132840D01*
X54279346Y-50716991D01*
X53736682Y-50491657D01*
X53149095Y-50491144D01*
X52606040Y-50715530D01*
X52190191Y-51130654D01*
X52171834Y-51174863D01*
X52154470Y-51132840D01*
X51739346Y-50716991D01*
X51196682Y-50491657D01*
X50609095Y-50491144D01*
X50066040Y-50715530D01*
X49650191Y-51130654D01*
X49631834Y-51174863D01*
X49614470Y-51132840D01*
X49199346Y-50716991D01*
X48656682Y-50491657D01*
X48069095Y-50491144D01*
X47526040Y-50715530D01*
X47110191Y-51130654D01*
X47091834Y-51174863D01*
X47074470Y-51132840D01*
X46659346Y-50716991D01*
X46116682Y-50491657D01*
X45529095Y-50491144D01*
X44986040Y-50715530D01*
X44570191Y-51130654D01*
X44415000Y-51504395D01*
X44415000Y-51308000D01*
X44410221Y-51283976D01*
X44410378Y-51104613D01*
X44341280Y-50937382D01*
X44336459Y-50913147D01*
X44322851Y-50892781D01*
X44254356Y-50727011D01*
X44126523Y-50598955D01*
X44112793Y-50578407D01*
X44092424Y-50564797D01*
X43965708Y-50437860D01*
X43798602Y-50368471D01*
X43778053Y-50354741D01*
X43754026Y-50349962D01*
X43690901Y-50323750D01*
X69083400Y-50323750D01*
X69083400Y-51164309D01*
X69180073Y-51397698D01*
X69358701Y-51576327D01*
X69592090Y-51673000D01*
X70732650Y-51673000D01*
X70891400Y-51514250D01*
X70891400Y-50165000D01*
X69242150Y-50165000D01*
X69083400Y-50323750D01*
X43690901Y-50323750D01*
X43588379Y-50281179D01*
X43407436Y-50281021D01*
X43383200Y-50276200D01*
X43359176Y-50280979D01*
X43179813Y-50280822D01*
X43012582Y-50349920D01*
X42988347Y-50354741D01*
X42967981Y-50368349D01*
X42802211Y-50436844D01*
X42674155Y-50564677D01*
X42653607Y-50578407D01*
X42639997Y-50598776D01*
X42513060Y-50725492D01*
X42443671Y-50892598D01*
X42429941Y-50913147D01*
X42425162Y-50937174D01*
X42356379Y-51102821D01*
X42356221Y-51283764D01*
X42351400Y-51308000D01*
X42351400Y-51979106D01*
X42429941Y-52373959D01*
X42653607Y-52708699D01*
X45081301Y-55136393D01*
X45416041Y-55360059D01*
X45810894Y-55438600D01*
X70578242Y-55438600D01*
X70973095Y-55360059D01*
X71307835Y-55136393D01*
X74795993Y-51648235D01*
X75019659Y-51313495D01*
X75098200Y-50918642D01*
X75098200Y-46096405D01*
X75098201Y-46096400D01*
X75019659Y-45701548D01*
X75019659Y-45701547D01*
X74795993Y-45366807D01*
X73657593Y-44228407D01*
X73322853Y-44004741D01*
X72928000Y-43926200D01*
X72705819Y-43926200D01*
X72579284Y-43736827D01*
X72506209Y-43688000D01*
X72579284Y-43639173D01*
X72953651Y-43078894D01*
X73085111Y-42418000D01*
X72953651Y-41757106D01*
X72579284Y-41196827D01*
X72506209Y-41148000D01*
X72579284Y-41099173D01*
X72953651Y-40538894D01*
X73085111Y-39878000D01*
X72953651Y-39217106D01*
X72579284Y-38656827D01*
X72019005Y-38282460D01*
X71358111Y-38151000D01*
X70678689Y-38151000D01*
X70017795Y-38282460D01*
X69457516Y-38656827D01*
X69398868Y-38744600D01*
X54584600Y-38744600D01*
X54150866Y-38830875D01*
X53783165Y-39076565D01*
X52767165Y-40092565D01*
X52521475Y-40460266D01*
X52435200Y-40894000D01*
X52521475Y-41327734D01*
X52767165Y-41695435D01*
X53134866Y-41941125D01*
X53568600Y-42027400D01*
X54002334Y-41941125D01*
X54370035Y-41695435D01*
X55054070Y-41011400D01*
X69398868Y-41011400D01*
X69457516Y-41099173D01*
X69530591Y-41148000D01*
X69457516Y-41196827D01*
X69083149Y-41757106D01*
X68951689Y-42418000D01*
X69083149Y-43078894D01*
X69457516Y-43639173D01*
X69530591Y-43688000D01*
X69457516Y-43736827D01*
X69083149Y-44297106D01*
X68951689Y-44958000D01*
X69083149Y-45618894D01*
X69457516Y-46179173D01*
X69530591Y-46228000D01*
X69457516Y-46276827D01*
X69330981Y-46466200D01*
X46198185Y-46466200D01*
X39693193Y-39961207D01*
X39358453Y-39737541D01*
X38963600Y-39659000D01*
X38245986Y-39659000D01*
X35196393Y-36609407D01*
X35176024Y-36595797D01*
X35049308Y-36468860D01*
X34882202Y-36399471D01*
X34861653Y-36385741D01*
X34837626Y-36380962D01*
X34671979Y-36312179D01*
X34491036Y-36312021D01*
X34466800Y-36307200D01*
X34442776Y-36311979D01*
X34263413Y-36311822D01*
X34096182Y-36380920D01*
X34071947Y-36385741D01*
X34051581Y-36399349D01*
X33885811Y-36467844D01*
X33757755Y-36595677D01*
X33737207Y-36609407D01*
X33723597Y-36629776D01*
X33596660Y-36756492D01*
X33527271Y-36923598D01*
X33513541Y-36944147D01*
X33508762Y-36968174D01*
X33439979Y-37133821D01*
X33439821Y-37314764D01*
X33435000Y-37339000D01*
X27688466Y-37339000D01*
X27693957Y-35978400D01*
X44330358Y-35978400D01*
X44330358Y-37478400D01*
X44381051Y-37747810D01*
X44540272Y-37995246D01*
X44783215Y-38161243D01*
X45071600Y-38219642D01*
X46571600Y-38219642D01*
X46841010Y-38168949D01*
X47088446Y-38009728D01*
X47254443Y-37766785D01*
X47264015Y-37719516D01*
X47523854Y-37979809D01*
X48066518Y-38205143D01*
X48654105Y-38205656D01*
X49197160Y-37981270D01*
X49613009Y-37566146D01*
X49631366Y-37521937D01*
X49648730Y-37563960D01*
X50063854Y-37979809D01*
X50606518Y-38205143D01*
X51194105Y-38205656D01*
X51737160Y-37981270D01*
X52153009Y-37566146D01*
X52171366Y-37521937D01*
X52188730Y-37563960D01*
X52603854Y-37979809D01*
X53146518Y-38205143D01*
X53734105Y-38205656D01*
X54277160Y-37981270D01*
X54693009Y-37566146D01*
X54711366Y-37521937D01*
X54728730Y-37563960D01*
X55143854Y-37979809D01*
X55686518Y-38205143D01*
X56274105Y-38205656D01*
X56817160Y-37981270D01*
X57233009Y-37566146D01*
X57251366Y-37521937D01*
X57268730Y-37563960D01*
X57683854Y-37979809D01*
X58226518Y-38205143D01*
X58814105Y-38205656D01*
X59357160Y-37981270D01*
X59773009Y-37566146D01*
X59998343Y-37023482D01*
X59998856Y-36435895D01*
X59774470Y-35892840D01*
X59359346Y-35476991D01*
X58816682Y-35251657D01*
X58229095Y-35251144D01*
X57686040Y-35475530D01*
X57270191Y-35890654D01*
X57251834Y-35934863D01*
X57234470Y-35892840D01*
X56819346Y-35476991D01*
X56276682Y-35251657D01*
X55689095Y-35251144D01*
X55146040Y-35475530D01*
X54730191Y-35890654D01*
X54711834Y-35934863D01*
X54694470Y-35892840D01*
X54279346Y-35476991D01*
X53736682Y-35251657D01*
X53149095Y-35251144D01*
X52606040Y-35475530D01*
X52190191Y-35890654D01*
X52171834Y-35934863D01*
X52154470Y-35892840D01*
X51739346Y-35476991D01*
X51196682Y-35251657D01*
X50609095Y-35251144D01*
X50066040Y-35475530D01*
X49650191Y-35890654D01*
X49631834Y-35934863D01*
X49614470Y-35892840D01*
X49199346Y-35476991D01*
X48656682Y-35251657D01*
X48069095Y-35251144D01*
X47526040Y-35475530D01*
X47266897Y-35734222D01*
X47262149Y-35708990D01*
X47102928Y-35461554D01*
X46859985Y-35295557D01*
X46571600Y-35237158D01*
X45071600Y-35237158D01*
X44802190Y-35287851D01*
X44554754Y-35447072D01*
X44388757Y-35690015D01*
X44330358Y-35978400D01*
X27693957Y-35978400D01*
X27707141Y-32712345D01*
X76274149Y-32598498D01*
X76200404Y-55803473D01*
G36*
X126200404Y-55803473D02*
X77614444Y-55678121D01*
X77688466Y-37339000D01*
X83435000Y-37339000D01*
X83439779Y-37363024D01*
X83439622Y-37542387D01*
X83508720Y-37709618D01*
X83513541Y-37733853D01*
X83527149Y-37754219D01*
X83595644Y-37919989D01*
X83723477Y-38048045D01*
X83737207Y-38068593D01*
X87089007Y-41420393D01*
X87423747Y-41644059D01*
X87818600Y-41722600D01*
X88536214Y-41722600D01*
X95041205Y-48227590D01*
X95041207Y-48227593D01*
X95375947Y-48451259D01*
X95441458Y-48464290D01*
X95770800Y-48529801D01*
X95770805Y-48529800D01*
X119328574Y-48529800D01*
X119180073Y-48678302D01*
X119083400Y-48911691D01*
X119083400Y-49752250D01*
X119242150Y-49911000D01*
X120891400Y-49911000D01*
X120891400Y-49891000D01*
X121145400Y-49891000D01*
X121145400Y-49911000D01*
X122794650Y-49911000D01*
X122953400Y-49752250D01*
X122953400Y-48911691D01*
X122856727Y-48678302D01*
X122706783Y-48528357D01*
X122953651Y-48158894D01*
X123034600Y-47751936D01*
X123034600Y-50491256D01*
X122953400Y-50572456D01*
X122953400Y-50323750D01*
X122794650Y-50165000D01*
X121145400Y-50165000D01*
X121145400Y-51514250D01*
X121304150Y-51673000D01*
X121852856Y-51673000D01*
X120150856Y-53375000D01*
X108985105Y-53375000D01*
X109357160Y-53221270D01*
X109773009Y-52806146D01*
X109998343Y-52263482D01*
X109998856Y-51675895D01*
X109774470Y-51132840D01*
X109359346Y-50716991D01*
X108816682Y-50491657D01*
X108229095Y-50491144D01*
X107686040Y-50715530D01*
X107270191Y-51130654D01*
X107251834Y-51174863D01*
X107234470Y-51132840D01*
X106819346Y-50716991D01*
X106276682Y-50491657D01*
X105689095Y-50491144D01*
X105146040Y-50715530D01*
X104730191Y-51130654D01*
X104711834Y-51174863D01*
X104694470Y-51132840D01*
X104279346Y-50716991D01*
X103736682Y-50491657D01*
X103149095Y-50491144D01*
X102606040Y-50715530D01*
X102190191Y-51130654D01*
X102171834Y-51174863D01*
X102154470Y-51132840D01*
X101739346Y-50716991D01*
X101196682Y-50491657D01*
X100609095Y-50491144D01*
X100066040Y-50715530D01*
X99650191Y-51130654D01*
X99631834Y-51174863D01*
X99614470Y-51132840D01*
X99199346Y-50716991D01*
X98656682Y-50491657D01*
X98069095Y-50491144D01*
X97526040Y-50715530D01*
X97110191Y-51130654D01*
X97091834Y-51174863D01*
X97074470Y-51132840D01*
X96659346Y-50716991D01*
X96116682Y-50491657D01*
X95529095Y-50491144D01*
X94986040Y-50715530D01*
X94570191Y-51130654D01*
X94415000Y-51504395D01*
X94415000Y-51308000D01*
X94410221Y-51283976D01*
X94410378Y-51104613D01*
X94341280Y-50937382D01*
X94336459Y-50913147D01*
X94322851Y-50892781D01*
X94254356Y-50727011D01*
X94126523Y-50598955D01*
X94112793Y-50578407D01*
X94092424Y-50564797D01*
X93965708Y-50437860D01*
X93798602Y-50368471D01*
X93778053Y-50354741D01*
X93754026Y-50349962D01*
X93690901Y-50323750D01*
X119083400Y-50323750D01*
X119083400Y-51164309D01*
X119180073Y-51397698D01*
X119358701Y-51576327D01*
X119592090Y-51673000D01*
X120732650Y-51673000D01*
X120891400Y-51514250D01*
X120891400Y-50165000D01*
X119242150Y-50165000D01*
X119083400Y-50323750D01*
X93690901Y-50323750D01*
X93588379Y-50281179D01*
X93407436Y-50281021D01*
X93383200Y-50276200D01*
X93359176Y-50280979D01*
X93179813Y-50280822D01*
X93012582Y-50349920D01*
X92988347Y-50354741D01*
X92967981Y-50368349D01*
X92802211Y-50436844D01*
X92674155Y-50564677D01*
X92653607Y-50578407D01*
X92639997Y-50598776D01*
X92513060Y-50725492D01*
X92443671Y-50892598D01*
X92429941Y-50913147D01*
X92425162Y-50937174D01*
X92356379Y-51102821D01*
X92356221Y-51283764D01*
X92351400Y-51308000D01*
X92351400Y-51979106D01*
X92429941Y-52373959D01*
X92653607Y-52708699D01*
X95081301Y-55136393D01*
X95416041Y-55360059D01*
X95810894Y-55438600D01*
X120578242Y-55438600D01*
X120973095Y-55360059D01*
X121307835Y-55136393D01*
X124795993Y-51648235D01*
X125019659Y-51313495D01*
X125098200Y-50918642D01*
X125098200Y-46096405D01*
X125098201Y-46096400D01*
X125019659Y-45701548D01*
X125019659Y-45701547D01*
X124795993Y-45366807D01*
X123657593Y-44228407D01*
X123322853Y-44004741D01*
X122928000Y-43926200D01*
X122705819Y-43926200D01*
X122579284Y-43736827D01*
X122506209Y-43688000D01*
X122579284Y-43639173D01*
X122953651Y-43078894D01*
X123085111Y-42418000D01*
X122953651Y-41757106D01*
X122579284Y-41196827D01*
X122506209Y-41148000D01*
X122579284Y-41099173D01*
X122953651Y-40538894D01*
X123085111Y-39878000D01*
X122953651Y-39217106D01*
X122579284Y-38656827D01*
X122019005Y-38282460D01*
X121358111Y-38151000D01*
X120678689Y-38151000D01*
X120017795Y-38282460D01*
X119457516Y-38656827D01*
X119398868Y-38744600D01*
X104584600Y-38744600D01*
X104150866Y-38830875D01*
X103783165Y-39076565D01*
X102767165Y-40092565D01*
X102521475Y-40460266D01*
X102435200Y-40894000D01*
X102521475Y-41327734D01*
X102767165Y-41695435D01*
X103134866Y-41941125D01*
X103568600Y-42027400D01*
X104002334Y-41941125D01*
X104370035Y-41695435D01*
X105054070Y-41011400D01*
X119398868Y-41011400D01*
X119457516Y-41099173D01*
X119530591Y-41148000D01*
X119457516Y-41196827D01*
X119083149Y-41757106D01*
X118951689Y-42418000D01*
X119083149Y-43078894D01*
X119457516Y-43639173D01*
X119530591Y-43688000D01*
X119457516Y-43736827D01*
X119083149Y-44297106D01*
X118951689Y-44958000D01*
X119083149Y-45618894D01*
X119457516Y-46179173D01*
X119530591Y-46228000D01*
X119457516Y-46276827D01*
X119330981Y-46466200D01*
X96198185Y-46466200D01*
X89693193Y-39961207D01*
X89358453Y-39737541D01*
X88963600Y-39659000D01*
X88245986Y-39659000D01*
X85196393Y-36609407D01*
X85176024Y-36595797D01*
X85049308Y-36468860D01*
X84882202Y-36399471D01*
X84861653Y-36385741D01*
X84837626Y-36380962D01*
X84671979Y-36312179D01*
X84491036Y-36312021D01*
X84466800Y-36307200D01*
X84442776Y-36311979D01*
X84263413Y-36311822D01*
X84096182Y-36380920D01*
X84071947Y-36385741D01*
X84051581Y-36399349D01*
X83885811Y-36467844D01*
X83757755Y-36595677D01*
X83737207Y-36609407D01*
X83723597Y-36629776D01*
X83596660Y-36756492D01*
X83527271Y-36923598D01*
X83513541Y-36944147D01*
X83508762Y-36968174D01*
X83439979Y-37133821D01*
X83439821Y-37314764D01*
X83435000Y-37339000D01*
X77688466Y-37339000D01*
X77693957Y-35978400D01*
X94330358Y-35978400D01*
X94330358Y-37478400D01*
X94381051Y-37747810D01*
X94540272Y-37995246D01*
X94783215Y-38161243D01*
X95071600Y-38219642D01*
X96571600Y-38219642D01*
X96841010Y-38168949D01*
X97088446Y-38009728D01*
X97254443Y-37766785D01*
X97264015Y-37719516D01*
X97523854Y-37979809D01*
X98066518Y-38205143D01*
X98654105Y-38205656D01*
X99197160Y-37981270D01*
X99613009Y-37566146D01*
X99631366Y-37521937D01*
X99648730Y-37563960D01*
X100063854Y-37979809D01*
X100606518Y-38205143D01*
X101194105Y-38205656D01*
X101737160Y-37981270D01*
X102153009Y-37566146D01*
X102171366Y-37521937D01*
X102188730Y-37563960D01*
X102603854Y-37979809D01*
X103146518Y-38205143D01*
X103734105Y-38205656D01*
X104277160Y-37981270D01*
X104693009Y-37566146D01*
X104711366Y-37521937D01*
X104728730Y-37563960D01*
X105143854Y-37979809D01*
X105686518Y-38205143D01*
X106274105Y-38205656D01*
X106817160Y-37981270D01*
X107233009Y-37566146D01*
X107251366Y-37521937D01*
X107268730Y-37563960D01*
X107683854Y-37979809D01*
X108226518Y-38205143D01*
X108814105Y-38205656D01*
X109357160Y-37981270D01*
X109773009Y-37566146D01*
X109998343Y-37023482D01*
X109998856Y-36435895D01*
X109774470Y-35892840D01*
X109359346Y-35476991D01*
X108816682Y-35251657D01*
X108229095Y-35251144D01*
X107686040Y-35475530D01*
X107270191Y-35890654D01*
X107251834Y-35934863D01*
X107234470Y-35892840D01*
X106819346Y-35476991D01*
X106276682Y-35251657D01*
X105689095Y-35251144D01*
X105146040Y-35475530D01*
X104730191Y-35890654D01*
X104711834Y-35934863D01*
X104694470Y-35892840D01*
X104279346Y-35476991D01*
X103736682Y-35251657D01*
X103149095Y-35251144D01*
X102606040Y-35475530D01*
X102190191Y-35890654D01*
X102171834Y-35934863D01*
X102154470Y-35892840D01*
X101739346Y-35476991D01*
X101196682Y-35251657D01*
X100609095Y-35251144D01*
X100066040Y-35475530D01*
X99650191Y-35890654D01*
X99631834Y-35934863D01*
X99614470Y-35892840D01*
X99199346Y-35476991D01*
X98656682Y-35251657D01*
X98069095Y-35251144D01*
X97526040Y-35475530D01*
X97266897Y-35734222D01*
X97262149Y-35708990D01*
X97102928Y-35461554D01*
X96859985Y-35295557D01*
X96571600Y-35237158D01*
X95071600Y-35237158D01*
X94802190Y-35287851D01*
X94554754Y-35447072D01*
X94388757Y-35690015D01*
X94330358Y-35978400D01*
X77693957Y-35978400D01*
X77707141Y-32712345D01*
X126274149Y-32598498D01*
X126200404Y-55803473D01*
X126200404Y-55803473D01*
G37*
X126200404Y-55803473D02*
X77614444Y-55678121D01*
X77688466Y-37339000D01*
X83435000Y-37339000D01*
X83439779Y-37363024D01*
X83439622Y-37542387D01*
X83508720Y-37709618D01*
X83513541Y-37733853D01*
X83527149Y-37754219D01*
X83595644Y-37919989D01*
X83723477Y-38048045D01*
X83737207Y-38068593D01*
X87089007Y-41420393D01*
X87423747Y-41644059D01*
X87818600Y-41722600D01*
X88536214Y-41722600D01*
X95041205Y-48227590D01*
X95041207Y-48227593D01*
X95375947Y-48451259D01*
X95441458Y-48464290D01*
X95770800Y-48529801D01*
X95770805Y-48529800D01*
X119328574Y-48529800D01*
X119180073Y-48678302D01*
X119083400Y-48911691D01*
X119083400Y-49752250D01*
X119242150Y-49911000D01*
X120891400Y-49911000D01*
X120891400Y-49891000D01*
X121145400Y-49891000D01*
X121145400Y-49911000D01*
X122794650Y-49911000D01*
X122953400Y-49752250D01*
X122953400Y-48911691D01*
X122856727Y-48678302D01*
X122706783Y-48528357D01*
X122953651Y-48158894D01*
X123034600Y-47751936D01*
X123034600Y-50491256D01*
X122953400Y-50572456D01*
X122953400Y-50323750D01*
X122794650Y-50165000D01*
X121145400Y-50165000D01*
X121145400Y-51514250D01*
X121304150Y-51673000D01*
X121852856Y-51673000D01*
X120150856Y-53375000D01*
X108985105Y-53375000D01*
X109357160Y-53221270D01*
X109773009Y-52806146D01*
X109998343Y-52263482D01*
X109998856Y-51675895D01*
X109774470Y-51132840D01*
X109359346Y-50716991D01*
X108816682Y-50491657D01*
X108229095Y-50491144D01*
X107686040Y-50715530D01*
X107270191Y-51130654D01*
X107251834Y-51174863D01*
X107234470Y-51132840D01*
X106819346Y-50716991D01*
X106276682Y-50491657D01*
X105689095Y-50491144D01*
X105146040Y-50715530D01*
X104730191Y-51130654D01*
X104711834Y-51174863D01*
X104694470Y-51132840D01*
X104279346Y-50716991D01*
X103736682Y-50491657D01*
X103149095Y-50491144D01*
X102606040Y-50715530D01*
X102190191Y-51130654D01*
X102171834Y-51174863D01*
X102154470Y-51132840D01*
X101739346Y-50716991D01*
X101196682Y-50491657D01*
X100609095Y-50491144D01*
X100066040Y-50715530D01*
X99650191Y-51130654D01*
X99631834Y-51174863D01*
X99614470Y-51132840D01*
X99199346Y-50716991D01*
X98656682Y-50491657D01*
X98069095Y-50491144D01*
X97526040Y-50715530D01*
X97110191Y-51130654D01*
X97091834Y-51174863D01*
X97074470Y-51132840D01*
X96659346Y-50716991D01*
X96116682Y-50491657D01*
X95529095Y-50491144D01*
X94986040Y-50715530D01*
X94570191Y-51130654D01*
X94415000Y-51504395D01*
X94415000Y-51308000D01*
X94410221Y-51283976D01*
X94410378Y-51104613D01*
X94341280Y-50937382D01*
X94336459Y-50913147D01*
X94322851Y-50892781D01*
X94254356Y-50727011D01*
X94126523Y-50598955D01*
X94112793Y-50578407D01*
X94092424Y-50564797D01*
X93965708Y-50437860D01*
X93798602Y-50368471D01*
X93778053Y-50354741D01*
X93754026Y-50349962D01*
X93690901Y-50323750D01*
X119083400Y-50323750D01*
X119083400Y-51164309D01*
X119180073Y-51397698D01*
X119358701Y-51576327D01*
X119592090Y-51673000D01*
X120732650Y-51673000D01*
X120891400Y-51514250D01*
X120891400Y-50165000D01*
X119242150Y-50165000D01*
X119083400Y-50323750D01*
X93690901Y-50323750D01*
X93588379Y-50281179D01*
X93407436Y-50281021D01*
X93383200Y-50276200D01*
X93359176Y-50280979D01*
X93179813Y-50280822D01*
X93012582Y-50349920D01*
X92988347Y-50354741D01*
X92967981Y-50368349D01*
X92802211Y-50436844D01*
X92674155Y-50564677D01*
X92653607Y-50578407D01*
X92639997Y-50598776D01*
X92513060Y-50725492D01*
X92443671Y-50892598D01*
X92429941Y-50913147D01*
X92425162Y-50937174D01*
X92356379Y-51102821D01*
X92356221Y-51283764D01*
X92351400Y-51308000D01*
X92351400Y-51979106D01*
X92429941Y-52373959D01*
X92653607Y-52708699D01*
X95081301Y-55136393D01*
X95416041Y-55360059D01*
X95810894Y-55438600D01*
X120578242Y-55438600D01*
X120973095Y-55360059D01*
X121307835Y-55136393D01*
X124795993Y-51648235D01*
X125019659Y-51313495D01*
X125098200Y-50918642D01*
X125098200Y-46096405D01*
X125098201Y-46096400D01*
X125019659Y-45701548D01*
X125019659Y-45701547D01*
X124795993Y-45366807D01*
X123657593Y-44228407D01*
X123322853Y-44004741D01*
X122928000Y-43926200D01*
X122705819Y-43926200D01*
X122579284Y-43736827D01*
X122506209Y-43688000D01*
X122579284Y-43639173D01*
X122953651Y-43078894D01*
X123085111Y-42418000D01*
X122953651Y-41757106D01*
X122579284Y-41196827D01*
X122506209Y-41148000D01*
X122579284Y-41099173D01*
X122953651Y-40538894D01*
X123085111Y-39878000D01*
X122953651Y-39217106D01*
X122579284Y-38656827D01*
X122019005Y-38282460D01*
X121358111Y-38151000D01*
X120678689Y-38151000D01*
X120017795Y-38282460D01*
X119457516Y-38656827D01*
X119398868Y-38744600D01*
X104584600Y-38744600D01*
X104150866Y-38830875D01*
X103783165Y-39076565D01*
X102767165Y-40092565D01*
X102521475Y-40460266D01*
X102435200Y-40894000D01*
X102521475Y-41327734D01*
X102767165Y-41695435D01*
X103134866Y-41941125D01*
X103568600Y-42027400D01*
X104002334Y-41941125D01*
X104370035Y-41695435D01*
X105054070Y-41011400D01*
X119398868Y-41011400D01*
X119457516Y-41099173D01*
X119530591Y-41148000D01*
X119457516Y-41196827D01*
X119083149Y-41757106D01*
X118951689Y-42418000D01*
X119083149Y-43078894D01*
X119457516Y-43639173D01*
X119530591Y-43688000D01*
X119457516Y-43736827D01*
X119083149Y-44297106D01*
X118951689Y-44958000D01*
X119083149Y-45618894D01*
X119457516Y-46179173D01*
X119530591Y-46228000D01*
X119457516Y-46276827D01*
X119330981Y-46466200D01*
X96198185Y-46466200D01*
X89693193Y-39961207D01*
X89358453Y-39737541D01*
X88963600Y-39659000D01*
X88245986Y-39659000D01*
X85196393Y-36609407D01*
X85176024Y-36595797D01*
X85049308Y-36468860D01*
X84882202Y-36399471D01*
X84861653Y-36385741D01*
X84837626Y-36380962D01*
X84671979Y-36312179D01*
X84491036Y-36312021D01*
X84466800Y-36307200D01*
X84442776Y-36311979D01*
X84263413Y-36311822D01*
X84096182Y-36380920D01*
X84071947Y-36385741D01*
X84051581Y-36399349D01*
X83885811Y-36467844D01*
X83757755Y-36595677D01*
X83737207Y-36609407D01*
X83723597Y-36629776D01*
X83596660Y-36756492D01*
X83527271Y-36923598D01*
X83513541Y-36944147D01*
X83508762Y-36968174D01*
X83439979Y-37133821D01*
X83439821Y-37314764D01*
X83435000Y-37339000D01*
X77688466Y-37339000D01*
X77693957Y-35978400D01*
X94330358Y-35978400D01*
X94330358Y-37478400D01*
X94381051Y-37747810D01*
X94540272Y-37995246D01*
X94783215Y-38161243D01*
X95071600Y-38219642D01*
X96571600Y-38219642D01*
X96841010Y-38168949D01*
X97088446Y-38009728D01*
X97254443Y-37766785D01*
X97264015Y-37719516D01*
X97523854Y-37979809D01*
X98066518Y-38205143D01*
X98654105Y-38205656D01*
X99197160Y-37981270D01*
X99613009Y-37566146D01*
X99631366Y-37521937D01*
X99648730Y-37563960D01*
X100063854Y-37979809D01*
X100606518Y-38205143D01*
X101194105Y-38205656D01*
X101737160Y-37981270D01*
X102153009Y-37566146D01*
X102171366Y-37521937D01*
X102188730Y-37563960D01*
X102603854Y-37979809D01*
X103146518Y-38205143D01*
X103734105Y-38205656D01*
X104277160Y-37981270D01*
X104693009Y-37566146D01*
X104711366Y-37521937D01*
X104728730Y-37563960D01*
X105143854Y-37979809D01*
X105686518Y-38205143D01*
X106274105Y-38205656D01*
X106817160Y-37981270D01*
X107233009Y-37566146D01*
X107251366Y-37521937D01*
X107268730Y-37563960D01*
X107683854Y-37979809D01*
X108226518Y-38205143D01*
X108814105Y-38205656D01*
X109357160Y-37981270D01*
X109773009Y-37566146D01*
X109998343Y-37023482D01*
X109998856Y-36435895D01*
X109774470Y-35892840D01*
X109359346Y-35476991D01*
X108816682Y-35251657D01*
X108229095Y-35251144D01*
X107686040Y-35475530D01*
X107270191Y-35890654D01*
X107251834Y-35934863D01*
X107234470Y-35892840D01*
X106819346Y-35476991D01*
X106276682Y-35251657D01*
X105689095Y-35251144D01*
X105146040Y-35475530D01*
X104730191Y-35890654D01*
X104711834Y-35934863D01*
X104694470Y-35892840D01*
X104279346Y-35476991D01*
X103736682Y-35251657D01*
X103149095Y-35251144D01*
X102606040Y-35475530D01*
X102190191Y-35890654D01*
X102171834Y-35934863D01*
X102154470Y-35892840D01*
X101739346Y-35476991D01*
X101196682Y-35251657D01*
X100609095Y-35251144D01*
X100066040Y-35475530D01*
X99650191Y-35890654D01*
X99631834Y-35934863D01*
X99614470Y-35892840D01*
X99199346Y-35476991D01*
X98656682Y-35251657D01*
X98069095Y-35251144D01*
X97526040Y-35475530D01*
X97266897Y-35734222D01*
X97262149Y-35708990D01*
X97102928Y-35461554D01*
X96859985Y-35295557D01*
X96571600Y-35237158D01*
X95071600Y-35237158D01*
X94802190Y-35287851D01*
X94554754Y-35447072D01*
X94388757Y-35690015D01*
X94330358Y-35978400D01*
X77693957Y-35978400D01*
X77707141Y-32712345D01*
X126274149Y-32598498D01*
X126200404Y-55803473D01*
G36*
X76200404Y-80803473D02*
X27614444Y-80678121D01*
X27688466Y-62339000D01*
X33435000Y-62339000D01*
X33439779Y-62363024D01*
X33439622Y-62542387D01*
X33508720Y-62709618D01*
X33513541Y-62733853D01*
X33527149Y-62754219D01*
X33595644Y-62919989D01*
X33723477Y-63048045D01*
X33737207Y-63068593D01*
X37089007Y-66420393D01*
X37423747Y-66644059D01*
X37818600Y-66722600D01*
X38536214Y-66722600D01*
X45041205Y-73227590D01*
X45041207Y-73227593D01*
X45375947Y-73451259D01*
X45441458Y-73464290D01*
X45770800Y-73529801D01*
X45770805Y-73529800D01*
X69328574Y-73529800D01*
X69180073Y-73678302D01*
X69083400Y-73911691D01*
X69083400Y-74752250D01*
X69242150Y-74911000D01*
X70891400Y-74911000D01*
X70891400Y-74891000D01*
X71145400Y-74891000D01*
X71145400Y-74911000D01*
X72794650Y-74911000D01*
X72953400Y-74752250D01*
X72953400Y-73911691D01*
X72856727Y-73678302D01*
X72706783Y-73528357D01*
X72953651Y-73158894D01*
X73034600Y-72751936D01*
X73034600Y-75491256D01*
X72953400Y-75572456D01*
X72953400Y-75323750D01*
X72794650Y-75165000D01*
X71145400Y-75165000D01*
X71145400Y-76514250D01*
X71304150Y-76673000D01*
X71852856Y-76673000D01*
X70150856Y-78375000D01*
X58985105Y-78375000D01*
X59357160Y-78221270D01*
X59773009Y-77806146D01*
X59998343Y-77263482D01*
X59998856Y-76675895D01*
X59774470Y-76132840D01*
X59359346Y-75716991D01*
X58816682Y-75491657D01*
X58229095Y-75491144D01*
X57686040Y-75715530D01*
X57270191Y-76130654D01*
X57251834Y-76174863D01*
X57234470Y-76132840D01*
X56819346Y-75716991D01*
X56276682Y-75491657D01*
X55689095Y-75491144D01*
X55146040Y-75715530D01*
X54730191Y-76130654D01*
X54711834Y-76174863D01*
X54694470Y-76132840D01*
X54279346Y-75716991D01*
X53736682Y-75491657D01*
X53149095Y-75491144D01*
X52606040Y-75715530D01*
X52190191Y-76130654D01*
X52171834Y-76174863D01*
X52154470Y-76132840D01*
X51739346Y-75716991D01*
X51196682Y-75491657D01*
X50609095Y-75491144D01*
X50066040Y-75715530D01*
X49650191Y-76130654D01*
X49631834Y-76174863D01*
X49614470Y-76132840D01*
X49199346Y-75716991D01*
X48656682Y-75491657D01*
X48069095Y-75491144D01*
X47526040Y-75715530D01*
X47110191Y-76130654D01*
X47091834Y-76174863D01*
X47074470Y-76132840D01*
X46659346Y-75716991D01*
X46116682Y-75491657D01*
X45529095Y-75491144D01*
X44986040Y-75715530D01*
X44570191Y-76130654D01*
X44415000Y-76504395D01*
X44415000Y-76308000D01*
X44410221Y-76283976D01*
X44410378Y-76104613D01*
X44341280Y-75937382D01*
X44336459Y-75913147D01*
X44322851Y-75892781D01*
X44254356Y-75727011D01*
X44126523Y-75598955D01*
X44112793Y-75578407D01*
X44092424Y-75564797D01*
X43965708Y-75437860D01*
X43798602Y-75368471D01*
X43778053Y-75354741D01*
X43754026Y-75349962D01*
X43690901Y-75323750D01*
X69083400Y-75323750D01*
X69083400Y-76164309D01*
X69180073Y-76397698D01*
X69358701Y-76576327D01*
X69592090Y-76673000D01*
X70732650Y-76673000D01*
X70891400Y-76514250D01*
X70891400Y-75165000D01*
X69242150Y-75165000D01*
X69083400Y-75323750D01*
X43690901Y-75323750D01*
X43588379Y-75281179D01*
X43407436Y-75281021D01*
X43383200Y-75276200D01*
X43359176Y-75280979D01*
X43179813Y-75280822D01*
X43012582Y-75349920D01*
X42988347Y-75354741D01*
X42967981Y-75368349D01*
X42802211Y-75436844D01*
X42674155Y-75564677D01*
X42653607Y-75578407D01*
X42639997Y-75598776D01*
X42513060Y-75725492D01*
X42443671Y-75892598D01*
X42429941Y-75913147D01*
X42425162Y-75937174D01*
X42356379Y-76102821D01*
X42356221Y-76283764D01*
X42351400Y-76308000D01*
X42351400Y-76979106D01*
X42429941Y-77373959D01*
X42653607Y-77708699D01*
X45081301Y-80136393D01*
X45416041Y-80360059D01*
X45810894Y-80438600D01*
X70578242Y-80438600D01*
X70973095Y-80360059D01*
X71307835Y-80136393D01*
X74795993Y-76648235D01*
X75019659Y-76313495D01*
X75098200Y-75918642D01*
X75098200Y-71096405D01*
X75098201Y-71096400D01*
X75019659Y-70701548D01*
X75019659Y-70701547D01*
X74795993Y-70366807D01*
X73657593Y-69228407D01*
X73322853Y-69004741D01*
X72928000Y-68926200D01*
X72705819Y-68926200D01*
X72579284Y-68736827D01*
X72506209Y-68688000D01*
X72579284Y-68639173D01*
X72953651Y-68078894D01*
X73085111Y-67418000D01*
X72953651Y-66757106D01*
X72579284Y-66196827D01*
X72506209Y-66148000D01*
X72579284Y-66099173D01*
X72953651Y-65538894D01*
X73085111Y-64878000D01*
X72953651Y-64217106D01*
X72579284Y-63656827D01*
X72019005Y-63282460D01*
X71358111Y-63151000D01*
X70678689Y-63151000D01*
X70017795Y-63282460D01*
X69457516Y-63656827D01*
X69398868Y-63744600D01*
X54584600Y-63744600D01*
X54150866Y-63830875D01*
X53783165Y-64076565D01*
X52767165Y-65092565D01*
X52521475Y-65460266D01*
X52435200Y-65894000D01*
X52521475Y-66327734D01*
X52767165Y-66695435D01*
X53134866Y-66941125D01*
X53568600Y-67027400D01*
X54002334Y-66941125D01*
X54370035Y-66695435D01*
X55054070Y-66011400D01*
X69398868Y-66011400D01*
X69457516Y-66099173D01*
X69530591Y-66148000D01*
X69457516Y-66196827D01*
X69083149Y-66757106D01*
X68951689Y-67418000D01*
X69083149Y-68078894D01*
X69457516Y-68639173D01*
X69530591Y-68688000D01*
X69457516Y-68736827D01*
X69083149Y-69297106D01*
X68951689Y-69958000D01*
X69083149Y-70618894D01*
X69457516Y-71179173D01*
X69530591Y-71228000D01*
X69457516Y-71276827D01*
X69330981Y-71466200D01*
X46198185Y-71466200D01*
X39693193Y-64961207D01*
X39358453Y-64737541D01*
X38963600Y-64659000D01*
X38245986Y-64659000D01*
X35196393Y-61609407D01*
X35176024Y-61595797D01*
X35049308Y-61468860D01*
X34882202Y-61399471D01*
X34861653Y-61385741D01*
X34837626Y-61380962D01*
X34671979Y-61312179D01*
X34491036Y-61312021D01*
X34466800Y-61307200D01*
X34442776Y-61311979D01*
X34263413Y-61311822D01*
X34096182Y-61380920D01*
X34071947Y-61385741D01*
X34051581Y-61399349D01*
X33885811Y-61467844D01*
X33757755Y-61595677D01*
X33737207Y-61609407D01*
X33723597Y-61629776D01*
X33596660Y-61756492D01*
X33527271Y-61923598D01*
X33513541Y-61944147D01*
X33508762Y-61968174D01*
X33439979Y-62133821D01*
X33439821Y-62314764D01*
X33435000Y-62339000D01*
X27688466Y-62339000D01*
X27693957Y-60978400D01*
X44330358Y-60978400D01*
X44330358Y-62478400D01*
X44381051Y-62747810D01*
X44540272Y-62995246D01*
X44783215Y-63161243D01*
X45071600Y-63219642D01*
X46571600Y-63219642D01*
X46841010Y-63168949D01*
X47088446Y-63009728D01*
X47254443Y-62766785D01*
X47264015Y-62719516D01*
X47523854Y-62979809D01*
X48066518Y-63205143D01*
X48654105Y-63205656D01*
X49197160Y-62981270D01*
X49613009Y-62566146D01*
X49631366Y-62521937D01*
X49648730Y-62563960D01*
X50063854Y-62979809D01*
X50606518Y-63205143D01*
X51194105Y-63205656D01*
X51737160Y-62981270D01*
X52153009Y-62566146D01*
X52171366Y-62521937D01*
X52188730Y-62563960D01*
X52603854Y-62979809D01*
X53146518Y-63205143D01*
X53734105Y-63205656D01*
X54277160Y-62981270D01*
X54693009Y-62566146D01*
X54711366Y-62521937D01*
X54728730Y-62563960D01*
X55143854Y-62979809D01*
X55686518Y-63205143D01*
X56274105Y-63205656D01*
X56817160Y-62981270D01*
X57233009Y-62566146D01*
X57251366Y-62521937D01*
X57268730Y-62563960D01*
X57683854Y-62979809D01*
X58226518Y-63205143D01*
X58814105Y-63205656D01*
X59357160Y-62981270D01*
X59773009Y-62566146D01*
X59998343Y-62023482D01*
X59998856Y-61435895D01*
X59774470Y-60892840D01*
X59359346Y-60476991D01*
X58816682Y-60251657D01*
X58229095Y-60251144D01*
X57686040Y-60475530D01*
X57270191Y-60890654D01*
X57251834Y-60934863D01*
X57234470Y-60892840D01*
X56819346Y-60476991D01*
X56276682Y-60251657D01*
X55689095Y-60251144D01*
X55146040Y-60475530D01*
X54730191Y-60890654D01*
X54711834Y-60934863D01*
X54694470Y-60892840D01*
X54279346Y-60476991D01*
X53736682Y-60251657D01*
X53149095Y-60251144D01*
X52606040Y-60475530D01*
X52190191Y-60890654D01*
X52171834Y-60934863D01*
X52154470Y-60892840D01*
X51739346Y-60476991D01*
X51196682Y-60251657D01*
X50609095Y-60251144D01*
X50066040Y-60475530D01*
X49650191Y-60890654D01*
X49631834Y-60934863D01*
X49614470Y-60892840D01*
X49199346Y-60476991D01*
X48656682Y-60251657D01*
X48069095Y-60251144D01*
X47526040Y-60475530D01*
X47266897Y-60734222D01*
X47262149Y-60708990D01*
X47102928Y-60461554D01*
X46859985Y-60295557D01*
X46571600Y-60237158D01*
X45071600Y-60237158D01*
X44802190Y-60287851D01*
X44554754Y-60447072D01*
X44388757Y-60690015D01*
X44330358Y-60978400D01*
X27693957Y-60978400D01*
X27707141Y-57712345D01*
X76274149Y-57598498D01*
X76200404Y-80803473D01*
X76200404Y-80803473D01*
G37*
X76200404Y-80803473D02*
X27614444Y-80678121D01*
X27688466Y-62339000D01*
X33435000Y-62339000D01*
X33439779Y-62363024D01*
X33439622Y-62542387D01*
X33508720Y-62709618D01*
X33513541Y-62733853D01*
X33527149Y-62754219D01*
X33595644Y-62919989D01*
X33723477Y-63048045D01*
X33737207Y-63068593D01*
X37089007Y-66420393D01*
X37423747Y-66644059D01*
X37818600Y-66722600D01*
X38536214Y-66722600D01*
X45041205Y-73227590D01*
X45041207Y-73227593D01*
X45375947Y-73451259D01*
X45441458Y-73464290D01*
X45770800Y-73529801D01*
X45770805Y-73529800D01*
X69328574Y-73529800D01*
X69180073Y-73678302D01*
X69083400Y-73911691D01*
X69083400Y-74752250D01*
X69242150Y-74911000D01*
X70891400Y-74911000D01*
X70891400Y-74891000D01*
X71145400Y-74891000D01*
X71145400Y-74911000D01*
X72794650Y-74911000D01*
X72953400Y-74752250D01*
X72953400Y-73911691D01*
X72856727Y-73678302D01*
X72706783Y-73528357D01*
X72953651Y-73158894D01*
X73034600Y-72751936D01*
X73034600Y-75491256D01*
X72953400Y-75572456D01*
X72953400Y-75323750D01*
X72794650Y-75165000D01*
X71145400Y-75165000D01*
X71145400Y-76514250D01*
X71304150Y-76673000D01*
X71852856Y-76673000D01*
X70150856Y-78375000D01*
X58985105Y-78375000D01*
X59357160Y-78221270D01*
X59773009Y-77806146D01*
X59998343Y-77263482D01*
X59998856Y-76675895D01*
X59774470Y-76132840D01*
X59359346Y-75716991D01*
X58816682Y-75491657D01*
X58229095Y-75491144D01*
X57686040Y-75715530D01*
X57270191Y-76130654D01*
X57251834Y-76174863D01*
X57234470Y-76132840D01*
X56819346Y-75716991D01*
X56276682Y-75491657D01*
X55689095Y-75491144D01*
X55146040Y-75715530D01*
X54730191Y-76130654D01*
X54711834Y-76174863D01*
X54694470Y-76132840D01*
X54279346Y-75716991D01*
X53736682Y-75491657D01*
X53149095Y-75491144D01*
X52606040Y-75715530D01*
X52190191Y-76130654D01*
X52171834Y-76174863D01*
X52154470Y-76132840D01*
X51739346Y-75716991D01*
X51196682Y-75491657D01*
X50609095Y-75491144D01*
X50066040Y-75715530D01*
X49650191Y-76130654D01*
X49631834Y-76174863D01*
X49614470Y-76132840D01*
X49199346Y-75716991D01*
X48656682Y-75491657D01*
X48069095Y-75491144D01*
X47526040Y-75715530D01*
X47110191Y-76130654D01*
X47091834Y-76174863D01*
X47074470Y-76132840D01*
X46659346Y-75716991D01*
X46116682Y-75491657D01*
X45529095Y-75491144D01*
X44986040Y-75715530D01*
X44570191Y-76130654D01*
X44415000Y-76504395D01*
X44415000Y-76308000D01*
X44410221Y-76283976D01*
X44410378Y-76104613D01*
X44341280Y-75937382D01*
X44336459Y-75913147D01*
X44322851Y-75892781D01*
X44254356Y-75727011D01*
X44126523Y-75598955D01*
X44112793Y-75578407D01*
X44092424Y-75564797D01*
X43965708Y-75437860D01*
X43798602Y-75368471D01*
X43778053Y-75354741D01*
X43754026Y-75349962D01*
X43690901Y-75323750D01*
X69083400Y-75323750D01*
X69083400Y-76164309D01*
X69180073Y-76397698D01*
X69358701Y-76576327D01*
X69592090Y-76673000D01*
X70732650Y-76673000D01*
X70891400Y-76514250D01*
X70891400Y-75165000D01*
X69242150Y-75165000D01*
X69083400Y-75323750D01*
X43690901Y-75323750D01*
X43588379Y-75281179D01*
X43407436Y-75281021D01*
X43383200Y-75276200D01*
X43359176Y-75280979D01*
X43179813Y-75280822D01*
X43012582Y-75349920D01*
X42988347Y-75354741D01*
X42967981Y-75368349D01*
X42802211Y-75436844D01*
X42674155Y-75564677D01*
X42653607Y-75578407D01*
X42639997Y-75598776D01*
X42513060Y-75725492D01*
X42443671Y-75892598D01*
X42429941Y-75913147D01*
X42425162Y-75937174D01*
X42356379Y-76102821D01*
X42356221Y-76283764D01*
X42351400Y-76308000D01*
X42351400Y-76979106D01*
X42429941Y-77373959D01*
X42653607Y-77708699D01*
X45081301Y-80136393D01*
X45416041Y-80360059D01*
X45810894Y-80438600D01*
X70578242Y-80438600D01*
X70973095Y-80360059D01*
X71307835Y-80136393D01*
X74795993Y-76648235D01*
X75019659Y-76313495D01*
X75098200Y-75918642D01*
X75098200Y-71096405D01*
X75098201Y-71096400D01*
X75019659Y-70701548D01*
X75019659Y-70701547D01*
X74795993Y-70366807D01*
X73657593Y-69228407D01*
X73322853Y-69004741D01*
X72928000Y-68926200D01*
X72705819Y-68926200D01*
X72579284Y-68736827D01*
X72506209Y-68688000D01*
X72579284Y-68639173D01*
X72953651Y-68078894D01*
X73085111Y-67418000D01*
X72953651Y-66757106D01*
X72579284Y-66196827D01*
X72506209Y-66148000D01*
X72579284Y-66099173D01*
X72953651Y-65538894D01*
X73085111Y-64878000D01*
X72953651Y-64217106D01*
X72579284Y-63656827D01*
X72019005Y-63282460D01*
X71358111Y-63151000D01*
X70678689Y-63151000D01*
X70017795Y-63282460D01*
X69457516Y-63656827D01*
X69398868Y-63744600D01*
X54584600Y-63744600D01*
X54150866Y-63830875D01*
X53783165Y-64076565D01*
X52767165Y-65092565D01*
X52521475Y-65460266D01*
X52435200Y-65894000D01*
X52521475Y-66327734D01*
X52767165Y-66695435D01*
X53134866Y-66941125D01*
X53568600Y-67027400D01*
X54002334Y-66941125D01*
X54370035Y-66695435D01*
X55054070Y-66011400D01*
X69398868Y-66011400D01*
X69457516Y-66099173D01*
X69530591Y-66148000D01*
X69457516Y-66196827D01*
X69083149Y-66757106D01*
X68951689Y-67418000D01*
X69083149Y-68078894D01*
X69457516Y-68639173D01*
X69530591Y-68688000D01*
X69457516Y-68736827D01*
X69083149Y-69297106D01*
X68951689Y-69958000D01*
X69083149Y-70618894D01*
X69457516Y-71179173D01*
X69530591Y-71228000D01*
X69457516Y-71276827D01*
X69330981Y-71466200D01*
X46198185Y-71466200D01*
X39693193Y-64961207D01*
X39358453Y-64737541D01*
X38963600Y-64659000D01*
X38245986Y-64659000D01*
X35196393Y-61609407D01*
X35176024Y-61595797D01*
X35049308Y-61468860D01*
X34882202Y-61399471D01*
X34861653Y-61385741D01*
X34837626Y-61380962D01*
X34671979Y-61312179D01*
X34491036Y-61312021D01*
X34466800Y-61307200D01*
X34442776Y-61311979D01*
X34263413Y-61311822D01*
X34096182Y-61380920D01*
X34071947Y-61385741D01*
X34051581Y-61399349D01*
X33885811Y-61467844D01*
X33757755Y-61595677D01*
X33737207Y-61609407D01*
X33723597Y-61629776D01*
X33596660Y-61756492D01*
X33527271Y-61923598D01*
X33513541Y-61944147D01*
X33508762Y-61968174D01*
X33439979Y-62133821D01*
X33439821Y-62314764D01*
X33435000Y-62339000D01*
X27688466Y-62339000D01*
X27693957Y-60978400D01*
X44330358Y-60978400D01*
X44330358Y-62478400D01*
X44381051Y-62747810D01*
X44540272Y-62995246D01*
X44783215Y-63161243D01*
X45071600Y-63219642D01*
X46571600Y-63219642D01*
X46841010Y-63168949D01*
X47088446Y-63009728D01*
X47254443Y-62766785D01*
X47264015Y-62719516D01*
X47523854Y-62979809D01*
X48066518Y-63205143D01*
X48654105Y-63205656D01*
X49197160Y-62981270D01*
X49613009Y-62566146D01*
X49631366Y-62521937D01*
X49648730Y-62563960D01*
X50063854Y-62979809D01*
X50606518Y-63205143D01*
X51194105Y-63205656D01*
X51737160Y-62981270D01*
X52153009Y-62566146D01*
X52171366Y-62521937D01*
X52188730Y-62563960D01*
X52603854Y-62979809D01*
X53146518Y-63205143D01*
X53734105Y-63205656D01*
X54277160Y-62981270D01*
X54693009Y-62566146D01*
X54711366Y-62521937D01*
X54728730Y-62563960D01*
X55143854Y-62979809D01*
X55686518Y-63205143D01*
X56274105Y-63205656D01*
X56817160Y-62981270D01*
X57233009Y-62566146D01*
X57251366Y-62521937D01*
X57268730Y-62563960D01*
X57683854Y-62979809D01*
X58226518Y-63205143D01*
X58814105Y-63205656D01*
X59357160Y-62981270D01*
X59773009Y-62566146D01*
X59998343Y-62023482D01*
X59998856Y-61435895D01*
X59774470Y-60892840D01*
X59359346Y-60476991D01*
X58816682Y-60251657D01*
X58229095Y-60251144D01*
X57686040Y-60475530D01*
X57270191Y-60890654D01*
X57251834Y-60934863D01*
X57234470Y-60892840D01*
X56819346Y-60476991D01*
X56276682Y-60251657D01*
X55689095Y-60251144D01*
X55146040Y-60475530D01*
X54730191Y-60890654D01*
X54711834Y-60934863D01*
X54694470Y-60892840D01*
X54279346Y-60476991D01*
X53736682Y-60251657D01*
X53149095Y-60251144D01*
X52606040Y-60475530D01*
X52190191Y-60890654D01*
X52171834Y-60934863D01*
X52154470Y-60892840D01*
X51739346Y-60476991D01*
X51196682Y-60251657D01*
X50609095Y-60251144D01*
X50066040Y-60475530D01*
X49650191Y-60890654D01*
X49631834Y-60934863D01*
X49614470Y-60892840D01*
X49199346Y-60476991D01*
X48656682Y-60251657D01*
X48069095Y-60251144D01*
X47526040Y-60475530D01*
X47266897Y-60734222D01*
X47262149Y-60708990D01*
X47102928Y-60461554D01*
X46859985Y-60295557D01*
X46571600Y-60237158D01*
X45071600Y-60237158D01*
X44802190Y-60287851D01*
X44554754Y-60447072D01*
X44388757Y-60690015D01*
X44330358Y-60978400D01*
X27693957Y-60978400D01*
X27707141Y-57712345D01*
X76274149Y-57598498D01*
X76200404Y-80803473D01*
G36*
X126200404Y-80803473D02*
X77614444Y-80678121D01*
X77688466Y-62339000D01*
X83435000Y-62339000D01*
X83439779Y-62363024D01*
X83439622Y-62542387D01*
X83508720Y-62709618D01*
X83513541Y-62733853D01*
X83527149Y-62754219D01*
X83595644Y-62919989D01*
X83723477Y-63048045D01*
X83737207Y-63068593D01*
X87089007Y-66420393D01*
X87423747Y-66644059D01*
X87818600Y-66722600D01*
X88536214Y-66722600D01*
X95041205Y-73227590D01*
X95041207Y-73227593D01*
X95375947Y-73451259D01*
X95441458Y-73464290D01*
X95770800Y-73529801D01*
X95770805Y-73529800D01*
X119328574Y-73529800D01*
X119180073Y-73678302D01*
X119083400Y-73911691D01*
X119083400Y-74752250D01*
X119242150Y-74911000D01*
X120891400Y-74911000D01*
X120891400Y-74891000D01*
X121145400Y-74891000D01*
X121145400Y-74911000D01*
X122794650Y-74911000D01*
X122953400Y-74752250D01*
X122953400Y-73911691D01*
X122856727Y-73678302D01*
X122706783Y-73528357D01*
X122953651Y-73158894D01*
X123034600Y-72751936D01*
X123034600Y-75491256D01*
X122953400Y-75572456D01*
X122953400Y-75323750D01*
X122794650Y-75165000D01*
X121145400Y-75165000D01*
X121145400Y-76514250D01*
X121304150Y-76673000D01*
X121852856Y-76673000D01*
X120150856Y-78375000D01*
X108985105Y-78375000D01*
X109357160Y-78221270D01*
X109773009Y-77806146D01*
X109998343Y-77263482D01*
X109998856Y-76675895D01*
X109774470Y-76132840D01*
X109359346Y-75716991D01*
X108816682Y-75491657D01*
X108229095Y-75491144D01*
X107686040Y-75715530D01*
X107270191Y-76130654D01*
X107251834Y-76174863D01*
X107234470Y-76132840D01*
X106819346Y-75716991D01*
X106276682Y-75491657D01*
X105689095Y-75491144D01*
X105146040Y-75715530D01*
X104730191Y-76130654D01*
X104711834Y-76174863D01*
X104694470Y-76132840D01*
X104279346Y-75716991D01*
X103736682Y-75491657D01*
X103149095Y-75491144D01*
X102606040Y-75715530D01*
X102190191Y-76130654D01*
X102171834Y-76174863D01*
X102154470Y-76132840D01*
X101739346Y-75716991D01*
X101196682Y-75491657D01*
X100609095Y-75491144D01*
X100066040Y-75715530D01*
X99650191Y-76130654D01*
X99631834Y-76174863D01*
X99614470Y-76132840D01*
X99199346Y-75716991D01*
X98656682Y-75491657D01*
X98069095Y-75491144D01*
X97526040Y-75715530D01*
X97110191Y-76130654D01*
X97091834Y-76174863D01*
X97074470Y-76132840D01*
X96659346Y-75716991D01*
X96116682Y-75491657D01*
X95529095Y-75491144D01*
X94986040Y-75715530D01*
X94570191Y-76130654D01*
X94415000Y-76504395D01*
X94415000Y-76308000D01*
X94410221Y-76283976D01*
X94410378Y-76104613D01*
X94341280Y-75937382D01*
X94336459Y-75913147D01*
X94322851Y-75892781D01*
X94254356Y-75727011D01*
X94126523Y-75598955D01*
X94112793Y-75578407D01*
X94092424Y-75564797D01*
X93965708Y-75437860D01*
X93798602Y-75368471D01*
X93778053Y-75354741D01*
X93754026Y-75349962D01*
X93690901Y-75323750D01*
X119083400Y-75323750D01*
X119083400Y-76164309D01*
X119180073Y-76397698D01*
X119358701Y-76576327D01*
X119592090Y-76673000D01*
X120732650Y-76673000D01*
X120891400Y-76514250D01*
X120891400Y-75165000D01*
X119242150Y-75165000D01*
X119083400Y-75323750D01*
X93690901Y-75323750D01*
X93588379Y-75281179D01*
X93407436Y-75281021D01*
X93383200Y-75276200D01*
X93359176Y-75280979D01*
X93179813Y-75280822D01*
X93012582Y-75349920D01*
X92988347Y-75354741D01*
X92967981Y-75368349D01*
X92802211Y-75436844D01*
X92674155Y-75564677D01*
X92653607Y-75578407D01*
X92639997Y-75598776D01*
X92513060Y-75725492D01*
X92443671Y-75892598D01*
X92429941Y-75913147D01*
X92425162Y-75937174D01*
X92356379Y-76102821D01*
X92356221Y-76283764D01*
X92351400Y-76308000D01*
X92351400Y-76979106D01*
X92429941Y-77373959D01*
X92653607Y-77708699D01*
X95081301Y-80136393D01*
X95416041Y-80360059D01*
X95810894Y-80438600D01*
X120578242Y-80438600D01*
X120973095Y-80360059D01*
X121307835Y-80136393D01*
X124795993Y-76648235D01*
X125019659Y-76313495D01*
X125098200Y-75918642D01*
X125098200Y-71096405D01*
X125098201Y-71096400D01*
X125019659Y-70701548D01*
X125019659Y-70701547D01*
X124795993Y-70366807D01*
X123657593Y-69228407D01*
X123322853Y-69004741D01*
X122928000Y-68926200D01*
X122705819Y-68926200D01*
X122579284Y-68736827D01*
X122506209Y-68688000D01*
X122579284Y-68639173D01*
X122953651Y-68078894D01*
X123085111Y-67418000D01*
X122953651Y-66757106D01*
X122579284Y-66196827D01*
X122506209Y-66148000D01*
X122579284Y-66099173D01*
X122953651Y-65538894D01*
X123085111Y-64878000D01*
X122953651Y-64217106D01*
X122579284Y-63656827D01*
X122019005Y-63282460D01*
X121358111Y-63151000D01*
X120678689Y-63151000D01*
X120017795Y-63282460D01*
X119457516Y-63656827D01*
X119398868Y-63744600D01*
X104584600Y-63744600D01*
X104150866Y-63830875D01*
X103783165Y-64076565D01*
X102767165Y-65092565D01*
X102521475Y-65460266D01*
X102435200Y-65894000D01*
X102521475Y-66327734D01*
X102767165Y-66695435D01*
X103134866Y-66941125D01*
X103568600Y-67027400D01*
X104002334Y-66941125D01*
X104370035Y-66695435D01*
X105054070Y-66011400D01*
X119398868Y-66011400D01*
X119457516Y-66099173D01*
X119530591Y-66148000D01*
X119457516Y-66196827D01*
X119083149Y-66757106D01*
X118951689Y-67418000D01*
X119083149Y-68078894D01*
X119457516Y-68639173D01*
X119530591Y-68688000D01*
X119457516Y-68736827D01*
X119083149Y-69297106D01*
X118951689Y-69958000D01*
X119083149Y-70618894D01*
X119457516Y-71179173D01*
X119530591Y-71228000D01*
X119457516Y-71276827D01*
X119330981Y-71466200D01*
X96198185Y-71466200D01*
X89693193Y-64961207D01*
X89358453Y-64737541D01*
X88963600Y-64659000D01*
X88245986Y-64659000D01*
X85196393Y-61609407D01*
X85176024Y-61595797D01*
X85049308Y-61468860D01*
X84882202Y-61399471D01*
X84861653Y-61385741D01*
X84837626Y-61380962D01*
X84671979Y-61312179D01*
X84491036Y-61312021D01*
X84466800Y-61307200D01*
X84442776Y-61311979D01*
X84263413Y-61311822D01*
X84096182Y-61380920D01*
X84071947Y-61385741D01*
X84051581Y-61399349D01*
X83885811Y-61467844D01*
X83757755Y-61595677D01*
X83737207Y-61609407D01*
X83723597Y-61629776D01*
X83596660Y-61756492D01*
X83527271Y-61923598D01*
X83513541Y-61944147D01*
X83508762Y-61968174D01*
X83439979Y-62133821D01*
X83439821Y-62314764D01*
X83435000Y-62339000D01*
X77688466Y-62339000D01*
X77693957Y-60978400D01*
X94330358Y-60978400D01*
X94330358Y-62478400D01*
X94381051Y-62747810D01*
X94540272Y-62995246D01*
X94783215Y-63161243D01*
X95071600Y-63219642D01*
X96571600Y-63219642D01*
X96841010Y-63168949D01*
X97088446Y-63009728D01*
X97254443Y-62766785D01*
X97264015Y-62719516D01*
X97523854Y-62979809D01*
X98066518Y-63205143D01*
X98654105Y-63205656D01*
X99197160Y-62981270D01*
X99613009Y-62566146D01*
X99631366Y-62521937D01*
X99648730Y-62563960D01*
X100063854Y-62979809D01*
X100606518Y-63205143D01*
X101194105Y-63205656D01*
X101737160Y-62981270D01*
X102153009Y-62566146D01*
X102171366Y-62521937D01*
X102188730Y-62563960D01*
X102603854Y-62979809D01*
X103146518Y-63205143D01*
X103734105Y-63205656D01*
X104277160Y-62981270D01*
X104693009Y-62566146D01*
X104711366Y-62521937D01*
X104728730Y-62563960D01*
X105143854Y-62979809D01*
X105686518Y-63205143D01*
X106274105Y-63205656D01*
X106817160Y-62981270D01*
X107233009Y-62566146D01*
X107251366Y-62521937D01*
X107268730Y-62563960D01*
X107683854Y-62979809D01*
X108226518Y-63205143D01*
X108814105Y-63205656D01*
X109357160Y-62981270D01*
X109773009Y-62566146D01*
X109998343Y-62023482D01*
X109998856Y-61435895D01*
X109774470Y-60892840D01*
X109359346Y-60476991D01*
X108816682Y-60251657D01*
X108229095Y-60251144D01*
X107686040Y-60475530D01*
X107270191Y-60890654D01*
X107251834Y-60934863D01*
X107234470Y-60892840D01*
X106819346Y-60476991D01*
X106276682Y-60251657D01*
X105689095Y-60251144D01*
X105146040Y-60475530D01*
X104730191Y-60890654D01*
X104711834Y-60934863D01*
X104694470Y-60892840D01*
X104279346Y-60476991D01*
X103736682Y-60251657D01*
X103149095Y-60251144D01*
X102606040Y-60475530D01*
X102190191Y-60890654D01*
X102171834Y-60934863D01*
X102154470Y-60892840D01*
X101739346Y-60476991D01*
X101196682Y-60251657D01*
X100609095Y-60251144D01*
X100066040Y-60475530D01*
X99650191Y-60890654D01*
X99631834Y-60934863D01*
X99614470Y-60892840D01*
X99199346Y-60476991D01*
X98656682Y-60251657D01*
X98069095Y-60251144D01*
X97526040Y-60475530D01*
X97266897Y-60734222D01*
X97262149Y-60708990D01*
X97102928Y-60461554D01*
X96859985Y-60295557D01*
X96571600Y-60237158D01*
X95071600Y-60237158D01*
X94802190Y-60287851D01*
X94554754Y-60447072D01*
X94388757Y-60690015D01*
X94330358Y-60978400D01*
X77693957Y-60978400D01*
X77707141Y-57712345D01*
X126274149Y-57598498D01*
X126200404Y-80803473D01*
X126200404Y-80803473D01*
G37*
X126200404Y-80803473D02*
X77614444Y-80678121D01*
X77688466Y-62339000D01*
X83435000Y-62339000D01*
X83439779Y-62363024D01*
X83439622Y-62542387D01*
X83508720Y-62709618D01*
X83513541Y-62733853D01*
X83527149Y-62754219D01*
X83595644Y-62919989D01*
X83723477Y-63048045D01*
X83737207Y-63068593D01*
X87089007Y-66420393D01*
X87423747Y-66644059D01*
X87818600Y-66722600D01*
X88536214Y-66722600D01*
X95041205Y-73227590D01*
X95041207Y-73227593D01*
X95375947Y-73451259D01*
X95441458Y-73464290D01*
X95770800Y-73529801D01*
X95770805Y-73529800D01*
X119328574Y-73529800D01*
X119180073Y-73678302D01*
X119083400Y-73911691D01*
X119083400Y-74752250D01*
X119242150Y-74911000D01*
X120891400Y-74911000D01*
X120891400Y-74891000D01*
X121145400Y-74891000D01*
X121145400Y-74911000D01*
X122794650Y-74911000D01*
X122953400Y-74752250D01*
X122953400Y-73911691D01*
X122856727Y-73678302D01*
X122706783Y-73528357D01*
X122953651Y-73158894D01*
X123034600Y-72751936D01*
X123034600Y-75491256D01*
X122953400Y-75572456D01*
X122953400Y-75323750D01*
X122794650Y-75165000D01*
X121145400Y-75165000D01*
X121145400Y-76514250D01*
X121304150Y-76673000D01*
X121852856Y-76673000D01*
X120150856Y-78375000D01*
X108985105Y-78375000D01*
X109357160Y-78221270D01*
X109773009Y-77806146D01*
X109998343Y-77263482D01*
X109998856Y-76675895D01*
X109774470Y-76132840D01*
X109359346Y-75716991D01*
X108816682Y-75491657D01*
X108229095Y-75491144D01*
X107686040Y-75715530D01*
X107270191Y-76130654D01*
X107251834Y-76174863D01*
X107234470Y-76132840D01*
X106819346Y-75716991D01*
X106276682Y-75491657D01*
X105689095Y-75491144D01*
X105146040Y-75715530D01*
X104730191Y-76130654D01*
X104711834Y-76174863D01*
X104694470Y-76132840D01*
X104279346Y-75716991D01*
X103736682Y-75491657D01*
X103149095Y-75491144D01*
X102606040Y-75715530D01*
X102190191Y-76130654D01*
X102171834Y-76174863D01*
X102154470Y-76132840D01*
X101739346Y-75716991D01*
X101196682Y-75491657D01*
X100609095Y-75491144D01*
X100066040Y-75715530D01*
X99650191Y-76130654D01*
X99631834Y-76174863D01*
X99614470Y-76132840D01*
X99199346Y-75716991D01*
X98656682Y-75491657D01*
X98069095Y-75491144D01*
X97526040Y-75715530D01*
X97110191Y-76130654D01*
X97091834Y-76174863D01*
X97074470Y-76132840D01*
X96659346Y-75716991D01*
X96116682Y-75491657D01*
X95529095Y-75491144D01*
X94986040Y-75715530D01*
X94570191Y-76130654D01*
X94415000Y-76504395D01*
X94415000Y-76308000D01*
X94410221Y-76283976D01*
X94410378Y-76104613D01*
X94341280Y-75937382D01*
X94336459Y-75913147D01*
X94322851Y-75892781D01*
X94254356Y-75727011D01*
X94126523Y-75598955D01*
X94112793Y-75578407D01*
X94092424Y-75564797D01*
X93965708Y-75437860D01*
X93798602Y-75368471D01*
X93778053Y-75354741D01*
X93754026Y-75349962D01*
X93690901Y-75323750D01*
X119083400Y-75323750D01*
X119083400Y-76164309D01*
X119180073Y-76397698D01*
X119358701Y-76576327D01*
X119592090Y-76673000D01*
X120732650Y-76673000D01*
X120891400Y-76514250D01*
X120891400Y-75165000D01*
X119242150Y-75165000D01*
X119083400Y-75323750D01*
X93690901Y-75323750D01*
X93588379Y-75281179D01*
X93407436Y-75281021D01*
X93383200Y-75276200D01*
X93359176Y-75280979D01*
X93179813Y-75280822D01*
X93012582Y-75349920D01*
X92988347Y-75354741D01*
X92967981Y-75368349D01*
X92802211Y-75436844D01*
X92674155Y-75564677D01*
X92653607Y-75578407D01*
X92639997Y-75598776D01*
X92513060Y-75725492D01*
X92443671Y-75892598D01*
X92429941Y-75913147D01*
X92425162Y-75937174D01*
X92356379Y-76102821D01*
X92356221Y-76283764D01*
X92351400Y-76308000D01*
X92351400Y-76979106D01*
X92429941Y-77373959D01*
X92653607Y-77708699D01*
X95081301Y-80136393D01*
X95416041Y-80360059D01*
X95810894Y-80438600D01*
X120578242Y-80438600D01*
X120973095Y-80360059D01*
X121307835Y-80136393D01*
X124795993Y-76648235D01*
X125019659Y-76313495D01*
X125098200Y-75918642D01*
X125098200Y-71096405D01*
X125098201Y-71096400D01*
X125019659Y-70701548D01*
X125019659Y-70701547D01*
X124795993Y-70366807D01*
X123657593Y-69228407D01*
X123322853Y-69004741D01*
X122928000Y-68926200D01*
X122705819Y-68926200D01*
X122579284Y-68736827D01*
X122506209Y-68688000D01*
X122579284Y-68639173D01*
X122953651Y-68078894D01*
X123085111Y-67418000D01*
X122953651Y-66757106D01*
X122579284Y-66196827D01*
X122506209Y-66148000D01*
X122579284Y-66099173D01*
X122953651Y-65538894D01*
X123085111Y-64878000D01*
X122953651Y-64217106D01*
X122579284Y-63656827D01*
X122019005Y-63282460D01*
X121358111Y-63151000D01*
X120678689Y-63151000D01*
X120017795Y-63282460D01*
X119457516Y-63656827D01*
X119398868Y-63744600D01*
X104584600Y-63744600D01*
X104150866Y-63830875D01*
X103783165Y-64076565D01*
X102767165Y-65092565D01*
X102521475Y-65460266D01*
X102435200Y-65894000D01*
X102521475Y-66327734D01*
X102767165Y-66695435D01*
X103134866Y-66941125D01*
X103568600Y-67027400D01*
X104002334Y-66941125D01*
X104370035Y-66695435D01*
X105054070Y-66011400D01*
X119398868Y-66011400D01*
X119457516Y-66099173D01*
X119530591Y-66148000D01*
X119457516Y-66196827D01*
X119083149Y-66757106D01*
X118951689Y-67418000D01*
X119083149Y-68078894D01*
X119457516Y-68639173D01*
X119530591Y-68688000D01*
X119457516Y-68736827D01*
X119083149Y-69297106D01*
X118951689Y-69958000D01*
X119083149Y-70618894D01*
X119457516Y-71179173D01*
X119530591Y-71228000D01*
X119457516Y-71276827D01*
X119330981Y-71466200D01*
X96198185Y-71466200D01*
X89693193Y-64961207D01*
X89358453Y-64737541D01*
X88963600Y-64659000D01*
X88245986Y-64659000D01*
X85196393Y-61609407D01*
X85176024Y-61595797D01*
X85049308Y-61468860D01*
X84882202Y-61399471D01*
X84861653Y-61385741D01*
X84837626Y-61380962D01*
X84671979Y-61312179D01*
X84491036Y-61312021D01*
X84466800Y-61307200D01*
X84442776Y-61311979D01*
X84263413Y-61311822D01*
X84096182Y-61380920D01*
X84071947Y-61385741D01*
X84051581Y-61399349D01*
X83885811Y-61467844D01*
X83757755Y-61595677D01*
X83737207Y-61609407D01*
X83723597Y-61629776D01*
X83596660Y-61756492D01*
X83527271Y-61923598D01*
X83513541Y-61944147D01*
X83508762Y-61968174D01*
X83439979Y-62133821D01*
X83439821Y-62314764D01*
X83435000Y-62339000D01*
X77688466Y-62339000D01*
X77693957Y-60978400D01*
X94330358Y-60978400D01*
X94330358Y-62478400D01*
X94381051Y-62747810D01*
X94540272Y-62995246D01*
X94783215Y-63161243D01*
X95071600Y-63219642D01*
X96571600Y-63219642D01*
X96841010Y-63168949D01*
X97088446Y-63009728D01*
X97254443Y-62766785D01*
X97264015Y-62719516D01*
X97523854Y-62979809D01*
X98066518Y-63205143D01*
X98654105Y-63205656D01*
X99197160Y-62981270D01*
X99613009Y-62566146D01*
X99631366Y-62521937D01*
X99648730Y-62563960D01*
X100063854Y-62979809D01*
X100606518Y-63205143D01*
X101194105Y-63205656D01*
X101737160Y-62981270D01*
X102153009Y-62566146D01*
X102171366Y-62521937D01*
X102188730Y-62563960D01*
X102603854Y-62979809D01*
X103146518Y-63205143D01*
X103734105Y-63205656D01*
X104277160Y-62981270D01*
X104693009Y-62566146D01*
X104711366Y-62521937D01*
X104728730Y-62563960D01*
X105143854Y-62979809D01*
X105686518Y-63205143D01*
X106274105Y-63205656D01*
X106817160Y-62981270D01*
X107233009Y-62566146D01*
X107251366Y-62521937D01*
X107268730Y-62563960D01*
X107683854Y-62979809D01*
X108226518Y-63205143D01*
X108814105Y-63205656D01*
X109357160Y-62981270D01*
X109773009Y-62566146D01*
X109998343Y-62023482D01*
X109998856Y-61435895D01*
X109774470Y-60892840D01*
X109359346Y-60476991D01*
X108816682Y-60251657D01*
X108229095Y-60251144D01*
X107686040Y-60475530D01*
X107270191Y-60890654D01*
X107251834Y-60934863D01*
X107234470Y-60892840D01*
X106819346Y-60476991D01*
X106276682Y-60251657D01*
X105689095Y-60251144D01*
X105146040Y-60475530D01*
X104730191Y-60890654D01*
X104711834Y-60934863D01*
X104694470Y-60892840D01*
X104279346Y-60476991D01*
X103736682Y-60251657D01*
X103149095Y-60251144D01*
X102606040Y-60475530D01*
X102190191Y-60890654D01*
X102171834Y-60934863D01*
X102154470Y-60892840D01*
X101739346Y-60476991D01*
X101196682Y-60251657D01*
X100609095Y-60251144D01*
X100066040Y-60475530D01*
X99650191Y-60890654D01*
X99631834Y-60934863D01*
X99614470Y-60892840D01*
X99199346Y-60476991D01*
X98656682Y-60251657D01*
X98069095Y-60251144D01*
X97526040Y-60475530D01*
X97266897Y-60734222D01*
X97262149Y-60708990D01*
X97102928Y-60461554D01*
X96859985Y-60295557D01*
X96571600Y-60237158D01*
X95071600Y-60237158D01*
X94802190Y-60287851D01*
X94554754Y-60447072D01*
X94388757Y-60690015D01*
X94330358Y-60978400D01*
X77693957Y-60978400D01*
X77707141Y-57712345D01*
X126274149Y-57598498D01*
X126200404Y-80803473D01*
G36*
X76200404Y-105803473D02*
X27614444Y-105678121D01*
X27688466Y-87339000D01*
X33435000Y-87339000D01*
X33439779Y-87363024D01*
X33439622Y-87542387D01*
X33508720Y-87709618D01*
X33513541Y-87733853D01*
X33527149Y-87754219D01*
X33595644Y-87919989D01*
X33723477Y-88048045D01*
X33737207Y-88068593D01*
X37089007Y-91420393D01*
X37423747Y-91644059D01*
X37818600Y-91722600D01*
X38536214Y-91722600D01*
X45041205Y-98227590D01*
X45041207Y-98227593D01*
X45375947Y-98451259D01*
X45441458Y-98464290D01*
X45770800Y-98529801D01*
X45770805Y-98529800D01*
X69328574Y-98529800D01*
X69180073Y-98678302D01*
X69083400Y-98911691D01*
X69083400Y-99752250D01*
X69242150Y-99911000D01*
X70891400Y-99911000D01*
X70891400Y-99891000D01*
X71145400Y-99891000D01*
X71145400Y-99911000D01*
X72794650Y-99911000D01*
X72953400Y-99752250D01*
X72953400Y-98911691D01*
X72856727Y-98678302D01*
X72706783Y-98528357D01*
X72953651Y-98158894D01*
X73034600Y-97751936D01*
X73034600Y-100491256D01*
X72953400Y-100572456D01*
X72953400Y-100323750D01*
X72794650Y-100165000D01*
X71145400Y-100165000D01*
X71145400Y-101514250D01*
X71304150Y-101673000D01*
X71852856Y-101673000D01*
X70150856Y-103375000D01*
X58985105Y-103375000D01*
X59357160Y-103221270D01*
X59773009Y-102806146D01*
X59998343Y-102263482D01*
X59998856Y-101675895D01*
X59774470Y-101132840D01*
X59359346Y-100716991D01*
X58816682Y-100491657D01*
X58229095Y-100491144D01*
X57686040Y-100715530D01*
X57270191Y-101130654D01*
X57251834Y-101174863D01*
X57234470Y-101132840D01*
X56819346Y-100716991D01*
X56276682Y-100491657D01*
X55689095Y-100491144D01*
X55146040Y-100715530D01*
X54730191Y-101130654D01*
X54711834Y-101174863D01*
X54694470Y-101132840D01*
X54279346Y-100716991D01*
X53736682Y-100491657D01*
X53149095Y-100491144D01*
X52606040Y-100715530D01*
X52190191Y-101130654D01*
X52171834Y-101174863D01*
X52154470Y-101132840D01*
X51739346Y-100716991D01*
X51196682Y-100491657D01*
X50609095Y-100491144D01*
X50066040Y-100715530D01*
X49650191Y-101130654D01*
X49631834Y-101174863D01*
X49614470Y-101132840D01*
X49199346Y-100716991D01*
X48656682Y-100491657D01*
X48069095Y-100491144D01*
X47526040Y-100715530D01*
X47110191Y-101130654D01*
X47091834Y-101174863D01*
X47074470Y-101132840D01*
X46659346Y-100716991D01*
X46116682Y-100491657D01*
X45529095Y-100491144D01*
X44986040Y-100715530D01*
X44570191Y-101130654D01*
X44415000Y-101504395D01*
X44415000Y-101308000D01*
X44410221Y-101283976D01*
X44410378Y-101104613D01*
X44341280Y-100937382D01*
X44336459Y-100913147D01*
X44322851Y-100892781D01*
X44254356Y-100727011D01*
X44126523Y-100598955D01*
X44112793Y-100578407D01*
X44092424Y-100564797D01*
X43965708Y-100437860D01*
X43798602Y-100368471D01*
X43778053Y-100354741D01*
X43754026Y-100349962D01*
X43690901Y-100323750D01*
X69083400Y-100323750D01*
X69083400Y-101164309D01*
X69180073Y-101397698D01*
X69358701Y-101576327D01*
X69592090Y-101673000D01*
X70732650Y-101673000D01*
X70891400Y-101514250D01*
X70891400Y-100165000D01*
X69242150Y-100165000D01*
X69083400Y-100323750D01*
X43690901Y-100323750D01*
X43588379Y-100281179D01*
X43407436Y-100281021D01*
X43383200Y-100276200D01*
X43359176Y-100280979D01*
X43179813Y-100280822D01*
X43012582Y-100349920D01*
X42988347Y-100354741D01*
X42967981Y-100368349D01*
X42802211Y-100436844D01*
X42674155Y-100564677D01*
X42653607Y-100578407D01*
X42639997Y-100598776D01*
X42513060Y-100725492D01*
X42443671Y-100892598D01*
X42429941Y-100913147D01*
X42425162Y-100937174D01*
X42356379Y-101102821D01*
X42356221Y-101283764D01*
X42351400Y-101308000D01*
X42351400Y-101979106D01*
X42429941Y-102373959D01*
X42653607Y-102708699D01*
X45081301Y-105136393D01*
X45416041Y-105360059D01*
X45810894Y-105438600D01*
X70578242Y-105438600D01*
X70973095Y-105360059D01*
X71307835Y-105136393D01*
X74795993Y-101648235D01*
X75019659Y-101313495D01*
X75098200Y-100918642D01*
X75098200Y-96096405D01*
X75098201Y-96096400D01*
X75019659Y-95701548D01*
X75019659Y-95701547D01*
X74795993Y-95366807D01*
X73657593Y-94228407D01*
X73322853Y-94004741D01*
X72928000Y-93926200D01*
X72705819Y-93926200D01*
X72579284Y-93736827D01*
X72506209Y-93688000D01*
X72579284Y-93639173D01*
X72953651Y-93078894D01*
X73085111Y-92418000D01*
X72953651Y-91757106D01*
X72579284Y-91196827D01*
X72506209Y-91148000D01*
X72579284Y-91099173D01*
X72953651Y-90538894D01*
X73085111Y-89878000D01*
X72953651Y-89217106D01*
X72579284Y-88656827D01*
X72019005Y-88282460D01*
X71358111Y-88151000D01*
X70678689Y-88151000D01*
X70017795Y-88282460D01*
X69457516Y-88656827D01*
X69398868Y-88744600D01*
X54584600Y-88744600D01*
X54150866Y-88830875D01*
X53783165Y-89076565D01*
X52767165Y-90092565D01*
X52521475Y-90460266D01*
X52435200Y-90894000D01*
X52521475Y-91327734D01*
X52767165Y-91695435D01*
X53134866Y-91941125D01*
X53568600Y-92027400D01*
X54002334Y-91941125D01*
X54370035Y-91695435D01*
X55054070Y-91011400D01*
X69398868Y-91011400D01*
X69457516Y-91099173D01*
X69530591Y-91148000D01*
X69457516Y-91196827D01*
X69083149Y-91757106D01*
X68951689Y-92418000D01*
X69083149Y-93078894D01*
X69457516Y-93639173D01*
X69530591Y-93688000D01*
X69457516Y-93736827D01*
X69083149Y-94297106D01*
X68951689Y-94958000D01*
X69083149Y-95618894D01*
X69457516Y-96179173D01*
X69530591Y-96228000D01*
X69457516Y-96276827D01*
X69330981Y-96466200D01*
X46198185Y-96466200D01*
X39693193Y-89961207D01*
X39358453Y-89737541D01*
X38963600Y-89659000D01*
X38245986Y-89659000D01*
X35196393Y-86609407D01*
X35176024Y-86595797D01*
X35049308Y-86468860D01*
X34882202Y-86399471D01*
X34861653Y-86385741D01*
X34837626Y-86380962D01*
X34671979Y-86312179D01*
X34491036Y-86312021D01*
X34466800Y-86307200D01*
X34442776Y-86311979D01*
X34263413Y-86311822D01*
X34096182Y-86380920D01*
X34071947Y-86385741D01*
X34051581Y-86399349D01*
X33885811Y-86467844D01*
X33757755Y-86595677D01*
X33737207Y-86609407D01*
X33723597Y-86629776D01*
X33596660Y-86756492D01*
X33527271Y-86923598D01*
X33513541Y-86944147D01*
X33508762Y-86968174D01*
X33439979Y-87133821D01*
X33439821Y-87314764D01*
X33435000Y-87339000D01*
X27688466Y-87339000D01*
X27693957Y-85978400D01*
X44330358Y-85978400D01*
X44330358Y-87478400D01*
X44381051Y-87747810D01*
X44540272Y-87995246D01*
X44783215Y-88161243D01*
X45071600Y-88219642D01*
X46571600Y-88219642D01*
X46841010Y-88168949D01*
X47088446Y-88009728D01*
X47254443Y-87766785D01*
X47264015Y-87719516D01*
X47523854Y-87979809D01*
X48066518Y-88205143D01*
X48654105Y-88205656D01*
X49197160Y-87981270D01*
X49613009Y-87566146D01*
X49631366Y-87521937D01*
X49648730Y-87563960D01*
X50063854Y-87979809D01*
X50606518Y-88205143D01*
X51194105Y-88205656D01*
X51737160Y-87981270D01*
X52153009Y-87566146D01*
X52171366Y-87521937D01*
X52188730Y-87563960D01*
X52603854Y-87979809D01*
X53146518Y-88205143D01*
X53734105Y-88205656D01*
X54277160Y-87981270D01*
X54693009Y-87566146D01*
X54711366Y-87521937D01*
X54728730Y-87563960D01*
X55143854Y-87979809D01*
X55686518Y-88205143D01*
X56274105Y-88205656D01*
X56817160Y-87981270D01*
X57233009Y-87566146D01*
X57251366Y-87521937D01*
X57268730Y-87563960D01*
X57683854Y-87979809D01*
X58226518Y-88205143D01*
X58814105Y-88205656D01*
X59357160Y-87981270D01*
X59773009Y-87566146D01*
X59998343Y-87023482D01*
X59998856Y-86435895D01*
X59774470Y-85892840D01*
X59359346Y-85476991D01*
X58816682Y-85251657D01*
X58229095Y-85251144D01*
X57686040Y-85475530D01*
X57270191Y-85890654D01*
X57251834Y-85934863D01*
X57234470Y-85892840D01*
X56819346Y-85476991D01*
X56276682Y-85251657D01*
X55689095Y-85251144D01*
X55146040Y-85475530D01*
X54730191Y-85890654D01*
X54711834Y-85934863D01*
X54694470Y-85892840D01*
X54279346Y-85476991D01*
X53736682Y-85251657D01*
X53149095Y-85251144D01*
X52606040Y-85475530D01*
X52190191Y-85890654D01*
X52171834Y-85934863D01*
X52154470Y-85892840D01*
X51739346Y-85476991D01*
X51196682Y-85251657D01*
X50609095Y-85251144D01*
X50066040Y-85475530D01*
X49650191Y-85890654D01*
X49631834Y-85934863D01*
X49614470Y-85892840D01*
X49199346Y-85476991D01*
X48656682Y-85251657D01*
X48069095Y-85251144D01*
X47526040Y-85475530D01*
X47266897Y-85734222D01*
X47262149Y-85708990D01*
X47102928Y-85461554D01*
X46859985Y-85295557D01*
X46571600Y-85237158D01*
X45071600Y-85237158D01*
X44802190Y-85287851D01*
X44554754Y-85447072D01*
X44388757Y-85690015D01*
X44330358Y-85978400D01*
X27693957Y-85978400D01*
X27707141Y-82712345D01*
X76274149Y-82598498D01*
X76200404Y-105803473D01*
X76200404Y-105803473D01*
G37*
X76200404Y-105803473D02*
X27614444Y-105678121D01*
X27688466Y-87339000D01*
X33435000Y-87339000D01*
X33439779Y-87363024D01*
X33439622Y-87542387D01*
X33508720Y-87709618D01*
X33513541Y-87733853D01*
X33527149Y-87754219D01*
X33595644Y-87919989D01*
X33723477Y-88048045D01*
X33737207Y-88068593D01*
X37089007Y-91420393D01*
X37423747Y-91644059D01*
X37818600Y-91722600D01*
X38536214Y-91722600D01*
X45041205Y-98227590D01*
X45041207Y-98227593D01*
X45375947Y-98451259D01*
X45441458Y-98464290D01*
X45770800Y-98529801D01*
X45770805Y-98529800D01*
X69328574Y-98529800D01*
X69180073Y-98678302D01*
X69083400Y-98911691D01*
X69083400Y-99752250D01*
X69242150Y-99911000D01*
X70891400Y-99911000D01*
X70891400Y-99891000D01*
X71145400Y-99891000D01*
X71145400Y-99911000D01*
X72794650Y-99911000D01*
X72953400Y-99752250D01*
X72953400Y-98911691D01*
X72856727Y-98678302D01*
X72706783Y-98528357D01*
X72953651Y-98158894D01*
X73034600Y-97751936D01*
X73034600Y-100491256D01*
X72953400Y-100572456D01*
X72953400Y-100323750D01*
X72794650Y-100165000D01*
X71145400Y-100165000D01*
X71145400Y-101514250D01*
X71304150Y-101673000D01*
X71852856Y-101673000D01*
X70150856Y-103375000D01*
X58985105Y-103375000D01*
X59357160Y-103221270D01*
X59773009Y-102806146D01*
X59998343Y-102263482D01*
X59998856Y-101675895D01*
X59774470Y-101132840D01*
X59359346Y-100716991D01*
X58816682Y-100491657D01*
X58229095Y-100491144D01*
X57686040Y-100715530D01*
X57270191Y-101130654D01*
X57251834Y-101174863D01*
X57234470Y-101132840D01*
X56819346Y-100716991D01*
X56276682Y-100491657D01*
X55689095Y-100491144D01*
X55146040Y-100715530D01*
X54730191Y-101130654D01*
X54711834Y-101174863D01*
X54694470Y-101132840D01*
X54279346Y-100716991D01*
X53736682Y-100491657D01*
X53149095Y-100491144D01*
X52606040Y-100715530D01*
X52190191Y-101130654D01*
X52171834Y-101174863D01*
X52154470Y-101132840D01*
X51739346Y-100716991D01*
X51196682Y-100491657D01*
X50609095Y-100491144D01*
X50066040Y-100715530D01*
X49650191Y-101130654D01*
X49631834Y-101174863D01*
X49614470Y-101132840D01*
X49199346Y-100716991D01*
X48656682Y-100491657D01*
X48069095Y-100491144D01*
X47526040Y-100715530D01*
X47110191Y-101130654D01*
X47091834Y-101174863D01*
X47074470Y-101132840D01*
X46659346Y-100716991D01*
X46116682Y-100491657D01*
X45529095Y-100491144D01*
X44986040Y-100715530D01*
X44570191Y-101130654D01*
X44415000Y-101504395D01*
X44415000Y-101308000D01*
X44410221Y-101283976D01*
X44410378Y-101104613D01*
X44341280Y-100937382D01*
X44336459Y-100913147D01*
X44322851Y-100892781D01*
X44254356Y-100727011D01*
X44126523Y-100598955D01*
X44112793Y-100578407D01*
X44092424Y-100564797D01*
X43965708Y-100437860D01*
X43798602Y-100368471D01*
X43778053Y-100354741D01*
X43754026Y-100349962D01*
X43690901Y-100323750D01*
X69083400Y-100323750D01*
X69083400Y-101164309D01*
X69180073Y-101397698D01*
X69358701Y-101576327D01*
X69592090Y-101673000D01*
X70732650Y-101673000D01*
X70891400Y-101514250D01*
X70891400Y-100165000D01*
X69242150Y-100165000D01*
X69083400Y-100323750D01*
X43690901Y-100323750D01*
X43588379Y-100281179D01*
X43407436Y-100281021D01*
X43383200Y-100276200D01*
X43359176Y-100280979D01*
X43179813Y-100280822D01*
X43012582Y-100349920D01*
X42988347Y-100354741D01*
X42967981Y-100368349D01*
X42802211Y-100436844D01*
X42674155Y-100564677D01*
X42653607Y-100578407D01*
X42639997Y-100598776D01*
X42513060Y-100725492D01*
X42443671Y-100892598D01*
X42429941Y-100913147D01*
X42425162Y-100937174D01*
X42356379Y-101102821D01*
X42356221Y-101283764D01*
X42351400Y-101308000D01*
X42351400Y-101979106D01*
X42429941Y-102373959D01*
X42653607Y-102708699D01*
X45081301Y-105136393D01*
X45416041Y-105360059D01*
X45810894Y-105438600D01*
X70578242Y-105438600D01*
X70973095Y-105360059D01*
X71307835Y-105136393D01*
X74795993Y-101648235D01*
X75019659Y-101313495D01*
X75098200Y-100918642D01*
X75098200Y-96096405D01*
X75098201Y-96096400D01*
X75019659Y-95701548D01*
X75019659Y-95701547D01*
X74795993Y-95366807D01*
X73657593Y-94228407D01*
X73322853Y-94004741D01*
X72928000Y-93926200D01*
X72705819Y-93926200D01*
X72579284Y-93736827D01*
X72506209Y-93688000D01*
X72579284Y-93639173D01*
X72953651Y-93078894D01*
X73085111Y-92418000D01*
X72953651Y-91757106D01*
X72579284Y-91196827D01*
X72506209Y-91148000D01*
X72579284Y-91099173D01*
X72953651Y-90538894D01*
X73085111Y-89878000D01*
X72953651Y-89217106D01*
X72579284Y-88656827D01*
X72019005Y-88282460D01*
X71358111Y-88151000D01*
X70678689Y-88151000D01*
X70017795Y-88282460D01*
X69457516Y-88656827D01*
X69398868Y-88744600D01*
X54584600Y-88744600D01*
X54150866Y-88830875D01*
X53783165Y-89076565D01*
X52767165Y-90092565D01*
X52521475Y-90460266D01*
X52435200Y-90894000D01*
X52521475Y-91327734D01*
X52767165Y-91695435D01*
X53134866Y-91941125D01*
X53568600Y-92027400D01*
X54002334Y-91941125D01*
X54370035Y-91695435D01*
X55054070Y-91011400D01*
X69398868Y-91011400D01*
X69457516Y-91099173D01*
X69530591Y-91148000D01*
X69457516Y-91196827D01*
X69083149Y-91757106D01*
X68951689Y-92418000D01*
X69083149Y-93078894D01*
X69457516Y-93639173D01*
X69530591Y-93688000D01*
X69457516Y-93736827D01*
X69083149Y-94297106D01*
X68951689Y-94958000D01*
X69083149Y-95618894D01*
X69457516Y-96179173D01*
X69530591Y-96228000D01*
X69457516Y-96276827D01*
X69330981Y-96466200D01*
X46198185Y-96466200D01*
X39693193Y-89961207D01*
X39358453Y-89737541D01*
X38963600Y-89659000D01*
X38245986Y-89659000D01*
X35196393Y-86609407D01*
X35176024Y-86595797D01*
X35049308Y-86468860D01*
X34882202Y-86399471D01*
X34861653Y-86385741D01*
X34837626Y-86380962D01*
X34671979Y-86312179D01*
X34491036Y-86312021D01*
X34466800Y-86307200D01*
X34442776Y-86311979D01*
X34263413Y-86311822D01*
X34096182Y-86380920D01*
X34071947Y-86385741D01*
X34051581Y-86399349D01*
X33885811Y-86467844D01*
X33757755Y-86595677D01*
X33737207Y-86609407D01*
X33723597Y-86629776D01*
X33596660Y-86756492D01*
X33527271Y-86923598D01*
X33513541Y-86944147D01*
X33508762Y-86968174D01*
X33439979Y-87133821D01*
X33439821Y-87314764D01*
X33435000Y-87339000D01*
X27688466Y-87339000D01*
X27693957Y-85978400D01*
X44330358Y-85978400D01*
X44330358Y-87478400D01*
X44381051Y-87747810D01*
X44540272Y-87995246D01*
X44783215Y-88161243D01*
X45071600Y-88219642D01*
X46571600Y-88219642D01*
X46841010Y-88168949D01*
X47088446Y-88009728D01*
X47254443Y-87766785D01*
X47264015Y-87719516D01*
X47523854Y-87979809D01*
X48066518Y-88205143D01*
X48654105Y-88205656D01*
X49197160Y-87981270D01*
X49613009Y-87566146D01*
X49631366Y-87521937D01*
X49648730Y-87563960D01*
X50063854Y-87979809D01*
X50606518Y-88205143D01*
X51194105Y-88205656D01*
X51737160Y-87981270D01*
X52153009Y-87566146D01*
X52171366Y-87521937D01*
X52188730Y-87563960D01*
X52603854Y-87979809D01*
X53146518Y-88205143D01*
X53734105Y-88205656D01*
X54277160Y-87981270D01*
X54693009Y-87566146D01*
X54711366Y-87521937D01*
X54728730Y-87563960D01*
X55143854Y-87979809D01*
X55686518Y-88205143D01*
X56274105Y-88205656D01*
X56817160Y-87981270D01*
X57233009Y-87566146D01*
X57251366Y-87521937D01*
X57268730Y-87563960D01*
X57683854Y-87979809D01*
X58226518Y-88205143D01*
X58814105Y-88205656D01*
X59357160Y-87981270D01*
X59773009Y-87566146D01*
X59998343Y-87023482D01*
X59998856Y-86435895D01*
X59774470Y-85892840D01*
X59359346Y-85476991D01*
X58816682Y-85251657D01*
X58229095Y-85251144D01*
X57686040Y-85475530D01*
X57270191Y-85890654D01*
X57251834Y-85934863D01*
X57234470Y-85892840D01*
X56819346Y-85476991D01*
X56276682Y-85251657D01*
X55689095Y-85251144D01*
X55146040Y-85475530D01*
X54730191Y-85890654D01*
X54711834Y-85934863D01*
X54694470Y-85892840D01*
X54279346Y-85476991D01*
X53736682Y-85251657D01*
X53149095Y-85251144D01*
X52606040Y-85475530D01*
X52190191Y-85890654D01*
X52171834Y-85934863D01*
X52154470Y-85892840D01*
X51739346Y-85476991D01*
X51196682Y-85251657D01*
X50609095Y-85251144D01*
X50066040Y-85475530D01*
X49650191Y-85890654D01*
X49631834Y-85934863D01*
X49614470Y-85892840D01*
X49199346Y-85476991D01*
X48656682Y-85251657D01*
X48069095Y-85251144D01*
X47526040Y-85475530D01*
X47266897Y-85734222D01*
X47262149Y-85708990D01*
X47102928Y-85461554D01*
X46859985Y-85295557D01*
X46571600Y-85237158D01*
X45071600Y-85237158D01*
X44802190Y-85287851D01*
X44554754Y-85447072D01*
X44388757Y-85690015D01*
X44330358Y-85978400D01*
X27693957Y-85978400D01*
X27707141Y-82712345D01*
X76274149Y-82598498D01*
X76200404Y-105803473D01*
G36*
X126200404Y-105803473D02*
X77614444Y-105678121D01*
X77688466Y-87339000D01*
X83435000Y-87339000D01*
X83439779Y-87363024D01*
X83439622Y-87542387D01*
X83508720Y-87709618D01*
X83513541Y-87733853D01*
X83527149Y-87754219D01*
X83595644Y-87919989D01*
X83723477Y-88048045D01*
X83737207Y-88068593D01*
X87089007Y-91420393D01*
X87423747Y-91644059D01*
X87818600Y-91722600D01*
X88536214Y-91722600D01*
X95041205Y-98227590D01*
X95041207Y-98227593D01*
X95375947Y-98451259D01*
X95441458Y-98464290D01*
X95770800Y-98529801D01*
X95770805Y-98529800D01*
X119328574Y-98529800D01*
X119180073Y-98678302D01*
X119083400Y-98911691D01*
X119083400Y-99752250D01*
X119242150Y-99911000D01*
X120891400Y-99911000D01*
X120891400Y-99891000D01*
X121145400Y-99891000D01*
X121145400Y-99911000D01*
X122794650Y-99911000D01*
X122953400Y-99752250D01*
X122953400Y-98911691D01*
X122856727Y-98678302D01*
X122706783Y-98528357D01*
X122953651Y-98158894D01*
X123034600Y-97751936D01*
X123034600Y-100491256D01*
X122953400Y-100572456D01*
X122953400Y-100323750D01*
X122794650Y-100165000D01*
X121145400Y-100165000D01*
X121145400Y-101514250D01*
X121304150Y-101673000D01*
X121852856Y-101673000D01*
X120150856Y-103375000D01*
X108985105Y-103375000D01*
X109357160Y-103221270D01*
X109773009Y-102806146D01*
X109998343Y-102263482D01*
X109998856Y-101675895D01*
X109774470Y-101132840D01*
X109359346Y-100716991D01*
X108816682Y-100491657D01*
X108229095Y-100491144D01*
X107686040Y-100715530D01*
X107270191Y-101130654D01*
X107251834Y-101174863D01*
X107234470Y-101132840D01*
X106819346Y-100716991D01*
X106276682Y-100491657D01*
X105689095Y-100491144D01*
X105146040Y-100715530D01*
X104730191Y-101130654D01*
X104711834Y-101174863D01*
X104694470Y-101132840D01*
X104279346Y-100716991D01*
X103736682Y-100491657D01*
X103149095Y-100491144D01*
X102606040Y-100715530D01*
X102190191Y-101130654D01*
X102171834Y-101174863D01*
X102154470Y-101132840D01*
X101739346Y-100716991D01*
X101196682Y-100491657D01*
X100609095Y-100491144D01*
X100066040Y-100715530D01*
X99650191Y-101130654D01*
X99631834Y-101174863D01*
X99614470Y-101132840D01*
X99199346Y-100716991D01*
X98656682Y-100491657D01*
X98069095Y-100491144D01*
X97526040Y-100715530D01*
X97110191Y-101130654D01*
X97091834Y-101174863D01*
X97074470Y-101132840D01*
X96659346Y-100716991D01*
X96116682Y-100491657D01*
X95529095Y-100491144D01*
X94986040Y-100715530D01*
X94570191Y-101130654D01*
X94415000Y-101504395D01*
X94415000Y-101308000D01*
X94410221Y-101283976D01*
X94410378Y-101104613D01*
X94341280Y-100937382D01*
X94336459Y-100913147D01*
X94322851Y-100892781D01*
X94254356Y-100727011D01*
X94126523Y-100598955D01*
X94112793Y-100578407D01*
X94092424Y-100564797D01*
X93965708Y-100437860D01*
X93798602Y-100368471D01*
X93778053Y-100354741D01*
X93754026Y-100349962D01*
X93690901Y-100323750D01*
X119083400Y-100323750D01*
X119083400Y-101164309D01*
X119180073Y-101397698D01*
X119358701Y-101576327D01*
X119592090Y-101673000D01*
X120732650Y-101673000D01*
X120891400Y-101514250D01*
X120891400Y-100165000D01*
X119242150Y-100165000D01*
X119083400Y-100323750D01*
X93690901Y-100323750D01*
X93588379Y-100281179D01*
X93407436Y-100281021D01*
X93383200Y-100276200D01*
X93359176Y-100280979D01*
X93179813Y-100280822D01*
X93012582Y-100349920D01*
X92988347Y-100354741D01*
X92967981Y-100368349D01*
X92802211Y-100436844D01*
X92674155Y-100564677D01*
X92653607Y-100578407D01*
X92639997Y-100598776D01*
X92513060Y-100725492D01*
X92443671Y-100892598D01*
X92429941Y-100913147D01*
X92425162Y-100937174D01*
X92356379Y-101102821D01*
X92356221Y-101283764D01*
X92351400Y-101308000D01*
X92351400Y-101979106D01*
X92429941Y-102373959D01*
X92653607Y-102708699D01*
X95081301Y-105136393D01*
X95416041Y-105360059D01*
X95810894Y-105438600D01*
X120578242Y-105438600D01*
X120973095Y-105360059D01*
X121307835Y-105136393D01*
X124795993Y-101648235D01*
X125019659Y-101313495D01*
X125098200Y-100918642D01*
X125098200Y-96096405D01*
X125098201Y-96096400D01*
X125019659Y-95701548D01*
X125019659Y-95701547D01*
X124795993Y-95366807D01*
X123657593Y-94228407D01*
X123322853Y-94004741D01*
X122928000Y-93926200D01*
X122705819Y-93926200D01*
X122579284Y-93736827D01*
X122506209Y-93688000D01*
X122579284Y-93639173D01*
X122953651Y-93078894D01*
X123085111Y-92418000D01*
X122953651Y-91757106D01*
X122579284Y-91196827D01*
X122506209Y-91148000D01*
X122579284Y-91099173D01*
X122953651Y-90538894D01*
X123085111Y-89878000D01*
X122953651Y-89217106D01*
X122579284Y-88656827D01*
X122019005Y-88282460D01*
X121358111Y-88151000D01*
X120678689Y-88151000D01*
X120017795Y-88282460D01*
X119457516Y-88656827D01*
X119398868Y-88744600D01*
X104584600Y-88744600D01*
X104150866Y-88830875D01*
X103783165Y-89076565D01*
X102767165Y-90092565D01*
X102521475Y-90460266D01*
X102435200Y-90894000D01*
X102521475Y-91327734D01*
X102767165Y-91695435D01*
X103134866Y-91941125D01*
X103568600Y-92027400D01*
X104002334Y-91941125D01*
X104370035Y-91695435D01*
X105054070Y-91011400D01*
X119398868Y-91011400D01*
X119457516Y-91099173D01*
X119530591Y-91148000D01*
X119457516Y-91196827D01*
X119083149Y-91757106D01*
X118951689Y-92418000D01*
X119083149Y-93078894D01*
X119457516Y-93639173D01*
X119530591Y-93688000D01*
X119457516Y-93736827D01*
X119083149Y-94297106D01*
X118951689Y-94958000D01*
X119083149Y-95618894D01*
X119457516Y-96179173D01*
X119530591Y-96228000D01*
X119457516Y-96276827D01*
X119330981Y-96466200D01*
X96198185Y-96466200D01*
X89693193Y-89961207D01*
X89358453Y-89737541D01*
X88963600Y-89659000D01*
X88245986Y-89659000D01*
X85196393Y-86609407D01*
X85176024Y-86595797D01*
X85049308Y-86468860D01*
X84882202Y-86399471D01*
X84861653Y-86385741D01*
X84837626Y-86380962D01*
X84671979Y-86312179D01*
X84491036Y-86312021D01*
X84466800Y-86307200D01*
X84442776Y-86311979D01*
X84263413Y-86311822D01*
X84096182Y-86380920D01*
X84071947Y-86385741D01*
X84051581Y-86399349D01*
X83885811Y-86467844D01*
X83757755Y-86595677D01*
X83737207Y-86609407D01*
X83723597Y-86629776D01*
X83596660Y-86756492D01*
X83527271Y-86923598D01*
X83513541Y-86944147D01*
X83508762Y-86968174D01*
X83439979Y-87133821D01*
X83439821Y-87314764D01*
X83435000Y-87339000D01*
X77688466Y-87339000D01*
X77693957Y-85978400D01*
X94330358Y-85978400D01*
X94330358Y-87478400D01*
X94381051Y-87747810D01*
X94540272Y-87995246D01*
X94783215Y-88161243D01*
X95071600Y-88219642D01*
X96571600Y-88219642D01*
X96841010Y-88168949D01*
X97088446Y-88009728D01*
X97254443Y-87766785D01*
X97264015Y-87719516D01*
X97523854Y-87979809D01*
X98066518Y-88205143D01*
X98654105Y-88205656D01*
X99197160Y-87981270D01*
X99613009Y-87566146D01*
X99631366Y-87521937D01*
X99648730Y-87563960D01*
X100063854Y-87979809D01*
X100606518Y-88205143D01*
X101194105Y-88205656D01*
X101737160Y-87981270D01*
X102153009Y-87566146D01*
X102171366Y-87521937D01*
X102188730Y-87563960D01*
X102603854Y-87979809D01*
X103146518Y-88205143D01*
X103734105Y-88205656D01*
X104277160Y-87981270D01*
X104693009Y-87566146D01*
X104711366Y-87521937D01*
X104728730Y-87563960D01*
X105143854Y-87979809D01*
X105686518Y-88205143D01*
X106274105Y-88205656D01*
X106817160Y-87981270D01*
X107233009Y-87566146D01*
X107251366Y-87521937D01*
X107268730Y-87563960D01*
X107683854Y-87979809D01*
X108226518Y-88205143D01*
X108814105Y-88205656D01*
X109357160Y-87981270D01*
X109773009Y-87566146D01*
X109998343Y-87023482D01*
X109998856Y-86435895D01*
X109774470Y-85892840D01*
X109359346Y-85476991D01*
X108816682Y-85251657D01*
X108229095Y-85251144D01*
X107686040Y-85475530D01*
X107270191Y-85890654D01*
X107251834Y-85934863D01*
X107234470Y-85892840D01*
X106819346Y-85476991D01*
X106276682Y-85251657D01*
X105689095Y-85251144D01*
X105146040Y-85475530D01*
X104730191Y-85890654D01*
X104711834Y-85934863D01*
X104694470Y-85892840D01*
X104279346Y-85476991D01*
X103736682Y-85251657D01*
X103149095Y-85251144D01*
X102606040Y-85475530D01*
X102190191Y-85890654D01*
X102171834Y-85934863D01*
X102154470Y-85892840D01*
X101739346Y-85476991D01*
X101196682Y-85251657D01*
X100609095Y-85251144D01*
X100066040Y-85475530D01*
X99650191Y-85890654D01*
X99631834Y-85934863D01*
X99614470Y-85892840D01*
X99199346Y-85476991D01*
X98656682Y-85251657D01*
X98069095Y-85251144D01*
X97526040Y-85475530D01*
X97266897Y-85734222D01*
X97262149Y-85708990D01*
X97102928Y-85461554D01*
X96859985Y-85295557D01*
X96571600Y-85237158D01*
X95071600Y-85237158D01*
X94802190Y-85287851D01*
X94554754Y-85447072D01*
X94388757Y-85690015D01*
X94330358Y-85978400D01*
X77693957Y-85978400D01*
X77707141Y-82712345D01*
X126274149Y-82598498D01*
X126200404Y-105803473D01*
X126200404Y-105803473D01*
G37*
X126200404Y-105803473D02*
X77614444Y-105678121D01*
X77688466Y-87339000D01*
X83435000Y-87339000D01*
X83439779Y-87363024D01*
X83439622Y-87542387D01*
X83508720Y-87709618D01*
X83513541Y-87733853D01*
X83527149Y-87754219D01*
X83595644Y-87919989D01*
X83723477Y-88048045D01*
X83737207Y-88068593D01*
X87089007Y-91420393D01*
X87423747Y-91644059D01*
X87818600Y-91722600D01*
X88536214Y-91722600D01*
X95041205Y-98227590D01*
X95041207Y-98227593D01*
X95375947Y-98451259D01*
X95441458Y-98464290D01*
X95770800Y-98529801D01*
X95770805Y-98529800D01*
X119328574Y-98529800D01*
X119180073Y-98678302D01*
X119083400Y-98911691D01*
X119083400Y-99752250D01*
X119242150Y-99911000D01*
X120891400Y-99911000D01*
X120891400Y-99891000D01*
X121145400Y-99891000D01*
X121145400Y-99911000D01*
X122794650Y-99911000D01*
X122953400Y-99752250D01*
X122953400Y-98911691D01*
X122856727Y-98678302D01*
X122706783Y-98528357D01*
X122953651Y-98158894D01*
X123034600Y-97751936D01*
X123034600Y-100491256D01*
X122953400Y-100572456D01*
X122953400Y-100323750D01*
X122794650Y-100165000D01*
X121145400Y-100165000D01*
X121145400Y-101514250D01*
X121304150Y-101673000D01*
X121852856Y-101673000D01*
X120150856Y-103375000D01*
X108985105Y-103375000D01*
X109357160Y-103221270D01*
X109773009Y-102806146D01*
X109998343Y-102263482D01*
X109998856Y-101675895D01*
X109774470Y-101132840D01*
X109359346Y-100716991D01*
X108816682Y-100491657D01*
X108229095Y-100491144D01*
X107686040Y-100715530D01*
X107270191Y-101130654D01*
X107251834Y-101174863D01*
X107234470Y-101132840D01*
X106819346Y-100716991D01*
X106276682Y-100491657D01*
X105689095Y-100491144D01*
X105146040Y-100715530D01*
X104730191Y-101130654D01*
X104711834Y-101174863D01*
X104694470Y-101132840D01*
X104279346Y-100716991D01*
X103736682Y-100491657D01*
X103149095Y-100491144D01*
X102606040Y-100715530D01*
X102190191Y-101130654D01*
X102171834Y-101174863D01*
X102154470Y-101132840D01*
X101739346Y-100716991D01*
X101196682Y-100491657D01*
X100609095Y-100491144D01*
X100066040Y-100715530D01*
X99650191Y-101130654D01*
X99631834Y-101174863D01*
X99614470Y-101132840D01*
X99199346Y-100716991D01*
X98656682Y-100491657D01*
X98069095Y-100491144D01*
X97526040Y-100715530D01*
X97110191Y-101130654D01*
X97091834Y-101174863D01*
X97074470Y-101132840D01*
X96659346Y-100716991D01*
X96116682Y-100491657D01*
X95529095Y-100491144D01*
X94986040Y-100715530D01*
X94570191Y-101130654D01*
X94415000Y-101504395D01*
X94415000Y-101308000D01*
X94410221Y-101283976D01*
X94410378Y-101104613D01*
X94341280Y-100937382D01*
X94336459Y-100913147D01*
X94322851Y-100892781D01*
X94254356Y-100727011D01*
X94126523Y-100598955D01*
X94112793Y-100578407D01*
X94092424Y-100564797D01*
X93965708Y-100437860D01*
X93798602Y-100368471D01*
X93778053Y-100354741D01*
X93754026Y-100349962D01*
X93690901Y-100323750D01*
X119083400Y-100323750D01*
X119083400Y-101164309D01*
X119180073Y-101397698D01*
X119358701Y-101576327D01*
X119592090Y-101673000D01*
X120732650Y-101673000D01*
X120891400Y-101514250D01*
X120891400Y-100165000D01*
X119242150Y-100165000D01*
X119083400Y-100323750D01*
X93690901Y-100323750D01*
X93588379Y-100281179D01*
X93407436Y-100281021D01*
X93383200Y-100276200D01*
X93359176Y-100280979D01*
X93179813Y-100280822D01*
X93012582Y-100349920D01*
X92988347Y-100354741D01*
X92967981Y-100368349D01*
X92802211Y-100436844D01*
X92674155Y-100564677D01*
X92653607Y-100578407D01*
X92639997Y-100598776D01*
X92513060Y-100725492D01*
X92443671Y-100892598D01*
X92429941Y-100913147D01*
X92425162Y-100937174D01*
X92356379Y-101102821D01*
X92356221Y-101283764D01*
X92351400Y-101308000D01*
X92351400Y-101979106D01*
X92429941Y-102373959D01*
X92653607Y-102708699D01*
X95081301Y-105136393D01*
X95416041Y-105360059D01*
X95810894Y-105438600D01*
X120578242Y-105438600D01*
X120973095Y-105360059D01*
X121307835Y-105136393D01*
X124795993Y-101648235D01*
X125019659Y-101313495D01*
X125098200Y-100918642D01*
X125098200Y-96096405D01*
X125098201Y-96096400D01*
X125019659Y-95701548D01*
X125019659Y-95701547D01*
X124795993Y-95366807D01*
X123657593Y-94228407D01*
X123322853Y-94004741D01*
X122928000Y-93926200D01*
X122705819Y-93926200D01*
X122579284Y-93736827D01*
X122506209Y-93688000D01*
X122579284Y-93639173D01*
X122953651Y-93078894D01*
X123085111Y-92418000D01*
X122953651Y-91757106D01*
X122579284Y-91196827D01*
X122506209Y-91148000D01*
X122579284Y-91099173D01*
X122953651Y-90538894D01*
X123085111Y-89878000D01*
X122953651Y-89217106D01*
X122579284Y-88656827D01*
X122019005Y-88282460D01*
X121358111Y-88151000D01*
X120678689Y-88151000D01*
X120017795Y-88282460D01*
X119457516Y-88656827D01*
X119398868Y-88744600D01*
X104584600Y-88744600D01*
X104150866Y-88830875D01*
X103783165Y-89076565D01*
X102767165Y-90092565D01*
X102521475Y-90460266D01*
X102435200Y-90894000D01*
X102521475Y-91327734D01*
X102767165Y-91695435D01*
X103134866Y-91941125D01*
X103568600Y-92027400D01*
X104002334Y-91941125D01*
X104370035Y-91695435D01*
X105054070Y-91011400D01*
X119398868Y-91011400D01*
X119457516Y-91099173D01*
X119530591Y-91148000D01*
X119457516Y-91196827D01*
X119083149Y-91757106D01*
X118951689Y-92418000D01*
X119083149Y-93078894D01*
X119457516Y-93639173D01*
X119530591Y-93688000D01*
X119457516Y-93736827D01*
X119083149Y-94297106D01*
X118951689Y-94958000D01*
X119083149Y-95618894D01*
X119457516Y-96179173D01*
X119530591Y-96228000D01*
X119457516Y-96276827D01*
X119330981Y-96466200D01*
X96198185Y-96466200D01*
X89693193Y-89961207D01*
X89358453Y-89737541D01*
X88963600Y-89659000D01*
X88245986Y-89659000D01*
X85196393Y-86609407D01*
X85176024Y-86595797D01*
X85049308Y-86468860D01*
X84882202Y-86399471D01*
X84861653Y-86385741D01*
X84837626Y-86380962D01*
X84671979Y-86312179D01*
X84491036Y-86312021D01*
X84466800Y-86307200D01*
X84442776Y-86311979D01*
X84263413Y-86311822D01*
X84096182Y-86380920D01*
X84071947Y-86385741D01*
X84051581Y-86399349D01*
X83885811Y-86467844D01*
X83757755Y-86595677D01*
X83737207Y-86609407D01*
X83723597Y-86629776D01*
X83596660Y-86756492D01*
X83527271Y-86923598D01*
X83513541Y-86944147D01*
X83508762Y-86968174D01*
X83439979Y-87133821D01*
X83439821Y-87314764D01*
X83435000Y-87339000D01*
X77688466Y-87339000D01*
X77693957Y-85978400D01*
X94330358Y-85978400D01*
X94330358Y-87478400D01*
X94381051Y-87747810D01*
X94540272Y-87995246D01*
X94783215Y-88161243D01*
X95071600Y-88219642D01*
X96571600Y-88219642D01*
X96841010Y-88168949D01*
X97088446Y-88009728D01*
X97254443Y-87766785D01*
X97264015Y-87719516D01*
X97523854Y-87979809D01*
X98066518Y-88205143D01*
X98654105Y-88205656D01*
X99197160Y-87981270D01*
X99613009Y-87566146D01*
X99631366Y-87521937D01*
X99648730Y-87563960D01*
X100063854Y-87979809D01*
X100606518Y-88205143D01*
X101194105Y-88205656D01*
X101737160Y-87981270D01*
X102153009Y-87566146D01*
X102171366Y-87521937D01*
X102188730Y-87563960D01*
X102603854Y-87979809D01*
X103146518Y-88205143D01*
X103734105Y-88205656D01*
X104277160Y-87981270D01*
X104693009Y-87566146D01*
X104711366Y-87521937D01*
X104728730Y-87563960D01*
X105143854Y-87979809D01*
X105686518Y-88205143D01*
X106274105Y-88205656D01*
X106817160Y-87981270D01*
X107233009Y-87566146D01*
X107251366Y-87521937D01*
X107268730Y-87563960D01*
X107683854Y-87979809D01*
X108226518Y-88205143D01*
X108814105Y-88205656D01*
X109357160Y-87981270D01*
X109773009Y-87566146D01*
X109998343Y-87023482D01*
X109998856Y-86435895D01*
X109774470Y-85892840D01*
X109359346Y-85476991D01*
X108816682Y-85251657D01*
X108229095Y-85251144D01*
X107686040Y-85475530D01*
X107270191Y-85890654D01*
X107251834Y-85934863D01*
X107234470Y-85892840D01*
X106819346Y-85476991D01*
X106276682Y-85251657D01*
X105689095Y-85251144D01*
X105146040Y-85475530D01*
X104730191Y-85890654D01*
X104711834Y-85934863D01*
X104694470Y-85892840D01*
X104279346Y-85476991D01*
X103736682Y-85251657D01*
X103149095Y-85251144D01*
X102606040Y-85475530D01*
X102190191Y-85890654D01*
X102171834Y-85934863D01*
X102154470Y-85892840D01*
X101739346Y-85476991D01*
X101196682Y-85251657D01*
X100609095Y-85251144D01*
X100066040Y-85475530D01*
X99650191Y-85890654D01*
X99631834Y-85934863D01*
X99614470Y-85892840D01*
X99199346Y-85476991D01*
X98656682Y-85251657D01*
X98069095Y-85251144D01*
X97526040Y-85475530D01*
X97266897Y-85734222D01*
X97262149Y-85708990D01*
X97102928Y-85461554D01*
X96859985Y-85295557D01*
X96571600Y-85237158D01*
X95071600Y-85237158D01*
X94802190Y-85287851D01*
X94554754Y-85447072D01*
X94388757Y-85690015D01*
X94330358Y-85978400D01*
X77693957Y-85978400D01*
X77707141Y-82712345D01*
X126274149Y-82598498D01*
X126200404Y-105803473D01*
G36*
X76200404Y-130803473D02*
X27614444Y-130678121D01*
X27688466Y-112339000D01*
X33435000Y-112339000D01*
X33439779Y-112363024D01*
X33439622Y-112542387D01*
X33508720Y-112709618D01*
X33513541Y-112733853D01*
X33527149Y-112754219D01*
X33595644Y-112919989D01*
X33723477Y-113048045D01*
X33737207Y-113068593D01*
X37089007Y-116420393D01*
X37423747Y-116644059D01*
X37818600Y-116722600D01*
X38536214Y-116722600D01*
X45041205Y-123227590D01*
X45041207Y-123227593D01*
X45375947Y-123451259D01*
X45441458Y-123464290D01*
X45770800Y-123529801D01*
X45770805Y-123529800D01*
X69328574Y-123529800D01*
X69180073Y-123678302D01*
X69083400Y-123911691D01*
X69083400Y-124752250D01*
X69242150Y-124911000D01*
X70891400Y-124911000D01*
X70891400Y-124891000D01*
X71145400Y-124891000D01*
X71145400Y-124911000D01*
X72794650Y-124911000D01*
X72953400Y-124752250D01*
X72953400Y-123911691D01*
X72856727Y-123678302D01*
X72706783Y-123528357D01*
X72953651Y-123158894D01*
X73034600Y-122751936D01*
X73034600Y-125491256D01*
X72953400Y-125572456D01*
X72953400Y-125323750D01*
X72794650Y-125165000D01*
X71145400Y-125165000D01*
X71145400Y-126514250D01*
X71304150Y-126673000D01*
X71852856Y-126673000D01*
X70150856Y-128375000D01*
X58985105Y-128375000D01*
X59357160Y-128221270D01*
X59773009Y-127806146D01*
X59998343Y-127263482D01*
X59998856Y-126675895D01*
X59774470Y-126132840D01*
X59359346Y-125716991D01*
X58816682Y-125491657D01*
X58229095Y-125491144D01*
X57686040Y-125715530D01*
X57270191Y-126130654D01*
X57251834Y-126174863D01*
X57234470Y-126132840D01*
X56819346Y-125716991D01*
X56276682Y-125491657D01*
X55689095Y-125491144D01*
X55146040Y-125715530D01*
X54730191Y-126130654D01*
X54711834Y-126174863D01*
X54694470Y-126132840D01*
X54279346Y-125716991D01*
X53736682Y-125491657D01*
X53149095Y-125491144D01*
X52606040Y-125715530D01*
X52190191Y-126130654D01*
X52171834Y-126174863D01*
X52154470Y-126132840D01*
X51739346Y-125716991D01*
X51196682Y-125491657D01*
X50609095Y-125491144D01*
X50066040Y-125715530D01*
X49650191Y-126130654D01*
X49631834Y-126174863D01*
X49614470Y-126132840D01*
X49199346Y-125716991D01*
X48656682Y-125491657D01*
X48069095Y-125491144D01*
X47526040Y-125715530D01*
X47110191Y-126130654D01*
X47091834Y-126174863D01*
X47074470Y-126132840D01*
X46659346Y-125716991D01*
X46116682Y-125491657D01*
X45529095Y-125491144D01*
X44986040Y-125715530D01*
X44570191Y-126130654D01*
X44415000Y-126504395D01*
X44415000Y-126308000D01*
X44410221Y-126283976D01*
X44410378Y-126104613D01*
X44341280Y-125937382D01*
X44336459Y-125913147D01*
X44322851Y-125892781D01*
X44254356Y-125727011D01*
X44126523Y-125598955D01*
X44112793Y-125578407D01*
X44092424Y-125564797D01*
X43965708Y-125437860D01*
X43798602Y-125368471D01*
X43778053Y-125354741D01*
X43754026Y-125349962D01*
X43690901Y-125323750D01*
X69083400Y-125323750D01*
X69083400Y-126164309D01*
X69180073Y-126397698D01*
X69358701Y-126576327D01*
X69592090Y-126673000D01*
X70732650Y-126673000D01*
X70891400Y-126514250D01*
X70891400Y-125165000D01*
X69242150Y-125165000D01*
X69083400Y-125323750D01*
X43690901Y-125323750D01*
X43588379Y-125281179D01*
X43407436Y-125281021D01*
X43383200Y-125276200D01*
X43359176Y-125280979D01*
X43179813Y-125280822D01*
X43012582Y-125349920D01*
X42988347Y-125354741D01*
X42967981Y-125368349D01*
X42802211Y-125436844D01*
X42674155Y-125564677D01*
X42653607Y-125578407D01*
X42639997Y-125598776D01*
X42513060Y-125725492D01*
X42443671Y-125892598D01*
X42429941Y-125913147D01*
X42425162Y-125937174D01*
X42356379Y-126102821D01*
X42356221Y-126283764D01*
X42351400Y-126308000D01*
X42351400Y-126979106D01*
X42429941Y-127373959D01*
X42653607Y-127708699D01*
X45081301Y-130136393D01*
X45416041Y-130360059D01*
X45810894Y-130438600D01*
X70578242Y-130438600D01*
X70973095Y-130360059D01*
X71307835Y-130136393D01*
X74795993Y-126648235D01*
X75019659Y-126313495D01*
X75098200Y-125918642D01*
X75098200Y-121096405D01*
X75098201Y-121096400D01*
X75019659Y-120701548D01*
X75019659Y-120701547D01*
X74795993Y-120366807D01*
X73657593Y-119228407D01*
X73322853Y-119004741D01*
X72928000Y-118926200D01*
X72705819Y-118926200D01*
X72579284Y-118736827D01*
X72506209Y-118688000D01*
X72579284Y-118639173D01*
X72953651Y-118078894D01*
X73085111Y-117418000D01*
X72953651Y-116757106D01*
X72579284Y-116196827D01*
X72506209Y-116148000D01*
X72579284Y-116099173D01*
X72953651Y-115538894D01*
X73085111Y-114878000D01*
X72953651Y-114217106D01*
X72579284Y-113656827D01*
X72019005Y-113282460D01*
X71358111Y-113151000D01*
X70678689Y-113151000D01*
X70017795Y-113282460D01*
X69457516Y-113656827D01*
X69398868Y-113744600D01*
X54584600Y-113744600D01*
X54150866Y-113830875D01*
X53783165Y-114076565D01*
X52767165Y-115092565D01*
X52521475Y-115460266D01*
X52435200Y-115894000D01*
X52521475Y-116327734D01*
X52767165Y-116695435D01*
X53134866Y-116941125D01*
X53568600Y-117027400D01*
X54002334Y-116941125D01*
X54370035Y-116695435D01*
X55054070Y-116011400D01*
X69398868Y-116011400D01*
X69457516Y-116099173D01*
X69530591Y-116148000D01*
X69457516Y-116196827D01*
X69083149Y-116757106D01*
X68951689Y-117418000D01*
X69083149Y-118078894D01*
X69457516Y-118639173D01*
X69530591Y-118688000D01*
X69457516Y-118736827D01*
X69083149Y-119297106D01*
X68951689Y-119958000D01*
X69083149Y-120618894D01*
X69457516Y-121179173D01*
X69530591Y-121228000D01*
X69457516Y-121276827D01*
X69330981Y-121466200D01*
X46198185Y-121466200D01*
X39693193Y-114961207D01*
X39358453Y-114737541D01*
X38963600Y-114659000D01*
X38245986Y-114659000D01*
X35196393Y-111609407D01*
X35176024Y-111595797D01*
X35049308Y-111468860D01*
X34882202Y-111399471D01*
X34861653Y-111385741D01*
X34837626Y-111380962D01*
X34671979Y-111312179D01*
X34491036Y-111312021D01*
X34466800Y-111307200D01*
X34442776Y-111311979D01*
X34263413Y-111311822D01*
X34096182Y-111380920D01*
X34071947Y-111385741D01*
X34051581Y-111399349D01*
X33885811Y-111467844D01*
X33757755Y-111595677D01*
X33737207Y-111609407D01*
X33723597Y-111629776D01*
X33596660Y-111756492D01*
X33527271Y-111923598D01*
X33513541Y-111944147D01*
X33508762Y-111968174D01*
X33439979Y-112133821D01*
X33439821Y-112314764D01*
X33435000Y-112339000D01*
X27688466Y-112339000D01*
X27693957Y-110978400D01*
X44330358Y-110978400D01*
X44330358Y-112478400D01*
X44381051Y-112747810D01*
X44540272Y-112995246D01*
X44783215Y-113161243D01*
X45071600Y-113219642D01*
X46571600Y-113219642D01*
X46841010Y-113168949D01*
X47088446Y-113009728D01*
X47254443Y-112766785D01*
X47264015Y-112719516D01*
X47523854Y-112979809D01*
X48066518Y-113205143D01*
X48654105Y-113205656D01*
X49197160Y-112981270D01*
X49613009Y-112566146D01*
X49631366Y-112521937D01*
X49648730Y-112563960D01*
X50063854Y-112979809D01*
X50606518Y-113205143D01*
X51194105Y-113205656D01*
X51737160Y-112981270D01*
X52153009Y-112566146D01*
X52171366Y-112521937D01*
X52188730Y-112563960D01*
X52603854Y-112979809D01*
X53146518Y-113205143D01*
X53734105Y-113205656D01*
X54277160Y-112981270D01*
X54693009Y-112566146D01*
X54711366Y-112521937D01*
X54728730Y-112563960D01*
X55143854Y-112979809D01*
X55686518Y-113205143D01*
X56274105Y-113205656D01*
X56817160Y-112981270D01*
X57233009Y-112566146D01*
X57251366Y-112521937D01*
X57268730Y-112563960D01*
X57683854Y-112979809D01*
X58226518Y-113205143D01*
X58814105Y-113205656D01*
X59357160Y-112981270D01*
X59773009Y-112566146D01*
X59998343Y-112023482D01*
X59998856Y-111435895D01*
X59774470Y-110892840D01*
X59359346Y-110476991D01*
X58816682Y-110251657D01*
X58229095Y-110251144D01*
X57686040Y-110475530D01*
X57270191Y-110890654D01*
X57251834Y-110934863D01*
X57234470Y-110892840D01*
X56819346Y-110476991D01*
X56276682Y-110251657D01*
X55689095Y-110251144D01*
X55146040Y-110475530D01*
X54730191Y-110890654D01*
X54711834Y-110934863D01*
X54694470Y-110892840D01*
X54279346Y-110476991D01*
X53736682Y-110251657D01*
X53149095Y-110251144D01*
X52606040Y-110475530D01*
X52190191Y-110890654D01*
X52171834Y-110934863D01*
X52154470Y-110892840D01*
X51739346Y-110476991D01*
X51196682Y-110251657D01*
X50609095Y-110251144D01*
X50066040Y-110475530D01*
X49650191Y-110890654D01*
X49631834Y-110934863D01*
X49614470Y-110892840D01*
X49199346Y-110476991D01*
X48656682Y-110251657D01*
X48069095Y-110251144D01*
X47526040Y-110475530D01*
X47266897Y-110734222D01*
X47262149Y-110708990D01*
X47102928Y-110461554D01*
X46859985Y-110295557D01*
X46571600Y-110237158D01*
X45071600Y-110237158D01*
X44802190Y-110287851D01*
X44554754Y-110447072D01*
X44388757Y-110690015D01*
X44330358Y-110978400D01*
X27693957Y-110978400D01*
X27707141Y-107712345D01*
X76274149Y-107598498D01*
X76200404Y-130803473D01*
X76200404Y-130803473D01*
G37*
X76200404Y-130803473D02*
X27614444Y-130678121D01*
X27688466Y-112339000D01*
X33435000Y-112339000D01*
X33439779Y-112363024D01*
X33439622Y-112542387D01*
X33508720Y-112709618D01*
X33513541Y-112733853D01*
X33527149Y-112754219D01*
X33595644Y-112919989D01*
X33723477Y-113048045D01*
X33737207Y-113068593D01*
X37089007Y-116420393D01*
X37423747Y-116644059D01*
X37818600Y-116722600D01*
X38536214Y-116722600D01*
X45041205Y-123227590D01*
X45041207Y-123227593D01*
X45375947Y-123451259D01*
X45441458Y-123464290D01*
X45770800Y-123529801D01*
X45770805Y-123529800D01*
X69328574Y-123529800D01*
X69180073Y-123678302D01*
X69083400Y-123911691D01*
X69083400Y-124752250D01*
X69242150Y-124911000D01*
X70891400Y-124911000D01*
X70891400Y-124891000D01*
X71145400Y-124891000D01*
X71145400Y-124911000D01*
X72794650Y-124911000D01*
X72953400Y-124752250D01*
X72953400Y-123911691D01*
X72856727Y-123678302D01*
X72706783Y-123528357D01*
X72953651Y-123158894D01*
X73034600Y-122751936D01*
X73034600Y-125491256D01*
X72953400Y-125572456D01*
X72953400Y-125323750D01*
X72794650Y-125165000D01*
X71145400Y-125165000D01*
X71145400Y-126514250D01*
X71304150Y-126673000D01*
X71852856Y-126673000D01*
X70150856Y-128375000D01*
X58985105Y-128375000D01*
X59357160Y-128221270D01*
X59773009Y-127806146D01*
X59998343Y-127263482D01*
X59998856Y-126675895D01*
X59774470Y-126132840D01*
X59359346Y-125716991D01*
X58816682Y-125491657D01*
X58229095Y-125491144D01*
X57686040Y-125715530D01*
X57270191Y-126130654D01*
X57251834Y-126174863D01*
X57234470Y-126132840D01*
X56819346Y-125716991D01*
X56276682Y-125491657D01*
X55689095Y-125491144D01*
X55146040Y-125715530D01*
X54730191Y-126130654D01*
X54711834Y-126174863D01*
X54694470Y-126132840D01*
X54279346Y-125716991D01*
X53736682Y-125491657D01*
X53149095Y-125491144D01*
X52606040Y-125715530D01*
X52190191Y-126130654D01*
X52171834Y-126174863D01*
X52154470Y-126132840D01*
X51739346Y-125716991D01*
X51196682Y-125491657D01*
X50609095Y-125491144D01*
X50066040Y-125715530D01*
X49650191Y-126130654D01*
X49631834Y-126174863D01*
X49614470Y-126132840D01*
X49199346Y-125716991D01*
X48656682Y-125491657D01*
X48069095Y-125491144D01*
X47526040Y-125715530D01*
X47110191Y-126130654D01*
X47091834Y-126174863D01*
X47074470Y-126132840D01*
X46659346Y-125716991D01*
X46116682Y-125491657D01*
X45529095Y-125491144D01*
X44986040Y-125715530D01*
X44570191Y-126130654D01*
X44415000Y-126504395D01*
X44415000Y-126308000D01*
X44410221Y-126283976D01*
X44410378Y-126104613D01*
X44341280Y-125937382D01*
X44336459Y-125913147D01*
X44322851Y-125892781D01*
X44254356Y-125727011D01*
X44126523Y-125598955D01*
X44112793Y-125578407D01*
X44092424Y-125564797D01*
X43965708Y-125437860D01*
X43798602Y-125368471D01*
X43778053Y-125354741D01*
X43754026Y-125349962D01*
X43690901Y-125323750D01*
X69083400Y-125323750D01*
X69083400Y-126164309D01*
X69180073Y-126397698D01*
X69358701Y-126576327D01*
X69592090Y-126673000D01*
X70732650Y-126673000D01*
X70891400Y-126514250D01*
X70891400Y-125165000D01*
X69242150Y-125165000D01*
X69083400Y-125323750D01*
X43690901Y-125323750D01*
X43588379Y-125281179D01*
X43407436Y-125281021D01*
X43383200Y-125276200D01*
X43359176Y-125280979D01*
X43179813Y-125280822D01*
X43012582Y-125349920D01*
X42988347Y-125354741D01*
X42967981Y-125368349D01*
X42802211Y-125436844D01*
X42674155Y-125564677D01*
X42653607Y-125578407D01*
X42639997Y-125598776D01*
X42513060Y-125725492D01*
X42443671Y-125892598D01*
X42429941Y-125913147D01*
X42425162Y-125937174D01*
X42356379Y-126102821D01*
X42356221Y-126283764D01*
X42351400Y-126308000D01*
X42351400Y-126979106D01*
X42429941Y-127373959D01*
X42653607Y-127708699D01*
X45081301Y-130136393D01*
X45416041Y-130360059D01*
X45810894Y-130438600D01*
X70578242Y-130438600D01*
X70973095Y-130360059D01*
X71307835Y-130136393D01*
X74795993Y-126648235D01*
X75019659Y-126313495D01*
X75098200Y-125918642D01*
X75098200Y-121096405D01*
X75098201Y-121096400D01*
X75019659Y-120701548D01*
X75019659Y-120701547D01*
X74795993Y-120366807D01*
X73657593Y-119228407D01*
X73322853Y-119004741D01*
X72928000Y-118926200D01*
X72705819Y-118926200D01*
X72579284Y-118736827D01*
X72506209Y-118688000D01*
X72579284Y-118639173D01*
X72953651Y-118078894D01*
X73085111Y-117418000D01*
X72953651Y-116757106D01*
X72579284Y-116196827D01*
X72506209Y-116148000D01*
X72579284Y-116099173D01*
X72953651Y-115538894D01*
X73085111Y-114878000D01*
X72953651Y-114217106D01*
X72579284Y-113656827D01*
X72019005Y-113282460D01*
X71358111Y-113151000D01*
X70678689Y-113151000D01*
X70017795Y-113282460D01*
X69457516Y-113656827D01*
X69398868Y-113744600D01*
X54584600Y-113744600D01*
X54150866Y-113830875D01*
X53783165Y-114076565D01*
X52767165Y-115092565D01*
X52521475Y-115460266D01*
X52435200Y-115894000D01*
X52521475Y-116327734D01*
X52767165Y-116695435D01*
X53134866Y-116941125D01*
X53568600Y-117027400D01*
X54002334Y-116941125D01*
X54370035Y-116695435D01*
X55054070Y-116011400D01*
X69398868Y-116011400D01*
X69457516Y-116099173D01*
X69530591Y-116148000D01*
X69457516Y-116196827D01*
X69083149Y-116757106D01*
X68951689Y-117418000D01*
X69083149Y-118078894D01*
X69457516Y-118639173D01*
X69530591Y-118688000D01*
X69457516Y-118736827D01*
X69083149Y-119297106D01*
X68951689Y-119958000D01*
X69083149Y-120618894D01*
X69457516Y-121179173D01*
X69530591Y-121228000D01*
X69457516Y-121276827D01*
X69330981Y-121466200D01*
X46198185Y-121466200D01*
X39693193Y-114961207D01*
X39358453Y-114737541D01*
X38963600Y-114659000D01*
X38245986Y-114659000D01*
X35196393Y-111609407D01*
X35176024Y-111595797D01*
X35049308Y-111468860D01*
X34882202Y-111399471D01*
X34861653Y-111385741D01*
X34837626Y-111380962D01*
X34671979Y-111312179D01*
X34491036Y-111312021D01*
X34466800Y-111307200D01*
X34442776Y-111311979D01*
X34263413Y-111311822D01*
X34096182Y-111380920D01*
X34071947Y-111385741D01*
X34051581Y-111399349D01*
X33885811Y-111467844D01*
X33757755Y-111595677D01*
X33737207Y-111609407D01*
X33723597Y-111629776D01*
X33596660Y-111756492D01*
X33527271Y-111923598D01*
X33513541Y-111944147D01*
X33508762Y-111968174D01*
X33439979Y-112133821D01*
X33439821Y-112314764D01*
X33435000Y-112339000D01*
X27688466Y-112339000D01*
X27693957Y-110978400D01*
X44330358Y-110978400D01*
X44330358Y-112478400D01*
X44381051Y-112747810D01*
X44540272Y-112995246D01*
X44783215Y-113161243D01*
X45071600Y-113219642D01*
X46571600Y-113219642D01*
X46841010Y-113168949D01*
X47088446Y-113009728D01*
X47254443Y-112766785D01*
X47264015Y-112719516D01*
X47523854Y-112979809D01*
X48066518Y-113205143D01*
X48654105Y-113205656D01*
X49197160Y-112981270D01*
X49613009Y-112566146D01*
X49631366Y-112521937D01*
X49648730Y-112563960D01*
X50063854Y-112979809D01*
X50606518Y-113205143D01*
X51194105Y-113205656D01*
X51737160Y-112981270D01*
X52153009Y-112566146D01*
X52171366Y-112521937D01*
X52188730Y-112563960D01*
X52603854Y-112979809D01*
X53146518Y-113205143D01*
X53734105Y-113205656D01*
X54277160Y-112981270D01*
X54693009Y-112566146D01*
X54711366Y-112521937D01*
X54728730Y-112563960D01*
X55143854Y-112979809D01*
X55686518Y-113205143D01*
X56274105Y-113205656D01*
X56817160Y-112981270D01*
X57233009Y-112566146D01*
X57251366Y-112521937D01*
X57268730Y-112563960D01*
X57683854Y-112979809D01*
X58226518Y-113205143D01*
X58814105Y-113205656D01*
X59357160Y-112981270D01*
X59773009Y-112566146D01*
X59998343Y-112023482D01*
X59998856Y-111435895D01*
X59774470Y-110892840D01*
X59359346Y-110476991D01*
X58816682Y-110251657D01*
X58229095Y-110251144D01*
X57686040Y-110475530D01*
X57270191Y-110890654D01*
X57251834Y-110934863D01*
X57234470Y-110892840D01*
X56819346Y-110476991D01*
X56276682Y-110251657D01*
X55689095Y-110251144D01*
X55146040Y-110475530D01*
X54730191Y-110890654D01*
X54711834Y-110934863D01*
X54694470Y-110892840D01*
X54279346Y-110476991D01*
X53736682Y-110251657D01*
X53149095Y-110251144D01*
X52606040Y-110475530D01*
X52190191Y-110890654D01*
X52171834Y-110934863D01*
X52154470Y-110892840D01*
X51739346Y-110476991D01*
X51196682Y-110251657D01*
X50609095Y-110251144D01*
X50066040Y-110475530D01*
X49650191Y-110890654D01*
X49631834Y-110934863D01*
X49614470Y-110892840D01*
X49199346Y-110476991D01*
X48656682Y-110251657D01*
X48069095Y-110251144D01*
X47526040Y-110475530D01*
X47266897Y-110734222D01*
X47262149Y-110708990D01*
X47102928Y-110461554D01*
X46859985Y-110295557D01*
X46571600Y-110237158D01*
X45071600Y-110237158D01*
X44802190Y-110287851D01*
X44554754Y-110447072D01*
X44388757Y-110690015D01*
X44330358Y-110978400D01*
X27693957Y-110978400D01*
X27707141Y-107712345D01*
X76274149Y-107598498D01*
X76200404Y-130803473D01*
G36*
X126200404Y-130803473D02*
X77614444Y-130678121D01*
X77688466Y-112339000D01*
X83435000Y-112339000D01*
X83439779Y-112363024D01*
X83439622Y-112542387D01*
X83508720Y-112709618D01*
X83513541Y-112733853D01*
X83527149Y-112754219D01*
X83595644Y-112919989D01*
X83723477Y-113048045D01*
X83737207Y-113068593D01*
X87089007Y-116420393D01*
X87423747Y-116644059D01*
X87818600Y-116722600D01*
X88536214Y-116722600D01*
X95041205Y-123227590D01*
X95041207Y-123227593D01*
X95375947Y-123451259D01*
X95441458Y-123464290D01*
X95770800Y-123529801D01*
X95770805Y-123529800D01*
X119328574Y-123529800D01*
X119180073Y-123678302D01*
X119083400Y-123911691D01*
X119083400Y-124752250D01*
X119242150Y-124911000D01*
X120891400Y-124911000D01*
X120891400Y-124891000D01*
X121145400Y-124891000D01*
X121145400Y-124911000D01*
X122794650Y-124911000D01*
X122953400Y-124752250D01*
X122953400Y-123911691D01*
X122856727Y-123678302D01*
X122706783Y-123528357D01*
X122953651Y-123158894D01*
X123034600Y-122751936D01*
X123034600Y-125491256D01*
X122953400Y-125572456D01*
X122953400Y-125323750D01*
X122794650Y-125165000D01*
X121145400Y-125165000D01*
X121145400Y-126514250D01*
X121304150Y-126673000D01*
X121852856Y-126673000D01*
X120150856Y-128375000D01*
X108985105Y-128375000D01*
X109357160Y-128221270D01*
X109773009Y-127806146D01*
X109998343Y-127263482D01*
X109998856Y-126675895D01*
X109774470Y-126132840D01*
X109359346Y-125716991D01*
X108816682Y-125491657D01*
X108229095Y-125491144D01*
X107686040Y-125715530D01*
X107270191Y-126130654D01*
X107251834Y-126174863D01*
X107234470Y-126132840D01*
X106819346Y-125716991D01*
X106276682Y-125491657D01*
X105689095Y-125491144D01*
X105146040Y-125715530D01*
X104730191Y-126130654D01*
X104711834Y-126174863D01*
X104694470Y-126132840D01*
X104279346Y-125716991D01*
X103736682Y-125491657D01*
X103149095Y-125491144D01*
X102606040Y-125715530D01*
X102190191Y-126130654D01*
X102171834Y-126174863D01*
X102154470Y-126132840D01*
X101739346Y-125716991D01*
X101196682Y-125491657D01*
X100609095Y-125491144D01*
X100066040Y-125715530D01*
X99650191Y-126130654D01*
X99631834Y-126174863D01*
X99614470Y-126132840D01*
X99199346Y-125716991D01*
X98656682Y-125491657D01*
X98069095Y-125491144D01*
X97526040Y-125715530D01*
X97110191Y-126130654D01*
X97091834Y-126174863D01*
X97074470Y-126132840D01*
X96659346Y-125716991D01*
X96116682Y-125491657D01*
X95529095Y-125491144D01*
X94986040Y-125715530D01*
X94570191Y-126130654D01*
X94415000Y-126504395D01*
X94415000Y-126308000D01*
X94410221Y-126283976D01*
X94410378Y-126104613D01*
X94341280Y-125937382D01*
X94336459Y-125913147D01*
X94322851Y-125892781D01*
X94254356Y-125727011D01*
X94126523Y-125598955D01*
X94112793Y-125578407D01*
X94092424Y-125564797D01*
X93965708Y-125437860D01*
X93798602Y-125368471D01*
X93778053Y-125354741D01*
X93754026Y-125349962D01*
X93690901Y-125323750D01*
X119083400Y-125323750D01*
X119083400Y-126164309D01*
X119180073Y-126397698D01*
X119358701Y-126576327D01*
X119592090Y-126673000D01*
X120732650Y-126673000D01*
X120891400Y-126514250D01*
X120891400Y-125165000D01*
X119242150Y-125165000D01*
X119083400Y-125323750D01*
X93690901Y-125323750D01*
X93588379Y-125281179D01*
X93407436Y-125281021D01*
X93383200Y-125276200D01*
X93359176Y-125280979D01*
X93179813Y-125280822D01*
X93012582Y-125349920D01*
X92988347Y-125354741D01*
X92967981Y-125368349D01*
X92802211Y-125436844D01*
X92674155Y-125564677D01*
X92653607Y-125578407D01*
X92639997Y-125598776D01*
X92513060Y-125725492D01*
X92443671Y-125892598D01*
X92429941Y-125913147D01*
X92425162Y-125937174D01*
X92356379Y-126102821D01*
X92356221Y-126283764D01*
X92351400Y-126308000D01*
X92351400Y-126979106D01*
X92429941Y-127373959D01*
X92653607Y-127708699D01*
X95081301Y-130136393D01*
X95416041Y-130360059D01*
X95810894Y-130438600D01*
X120578242Y-130438600D01*
X120973095Y-130360059D01*
X121307835Y-130136393D01*
X124795993Y-126648235D01*
X125019659Y-126313495D01*
X125098200Y-125918642D01*
X125098200Y-121096405D01*
X125098201Y-121096400D01*
X125019659Y-120701548D01*
X125019659Y-120701547D01*
X124795993Y-120366807D01*
X123657593Y-119228407D01*
X123322853Y-119004741D01*
X122928000Y-118926200D01*
X122705819Y-118926200D01*
X122579284Y-118736827D01*
X122506209Y-118688000D01*
X122579284Y-118639173D01*
X122953651Y-118078894D01*
X123085111Y-117418000D01*
X122953651Y-116757106D01*
X122579284Y-116196827D01*
X122506209Y-116148000D01*
X122579284Y-116099173D01*
X122953651Y-115538894D01*
X123085111Y-114878000D01*
X122953651Y-114217106D01*
X122579284Y-113656827D01*
X122019005Y-113282460D01*
X121358111Y-113151000D01*
X120678689Y-113151000D01*
X120017795Y-113282460D01*
X119457516Y-113656827D01*
X119398868Y-113744600D01*
X104584600Y-113744600D01*
X104150866Y-113830875D01*
X103783165Y-114076565D01*
X102767165Y-115092565D01*
X102521475Y-115460266D01*
X102435200Y-115894000D01*
X102521475Y-116327734D01*
X102767165Y-116695435D01*
X103134866Y-116941125D01*
X103568600Y-117027400D01*
X104002334Y-116941125D01*
X104370035Y-116695435D01*
X105054070Y-116011400D01*
X119398868Y-116011400D01*
X119457516Y-116099173D01*
X119530591Y-116148000D01*
X119457516Y-116196827D01*
X119083149Y-116757106D01*
X118951689Y-117418000D01*
X119083149Y-118078894D01*
X119457516Y-118639173D01*
X119530591Y-118688000D01*
X119457516Y-118736827D01*
X119083149Y-119297106D01*
X118951689Y-119958000D01*
X119083149Y-120618894D01*
X119457516Y-121179173D01*
X119530591Y-121228000D01*
X119457516Y-121276827D01*
X119330981Y-121466200D01*
X96198185Y-121466200D01*
X89693193Y-114961207D01*
X89358453Y-114737541D01*
X88963600Y-114659000D01*
X88245986Y-114659000D01*
X85196393Y-111609407D01*
X85176024Y-111595797D01*
X85049308Y-111468860D01*
X84882202Y-111399471D01*
X84861653Y-111385741D01*
X84837626Y-111380962D01*
X84671979Y-111312179D01*
X84491036Y-111312021D01*
X84466800Y-111307200D01*
X84442776Y-111311979D01*
X84263413Y-111311822D01*
X84096182Y-111380920D01*
X84071947Y-111385741D01*
X84051581Y-111399349D01*
X83885811Y-111467844D01*
X83757755Y-111595677D01*
X83737207Y-111609407D01*
X83723597Y-111629776D01*
X83596660Y-111756492D01*
X83527271Y-111923598D01*
X83513541Y-111944147D01*
X83508762Y-111968174D01*
X83439979Y-112133821D01*
X83439821Y-112314764D01*
X83435000Y-112339000D01*
X77688466Y-112339000D01*
X77693957Y-110978400D01*
X94330358Y-110978400D01*
X94330358Y-112478400D01*
X94381051Y-112747810D01*
X94540272Y-112995246D01*
X94783215Y-113161243D01*
X95071600Y-113219642D01*
X96571600Y-113219642D01*
X96841010Y-113168949D01*
X97088446Y-113009728D01*
X97254443Y-112766785D01*
X97264015Y-112719516D01*
X97523854Y-112979809D01*
X98066518Y-113205143D01*
X98654105Y-113205656D01*
X99197160Y-112981270D01*
X99613009Y-112566146D01*
X99631366Y-112521937D01*
X99648730Y-112563960D01*
X100063854Y-112979809D01*
X100606518Y-113205143D01*
X101194105Y-113205656D01*
X101737160Y-112981270D01*
X102153009Y-112566146D01*
X102171366Y-112521937D01*
X102188730Y-112563960D01*
X102603854Y-112979809D01*
X103146518Y-113205143D01*
X103734105Y-113205656D01*
X104277160Y-112981270D01*
X104693009Y-112566146D01*
X104711366Y-112521937D01*
X104728730Y-112563960D01*
X105143854Y-112979809D01*
X105686518Y-113205143D01*
X106274105Y-113205656D01*
X106817160Y-112981270D01*
X107233009Y-112566146D01*
X107251366Y-112521937D01*
X107268730Y-112563960D01*
X107683854Y-112979809D01*
X108226518Y-113205143D01*
X108814105Y-113205656D01*
X109357160Y-112981270D01*
X109773009Y-112566146D01*
X109998343Y-112023482D01*
X109998856Y-111435895D01*
X109774470Y-110892840D01*
X109359346Y-110476991D01*
X108816682Y-110251657D01*
X108229095Y-110251144D01*
X107686040Y-110475530D01*
X107270191Y-110890654D01*
X107251834Y-110934863D01*
X107234470Y-110892840D01*
X106819346Y-110476991D01*
X106276682Y-110251657D01*
X105689095Y-110251144D01*
X105146040Y-110475530D01*
X104730191Y-110890654D01*
X104711834Y-110934863D01*
X104694470Y-110892840D01*
X104279346Y-110476991D01*
X103736682Y-110251657D01*
X103149095Y-110251144D01*
X102606040Y-110475530D01*
X102190191Y-110890654D01*
X102171834Y-110934863D01*
X102154470Y-110892840D01*
X101739346Y-110476991D01*
X101196682Y-110251657D01*
X100609095Y-110251144D01*
X100066040Y-110475530D01*
X99650191Y-110890654D01*
X99631834Y-110934863D01*
X99614470Y-110892840D01*
X99199346Y-110476991D01*
X98656682Y-110251657D01*
X98069095Y-110251144D01*
X97526040Y-110475530D01*
X97266897Y-110734222D01*
X97262149Y-110708990D01*
X97102928Y-110461554D01*
X96859985Y-110295557D01*
X96571600Y-110237158D01*
X95071600Y-110237158D01*
X94802190Y-110287851D01*
X94554754Y-110447072D01*
X94388757Y-110690015D01*
X94330358Y-110978400D01*
X77693957Y-110978400D01*
X77707141Y-107712345D01*
X126274149Y-107598498D01*
X126200404Y-130803473D01*
X126200404Y-130803473D01*
G37*
X126200404Y-130803473D02*
X77614444Y-130678121D01*
X77688466Y-112339000D01*
X83435000Y-112339000D01*
X83439779Y-112363024D01*
X83439622Y-112542387D01*
X83508720Y-112709618D01*
X83513541Y-112733853D01*
X83527149Y-112754219D01*
X83595644Y-112919989D01*
X83723477Y-113048045D01*
X83737207Y-113068593D01*
X87089007Y-116420393D01*
X87423747Y-116644059D01*
X87818600Y-116722600D01*
X88536214Y-116722600D01*
X95041205Y-123227590D01*
X95041207Y-123227593D01*
X95375947Y-123451259D01*
X95441458Y-123464290D01*
X95770800Y-123529801D01*
X95770805Y-123529800D01*
X119328574Y-123529800D01*
X119180073Y-123678302D01*
X119083400Y-123911691D01*
X119083400Y-124752250D01*
X119242150Y-124911000D01*
X120891400Y-124911000D01*
X120891400Y-124891000D01*
X121145400Y-124891000D01*
X121145400Y-124911000D01*
X122794650Y-124911000D01*
X122953400Y-124752250D01*
X122953400Y-123911691D01*
X122856727Y-123678302D01*
X122706783Y-123528357D01*
X122953651Y-123158894D01*
X123034600Y-122751936D01*
X123034600Y-125491256D01*
X122953400Y-125572456D01*
X122953400Y-125323750D01*
X122794650Y-125165000D01*
X121145400Y-125165000D01*
X121145400Y-126514250D01*
X121304150Y-126673000D01*
X121852856Y-126673000D01*
X120150856Y-128375000D01*
X108985105Y-128375000D01*
X109357160Y-128221270D01*
X109773009Y-127806146D01*
X109998343Y-127263482D01*
X109998856Y-126675895D01*
X109774470Y-126132840D01*
X109359346Y-125716991D01*
X108816682Y-125491657D01*
X108229095Y-125491144D01*
X107686040Y-125715530D01*
X107270191Y-126130654D01*
X107251834Y-126174863D01*
X107234470Y-126132840D01*
X106819346Y-125716991D01*
X106276682Y-125491657D01*
X105689095Y-125491144D01*
X105146040Y-125715530D01*
X104730191Y-126130654D01*
X104711834Y-126174863D01*
X104694470Y-126132840D01*
X104279346Y-125716991D01*
X103736682Y-125491657D01*
X103149095Y-125491144D01*
X102606040Y-125715530D01*
X102190191Y-126130654D01*
X102171834Y-126174863D01*
X102154470Y-126132840D01*
X101739346Y-125716991D01*
X101196682Y-125491657D01*
X100609095Y-125491144D01*
X100066040Y-125715530D01*
X99650191Y-126130654D01*
X99631834Y-126174863D01*
X99614470Y-126132840D01*
X99199346Y-125716991D01*
X98656682Y-125491657D01*
X98069095Y-125491144D01*
X97526040Y-125715530D01*
X97110191Y-126130654D01*
X97091834Y-126174863D01*
X97074470Y-126132840D01*
X96659346Y-125716991D01*
X96116682Y-125491657D01*
X95529095Y-125491144D01*
X94986040Y-125715530D01*
X94570191Y-126130654D01*
X94415000Y-126504395D01*
X94415000Y-126308000D01*
X94410221Y-126283976D01*
X94410378Y-126104613D01*
X94341280Y-125937382D01*
X94336459Y-125913147D01*
X94322851Y-125892781D01*
X94254356Y-125727011D01*
X94126523Y-125598955D01*
X94112793Y-125578407D01*
X94092424Y-125564797D01*
X93965708Y-125437860D01*
X93798602Y-125368471D01*
X93778053Y-125354741D01*
X93754026Y-125349962D01*
X93690901Y-125323750D01*
X119083400Y-125323750D01*
X119083400Y-126164309D01*
X119180073Y-126397698D01*
X119358701Y-126576327D01*
X119592090Y-126673000D01*
X120732650Y-126673000D01*
X120891400Y-126514250D01*
X120891400Y-125165000D01*
X119242150Y-125165000D01*
X119083400Y-125323750D01*
X93690901Y-125323750D01*
X93588379Y-125281179D01*
X93407436Y-125281021D01*
X93383200Y-125276200D01*
X93359176Y-125280979D01*
X93179813Y-125280822D01*
X93012582Y-125349920D01*
X92988347Y-125354741D01*
X92967981Y-125368349D01*
X92802211Y-125436844D01*
X92674155Y-125564677D01*
X92653607Y-125578407D01*
X92639997Y-125598776D01*
X92513060Y-125725492D01*
X92443671Y-125892598D01*
X92429941Y-125913147D01*
X92425162Y-125937174D01*
X92356379Y-126102821D01*
X92356221Y-126283764D01*
X92351400Y-126308000D01*
X92351400Y-126979106D01*
X92429941Y-127373959D01*
X92653607Y-127708699D01*
X95081301Y-130136393D01*
X95416041Y-130360059D01*
X95810894Y-130438600D01*
X120578242Y-130438600D01*
X120973095Y-130360059D01*
X121307835Y-130136393D01*
X124795993Y-126648235D01*
X125019659Y-126313495D01*
X125098200Y-125918642D01*
X125098200Y-121096405D01*
X125098201Y-121096400D01*
X125019659Y-120701548D01*
X125019659Y-120701547D01*
X124795993Y-120366807D01*
X123657593Y-119228407D01*
X123322853Y-119004741D01*
X122928000Y-118926200D01*
X122705819Y-118926200D01*
X122579284Y-118736827D01*
X122506209Y-118688000D01*
X122579284Y-118639173D01*
X122953651Y-118078894D01*
X123085111Y-117418000D01*
X122953651Y-116757106D01*
X122579284Y-116196827D01*
X122506209Y-116148000D01*
X122579284Y-116099173D01*
X122953651Y-115538894D01*
X123085111Y-114878000D01*
X122953651Y-114217106D01*
X122579284Y-113656827D01*
X122019005Y-113282460D01*
X121358111Y-113151000D01*
X120678689Y-113151000D01*
X120017795Y-113282460D01*
X119457516Y-113656827D01*
X119398868Y-113744600D01*
X104584600Y-113744600D01*
X104150866Y-113830875D01*
X103783165Y-114076565D01*
X102767165Y-115092565D01*
X102521475Y-115460266D01*
X102435200Y-115894000D01*
X102521475Y-116327734D01*
X102767165Y-116695435D01*
X103134866Y-116941125D01*
X103568600Y-117027400D01*
X104002334Y-116941125D01*
X104370035Y-116695435D01*
X105054070Y-116011400D01*
X119398868Y-116011400D01*
X119457516Y-116099173D01*
X119530591Y-116148000D01*
X119457516Y-116196827D01*
X119083149Y-116757106D01*
X118951689Y-117418000D01*
X119083149Y-118078894D01*
X119457516Y-118639173D01*
X119530591Y-118688000D01*
X119457516Y-118736827D01*
X119083149Y-119297106D01*
X118951689Y-119958000D01*
X119083149Y-120618894D01*
X119457516Y-121179173D01*
X119530591Y-121228000D01*
X119457516Y-121276827D01*
X119330981Y-121466200D01*
X96198185Y-121466200D01*
X89693193Y-114961207D01*
X89358453Y-114737541D01*
X88963600Y-114659000D01*
X88245986Y-114659000D01*
X85196393Y-111609407D01*
X85176024Y-111595797D01*
X85049308Y-111468860D01*
X84882202Y-111399471D01*
X84861653Y-111385741D01*
X84837626Y-111380962D01*
X84671979Y-111312179D01*
X84491036Y-111312021D01*
X84466800Y-111307200D01*
X84442776Y-111311979D01*
X84263413Y-111311822D01*
X84096182Y-111380920D01*
X84071947Y-111385741D01*
X84051581Y-111399349D01*
X83885811Y-111467844D01*
X83757755Y-111595677D01*
X83737207Y-111609407D01*
X83723597Y-111629776D01*
X83596660Y-111756492D01*
X83527271Y-111923598D01*
X83513541Y-111944147D01*
X83508762Y-111968174D01*
X83439979Y-112133821D01*
X83439821Y-112314764D01*
X83435000Y-112339000D01*
X77688466Y-112339000D01*
X77693957Y-110978400D01*
X94330358Y-110978400D01*
X94330358Y-112478400D01*
X94381051Y-112747810D01*
X94540272Y-112995246D01*
X94783215Y-113161243D01*
X95071600Y-113219642D01*
X96571600Y-113219642D01*
X96841010Y-113168949D01*
X97088446Y-113009728D01*
X97254443Y-112766785D01*
X97264015Y-112719516D01*
X97523854Y-112979809D01*
X98066518Y-113205143D01*
X98654105Y-113205656D01*
X99197160Y-112981270D01*
X99613009Y-112566146D01*
X99631366Y-112521937D01*
X99648730Y-112563960D01*
X100063854Y-112979809D01*
X100606518Y-113205143D01*
X101194105Y-113205656D01*
X101737160Y-112981270D01*
X102153009Y-112566146D01*
X102171366Y-112521937D01*
X102188730Y-112563960D01*
X102603854Y-112979809D01*
X103146518Y-113205143D01*
X103734105Y-113205656D01*
X104277160Y-112981270D01*
X104693009Y-112566146D01*
X104711366Y-112521937D01*
X104728730Y-112563960D01*
X105143854Y-112979809D01*
X105686518Y-113205143D01*
X106274105Y-113205656D01*
X106817160Y-112981270D01*
X107233009Y-112566146D01*
X107251366Y-112521937D01*
X107268730Y-112563960D01*
X107683854Y-112979809D01*
X108226518Y-113205143D01*
X108814105Y-113205656D01*
X109357160Y-112981270D01*
X109773009Y-112566146D01*
X109998343Y-112023482D01*
X109998856Y-111435895D01*
X109774470Y-110892840D01*
X109359346Y-110476991D01*
X108816682Y-110251657D01*
X108229095Y-110251144D01*
X107686040Y-110475530D01*
X107270191Y-110890654D01*
X107251834Y-110934863D01*
X107234470Y-110892840D01*
X106819346Y-110476991D01*
X106276682Y-110251657D01*
X105689095Y-110251144D01*
X105146040Y-110475530D01*
X104730191Y-110890654D01*
X104711834Y-110934863D01*
X104694470Y-110892840D01*
X104279346Y-110476991D01*
X103736682Y-110251657D01*
X103149095Y-110251144D01*
X102606040Y-110475530D01*
X102190191Y-110890654D01*
X102171834Y-110934863D01*
X102154470Y-110892840D01*
X101739346Y-110476991D01*
X101196682Y-110251657D01*
X100609095Y-110251144D01*
X100066040Y-110475530D01*
X99650191Y-110890654D01*
X99631834Y-110934863D01*
X99614470Y-110892840D01*
X99199346Y-110476991D01*
X98656682Y-110251657D01*
X98069095Y-110251144D01*
X97526040Y-110475530D01*
X97266897Y-110734222D01*
X97262149Y-110708990D01*
X97102928Y-110461554D01*
X96859985Y-110295557D01*
X96571600Y-110237158D01*
X95071600Y-110237158D01*
X94802190Y-110287851D01*
X94554754Y-110447072D01*
X94388757Y-110690015D01*
X94330358Y-110978400D01*
X77693957Y-110978400D01*
X77707141Y-107712345D01*
X126274149Y-107598498D01*
X126200404Y-130803473D01*
M02*
