G04 #@! TF.FileFunction,Soldermask,Top*
%FSLAX46Y46*%
G04 Gerber Fmt 4.6, Leading zero omitted, Abs format (unit mm)*
G04 Created by KiCad (PCBNEW 4.0.7-e2-6376~58~ubuntu16.04.1) date Fri Feb 16 09:21:29 2018*
%MOMM*%
%LPD*%
G01*
G04 APERTURE LIST*
%ADD10C,0.100000*%
%ADD11C,0.150000*%
%ADD12R,1.900000X1.900000*%
%ADD13C,1.900000*%
%ADD14R,3.000000X2.400000*%
%ADD15O,3.000000X2.400000*%
%ADD16R,1.900000X1.700000*%
%ADD17R,2.400000X1.000000*%
G04 APERTURE END LIST*
D10*
D11*
X26695400Y-132054600D02*
X26441400Y-32486600D01*
X125958600Y-131876800D02*
X26695400Y-132054600D01*
X126060200Y-32689800D02*
X125958600Y-131876800D01*
X26441400Y-32486600D02*
X126060200Y-32689800D01*
D12*
X95821600Y-111728400D03*
D13*
X98361600Y-111728400D03*
X100901600Y-111728400D03*
X103441600Y-111728400D03*
X105981600Y-111728400D03*
X108521600Y-111728400D03*
X108521600Y-126968400D03*
X105981600Y-126968400D03*
X103441600Y-126968400D03*
X100901600Y-126968400D03*
X98361600Y-126968400D03*
X95821600Y-126968400D03*
D12*
X45821600Y-111728400D03*
D13*
X48361600Y-111728400D03*
X50901600Y-111728400D03*
X53441600Y-111728400D03*
X55981600Y-111728400D03*
X58521600Y-111728400D03*
X58521600Y-126968400D03*
X55981600Y-126968400D03*
X53441600Y-126968400D03*
X50901600Y-126968400D03*
X48361600Y-126968400D03*
X45821600Y-126968400D03*
D12*
X95821600Y-86728400D03*
D13*
X98361600Y-86728400D03*
X100901600Y-86728400D03*
X103441600Y-86728400D03*
X105981600Y-86728400D03*
X108521600Y-86728400D03*
X108521600Y-101968400D03*
X105981600Y-101968400D03*
X103441600Y-101968400D03*
X100901600Y-101968400D03*
X98361600Y-101968400D03*
X95821600Y-101968400D03*
D12*
X45821600Y-86728400D03*
D13*
X48361600Y-86728400D03*
X50901600Y-86728400D03*
X53441600Y-86728400D03*
X55981600Y-86728400D03*
X58521600Y-86728400D03*
X58521600Y-101968400D03*
X55981600Y-101968400D03*
X53441600Y-101968400D03*
X50901600Y-101968400D03*
X48361600Y-101968400D03*
X45821600Y-101968400D03*
D12*
X95821600Y-61728400D03*
D13*
X98361600Y-61728400D03*
X100901600Y-61728400D03*
X103441600Y-61728400D03*
X105981600Y-61728400D03*
X108521600Y-61728400D03*
X108521600Y-76968400D03*
X105981600Y-76968400D03*
X103441600Y-76968400D03*
X100901600Y-76968400D03*
X98361600Y-76968400D03*
X95821600Y-76968400D03*
D12*
X45821600Y-61728400D03*
D13*
X48361600Y-61728400D03*
X50901600Y-61728400D03*
X53441600Y-61728400D03*
X55981600Y-61728400D03*
X58521600Y-61728400D03*
X58521600Y-76968400D03*
X55981600Y-76968400D03*
X53441600Y-76968400D03*
X50901600Y-76968400D03*
X48361600Y-76968400D03*
X45821600Y-76968400D03*
D12*
X95821600Y-36728400D03*
D13*
X98361600Y-36728400D03*
X100901600Y-36728400D03*
X103441600Y-36728400D03*
X105981600Y-36728400D03*
X108521600Y-36728400D03*
X108521600Y-51968400D03*
X105981600Y-51968400D03*
X103441600Y-51968400D03*
X100901600Y-51968400D03*
X98361600Y-51968400D03*
X95821600Y-51968400D03*
D14*
X121018400Y-125038000D03*
D15*
X121018400Y-122498000D03*
X121018400Y-119958000D03*
X121018400Y-117418000D03*
X121018400Y-114878000D03*
D14*
X71018400Y-125038000D03*
D15*
X71018400Y-122498000D03*
X71018400Y-119958000D03*
X71018400Y-117418000D03*
X71018400Y-114878000D03*
D14*
X121018400Y-100038000D03*
D15*
X121018400Y-97498000D03*
X121018400Y-94958000D03*
X121018400Y-92418000D03*
X121018400Y-89878000D03*
D14*
X71018400Y-100038000D03*
D15*
X71018400Y-97498000D03*
X71018400Y-94958000D03*
X71018400Y-92418000D03*
X71018400Y-89878000D03*
D14*
X121018400Y-75038000D03*
D15*
X121018400Y-72498000D03*
X121018400Y-69958000D03*
X121018400Y-67418000D03*
X121018400Y-64878000D03*
D14*
X71018400Y-75038000D03*
D15*
X71018400Y-72498000D03*
X71018400Y-69958000D03*
X71018400Y-67418000D03*
X71018400Y-64878000D03*
D14*
X121018400Y-50038000D03*
D15*
X121018400Y-47498000D03*
X121018400Y-44958000D03*
X121018400Y-42418000D03*
X121018400Y-39878000D03*
D16*
X97265600Y-119577000D03*
X99965600Y-119577000D03*
X47265600Y-119577000D03*
X49965600Y-119577000D03*
X97265600Y-94577000D03*
X99965600Y-94577000D03*
X47265600Y-94577000D03*
X49965600Y-94577000D03*
X97265600Y-69577000D03*
X99965600Y-69577000D03*
X47265600Y-69577000D03*
X49965600Y-69577000D03*
X97265600Y-44577000D03*
X99965600Y-44577000D03*
D17*
X81774400Y-112339000D03*
X81774400Y-113609000D03*
X81774400Y-114879000D03*
X81774400Y-116149000D03*
X81774400Y-117419000D03*
X81774400Y-118689000D03*
X81774400Y-119959000D03*
X81774400Y-121229000D03*
X81774400Y-122499000D03*
X81774400Y-123769000D03*
X81774400Y-125039000D03*
X81774400Y-126309000D03*
X91174400Y-126309000D03*
X91174400Y-125039000D03*
X91174400Y-123769000D03*
X91174400Y-122499000D03*
X91174400Y-121229000D03*
X91174400Y-119959000D03*
X91174400Y-118689000D03*
X91174400Y-117419000D03*
X91174400Y-116149000D03*
X91174400Y-114879000D03*
X91174400Y-113609000D03*
X91174400Y-112339000D03*
X31774400Y-112339000D03*
X31774400Y-113609000D03*
X31774400Y-114879000D03*
X31774400Y-116149000D03*
X31774400Y-117419000D03*
X31774400Y-118689000D03*
X31774400Y-119959000D03*
X31774400Y-121229000D03*
X31774400Y-122499000D03*
X31774400Y-123769000D03*
X31774400Y-125039000D03*
X31774400Y-126309000D03*
X41174400Y-126309000D03*
X41174400Y-125039000D03*
X41174400Y-123769000D03*
X41174400Y-122499000D03*
X41174400Y-121229000D03*
X41174400Y-119959000D03*
X41174400Y-118689000D03*
X41174400Y-117419000D03*
X41174400Y-116149000D03*
X41174400Y-114879000D03*
X41174400Y-113609000D03*
X41174400Y-112339000D03*
X81774400Y-87339000D03*
X81774400Y-88609000D03*
X81774400Y-89879000D03*
X81774400Y-91149000D03*
X81774400Y-92419000D03*
X81774400Y-93689000D03*
X81774400Y-94959000D03*
X81774400Y-96229000D03*
X81774400Y-97499000D03*
X81774400Y-98769000D03*
X81774400Y-100039000D03*
X81774400Y-101309000D03*
X91174400Y-101309000D03*
X91174400Y-100039000D03*
X91174400Y-98769000D03*
X91174400Y-97499000D03*
X91174400Y-96229000D03*
X91174400Y-94959000D03*
X91174400Y-93689000D03*
X91174400Y-92419000D03*
X91174400Y-91149000D03*
X91174400Y-89879000D03*
X91174400Y-88609000D03*
X91174400Y-87339000D03*
X31774400Y-87339000D03*
X31774400Y-88609000D03*
X31774400Y-89879000D03*
X31774400Y-91149000D03*
X31774400Y-92419000D03*
X31774400Y-93689000D03*
X31774400Y-94959000D03*
X31774400Y-96229000D03*
X31774400Y-97499000D03*
X31774400Y-98769000D03*
X31774400Y-100039000D03*
X31774400Y-101309000D03*
X41174400Y-101309000D03*
X41174400Y-100039000D03*
X41174400Y-98769000D03*
X41174400Y-97499000D03*
X41174400Y-96229000D03*
X41174400Y-94959000D03*
X41174400Y-93689000D03*
X41174400Y-92419000D03*
X41174400Y-91149000D03*
X41174400Y-89879000D03*
X41174400Y-88609000D03*
X41174400Y-87339000D03*
X81774400Y-62339000D03*
X81774400Y-63609000D03*
X81774400Y-64879000D03*
X81774400Y-66149000D03*
X81774400Y-67419000D03*
X81774400Y-68689000D03*
X81774400Y-69959000D03*
X81774400Y-71229000D03*
X81774400Y-72499000D03*
X81774400Y-73769000D03*
X81774400Y-75039000D03*
X81774400Y-76309000D03*
X91174400Y-76309000D03*
X91174400Y-75039000D03*
X91174400Y-73769000D03*
X91174400Y-72499000D03*
X91174400Y-71229000D03*
X91174400Y-69959000D03*
X91174400Y-68689000D03*
X91174400Y-67419000D03*
X91174400Y-66149000D03*
X91174400Y-64879000D03*
X91174400Y-63609000D03*
X91174400Y-62339000D03*
X31774400Y-62339000D03*
X31774400Y-63609000D03*
X31774400Y-64879000D03*
X31774400Y-66149000D03*
X31774400Y-67419000D03*
X31774400Y-68689000D03*
X31774400Y-69959000D03*
X31774400Y-71229000D03*
X31774400Y-72499000D03*
X31774400Y-73769000D03*
X31774400Y-75039000D03*
X31774400Y-76309000D03*
X41174400Y-76309000D03*
X41174400Y-75039000D03*
X41174400Y-73769000D03*
X41174400Y-72499000D03*
X41174400Y-71229000D03*
X41174400Y-69959000D03*
X41174400Y-68689000D03*
X41174400Y-67419000D03*
X41174400Y-66149000D03*
X41174400Y-64879000D03*
X41174400Y-63609000D03*
X41174400Y-62339000D03*
X81774400Y-37339000D03*
X81774400Y-38609000D03*
X81774400Y-39879000D03*
X81774400Y-41149000D03*
X81774400Y-42419000D03*
X81774400Y-43689000D03*
X81774400Y-44959000D03*
X81774400Y-46229000D03*
X81774400Y-47499000D03*
X81774400Y-48769000D03*
X81774400Y-50039000D03*
X81774400Y-51309000D03*
X91174400Y-51309000D03*
X91174400Y-50039000D03*
X91174400Y-48769000D03*
X91174400Y-47499000D03*
X91174400Y-46229000D03*
X91174400Y-44959000D03*
X91174400Y-43689000D03*
X91174400Y-42419000D03*
X91174400Y-41149000D03*
X91174400Y-39879000D03*
X91174400Y-38609000D03*
X91174400Y-37339000D03*
D12*
X45821600Y-36728400D03*
D13*
X48361600Y-36728400D03*
X50901600Y-36728400D03*
X53441600Y-36728400D03*
X55981600Y-36728400D03*
X58521600Y-36728400D03*
X58521600Y-51968400D03*
X55981600Y-51968400D03*
X53441600Y-51968400D03*
X50901600Y-51968400D03*
X48361600Y-51968400D03*
X45821600Y-51968400D03*
D17*
X31774400Y-37339000D03*
X31774400Y-38609000D03*
X31774400Y-39879000D03*
X31774400Y-41149000D03*
X31774400Y-42419000D03*
X31774400Y-43689000D03*
X31774400Y-44959000D03*
X31774400Y-46229000D03*
X31774400Y-47499000D03*
X31774400Y-48769000D03*
X31774400Y-50039000D03*
X31774400Y-51309000D03*
X41174400Y-51309000D03*
X41174400Y-50039000D03*
X41174400Y-48769000D03*
X41174400Y-47499000D03*
X41174400Y-46229000D03*
X41174400Y-44959000D03*
X41174400Y-43689000D03*
X41174400Y-42419000D03*
X41174400Y-41149000D03*
X41174400Y-39879000D03*
X41174400Y-38609000D03*
X41174400Y-37339000D03*
D16*
X47265600Y-44577000D03*
X49965600Y-44577000D03*
D14*
X71018400Y-50038000D03*
D15*
X71018400Y-47498000D03*
X71018400Y-44958000D03*
X71018400Y-42418000D03*
X71018400Y-39878000D03*
M02*
