G04 #@! TF.FileFunction,Copper,L1,Top,Signal*
%FSLAX46Y46*%
G04 Gerber Fmt 4.6, Leading zero omitted, Abs format (unit mm)*
G04 Created by KiCad (PCBNEW 4.0.7-e2-6376~58~ubuntu16.04.1) date Fri Feb 16 09:21:29 2018*
%MOMM*%
%LPD*%
G01*
G04 APERTURE LIST*
%ADD10C,0.100000*%
%ADD11C,0.150000*%
%ADD12R,1.500000X1.500000*%
%ADD13C,1.500000*%
%ADD14R,2.600000X2.000000*%
%ADD15O,2.600000X2.000000*%
%ADD16R,1.500000X1.300000*%
%ADD17R,2.000000X0.600000*%
%ADD18C,0.600000*%
%ADD19C,0.609600*%
%ADD20C,0.812800*%
%ADD21C,0.254000*%
G04 APERTURE END LIST*
D10*
D11*
X26695400Y-132054600D02*
X26441400Y-32486600D01*
X125958600Y-131876800D02*
X26695400Y-132054600D01*
X126060200Y-32689800D02*
X125958600Y-131876800D01*
X26441400Y-32486600D02*
X126060200Y-32689800D01*
D12*
X95821600Y-111728400D03*
D13*
X98361600Y-111728400D03*
X100901600Y-111728400D03*
X103441600Y-111728400D03*
X105981600Y-111728400D03*
X108521600Y-111728400D03*
X108521600Y-126968400D03*
X105981600Y-126968400D03*
X103441600Y-126968400D03*
X100901600Y-126968400D03*
X98361600Y-126968400D03*
X95821600Y-126968400D03*
D12*
X45821600Y-111728400D03*
D13*
X48361600Y-111728400D03*
X50901600Y-111728400D03*
X53441600Y-111728400D03*
X55981600Y-111728400D03*
X58521600Y-111728400D03*
X58521600Y-126968400D03*
X55981600Y-126968400D03*
X53441600Y-126968400D03*
X50901600Y-126968400D03*
X48361600Y-126968400D03*
X45821600Y-126968400D03*
D12*
X95821600Y-86728400D03*
D13*
X98361600Y-86728400D03*
X100901600Y-86728400D03*
X103441600Y-86728400D03*
X105981600Y-86728400D03*
X108521600Y-86728400D03*
X108521600Y-101968400D03*
X105981600Y-101968400D03*
X103441600Y-101968400D03*
X100901600Y-101968400D03*
X98361600Y-101968400D03*
X95821600Y-101968400D03*
D12*
X45821600Y-86728400D03*
D13*
X48361600Y-86728400D03*
X50901600Y-86728400D03*
X53441600Y-86728400D03*
X55981600Y-86728400D03*
X58521600Y-86728400D03*
X58521600Y-101968400D03*
X55981600Y-101968400D03*
X53441600Y-101968400D03*
X50901600Y-101968400D03*
X48361600Y-101968400D03*
X45821600Y-101968400D03*
D12*
X95821600Y-61728400D03*
D13*
X98361600Y-61728400D03*
X100901600Y-61728400D03*
X103441600Y-61728400D03*
X105981600Y-61728400D03*
X108521600Y-61728400D03*
X108521600Y-76968400D03*
X105981600Y-76968400D03*
X103441600Y-76968400D03*
X100901600Y-76968400D03*
X98361600Y-76968400D03*
X95821600Y-76968400D03*
D12*
X45821600Y-61728400D03*
D13*
X48361600Y-61728400D03*
X50901600Y-61728400D03*
X53441600Y-61728400D03*
X55981600Y-61728400D03*
X58521600Y-61728400D03*
X58521600Y-76968400D03*
X55981600Y-76968400D03*
X53441600Y-76968400D03*
X50901600Y-76968400D03*
X48361600Y-76968400D03*
X45821600Y-76968400D03*
D12*
X95821600Y-36728400D03*
D13*
X98361600Y-36728400D03*
X100901600Y-36728400D03*
X103441600Y-36728400D03*
X105981600Y-36728400D03*
X108521600Y-36728400D03*
X108521600Y-51968400D03*
X105981600Y-51968400D03*
X103441600Y-51968400D03*
X100901600Y-51968400D03*
X98361600Y-51968400D03*
X95821600Y-51968400D03*
D14*
X121018400Y-125038000D03*
D15*
X121018400Y-122498000D03*
X121018400Y-119958000D03*
X121018400Y-117418000D03*
X121018400Y-114878000D03*
D14*
X71018400Y-125038000D03*
D15*
X71018400Y-122498000D03*
X71018400Y-119958000D03*
X71018400Y-117418000D03*
X71018400Y-114878000D03*
D14*
X121018400Y-100038000D03*
D15*
X121018400Y-97498000D03*
X121018400Y-94958000D03*
X121018400Y-92418000D03*
X121018400Y-89878000D03*
D14*
X71018400Y-100038000D03*
D15*
X71018400Y-97498000D03*
X71018400Y-94958000D03*
X71018400Y-92418000D03*
X71018400Y-89878000D03*
D14*
X121018400Y-75038000D03*
D15*
X121018400Y-72498000D03*
X121018400Y-69958000D03*
X121018400Y-67418000D03*
X121018400Y-64878000D03*
D14*
X71018400Y-75038000D03*
D15*
X71018400Y-72498000D03*
X71018400Y-69958000D03*
X71018400Y-67418000D03*
X71018400Y-64878000D03*
D14*
X121018400Y-50038000D03*
D15*
X121018400Y-47498000D03*
X121018400Y-44958000D03*
X121018400Y-42418000D03*
X121018400Y-39878000D03*
D16*
X97265600Y-119577000D03*
X99965600Y-119577000D03*
X47265600Y-119577000D03*
X49965600Y-119577000D03*
X97265600Y-94577000D03*
X99965600Y-94577000D03*
X47265600Y-94577000D03*
X49965600Y-94577000D03*
X97265600Y-69577000D03*
X99965600Y-69577000D03*
X47265600Y-69577000D03*
X49965600Y-69577000D03*
X97265600Y-44577000D03*
X99965600Y-44577000D03*
D17*
X81774400Y-112339000D03*
X81774400Y-113609000D03*
X81774400Y-114879000D03*
X81774400Y-116149000D03*
X81774400Y-117419000D03*
X81774400Y-118689000D03*
X81774400Y-119959000D03*
X81774400Y-121229000D03*
X81774400Y-122499000D03*
X81774400Y-123769000D03*
X81774400Y-125039000D03*
X81774400Y-126309000D03*
X91174400Y-126309000D03*
X91174400Y-125039000D03*
X91174400Y-123769000D03*
X91174400Y-122499000D03*
X91174400Y-121229000D03*
X91174400Y-119959000D03*
X91174400Y-118689000D03*
X91174400Y-117419000D03*
X91174400Y-116149000D03*
X91174400Y-114879000D03*
X91174400Y-113609000D03*
X91174400Y-112339000D03*
X31774400Y-112339000D03*
X31774400Y-113609000D03*
X31774400Y-114879000D03*
X31774400Y-116149000D03*
X31774400Y-117419000D03*
X31774400Y-118689000D03*
X31774400Y-119959000D03*
X31774400Y-121229000D03*
X31774400Y-122499000D03*
X31774400Y-123769000D03*
X31774400Y-125039000D03*
X31774400Y-126309000D03*
X41174400Y-126309000D03*
X41174400Y-125039000D03*
X41174400Y-123769000D03*
X41174400Y-122499000D03*
X41174400Y-121229000D03*
X41174400Y-119959000D03*
X41174400Y-118689000D03*
X41174400Y-117419000D03*
X41174400Y-116149000D03*
X41174400Y-114879000D03*
X41174400Y-113609000D03*
X41174400Y-112339000D03*
X81774400Y-87339000D03*
X81774400Y-88609000D03*
X81774400Y-89879000D03*
X81774400Y-91149000D03*
X81774400Y-92419000D03*
X81774400Y-93689000D03*
X81774400Y-94959000D03*
X81774400Y-96229000D03*
X81774400Y-97499000D03*
X81774400Y-98769000D03*
X81774400Y-100039000D03*
X81774400Y-101309000D03*
X91174400Y-101309000D03*
X91174400Y-100039000D03*
X91174400Y-98769000D03*
X91174400Y-97499000D03*
X91174400Y-96229000D03*
X91174400Y-94959000D03*
X91174400Y-93689000D03*
X91174400Y-92419000D03*
X91174400Y-91149000D03*
X91174400Y-89879000D03*
X91174400Y-88609000D03*
X91174400Y-87339000D03*
X31774400Y-87339000D03*
X31774400Y-88609000D03*
X31774400Y-89879000D03*
X31774400Y-91149000D03*
X31774400Y-92419000D03*
X31774400Y-93689000D03*
X31774400Y-94959000D03*
X31774400Y-96229000D03*
X31774400Y-97499000D03*
X31774400Y-98769000D03*
X31774400Y-100039000D03*
X31774400Y-101309000D03*
X41174400Y-101309000D03*
X41174400Y-100039000D03*
X41174400Y-98769000D03*
X41174400Y-97499000D03*
X41174400Y-96229000D03*
X41174400Y-94959000D03*
X41174400Y-93689000D03*
X41174400Y-92419000D03*
X41174400Y-91149000D03*
X41174400Y-89879000D03*
X41174400Y-88609000D03*
X41174400Y-87339000D03*
X81774400Y-62339000D03*
X81774400Y-63609000D03*
X81774400Y-64879000D03*
X81774400Y-66149000D03*
X81774400Y-67419000D03*
X81774400Y-68689000D03*
X81774400Y-69959000D03*
X81774400Y-71229000D03*
X81774400Y-72499000D03*
X81774400Y-73769000D03*
X81774400Y-75039000D03*
X81774400Y-76309000D03*
X91174400Y-76309000D03*
X91174400Y-75039000D03*
X91174400Y-73769000D03*
X91174400Y-72499000D03*
X91174400Y-71229000D03*
X91174400Y-69959000D03*
X91174400Y-68689000D03*
X91174400Y-67419000D03*
X91174400Y-66149000D03*
X91174400Y-64879000D03*
X91174400Y-63609000D03*
X91174400Y-62339000D03*
X31774400Y-62339000D03*
X31774400Y-63609000D03*
X31774400Y-64879000D03*
X31774400Y-66149000D03*
X31774400Y-67419000D03*
X31774400Y-68689000D03*
X31774400Y-69959000D03*
X31774400Y-71229000D03*
X31774400Y-72499000D03*
X31774400Y-73769000D03*
X31774400Y-75039000D03*
X31774400Y-76309000D03*
X41174400Y-76309000D03*
X41174400Y-75039000D03*
X41174400Y-73769000D03*
X41174400Y-72499000D03*
X41174400Y-71229000D03*
X41174400Y-69959000D03*
X41174400Y-68689000D03*
X41174400Y-67419000D03*
X41174400Y-66149000D03*
X41174400Y-64879000D03*
X41174400Y-63609000D03*
X41174400Y-62339000D03*
X81774400Y-37339000D03*
X81774400Y-38609000D03*
X81774400Y-39879000D03*
X81774400Y-41149000D03*
X81774400Y-42419000D03*
X81774400Y-43689000D03*
X81774400Y-44959000D03*
X81774400Y-46229000D03*
X81774400Y-47499000D03*
X81774400Y-48769000D03*
X81774400Y-50039000D03*
X81774400Y-51309000D03*
X91174400Y-51309000D03*
X91174400Y-50039000D03*
X91174400Y-48769000D03*
X91174400Y-47499000D03*
X91174400Y-46229000D03*
X91174400Y-44959000D03*
X91174400Y-43689000D03*
X91174400Y-42419000D03*
X91174400Y-41149000D03*
X91174400Y-39879000D03*
X91174400Y-38609000D03*
X91174400Y-37339000D03*
D12*
X45821600Y-36728400D03*
D13*
X48361600Y-36728400D03*
X50901600Y-36728400D03*
X53441600Y-36728400D03*
X55981600Y-36728400D03*
X58521600Y-36728400D03*
X58521600Y-51968400D03*
X55981600Y-51968400D03*
X53441600Y-51968400D03*
X50901600Y-51968400D03*
X48361600Y-51968400D03*
X45821600Y-51968400D03*
D17*
X31774400Y-37339000D03*
X31774400Y-38609000D03*
X31774400Y-39879000D03*
X31774400Y-41149000D03*
X31774400Y-42419000D03*
X31774400Y-43689000D03*
X31774400Y-44959000D03*
X31774400Y-46229000D03*
X31774400Y-47499000D03*
X31774400Y-48769000D03*
X31774400Y-50039000D03*
X31774400Y-51309000D03*
X41174400Y-51309000D03*
X41174400Y-50039000D03*
X41174400Y-48769000D03*
X41174400Y-47499000D03*
X41174400Y-46229000D03*
X41174400Y-44959000D03*
X41174400Y-43689000D03*
X41174400Y-42419000D03*
X41174400Y-41149000D03*
X41174400Y-39879000D03*
X41174400Y-38609000D03*
X41174400Y-37339000D03*
D16*
X47265600Y-44577000D03*
X49965600Y-44577000D03*
D14*
X71018400Y-50038000D03*
D15*
X71018400Y-47498000D03*
X71018400Y-44958000D03*
X71018400Y-42418000D03*
X71018400Y-39878000D03*
D18*
X84466800Y-112339000D03*
X34466800Y-112339000D03*
X84466800Y-87339000D03*
X34466800Y-87339000D03*
X84466800Y-62339000D03*
X34466800Y-62339000D03*
X84466800Y-37339000D03*
X34466800Y-37339000D03*
X93383200Y-126308000D03*
X43383200Y-126308000D03*
X93383200Y-101308000D03*
X43383200Y-101308000D03*
X93383200Y-76308000D03*
X43383200Y-76308000D03*
X93383200Y-51308000D03*
X43383200Y-51308000D03*
X79211000Y-122499000D03*
X29211000Y-122499000D03*
X79211000Y-97499000D03*
X29211000Y-97499000D03*
X79211000Y-72499000D03*
X29211000Y-72499000D03*
X79211000Y-47499000D03*
X79259800Y-116149000D03*
X29259800Y-116149000D03*
X79259800Y-91149000D03*
X29259800Y-91149000D03*
X79259800Y-66149000D03*
X29259800Y-66149000D03*
X79259800Y-41149000D03*
X29259800Y-41149000D03*
X29211000Y-47499000D03*
X103568600Y-115894000D03*
X53568600Y-115894000D03*
X103568600Y-90894000D03*
X53568600Y-90894000D03*
X103568600Y-65894000D03*
X53568600Y-65894000D03*
X103568600Y-40894000D03*
X53568600Y-40894000D03*
D19*
X95821600Y-111728400D02*
X94462000Y-111728400D01*
X45821600Y-111728400D02*
X44462000Y-111728400D01*
X95821600Y-86728400D02*
X94462000Y-86728400D01*
X45821600Y-86728400D02*
X44462000Y-86728400D01*
X95821600Y-61728400D02*
X94462000Y-61728400D01*
X45821600Y-61728400D02*
X44462000Y-61728400D01*
X95821600Y-36728400D02*
X94462000Y-36728400D01*
X94462000Y-111728400D02*
X93725400Y-110991800D01*
X44462000Y-111728400D02*
X43725400Y-110991800D01*
X94462000Y-86728400D02*
X93725400Y-85991800D01*
X44462000Y-86728400D02*
X43725400Y-85991800D01*
X94462000Y-61728400D02*
X93725400Y-60991800D01*
X44462000Y-61728400D02*
X43725400Y-60991800D01*
X94462000Y-36728400D02*
X93725400Y-35991800D01*
X88785800Y-111626800D02*
X88785800Y-115335200D01*
X38785800Y-111626800D02*
X38785800Y-115335200D01*
X88785800Y-86626800D02*
X88785800Y-90335200D01*
X38785800Y-86626800D02*
X38785800Y-90335200D01*
X88785800Y-61626800D02*
X88785800Y-65335200D01*
X38785800Y-61626800D02*
X38785800Y-65335200D01*
X88785800Y-36626800D02*
X88785800Y-40335200D01*
X89604407Y-116153807D02*
X90738561Y-116153807D01*
X39604407Y-116153807D02*
X40738561Y-116153807D01*
X89604407Y-91153807D02*
X90738561Y-91153807D01*
X39604407Y-91153807D02*
X40738561Y-91153807D01*
X89604407Y-66153807D02*
X90738561Y-66153807D01*
X39604407Y-66153807D02*
X40738561Y-66153807D01*
X89604407Y-41153807D02*
X90738561Y-41153807D01*
X93725400Y-110991800D02*
X89420800Y-110991800D01*
X43725400Y-110991800D02*
X39420800Y-110991800D01*
X93725400Y-85991800D02*
X89420800Y-85991800D01*
X43725400Y-85991800D02*
X39420800Y-85991800D01*
X93725400Y-60991800D02*
X89420800Y-60991800D01*
X43725400Y-60991800D02*
X39420800Y-60991800D01*
X93725400Y-35991800D02*
X89420800Y-35991800D01*
X90738561Y-116153807D02*
X91174400Y-116153807D01*
X40738561Y-116153807D02*
X41174400Y-116153807D01*
X90738561Y-91153807D02*
X91174400Y-91153807D01*
X40738561Y-91153807D02*
X41174400Y-91153807D01*
X90738561Y-66153807D02*
X91174400Y-66153807D01*
X40738561Y-66153807D02*
X41174400Y-66153807D01*
X90738561Y-41153807D02*
X91174400Y-41153807D01*
X88785800Y-115335200D02*
X89604407Y-116153807D01*
X38785800Y-115335200D02*
X39604407Y-116153807D01*
X88785800Y-90335200D02*
X89604407Y-91153807D01*
X38785800Y-90335200D02*
X39604407Y-91153807D01*
X88785800Y-65335200D02*
X89604407Y-66153807D01*
X38785800Y-65335200D02*
X39604407Y-66153807D01*
X88785800Y-40335200D02*
X89604407Y-41153807D01*
X89420800Y-110991800D02*
X88785800Y-111626800D01*
X39420800Y-110991800D02*
X38785800Y-111626800D01*
X89420800Y-85991800D02*
X88785800Y-86626800D01*
X39420800Y-85991800D02*
X38785800Y-86626800D01*
X89420800Y-60991800D02*
X88785800Y-61626800D01*
X39420800Y-60991800D02*
X38785800Y-61626800D01*
X89420800Y-35991800D02*
X88785800Y-36626800D01*
X40738561Y-41153807D02*
X41174400Y-41153807D01*
X38785800Y-40335200D02*
X39604407Y-41153807D01*
X43725400Y-35991800D02*
X39420800Y-35991800D01*
X39604407Y-41153807D02*
X40738561Y-41153807D01*
X38785800Y-36626800D02*
X38785800Y-40335200D01*
X39420800Y-35991800D02*
X38785800Y-36626800D01*
X45821600Y-36728400D02*
X44462000Y-36728400D01*
X44462000Y-36728400D02*
X43725400Y-35991800D01*
X97541660Y-113609000D02*
X92784000Y-113609000D01*
X47541660Y-113609000D02*
X42784000Y-113609000D01*
X97541660Y-88609000D02*
X92784000Y-88609000D01*
X47541660Y-88609000D02*
X42784000Y-88609000D01*
X97541660Y-63609000D02*
X92784000Y-63609000D01*
X47541660Y-63609000D02*
X42784000Y-63609000D01*
X97541660Y-38609000D02*
X92784000Y-38609000D01*
X98361600Y-111728400D02*
X98361600Y-112789060D01*
X48361600Y-111728400D02*
X48361600Y-112789060D01*
X98361600Y-86728400D02*
X98361600Y-87789060D01*
X48361600Y-86728400D02*
X48361600Y-87789060D01*
X98361600Y-61728400D02*
X98361600Y-62789060D01*
X48361600Y-61728400D02*
X48361600Y-62789060D01*
X98361600Y-36728400D02*
X98361600Y-37789060D01*
X98361600Y-112789060D02*
X97541660Y-113609000D01*
X48361600Y-112789060D02*
X47541660Y-113609000D01*
X98361600Y-87789060D02*
X97541660Y-88609000D01*
X48361600Y-87789060D02*
X47541660Y-88609000D01*
X98361600Y-62789060D02*
X97541660Y-63609000D01*
X48361600Y-62789060D02*
X47541660Y-63609000D01*
X98361600Y-37789060D02*
X97541660Y-38609000D01*
X92784000Y-113609000D02*
X91174400Y-113609000D01*
X42784000Y-113609000D02*
X41174400Y-113609000D01*
X92784000Y-88609000D02*
X91174400Y-88609000D01*
X42784000Y-88609000D02*
X41174400Y-88609000D01*
X92784000Y-63609000D02*
X91174400Y-63609000D01*
X42784000Y-63609000D02*
X41174400Y-63609000D01*
X92784000Y-38609000D02*
X91174400Y-38609000D01*
X42784000Y-38609000D02*
X41174400Y-38609000D01*
X48361600Y-37789060D02*
X47541660Y-38609000D01*
X48361600Y-36728400D02*
X48361600Y-37789060D01*
X47541660Y-38609000D02*
X42784000Y-38609000D01*
X100151601Y-112709705D02*
X97917107Y-114944199D01*
X50151601Y-112709705D02*
X47917107Y-114944199D01*
X100151601Y-87709705D02*
X97917107Y-89944199D01*
X50151601Y-87709705D02*
X47917107Y-89944199D01*
X100151601Y-62709705D02*
X97917107Y-64944199D01*
X50151601Y-62709705D02*
X47917107Y-64944199D01*
X100151601Y-37709705D02*
X97917107Y-39944199D01*
X97917107Y-114944199D02*
X91239599Y-114944199D01*
X47917107Y-114944199D02*
X41239599Y-114944199D01*
X97917107Y-89944199D02*
X91239599Y-89944199D01*
X47917107Y-89944199D02*
X41239599Y-89944199D01*
X97917107Y-64944199D02*
X91239599Y-64944199D01*
X47917107Y-64944199D02*
X41239599Y-64944199D01*
X97917107Y-39944199D02*
X91239599Y-39944199D01*
X100901600Y-111728400D02*
X100151601Y-112478399D01*
X50901600Y-111728400D02*
X50151601Y-112478399D01*
X100901600Y-86728400D02*
X100151601Y-87478399D01*
X50901600Y-86728400D02*
X50151601Y-87478399D01*
X100901600Y-61728400D02*
X100151601Y-62478399D01*
X50901600Y-61728400D02*
X50151601Y-62478399D01*
X100901600Y-36728400D02*
X100151601Y-37478399D01*
X100151601Y-112478399D02*
X100151601Y-112709705D01*
X50151601Y-112478399D02*
X50151601Y-112709705D01*
X100151601Y-87478399D02*
X100151601Y-87709705D01*
X50151601Y-87478399D02*
X50151601Y-87709705D01*
X100151601Y-62478399D02*
X100151601Y-62709705D01*
X50151601Y-62478399D02*
X50151601Y-62709705D01*
X100151601Y-37478399D02*
X100151601Y-37709705D01*
X91239599Y-114944199D02*
X91174400Y-114879000D01*
X41239599Y-114944199D02*
X41174400Y-114879000D01*
X91239599Y-89944199D02*
X91174400Y-89879000D01*
X41239599Y-89944199D02*
X41174400Y-89879000D01*
X91239599Y-64944199D02*
X91174400Y-64879000D01*
X41239599Y-64944199D02*
X41174400Y-64879000D01*
X91239599Y-39944199D02*
X91174400Y-39879000D01*
X41239599Y-39944199D02*
X41174400Y-39879000D01*
X50151601Y-37709705D02*
X47917107Y-39944199D01*
X50151601Y-37478399D02*
X50151601Y-37709705D01*
X50901600Y-36728400D02*
X50151601Y-37478399D01*
X47917107Y-39944199D02*
X41239599Y-39944199D01*
X91174400Y-117419000D02*
X93712400Y-117419000D01*
X41174400Y-117419000D02*
X43712400Y-117419000D01*
X91174400Y-92419000D02*
X93712400Y-92419000D01*
X41174400Y-92419000D02*
X43712400Y-92419000D01*
X91174400Y-67419000D02*
X93712400Y-67419000D01*
X41174400Y-67419000D02*
X43712400Y-67419000D01*
X91174400Y-42419000D02*
X93712400Y-42419000D01*
X93712400Y-117419000D02*
X94907200Y-116224200D01*
X43712400Y-117419000D02*
X44907200Y-116224200D01*
X93712400Y-92419000D02*
X94907200Y-91224200D01*
X43712400Y-92419000D02*
X44907200Y-91224200D01*
X93712400Y-67419000D02*
X94907200Y-66224200D01*
X43712400Y-67419000D02*
X44907200Y-66224200D01*
X93712400Y-42419000D02*
X94907200Y-41224200D01*
X98945800Y-116224200D02*
X101435000Y-113735000D01*
X48945800Y-116224200D02*
X51435000Y-113735000D01*
X98945800Y-91224200D02*
X101435000Y-88735000D01*
X48945800Y-91224200D02*
X51435000Y-88735000D01*
X98945800Y-66224200D02*
X101435000Y-63735000D01*
X48945800Y-66224200D02*
X51435000Y-63735000D01*
X98945800Y-41224200D02*
X101435000Y-38735000D01*
X94907200Y-116224200D02*
X98945800Y-116224200D01*
X44907200Y-116224200D02*
X48945800Y-116224200D01*
X94907200Y-91224200D02*
X98945800Y-91224200D01*
X44907200Y-91224200D02*
X48945800Y-91224200D01*
X94907200Y-66224200D02*
X98945800Y-66224200D01*
X44907200Y-66224200D02*
X48945800Y-66224200D01*
X94907200Y-41224200D02*
X98945800Y-41224200D01*
X103441600Y-113100000D02*
X103441600Y-111728400D01*
X53441600Y-113100000D02*
X53441600Y-111728400D01*
X103441600Y-88100000D02*
X103441600Y-86728400D01*
X53441600Y-88100000D02*
X53441600Y-86728400D01*
X103441600Y-63100000D02*
X103441600Y-61728400D01*
X53441600Y-63100000D02*
X53441600Y-61728400D01*
X103441600Y-38100000D02*
X103441600Y-36728400D01*
X102806600Y-113735000D02*
X103441600Y-113100000D01*
X52806600Y-113735000D02*
X53441600Y-113100000D01*
X102806600Y-88735000D02*
X103441600Y-88100000D01*
X52806600Y-88735000D02*
X53441600Y-88100000D01*
X102806600Y-63735000D02*
X103441600Y-63100000D01*
X52806600Y-63735000D02*
X53441600Y-63100000D01*
X102806600Y-38735000D02*
X103441600Y-38100000D01*
X101435000Y-113735000D02*
X102806600Y-113735000D01*
X51435000Y-113735000D02*
X52806600Y-113735000D01*
X101435000Y-88735000D02*
X102806600Y-88735000D01*
X51435000Y-88735000D02*
X52806600Y-88735000D01*
X101435000Y-63735000D02*
X102806600Y-63735000D01*
X51435000Y-63735000D02*
X52806600Y-63735000D01*
X101435000Y-38735000D02*
X102806600Y-38735000D01*
X44907200Y-41224200D02*
X48945800Y-41224200D01*
X53441600Y-38100000D02*
X53441600Y-36728400D01*
X48945800Y-41224200D02*
X51435000Y-38735000D01*
X52806600Y-38735000D02*
X53441600Y-38100000D01*
X51435000Y-38735000D02*
X52806600Y-38735000D01*
X41174400Y-42419000D02*
X43712400Y-42419000D01*
X43712400Y-42419000D02*
X44907200Y-41224200D01*
X103542200Y-121229000D02*
X91174400Y-121229000D01*
X53542200Y-121229000D02*
X41174400Y-121229000D01*
X103542200Y-96229000D02*
X91174400Y-96229000D01*
X53542200Y-96229000D02*
X41174400Y-96229000D01*
X103542200Y-71229000D02*
X91174400Y-71229000D01*
X53542200Y-71229000D02*
X41174400Y-71229000D01*
X103542200Y-46229000D02*
X91174400Y-46229000D01*
X105981600Y-118789600D02*
X103542200Y-121229000D01*
X55981600Y-118789600D02*
X53542200Y-121229000D01*
X105981600Y-93789600D02*
X103542200Y-96229000D01*
X55981600Y-93789600D02*
X53542200Y-96229000D01*
X105981600Y-68789600D02*
X103542200Y-71229000D01*
X55981600Y-68789600D02*
X53542200Y-71229000D01*
X105981600Y-43789600D02*
X103542200Y-46229000D01*
X105981600Y-111728400D02*
X105981600Y-118789600D01*
X55981600Y-111728400D02*
X55981600Y-118789600D01*
X105981600Y-86728400D02*
X105981600Y-93789600D01*
X55981600Y-86728400D02*
X55981600Y-93789600D01*
X105981600Y-61728400D02*
X105981600Y-68789600D01*
X55981600Y-61728400D02*
X55981600Y-68789600D01*
X105981600Y-36728400D02*
X105981600Y-43789600D01*
X55981600Y-36728400D02*
X55981600Y-43789600D01*
X55981600Y-43789600D02*
X53542200Y-46229000D01*
X53542200Y-46229000D02*
X41174400Y-46229000D01*
X104052200Y-122499000D02*
X91174400Y-122499000D01*
X54052200Y-122499000D02*
X41174400Y-122499000D01*
X104052200Y-97499000D02*
X91174400Y-97499000D01*
X54052200Y-97499000D02*
X41174400Y-97499000D01*
X104052200Y-72499000D02*
X91174400Y-72499000D01*
X54052200Y-72499000D02*
X41174400Y-72499000D01*
X104052200Y-47499000D02*
X91174400Y-47499000D01*
X108521600Y-126968400D02*
X104052200Y-122499000D01*
X58521600Y-126968400D02*
X54052200Y-122499000D01*
X108521600Y-101968400D02*
X104052200Y-97499000D01*
X58521600Y-101968400D02*
X54052200Y-97499000D01*
X108521600Y-76968400D02*
X104052200Y-72499000D01*
X58521600Y-76968400D02*
X54052200Y-72499000D01*
X108521600Y-51968400D02*
X104052200Y-47499000D01*
X58521600Y-51968400D02*
X54052200Y-47499000D01*
X54052200Y-47499000D02*
X41174400Y-47499000D01*
X100901600Y-126686294D02*
X97984306Y-123769000D01*
X50901600Y-126686294D02*
X47984306Y-123769000D01*
X100901600Y-101686294D02*
X97984306Y-98769000D01*
X50901600Y-101686294D02*
X47984306Y-98769000D01*
X100901600Y-76686294D02*
X97984306Y-73769000D01*
X50901600Y-76686294D02*
X47984306Y-73769000D01*
X100901600Y-51686294D02*
X97984306Y-48769000D01*
X100901600Y-126968400D02*
X100901600Y-126686294D01*
X50901600Y-126968400D02*
X50901600Y-126686294D01*
X100901600Y-101968400D02*
X100901600Y-101686294D01*
X50901600Y-101968400D02*
X50901600Y-101686294D01*
X100901600Y-76968400D02*
X100901600Y-76686294D01*
X50901600Y-76968400D02*
X50901600Y-76686294D01*
X100901600Y-51968400D02*
X100901600Y-51686294D01*
X92784000Y-123769000D02*
X91174400Y-123769000D01*
X42784000Y-123769000D02*
X41174400Y-123769000D01*
X92784000Y-98769000D02*
X91174400Y-98769000D01*
X42784000Y-98769000D02*
X41174400Y-98769000D01*
X92784000Y-73769000D02*
X91174400Y-73769000D01*
X42784000Y-73769000D02*
X41174400Y-73769000D01*
X92784000Y-48769000D02*
X91174400Y-48769000D01*
X97984306Y-123769000D02*
X92784000Y-123769000D01*
X47984306Y-123769000D02*
X42784000Y-123769000D01*
X97984306Y-98769000D02*
X92784000Y-98769000D01*
X47984306Y-98769000D02*
X42784000Y-98769000D01*
X97984306Y-73769000D02*
X92784000Y-73769000D01*
X47984306Y-73769000D02*
X42784000Y-73769000D01*
X97984306Y-48769000D02*
X92784000Y-48769000D01*
X42784000Y-48769000D02*
X41174400Y-48769000D01*
X50901600Y-51968400D02*
X50901600Y-51686294D01*
X50901600Y-51686294D02*
X47984306Y-48769000D01*
X47984306Y-48769000D02*
X42784000Y-48769000D01*
X98361600Y-126968400D02*
X98361600Y-125907740D01*
X48361600Y-126968400D02*
X48361600Y-125907740D01*
X98361600Y-101968400D02*
X98361600Y-100907740D01*
X48361600Y-101968400D02*
X48361600Y-100907740D01*
X98361600Y-76968400D02*
X98361600Y-75907740D01*
X48361600Y-76968400D02*
X48361600Y-75907740D01*
X98361600Y-51968400D02*
X98361600Y-50907740D01*
X98387000Y-125882340D02*
X97543660Y-125039000D01*
X48387000Y-125882340D02*
X47543660Y-125039000D01*
X98387000Y-100882340D02*
X97543660Y-100039000D01*
X48387000Y-100882340D02*
X47543660Y-100039000D01*
X98387000Y-75882340D02*
X97543660Y-75039000D01*
X48387000Y-75882340D02*
X47543660Y-75039000D01*
X98387000Y-50882340D02*
X97543660Y-50039000D01*
X97543660Y-125039000D02*
X91174400Y-125039000D01*
X47543660Y-125039000D02*
X41174400Y-125039000D01*
X97543660Y-100039000D02*
X91174400Y-100039000D01*
X47543660Y-100039000D02*
X41174400Y-100039000D01*
X97543660Y-75039000D02*
X91174400Y-75039000D01*
X47543660Y-75039000D02*
X41174400Y-75039000D01*
X97543660Y-50039000D02*
X91174400Y-50039000D01*
X98361600Y-125907740D02*
X98387000Y-125882340D01*
X48361600Y-125907740D02*
X48387000Y-125882340D01*
X98361600Y-100907740D02*
X98387000Y-100882340D01*
X48361600Y-100907740D02*
X48387000Y-100882340D01*
X98361600Y-75907740D02*
X98387000Y-75882340D01*
X48361600Y-75907740D02*
X48387000Y-75882340D01*
X98361600Y-50907740D02*
X98387000Y-50882340D01*
X48361600Y-50907740D02*
X48387000Y-50882340D01*
X48361600Y-51968400D02*
X48361600Y-50907740D01*
X47543660Y-50039000D02*
X41174400Y-50039000D01*
X48387000Y-50882340D02*
X47543660Y-50039000D01*
X81774400Y-112339000D02*
X84466800Y-112339000D01*
X31774400Y-112339000D02*
X34466800Y-112339000D01*
X81774400Y-87339000D02*
X84466800Y-87339000D01*
X31774400Y-87339000D02*
X34466800Y-87339000D01*
X81774400Y-62339000D02*
X84466800Y-62339000D01*
X31774400Y-62339000D02*
X34466800Y-62339000D01*
X81774400Y-37339000D02*
X84466800Y-37339000D01*
X31774400Y-37339000D02*
X34466800Y-37339000D01*
X91174400Y-126309000D02*
X92784000Y-126309000D01*
X41174400Y-126309000D02*
X42784000Y-126309000D01*
X91174400Y-101309000D02*
X92784000Y-101309000D01*
X41174400Y-101309000D02*
X42784000Y-101309000D01*
X91174400Y-76309000D02*
X92784000Y-76309000D01*
X41174400Y-76309000D02*
X42784000Y-76309000D01*
X91174400Y-51309000D02*
X92784000Y-51309000D01*
X92785000Y-126308000D02*
X93383200Y-126308000D01*
X42785000Y-126308000D02*
X43383200Y-126308000D01*
X92785000Y-101308000D02*
X93383200Y-101308000D01*
X42785000Y-101308000D02*
X43383200Y-101308000D01*
X92785000Y-76308000D02*
X93383200Y-76308000D01*
X42785000Y-76308000D02*
X43383200Y-76308000D01*
X92785000Y-51308000D02*
X93383200Y-51308000D01*
X92784000Y-126309000D02*
X92785000Y-126308000D01*
X42784000Y-126309000D02*
X42785000Y-126308000D01*
X92784000Y-101309000D02*
X92785000Y-101308000D01*
X42784000Y-101309000D02*
X42785000Y-101308000D01*
X92784000Y-76309000D02*
X92785000Y-76308000D01*
X42784000Y-76309000D02*
X42785000Y-76308000D01*
X92784000Y-51309000D02*
X92785000Y-51308000D01*
X42784000Y-51309000D02*
X42785000Y-51308000D01*
X42785000Y-51308000D02*
X43383200Y-51308000D01*
X41174400Y-51309000D02*
X42784000Y-51309000D01*
X81774400Y-127218600D02*
X86042030Y-131486230D01*
X31774400Y-127218600D02*
X36042030Y-131486230D01*
X81774400Y-102218600D02*
X86042030Y-106486230D01*
X31774400Y-102218600D02*
X36042030Y-106486230D01*
X81774400Y-77218600D02*
X86042030Y-81486230D01*
X31774400Y-77218600D02*
X36042030Y-81486230D01*
X81774400Y-52218600D02*
X86042030Y-56486230D01*
X115227200Y-123564800D02*
X115227200Y-121299600D01*
X65227200Y-123564800D02*
X65227200Y-121299600D01*
X115227200Y-98564800D02*
X115227200Y-96299600D01*
X65227200Y-98564800D02*
X65227200Y-96299600D01*
X115227200Y-73564800D02*
X115227200Y-71299600D01*
X65227200Y-73564800D02*
X65227200Y-71299600D01*
X115227200Y-48564800D02*
X115227200Y-46299600D01*
X119108800Y-117418000D02*
X121018400Y-117418000D01*
X69108800Y-117418000D02*
X71018400Y-117418000D01*
X119108800Y-92418000D02*
X121018400Y-92418000D01*
X69108800Y-92418000D02*
X71018400Y-92418000D01*
X119108800Y-67418000D02*
X121018400Y-67418000D01*
X69108800Y-67418000D02*
X71018400Y-67418000D01*
X119108800Y-42418000D02*
X121018400Y-42418000D01*
X115227200Y-121299600D02*
X119108800Y-117418000D01*
X65227200Y-121299600D02*
X69108800Y-117418000D01*
X115227200Y-96299600D02*
X119108800Y-92418000D01*
X65227200Y-96299600D02*
X69108800Y-92418000D01*
X115227200Y-71299600D02*
X119108800Y-67418000D01*
X65227200Y-71299600D02*
X69108800Y-67418000D01*
X115227200Y-46299600D02*
X119108800Y-42418000D01*
X107305770Y-131486230D02*
X115227200Y-123564800D01*
X57305770Y-131486230D02*
X65227200Y-123564800D01*
X107305770Y-106486230D02*
X115227200Y-98564800D01*
X57305770Y-106486230D02*
X65227200Y-98564800D01*
X107305770Y-81486230D02*
X115227200Y-73564800D01*
X57305770Y-81486230D02*
X65227200Y-73564800D01*
X107305770Y-56486230D02*
X115227200Y-48564800D01*
X86042030Y-131486230D02*
X107305770Y-131486230D01*
X36042030Y-131486230D02*
X57305770Y-131486230D01*
X86042030Y-106486230D02*
X107305770Y-106486230D01*
X36042030Y-106486230D02*
X57305770Y-106486230D01*
X86042030Y-81486230D02*
X107305770Y-81486230D01*
X36042030Y-81486230D02*
X57305770Y-81486230D01*
X86042030Y-56486230D02*
X107305770Y-56486230D01*
X81774400Y-126309000D02*
X81774400Y-127218600D01*
X31774400Y-126309000D02*
X31774400Y-127218600D01*
X81774400Y-101309000D02*
X81774400Y-102218600D01*
X31774400Y-101309000D02*
X31774400Y-102218600D01*
X81774400Y-76309000D02*
X81774400Y-77218600D01*
X31774400Y-76309000D02*
X31774400Y-77218600D01*
X81774400Y-51309000D02*
X81774400Y-52218600D01*
X36042030Y-56486230D02*
X57305770Y-56486230D01*
X31774400Y-51309000D02*
X31774400Y-52218600D01*
X31774400Y-52218600D02*
X36042030Y-56486230D01*
X69108800Y-42418000D02*
X71018400Y-42418000D01*
X57305770Y-56486230D02*
X65227200Y-48564800D01*
X65227200Y-48564800D02*
X65227200Y-46299600D01*
X65227200Y-46299600D02*
X69108800Y-42418000D01*
X95821600Y-126968400D02*
X94760940Y-126968400D01*
X45821600Y-126968400D02*
X44760940Y-126968400D01*
X95821600Y-101968400D02*
X94760940Y-101968400D01*
X45821600Y-101968400D02*
X44760940Y-101968400D01*
X95821600Y-76968400D02*
X94760940Y-76968400D01*
X45821600Y-76968400D02*
X44760940Y-76968400D01*
X95821600Y-51968400D02*
X94760940Y-51968400D01*
X94760940Y-126968400D02*
X93871940Y-127857400D01*
X44760940Y-126968400D02*
X43871940Y-127857400D01*
X94760940Y-101968400D02*
X93871940Y-102857400D01*
X44760940Y-101968400D02*
X43871940Y-102857400D01*
X94760940Y-76968400D02*
X93871940Y-77857400D01*
X44760940Y-76968400D02*
X43871940Y-77857400D01*
X94760940Y-51968400D02*
X93871940Y-52857400D01*
X89794158Y-127857400D02*
X89209958Y-127273200D01*
X39794158Y-127857400D02*
X39209958Y-127273200D01*
X89794158Y-102857400D02*
X89209958Y-102273200D01*
X39794158Y-102857400D02*
X39209958Y-102273200D01*
X89794158Y-77857400D02*
X89209958Y-77273200D01*
X39794158Y-77857400D02*
X39209958Y-77273200D01*
X89794158Y-52857400D02*
X89209958Y-52273200D01*
X93871940Y-127857400D02*
X89794158Y-127857400D01*
X43871940Y-127857400D02*
X39794158Y-127857400D01*
X93871940Y-102857400D02*
X89794158Y-102857400D01*
X43871940Y-102857400D02*
X39794158Y-102857400D01*
X93871940Y-77857400D02*
X89794158Y-77857400D01*
X43871940Y-77857400D02*
X39794158Y-77857400D01*
X93871940Y-52857400D02*
X89794158Y-52857400D01*
X89209958Y-127002712D02*
X87445820Y-125238574D01*
X39209958Y-127002712D02*
X37445820Y-125238574D01*
X89209958Y-102002712D02*
X87445820Y-100238574D01*
X39209958Y-102002712D02*
X37445820Y-100238574D01*
X89209958Y-77002712D02*
X87445820Y-75238574D01*
X39209958Y-77002712D02*
X37445820Y-75238574D01*
X89209958Y-52002712D02*
X87445820Y-50238574D01*
X89209958Y-127273200D02*
X89209958Y-127002712D01*
X39209958Y-127273200D02*
X39209958Y-127002712D01*
X89209958Y-102273200D02*
X89209958Y-102002712D01*
X39209958Y-102273200D02*
X39209958Y-102002712D01*
X89209958Y-77273200D02*
X89209958Y-77002712D01*
X39209958Y-77273200D02*
X39209958Y-77002712D01*
X89209958Y-52273200D02*
X89209958Y-52002712D01*
X87445820Y-125238574D02*
X87445820Y-115697020D01*
X37445820Y-125238574D02*
X37445820Y-115697020D01*
X87445820Y-100238574D02*
X87445820Y-90697020D01*
X37445820Y-100238574D02*
X37445820Y-90697020D01*
X87445820Y-75238574D02*
X87445820Y-65697020D01*
X37445820Y-75238574D02*
X37445820Y-65697020D01*
X87445820Y-50238574D02*
X87445820Y-40697020D01*
X85357800Y-113609000D02*
X83384000Y-113609000D01*
X35357800Y-113609000D02*
X33384000Y-113609000D01*
X85357800Y-88609000D02*
X83384000Y-88609000D01*
X35357800Y-88609000D02*
X33384000Y-88609000D01*
X85357800Y-63609000D02*
X83384000Y-63609000D01*
X35357800Y-63609000D02*
X33384000Y-63609000D01*
X85357800Y-38609000D02*
X83384000Y-38609000D01*
X87445820Y-115697020D02*
X85357800Y-113609000D01*
X37445820Y-115697020D02*
X35357800Y-113609000D01*
X87445820Y-90697020D02*
X85357800Y-88609000D01*
X37445820Y-90697020D02*
X35357800Y-88609000D01*
X87445820Y-65697020D02*
X85357800Y-63609000D01*
X37445820Y-65697020D02*
X35357800Y-63609000D01*
X87445820Y-40697020D02*
X85357800Y-38609000D01*
X83384000Y-113609000D02*
X81774400Y-113609000D01*
X33384000Y-113609000D02*
X31774400Y-113609000D01*
X83384000Y-88609000D02*
X81774400Y-88609000D01*
X33384000Y-88609000D02*
X31774400Y-88609000D01*
X83384000Y-63609000D02*
X81774400Y-63609000D01*
X33384000Y-63609000D02*
X31774400Y-63609000D01*
X83384000Y-38609000D02*
X81774400Y-38609000D01*
X39209958Y-52002712D02*
X37445820Y-50238574D01*
X33384000Y-38609000D02*
X31774400Y-38609000D01*
X35357800Y-38609000D02*
X33384000Y-38609000D01*
X37445820Y-40697020D02*
X35357800Y-38609000D01*
X39209958Y-52273200D02*
X39209958Y-52002712D01*
X37445820Y-50238574D02*
X37445820Y-40697020D01*
X43871940Y-52857400D02*
X39794158Y-52857400D01*
X39794158Y-52857400D02*
X39209958Y-52273200D01*
X44760940Y-51968400D02*
X43871940Y-52857400D01*
X45821600Y-51968400D02*
X44760940Y-51968400D01*
X101342990Y-129067010D02*
X89293122Y-129067010D01*
X51342990Y-129067010D02*
X39293122Y-129067010D01*
X101342990Y-104067010D02*
X89293122Y-104067010D01*
X51342990Y-104067010D02*
X39293122Y-104067010D01*
X101342990Y-79067010D02*
X89293122Y-79067010D01*
X51342990Y-79067010D02*
X39293122Y-79067010D01*
X101342990Y-54067010D02*
X89293122Y-54067010D01*
X103441600Y-126968400D02*
X101342990Y-129067010D01*
X53441600Y-126968400D02*
X51342990Y-129067010D01*
X103441600Y-101968400D02*
X101342990Y-104067010D01*
X53441600Y-101968400D02*
X51342990Y-104067010D01*
X103441600Y-76968400D02*
X101342990Y-79067010D01*
X53441600Y-76968400D02*
X51342990Y-79067010D01*
X103441600Y-51968400D02*
X101342990Y-54067010D01*
X89293122Y-129067010D02*
X87617400Y-127391288D01*
X39293122Y-129067010D02*
X37617400Y-127391288D01*
X89293122Y-104067010D02*
X87617400Y-102391288D01*
X39293122Y-104067010D02*
X37617400Y-102391288D01*
X89293122Y-79067010D02*
X87617400Y-77391288D01*
X39293122Y-79067010D02*
X37617400Y-77391288D01*
X89293122Y-54067010D02*
X87617400Y-52391288D01*
X86236210Y-125739610D02*
X86236210Y-116817990D01*
X36236210Y-125739610D02*
X36236210Y-116817990D01*
X86236210Y-100739610D02*
X86236210Y-91817990D01*
X36236210Y-100739610D02*
X36236210Y-91817990D01*
X86236210Y-75739610D02*
X86236210Y-66817990D01*
X36236210Y-75739610D02*
X36236210Y-66817990D01*
X86236210Y-50739610D02*
X86236210Y-41817990D01*
X86236210Y-116817990D02*
X84236830Y-114818610D01*
X36236210Y-116817990D02*
X34236830Y-114818610D01*
X86236210Y-91817990D02*
X84236830Y-89818610D01*
X36236210Y-91817990D02*
X34236830Y-89818610D01*
X86236210Y-66817990D02*
X84236830Y-64818610D01*
X36236210Y-66817990D02*
X34236830Y-64818610D01*
X86236210Y-41817990D02*
X84236830Y-39818610D01*
X87617400Y-127120800D02*
X86236210Y-125739610D01*
X37617400Y-127120800D02*
X36236210Y-125739610D01*
X87617400Y-102120800D02*
X86236210Y-100739610D01*
X37617400Y-102120800D02*
X36236210Y-100739610D01*
X87617400Y-77120800D02*
X86236210Y-75739610D01*
X37617400Y-77120800D02*
X36236210Y-75739610D01*
X87617400Y-52120800D02*
X86236210Y-50739610D01*
X87617400Y-127391288D02*
X87617400Y-127120800D01*
X37617400Y-127391288D02*
X37617400Y-127120800D01*
X87617400Y-102391288D02*
X87617400Y-102120800D01*
X37617400Y-102391288D02*
X37617400Y-102120800D01*
X87617400Y-77391288D02*
X87617400Y-77120800D01*
X37617400Y-77391288D02*
X37617400Y-77120800D01*
X87617400Y-52391288D02*
X87617400Y-52120800D01*
X84236830Y-114818610D02*
X84176440Y-114879000D01*
X34236830Y-114818610D02*
X34176440Y-114879000D01*
X84236830Y-89818610D02*
X84176440Y-89879000D01*
X34236830Y-89818610D02*
X34176440Y-89879000D01*
X84236830Y-64818610D02*
X84176440Y-64879000D01*
X34236830Y-64818610D02*
X34176440Y-64879000D01*
X84236830Y-39818610D02*
X84176440Y-39879000D01*
X84176440Y-114879000D02*
X81774400Y-114879000D01*
X34176440Y-114879000D02*
X31774400Y-114879000D01*
X84176440Y-89879000D02*
X81774400Y-89879000D01*
X34176440Y-89879000D02*
X31774400Y-89879000D01*
X84176440Y-64879000D02*
X81774400Y-64879000D01*
X34176440Y-64879000D02*
X31774400Y-64879000D01*
X84176440Y-39879000D02*
X81774400Y-39879000D01*
X36236210Y-50739610D02*
X36236210Y-41817990D01*
X34236830Y-39818610D02*
X34176440Y-39879000D01*
X34176440Y-39879000D02*
X31774400Y-39879000D01*
X36236210Y-41817990D02*
X34236830Y-39818610D01*
X37617400Y-52120800D02*
X36236210Y-50739610D01*
X37617400Y-52391288D02*
X37617400Y-52120800D01*
X39293122Y-54067010D02*
X37617400Y-52391288D01*
X51342990Y-54067010D02*
X39293122Y-54067010D01*
X53441600Y-51968400D02*
X51342990Y-54067010D01*
X102673380Y-130276620D02*
X88792086Y-130276620D01*
X52673380Y-130276620D02*
X38792086Y-130276620D01*
X102673380Y-105276620D02*
X88792086Y-105276620D01*
X52673380Y-105276620D02*
X38792086Y-105276620D01*
X102673380Y-80276620D02*
X88792086Y-80276620D01*
X52673380Y-80276620D02*
X38792086Y-80276620D01*
X102673380Y-55276620D02*
X88792086Y-55276620D01*
X105981600Y-126968400D02*
X102673380Y-130276620D01*
X55981600Y-126968400D02*
X52673380Y-130276620D01*
X105981600Y-101968400D02*
X102673380Y-105276620D01*
X55981600Y-101968400D02*
X52673380Y-105276620D01*
X105981600Y-76968400D02*
X102673380Y-80276620D01*
X55981600Y-76968400D02*
X52673380Y-80276620D01*
X105981600Y-51968400D02*
X102673380Y-55276620D01*
X85026600Y-117419000D02*
X81774400Y-117419000D01*
X35026600Y-117419000D02*
X31774400Y-117419000D01*
X85026600Y-92419000D02*
X81774400Y-92419000D01*
X35026600Y-92419000D02*
X31774400Y-92419000D01*
X85026600Y-67419000D02*
X81774400Y-67419000D01*
X35026600Y-67419000D02*
X31774400Y-67419000D01*
X85026600Y-42419000D02*
X81774400Y-42419000D01*
X85026600Y-126333400D02*
X85026600Y-117419000D01*
X35026600Y-126333400D02*
X35026600Y-117419000D01*
X85026600Y-101333400D02*
X85026600Y-92419000D01*
X35026600Y-101333400D02*
X35026600Y-92419000D01*
X85026600Y-76333400D02*
X85026600Y-67419000D01*
X35026600Y-76333400D02*
X35026600Y-67419000D01*
X85026600Y-51333400D02*
X85026600Y-42419000D01*
X86407792Y-127714592D02*
X85026600Y-126333400D01*
X36407792Y-127714592D02*
X35026600Y-126333400D01*
X86407792Y-102714592D02*
X85026600Y-101333400D01*
X36407792Y-102714592D02*
X35026600Y-101333400D01*
X86407792Y-77714592D02*
X85026600Y-76333400D01*
X36407792Y-77714592D02*
X35026600Y-76333400D01*
X86407792Y-52714592D02*
X85026600Y-51333400D01*
X86407792Y-127892326D02*
X86407792Y-127714592D01*
X36407792Y-127892326D02*
X36407792Y-127714592D01*
X86407792Y-102892326D02*
X86407792Y-102714592D01*
X36407792Y-102892326D02*
X36407792Y-102714592D01*
X86407792Y-77892326D02*
X86407792Y-77714592D01*
X36407792Y-77892326D02*
X36407792Y-77714592D01*
X86407792Y-52892326D02*
X86407792Y-52714592D01*
X88792086Y-130276620D02*
X86407792Y-127892326D01*
X38792086Y-130276620D02*
X36407792Y-127892326D01*
X88792086Y-105276620D02*
X86407792Y-102892326D01*
X38792086Y-105276620D02*
X36407792Y-102892326D01*
X88792086Y-80276620D02*
X86407792Y-77892326D01*
X38792086Y-80276620D02*
X36407792Y-77892326D01*
X88792086Y-55276620D02*
X86407792Y-52892326D01*
X35026600Y-51333400D02*
X35026600Y-42419000D01*
X35026600Y-42419000D02*
X31774400Y-42419000D01*
X36407792Y-52892326D02*
X36407792Y-52714592D01*
X38792086Y-55276620D02*
X36407792Y-52892326D01*
X52673380Y-55276620D02*
X38792086Y-55276620D01*
X36407792Y-52714592D02*
X35026600Y-51333400D01*
X55981600Y-51968400D02*
X52673380Y-55276620D01*
X78905200Y-109544000D02*
X77711400Y-110737800D01*
X28905200Y-109544000D02*
X27711400Y-110737800D01*
X78905200Y-84544000D02*
X77711400Y-85737800D01*
X28905200Y-84544000D02*
X27711400Y-85737800D01*
X78905200Y-59544000D02*
X77711400Y-60737800D01*
X28905200Y-59544000D02*
X27711400Y-60737800D01*
X78905200Y-34544000D02*
X77711400Y-35737800D01*
X78905200Y-109544000D02*
X106337200Y-109544000D01*
X28905200Y-109544000D02*
X56337200Y-109544000D01*
X78905200Y-84544000D02*
X106337200Y-84544000D01*
X28905200Y-84544000D02*
X56337200Y-84544000D01*
X78905200Y-59544000D02*
X106337200Y-59544000D01*
X28905200Y-59544000D02*
X56337200Y-59544000D01*
X78905200Y-34544000D02*
X106337200Y-34544000D01*
X106337200Y-109544000D02*
X106362600Y-109518600D01*
X56337200Y-109544000D02*
X56362600Y-109518600D01*
X106337200Y-84544000D02*
X106362600Y-84518600D01*
X56337200Y-84544000D02*
X56362600Y-84518600D01*
X106337200Y-59544000D02*
X106362600Y-59518600D01*
X56337200Y-59544000D02*
X56362600Y-59518600D01*
X106337200Y-34544000D02*
X106362600Y-34518600D01*
X108521600Y-110687000D02*
X108521600Y-111728400D01*
X58521600Y-110687000D02*
X58521600Y-111728400D01*
X108521600Y-85687000D02*
X108521600Y-86728400D01*
X58521600Y-85687000D02*
X58521600Y-86728400D01*
X108521600Y-60687000D02*
X108521600Y-61728400D01*
X58521600Y-60687000D02*
X58521600Y-61728400D01*
X108521600Y-35687000D02*
X108521600Y-36728400D01*
X107353200Y-109518600D02*
X108521600Y-110687000D01*
X57353200Y-109518600D02*
X58521600Y-110687000D01*
X107353200Y-84518600D02*
X108521600Y-85687000D01*
X57353200Y-84518600D02*
X58521600Y-85687000D01*
X107353200Y-59518600D02*
X108521600Y-60687000D01*
X57353200Y-59518600D02*
X58521600Y-60687000D01*
X107353200Y-34518600D02*
X108521600Y-35687000D01*
X106362600Y-109518600D02*
X107353200Y-109518600D01*
X56362600Y-109518600D02*
X57353200Y-109518600D01*
X106362600Y-84518600D02*
X107353200Y-84518600D01*
X56362600Y-84518600D02*
X57353200Y-84518600D01*
X106362600Y-59518600D02*
X107353200Y-59518600D01*
X56362600Y-59518600D02*
X57353200Y-59518600D01*
X106362600Y-34518600D02*
X107353200Y-34518600D01*
X77711400Y-110737800D02*
X77711400Y-117927000D01*
X27711400Y-110737800D02*
X27711400Y-117927000D01*
X77711400Y-85737800D02*
X77711400Y-92927000D01*
X27711400Y-85737800D02*
X27711400Y-92927000D01*
X77711400Y-60737800D02*
X77711400Y-67927000D01*
X27711400Y-60737800D02*
X27711400Y-67927000D01*
X77711400Y-35737800D02*
X77711400Y-42927000D01*
X81774400Y-118689000D02*
X78473400Y-118689000D01*
X31774400Y-118689000D02*
X28473400Y-118689000D01*
X81774400Y-93689000D02*
X78473400Y-93689000D01*
X31774400Y-93689000D02*
X28473400Y-93689000D01*
X81774400Y-68689000D02*
X78473400Y-68689000D01*
X31774400Y-68689000D02*
X28473400Y-68689000D01*
X81774400Y-43689000D02*
X78473400Y-43689000D01*
X77711400Y-117927000D02*
X78473400Y-118689000D01*
X27711400Y-117927000D02*
X28473400Y-118689000D01*
X77711400Y-92927000D02*
X78473400Y-93689000D01*
X27711400Y-92927000D02*
X28473400Y-93689000D01*
X77711400Y-67927000D02*
X78473400Y-68689000D01*
X27711400Y-67927000D02*
X28473400Y-68689000D01*
X77711400Y-42927000D02*
X78473400Y-43689000D01*
X56362600Y-34518600D02*
X57353200Y-34518600D01*
X58521600Y-35687000D02*
X58521600Y-36728400D01*
X57353200Y-34518600D02*
X58521600Y-35687000D01*
X56337200Y-34544000D02*
X56362600Y-34518600D01*
X31774400Y-43689000D02*
X28473400Y-43689000D01*
X27711400Y-35737800D02*
X27711400Y-42927000D01*
X27711400Y-42927000D02*
X28473400Y-43689000D01*
X28905200Y-34544000D02*
X56337200Y-34544000D01*
X28905200Y-34544000D02*
X27711400Y-35737800D01*
X92784000Y-119959000D02*
X91174400Y-119959000D01*
X42784000Y-119959000D02*
X41174400Y-119959000D01*
X92784000Y-94959000D02*
X91174400Y-94959000D01*
X42784000Y-94959000D02*
X41174400Y-94959000D01*
X92784000Y-69959000D02*
X91174400Y-69959000D01*
X42784000Y-69959000D02*
X41174400Y-69959000D01*
X92784000Y-44959000D02*
X91174400Y-44959000D01*
X94975692Y-119577000D02*
X94593692Y-119959000D01*
X44975692Y-119577000D02*
X44593692Y-119959000D01*
X94975692Y-94577000D02*
X94593692Y-94959000D01*
X44975692Y-94577000D02*
X44593692Y-94959000D01*
X94975692Y-69577000D02*
X94593692Y-69959000D01*
X44975692Y-69577000D02*
X44593692Y-69959000D01*
X94975692Y-44577000D02*
X94593692Y-44959000D01*
X94593692Y-119959000D02*
X92784000Y-119959000D01*
X44593692Y-119959000D02*
X42784000Y-119959000D01*
X94593692Y-94959000D02*
X92784000Y-94959000D01*
X44593692Y-94959000D02*
X42784000Y-94959000D01*
X94593692Y-69959000D02*
X92784000Y-69959000D01*
X44593692Y-69959000D02*
X42784000Y-69959000D01*
X94593692Y-44959000D02*
X92784000Y-44959000D01*
X97265600Y-119577000D02*
X94975692Y-119577000D01*
X47265600Y-119577000D02*
X44975692Y-119577000D01*
X97265600Y-94577000D02*
X94975692Y-94577000D01*
X47265600Y-94577000D02*
X44975692Y-94577000D01*
X97265600Y-69577000D02*
X94975692Y-69577000D01*
X47265600Y-69577000D02*
X44975692Y-69577000D01*
X97265600Y-44577000D02*
X94975692Y-44577000D01*
X47265600Y-44577000D02*
X44975692Y-44577000D01*
X44975692Y-44577000D02*
X44593692Y-44959000D01*
X42784000Y-44959000D02*
X41174400Y-44959000D01*
X44593692Y-44959000D02*
X42784000Y-44959000D01*
X81774400Y-122499000D02*
X79211000Y-122499000D01*
X31774400Y-122499000D02*
X29211000Y-122499000D01*
X81774400Y-97499000D02*
X79211000Y-97499000D01*
X31774400Y-97499000D02*
X29211000Y-97499000D01*
X81774400Y-72499000D02*
X79211000Y-72499000D01*
X31774400Y-72499000D02*
X29211000Y-72499000D01*
X81774400Y-47499000D02*
X79211000Y-47499000D01*
X81774400Y-116149000D02*
X79259800Y-116149000D01*
X31774400Y-116149000D02*
X29259800Y-116149000D01*
X81774400Y-91149000D02*
X79259800Y-91149000D01*
X31774400Y-91149000D02*
X29259800Y-91149000D01*
X81774400Y-66149000D02*
X79259800Y-66149000D01*
X31774400Y-66149000D02*
X29259800Y-66149000D01*
X81774400Y-41149000D02*
X79259800Y-41149000D01*
X31774400Y-41149000D02*
X29259800Y-41149000D01*
X31774400Y-47499000D02*
X29211000Y-47499000D01*
D20*
X103568600Y-115894000D02*
X102389000Y-115894000D01*
X53568600Y-115894000D02*
X52389000Y-115894000D01*
X103568600Y-90894000D02*
X102389000Y-90894000D01*
X53568600Y-90894000D02*
X52389000Y-90894000D01*
X103568600Y-65894000D02*
X102389000Y-65894000D01*
X53568600Y-65894000D02*
X52389000Y-65894000D01*
X103568600Y-40894000D02*
X102389000Y-40894000D01*
D19*
X91174400Y-118689000D02*
X94153046Y-118689000D01*
X41174400Y-118689000D02*
X44153046Y-118689000D01*
X91174400Y-93689000D02*
X94153046Y-93689000D01*
X41174400Y-93689000D02*
X44153046Y-93689000D01*
X91174400Y-68689000D02*
X94153046Y-68689000D01*
X41174400Y-68689000D02*
X44153046Y-68689000D01*
X91174400Y-43689000D02*
X94153046Y-43689000D01*
X94153046Y-118689000D02*
X95297046Y-117545000D01*
X44153046Y-118689000D02*
X45297046Y-117545000D01*
X94153046Y-93689000D02*
X95297046Y-92545000D01*
X44153046Y-93689000D02*
X45297046Y-92545000D01*
X94153046Y-68689000D02*
X95297046Y-67545000D01*
X44153046Y-68689000D02*
X45297046Y-67545000D01*
X94153046Y-43689000D02*
X95297046Y-42545000D01*
D20*
X102389000Y-115894000D02*
X99965600Y-118317400D01*
X52389000Y-115894000D02*
X49965600Y-118317400D01*
X102389000Y-90894000D02*
X99965600Y-93317400D01*
X52389000Y-90894000D02*
X49965600Y-93317400D01*
X102389000Y-65894000D02*
X99965600Y-68317400D01*
X52389000Y-65894000D02*
X49965600Y-68317400D01*
X102389000Y-40894000D02*
X99965600Y-43317400D01*
D19*
X99193200Y-117545000D02*
X99965600Y-118317400D01*
X49193200Y-117545000D02*
X49965600Y-118317400D01*
X99193200Y-92545000D02*
X99965600Y-93317400D01*
X49193200Y-92545000D02*
X49965600Y-93317400D01*
X99193200Y-67545000D02*
X99965600Y-68317400D01*
X49193200Y-67545000D02*
X49965600Y-68317400D01*
X99193200Y-42545000D02*
X99965600Y-43317400D01*
X95297046Y-117545000D02*
X99193200Y-117545000D01*
X45297046Y-117545000D02*
X49193200Y-117545000D01*
X95297046Y-92545000D02*
X99193200Y-92545000D01*
X45297046Y-92545000D02*
X49193200Y-92545000D01*
X95297046Y-67545000D02*
X99193200Y-67545000D01*
X45297046Y-67545000D02*
X49193200Y-67545000D01*
X95297046Y-42545000D02*
X99193200Y-42545000D01*
X99965600Y-118317400D02*
X99965600Y-119577000D01*
X49965600Y-118317400D02*
X49965600Y-119577000D01*
X99965600Y-93317400D02*
X99965600Y-94577000D01*
X49965600Y-93317400D02*
X49965600Y-94577000D01*
X99965600Y-68317400D02*
X99965600Y-69577000D01*
X49965600Y-68317400D02*
X49965600Y-69577000D01*
X99965600Y-43317400D02*
X99965600Y-44577000D01*
D20*
X53568600Y-40894000D02*
X52389000Y-40894000D01*
D19*
X45297046Y-42545000D02*
X49193200Y-42545000D01*
X49965600Y-43317400D02*
X49965600Y-44577000D01*
X49193200Y-42545000D02*
X49965600Y-43317400D01*
D20*
X52389000Y-40894000D02*
X49965600Y-43317400D01*
D19*
X44153046Y-43689000D02*
X45297046Y-42545000D01*
X41174400Y-43689000D02*
X44153046Y-43689000D01*
D21*
G36*
X33994800Y-51333400D02*
X34073341Y-51728253D01*
X34297007Y-52062993D01*
X35437981Y-53203966D01*
X35454533Y-53287179D01*
X35678199Y-53621919D01*
X37510710Y-55454430D01*
X36469416Y-55454430D01*
X33208536Y-52193550D01*
X33291246Y-52140328D01*
X33457243Y-51897385D01*
X33515642Y-51609000D01*
X33515642Y-51009000D01*
X33464949Y-50739590D01*
X33424028Y-50675997D01*
X33457243Y-50627385D01*
X33515642Y-50339000D01*
X33515642Y-49739000D01*
X33464949Y-49469590D01*
X33424028Y-49405997D01*
X33457243Y-49357385D01*
X33515642Y-49069000D01*
X33515642Y-48469000D01*
X33464949Y-48199590D01*
X33362035Y-48039658D01*
X33409400Y-47925310D01*
X33409400Y-47784750D01*
X33250650Y-47626000D01*
X31901400Y-47626000D01*
X31901400Y-47646000D01*
X31647400Y-47646000D01*
X31647400Y-47626000D01*
X30298150Y-47626000D01*
X30139400Y-47784750D01*
X30139400Y-47925310D01*
X30187182Y-48040665D01*
X30091557Y-48180615D01*
X30033158Y-48469000D01*
X30033158Y-49069000D01*
X30083851Y-49338410D01*
X30124772Y-49402003D01*
X30091557Y-49450615D01*
X30033158Y-49739000D01*
X30033158Y-50339000D01*
X30083851Y-50608410D01*
X30124772Y-50672003D01*
X30091557Y-50720615D01*
X30033158Y-51009000D01*
X30033158Y-51609000D01*
X30083851Y-51878410D01*
X30243072Y-52125846D01*
X30486015Y-52291843D01*
X30768550Y-52349057D01*
X30821141Y-52613453D01*
X31044807Y-52948193D01*
X34005985Y-55909371D01*
X27613339Y-55951945D01*
X27660229Y-44335015D01*
X27743807Y-44418593D01*
X28078547Y-44642259D01*
X28144058Y-44655290D01*
X28473400Y-44720801D01*
X28473405Y-44720800D01*
X30033158Y-44720800D01*
X30033158Y-45259000D01*
X30083851Y-45528410D01*
X30124772Y-45592003D01*
X30091557Y-45640615D01*
X30033158Y-45929000D01*
X30033158Y-46529000D01*
X30083851Y-46798410D01*
X30186765Y-46958342D01*
X30139400Y-47072690D01*
X30139400Y-47213250D01*
X30298150Y-47372000D01*
X31647400Y-47372000D01*
X31647400Y-47352000D01*
X31901400Y-47352000D01*
X31901400Y-47372000D01*
X33250650Y-47372000D01*
X33409400Y-47213250D01*
X33409400Y-47072690D01*
X33361618Y-46957335D01*
X33457243Y-46817385D01*
X33515642Y-46529000D01*
X33515642Y-45929000D01*
X33464949Y-45659590D01*
X33424028Y-45595997D01*
X33457243Y-45547385D01*
X33515642Y-45259000D01*
X33515642Y-44659000D01*
X33464949Y-44389590D01*
X33424028Y-44325997D01*
X33457243Y-44277385D01*
X33515642Y-43989000D01*
X33515642Y-43450800D01*
X33994800Y-43450800D01*
X33994800Y-51333400D01*
X33994800Y-51333400D01*
G37*
X33994800Y-51333400D02*
X34073341Y-51728253D01*
X34297007Y-52062993D01*
X35437981Y-53203966D01*
X35454533Y-53287179D01*
X35678199Y-53621919D01*
X37510710Y-55454430D01*
X36469416Y-55454430D01*
X33208536Y-52193550D01*
X33291246Y-52140328D01*
X33457243Y-51897385D01*
X33515642Y-51609000D01*
X33515642Y-51009000D01*
X33464949Y-50739590D01*
X33424028Y-50675997D01*
X33457243Y-50627385D01*
X33515642Y-50339000D01*
X33515642Y-49739000D01*
X33464949Y-49469590D01*
X33424028Y-49405997D01*
X33457243Y-49357385D01*
X33515642Y-49069000D01*
X33515642Y-48469000D01*
X33464949Y-48199590D01*
X33362035Y-48039658D01*
X33409400Y-47925310D01*
X33409400Y-47784750D01*
X33250650Y-47626000D01*
X31901400Y-47626000D01*
X31901400Y-47646000D01*
X31647400Y-47646000D01*
X31647400Y-47626000D01*
X30298150Y-47626000D01*
X30139400Y-47784750D01*
X30139400Y-47925310D01*
X30187182Y-48040665D01*
X30091557Y-48180615D01*
X30033158Y-48469000D01*
X30033158Y-49069000D01*
X30083851Y-49338410D01*
X30124772Y-49402003D01*
X30091557Y-49450615D01*
X30033158Y-49739000D01*
X30033158Y-50339000D01*
X30083851Y-50608410D01*
X30124772Y-50672003D01*
X30091557Y-50720615D01*
X30033158Y-51009000D01*
X30033158Y-51609000D01*
X30083851Y-51878410D01*
X30243072Y-52125846D01*
X30486015Y-52291843D01*
X30768550Y-52349057D01*
X30821141Y-52613453D01*
X31044807Y-52948193D01*
X34005985Y-55909371D01*
X27613339Y-55951945D01*
X27660229Y-44335015D01*
X27743807Y-44418593D01*
X28078547Y-44642259D01*
X28144058Y-44655290D01*
X28473400Y-44720801D01*
X28473405Y-44720800D01*
X30033158Y-44720800D01*
X30033158Y-45259000D01*
X30083851Y-45528410D01*
X30124772Y-45592003D01*
X30091557Y-45640615D01*
X30033158Y-45929000D01*
X30033158Y-46529000D01*
X30083851Y-46798410D01*
X30186765Y-46958342D01*
X30139400Y-47072690D01*
X30139400Y-47213250D01*
X30298150Y-47372000D01*
X31647400Y-47372000D01*
X31647400Y-47352000D01*
X31901400Y-47352000D01*
X31901400Y-47372000D01*
X33250650Y-47372000D01*
X33409400Y-47213250D01*
X33409400Y-47072690D01*
X33361618Y-46957335D01*
X33457243Y-46817385D01*
X33515642Y-46529000D01*
X33515642Y-45929000D01*
X33464949Y-45659590D01*
X33424028Y-45595997D01*
X33457243Y-45547385D01*
X33515642Y-45259000D01*
X33515642Y-44659000D01*
X33464949Y-44389590D01*
X33424028Y-44325997D01*
X33457243Y-44277385D01*
X33515642Y-43989000D01*
X33515642Y-43450800D01*
X33994800Y-43450800D01*
X33994800Y-51333400D01*
G36*
X76428331Y-55626845D02*
X59511679Y-55739507D01*
X64927436Y-50323750D01*
X69083400Y-50323750D01*
X69083400Y-51164309D01*
X69180073Y-51397698D01*
X69358701Y-51576327D01*
X69592090Y-51673000D01*
X70732650Y-51673000D01*
X70891400Y-51514250D01*
X70891400Y-50165000D01*
X71145400Y-50165000D01*
X71145400Y-51514250D01*
X71304150Y-51673000D01*
X72444710Y-51673000D01*
X72678099Y-51576327D01*
X72856727Y-51397698D01*
X72953400Y-51164309D01*
X72953400Y-50323750D01*
X72794650Y-50165000D01*
X71145400Y-50165000D01*
X70891400Y-50165000D01*
X69242150Y-50165000D01*
X69083400Y-50323750D01*
X64927436Y-50323750D01*
X65956793Y-49294393D01*
X66003160Y-49225000D01*
X66180459Y-48959653D01*
X66259000Y-48564800D01*
X66259000Y-46726986D01*
X69413175Y-43572811D01*
X69457516Y-43639173D01*
X69530591Y-43688000D01*
X69457516Y-43736827D01*
X69083149Y-44297106D01*
X68951689Y-44958000D01*
X69083149Y-45618894D01*
X69457516Y-46179173D01*
X69530591Y-46228000D01*
X69457516Y-46276827D01*
X69083149Y-46837106D01*
X68951689Y-47498000D01*
X69083149Y-48158894D01*
X69330017Y-48528357D01*
X69180073Y-48678302D01*
X69083400Y-48911691D01*
X69083400Y-49752250D01*
X69242150Y-49911000D01*
X70891400Y-49911000D01*
X70891400Y-49891000D01*
X71145400Y-49891000D01*
X71145400Y-49911000D01*
X72794650Y-49911000D01*
X72953400Y-49752250D01*
X72953400Y-48911691D01*
X72856727Y-48678302D01*
X72706783Y-48528357D01*
X72953651Y-48158894D01*
X73085111Y-47498000D01*
X72953651Y-46837106D01*
X72579284Y-46276827D01*
X72506209Y-46228000D01*
X72579284Y-46179173D01*
X72953651Y-45618894D01*
X73085111Y-44958000D01*
X72953651Y-44297106D01*
X72579284Y-43736827D01*
X72506209Y-43688000D01*
X72579284Y-43639173D01*
X72953651Y-43078894D01*
X73085111Y-42418000D01*
X72953651Y-41757106D01*
X72579284Y-41196827D01*
X72506209Y-41148000D01*
X72579284Y-41099173D01*
X72953651Y-40538894D01*
X73085111Y-39878000D01*
X72953651Y-39217106D01*
X72579284Y-38656827D01*
X72019005Y-38282460D01*
X71358111Y-38151000D01*
X70678689Y-38151000D01*
X70017795Y-38282460D01*
X69457516Y-38656827D01*
X69083149Y-39217106D01*
X68951689Y-39878000D01*
X69083149Y-40538894D01*
X69457516Y-41099173D01*
X69530591Y-41148000D01*
X69457516Y-41196827D01*
X69330981Y-41386200D01*
X69108800Y-41386200D01*
X68713947Y-41464741D01*
X68379207Y-41688407D01*
X64497607Y-45570007D01*
X64273941Y-45904747D01*
X64195400Y-46299600D01*
X64195400Y-48137414D01*
X59947934Y-52384880D01*
X59998343Y-52263482D01*
X59998856Y-51675895D01*
X59774470Y-51132840D01*
X59359346Y-50716991D01*
X58816682Y-50491657D01*
X58503770Y-50491384D01*
X54781793Y-46769407D01*
X54589479Y-46640907D01*
X56711190Y-44519195D01*
X56711193Y-44519193D01*
X56934859Y-44184453D01*
X56954870Y-44083853D01*
X57013401Y-43789600D01*
X57013400Y-43789595D01*
X57013400Y-37785372D01*
X57233009Y-37566146D01*
X57251366Y-37521937D01*
X57268730Y-37563960D01*
X57683854Y-37979809D01*
X58226518Y-38205143D01*
X58814105Y-38205656D01*
X59357160Y-37981270D01*
X59773009Y-37566146D01*
X59998343Y-37023482D01*
X59998856Y-36435895D01*
X59774470Y-35892840D01*
X59549521Y-35667498D01*
X59474859Y-35292147D01*
X59251193Y-34957407D01*
X58082793Y-33789007D01*
X57748053Y-33565341D01*
X57353200Y-33486800D01*
X56362600Y-33486800D01*
X56234905Y-33512200D01*
X28905200Y-33512200D01*
X28510347Y-33590741D01*
X28175607Y-33814407D01*
X27700777Y-34289237D01*
X27707141Y-32712345D01*
X76379282Y-32598251D01*
X76428331Y-55626845D01*
X76428331Y-55626845D01*
G37*
X76428331Y-55626845D02*
X59511679Y-55739507D01*
X64927436Y-50323750D01*
X69083400Y-50323750D01*
X69083400Y-51164309D01*
X69180073Y-51397698D01*
X69358701Y-51576327D01*
X69592090Y-51673000D01*
X70732650Y-51673000D01*
X70891400Y-51514250D01*
X70891400Y-50165000D01*
X71145400Y-50165000D01*
X71145400Y-51514250D01*
X71304150Y-51673000D01*
X72444710Y-51673000D01*
X72678099Y-51576327D01*
X72856727Y-51397698D01*
X72953400Y-51164309D01*
X72953400Y-50323750D01*
X72794650Y-50165000D01*
X71145400Y-50165000D01*
X70891400Y-50165000D01*
X69242150Y-50165000D01*
X69083400Y-50323750D01*
X64927436Y-50323750D01*
X65956793Y-49294393D01*
X66003160Y-49225000D01*
X66180459Y-48959653D01*
X66259000Y-48564800D01*
X66259000Y-46726986D01*
X69413175Y-43572811D01*
X69457516Y-43639173D01*
X69530591Y-43688000D01*
X69457516Y-43736827D01*
X69083149Y-44297106D01*
X68951689Y-44958000D01*
X69083149Y-45618894D01*
X69457516Y-46179173D01*
X69530591Y-46228000D01*
X69457516Y-46276827D01*
X69083149Y-46837106D01*
X68951689Y-47498000D01*
X69083149Y-48158894D01*
X69330017Y-48528357D01*
X69180073Y-48678302D01*
X69083400Y-48911691D01*
X69083400Y-49752250D01*
X69242150Y-49911000D01*
X70891400Y-49911000D01*
X70891400Y-49891000D01*
X71145400Y-49891000D01*
X71145400Y-49911000D01*
X72794650Y-49911000D01*
X72953400Y-49752250D01*
X72953400Y-48911691D01*
X72856727Y-48678302D01*
X72706783Y-48528357D01*
X72953651Y-48158894D01*
X73085111Y-47498000D01*
X72953651Y-46837106D01*
X72579284Y-46276827D01*
X72506209Y-46228000D01*
X72579284Y-46179173D01*
X72953651Y-45618894D01*
X73085111Y-44958000D01*
X72953651Y-44297106D01*
X72579284Y-43736827D01*
X72506209Y-43688000D01*
X72579284Y-43639173D01*
X72953651Y-43078894D01*
X73085111Y-42418000D01*
X72953651Y-41757106D01*
X72579284Y-41196827D01*
X72506209Y-41148000D01*
X72579284Y-41099173D01*
X72953651Y-40538894D01*
X73085111Y-39878000D01*
X72953651Y-39217106D01*
X72579284Y-38656827D01*
X72019005Y-38282460D01*
X71358111Y-38151000D01*
X70678689Y-38151000D01*
X70017795Y-38282460D01*
X69457516Y-38656827D01*
X69083149Y-39217106D01*
X68951689Y-39878000D01*
X69083149Y-40538894D01*
X69457516Y-41099173D01*
X69530591Y-41148000D01*
X69457516Y-41196827D01*
X69330981Y-41386200D01*
X69108800Y-41386200D01*
X68713947Y-41464741D01*
X68379207Y-41688407D01*
X64497607Y-45570007D01*
X64273941Y-45904747D01*
X64195400Y-46299600D01*
X64195400Y-48137414D01*
X59947934Y-52384880D01*
X59998343Y-52263482D01*
X59998856Y-51675895D01*
X59774470Y-51132840D01*
X59359346Y-50716991D01*
X58816682Y-50491657D01*
X58503770Y-50491384D01*
X54781793Y-46769407D01*
X54589479Y-46640907D01*
X56711190Y-44519195D01*
X56711193Y-44519193D01*
X56934859Y-44184453D01*
X56954870Y-44083853D01*
X57013401Y-43789600D01*
X57013400Y-43789595D01*
X57013400Y-37785372D01*
X57233009Y-37566146D01*
X57251366Y-37521937D01*
X57268730Y-37563960D01*
X57683854Y-37979809D01*
X58226518Y-38205143D01*
X58814105Y-38205656D01*
X59357160Y-37981270D01*
X59773009Y-37566146D01*
X59998343Y-37023482D01*
X59998856Y-36435895D01*
X59774470Y-35892840D01*
X59549521Y-35667498D01*
X59474859Y-35292147D01*
X59251193Y-34957407D01*
X58082793Y-33789007D01*
X57748053Y-33565341D01*
X57353200Y-33486800D01*
X56362600Y-33486800D01*
X56234905Y-33512200D01*
X28905200Y-33512200D01*
X28510347Y-33590741D01*
X28175607Y-33814407D01*
X27700777Y-34289237D01*
X27707141Y-32712345D01*
X76379282Y-32598251D01*
X76428331Y-55626845D01*
G36*
X38056207Y-35897207D02*
X37832541Y-36231947D01*
X37754000Y-36626800D01*
X37754000Y-39546014D01*
X36087393Y-37879407D01*
X35752653Y-37655741D01*
X35470593Y-37599636D01*
X35493621Y-37544179D01*
X35493779Y-37363236D01*
X35498600Y-37339000D01*
X35493821Y-37314976D01*
X35493978Y-37135613D01*
X35424880Y-36968382D01*
X35420059Y-36944147D01*
X35406451Y-36923781D01*
X35337956Y-36758011D01*
X35210123Y-36629955D01*
X35196393Y-36609407D01*
X35176024Y-36595797D01*
X35049308Y-36468860D01*
X34882202Y-36399471D01*
X34861653Y-36385741D01*
X34837626Y-36380962D01*
X34671979Y-36312179D01*
X34491036Y-36312021D01*
X34466800Y-36307200D01*
X32821026Y-36307200D01*
X32774400Y-36297758D01*
X30774400Y-36297758D01*
X30504990Y-36348451D01*
X30257554Y-36507672D01*
X30091557Y-36750615D01*
X30033158Y-37039000D01*
X30033158Y-37639000D01*
X30083851Y-37908410D01*
X30124772Y-37972003D01*
X30091557Y-38020615D01*
X30033158Y-38309000D01*
X30033158Y-38909000D01*
X30083851Y-39178410D01*
X30124772Y-39242003D01*
X30091557Y-39290615D01*
X30033158Y-39579000D01*
X30033158Y-40179000D01*
X30083851Y-40448410D01*
X30186765Y-40608342D01*
X30139400Y-40722690D01*
X30139400Y-40863250D01*
X30298150Y-41022000D01*
X31647400Y-41022000D01*
X31647400Y-41002000D01*
X31901400Y-41002000D01*
X31901400Y-41022000D01*
X33250650Y-41022000D01*
X33361850Y-40910800D01*
X33869834Y-40910800D01*
X34346234Y-41387200D01*
X33361850Y-41387200D01*
X33250650Y-41276000D01*
X31901400Y-41276000D01*
X31901400Y-41296000D01*
X31647400Y-41296000D01*
X31647400Y-41276000D01*
X30298150Y-41276000D01*
X30139400Y-41434750D01*
X30139400Y-41575310D01*
X30187182Y-41690665D01*
X30091557Y-41830615D01*
X30033158Y-42119000D01*
X30033158Y-42657200D01*
X28900786Y-42657200D01*
X28743200Y-42499614D01*
X28743200Y-36165186D01*
X29332586Y-35575800D01*
X38377614Y-35575800D01*
X38056207Y-35897207D01*
X38056207Y-35897207D01*
G37*
X38056207Y-35897207D02*
X37832541Y-36231947D01*
X37754000Y-36626800D01*
X37754000Y-39546014D01*
X36087393Y-37879407D01*
X35752653Y-37655741D01*
X35470593Y-37599636D01*
X35493621Y-37544179D01*
X35493779Y-37363236D01*
X35498600Y-37339000D01*
X35493821Y-37314976D01*
X35493978Y-37135613D01*
X35424880Y-36968382D01*
X35420059Y-36944147D01*
X35406451Y-36923781D01*
X35337956Y-36758011D01*
X35210123Y-36629955D01*
X35196393Y-36609407D01*
X35176024Y-36595797D01*
X35049308Y-36468860D01*
X34882202Y-36399471D01*
X34861653Y-36385741D01*
X34837626Y-36380962D01*
X34671979Y-36312179D01*
X34491036Y-36312021D01*
X34466800Y-36307200D01*
X32821026Y-36307200D01*
X32774400Y-36297758D01*
X30774400Y-36297758D01*
X30504990Y-36348451D01*
X30257554Y-36507672D01*
X30091557Y-36750615D01*
X30033158Y-37039000D01*
X30033158Y-37639000D01*
X30083851Y-37908410D01*
X30124772Y-37972003D01*
X30091557Y-38020615D01*
X30033158Y-38309000D01*
X30033158Y-38909000D01*
X30083851Y-39178410D01*
X30124772Y-39242003D01*
X30091557Y-39290615D01*
X30033158Y-39579000D01*
X30033158Y-40179000D01*
X30083851Y-40448410D01*
X30186765Y-40608342D01*
X30139400Y-40722690D01*
X30139400Y-40863250D01*
X30298150Y-41022000D01*
X31647400Y-41022000D01*
X31647400Y-41002000D01*
X31901400Y-41002000D01*
X31901400Y-41022000D01*
X33250650Y-41022000D01*
X33361850Y-40910800D01*
X33869834Y-40910800D01*
X34346234Y-41387200D01*
X33361850Y-41387200D01*
X33250650Y-41276000D01*
X31901400Y-41276000D01*
X31901400Y-41296000D01*
X31647400Y-41296000D01*
X31647400Y-41276000D01*
X30298150Y-41276000D01*
X30139400Y-41434750D01*
X30139400Y-41575310D01*
X30187182Y-41690665D01*
X30091557Y-41830615D01*
X30033158Y-42119000D01*
X30033158Y-42657200D01*
X28900786Y-42657200D01*
X28743200Y-42499614D01*
X28743200Y-36165186D01*
X29332586Y-35575800D01*
X38377614Y-35575800D01*
X38056207Y-35897207D01*
G36*
X83994800Y-51333400D02*
X84073341Y-51728253D01*
X84297007Y-52062993D01*
X85437981Y-53203966D01*
X85454533Y-53287179D01*
X85678199Y-53621919D01*
X87510710Y-55454430D01*
X86469416Y-55454430D01*
X83208536Y-52193550D01*
X83291246Y-52140328D01*
X83457243Y-51897385D01*
X83515642Y-51609000D01*
X83515642Y-51009000D01*
X83464949Y-50739590D01*
X83424028Y-50675997D01*
X83457243Y-50627385D01*
X83515642Y-50339000D01*
X83515642Y-49739000D01*
X83464949Y-49469590D01*
X83424028Y-49405997D01*
X83457243Y-49357385D01*
X83515642Y-49069000D01*
X83515642Y-48469000D01*
X83464949Y-48199590D01*
X83362035Y-48039658D01*
X83409400Y-47925310D01*
X83409400Y-47784750D01*
X83250650Y-47626000D01*
X81901400Y-47626000D01*
X81901400Y-47646000D01*
X81647400Y-47646000D01*
X81647400Y-47626000D01*
X80298150Y-47626000D01*
X80139400Y-47784750D01*
X80139400Y-47925310D01*
X80187182Y-48040665D01*
X80091557Y-48180615D01*
X80033158Y-48469000D01*
X80033158Y-49069000D01*
X80083851Y-49338410D01*
X80124772Y-49402003D01*
X80091557Y-49450615D01*
X80033158Y-49739000D01*
X80033158Y-50339000D01*
X80083851Y-50608410D01*
X80124772Y-50672003D01*
X80091557Y-50720615D01*
X80033158Y-51009000D01*
X80033158Y-51609000D01*
X80083851Y-51878410D01*
X80243072Y-52125846D01*
X80486015Y-52291843D01*
X80768550Y-52349057D01*
X80821141Y-52613453D01*
X81044807Y-52948193D01*
X84005985Y-55909371D01*
X77613339Y-55951945D01*
X77660229Y-44335015D01*
X77743807Y-44418593D01*
X78078547Y-44642259D01*
X78144058Y-44655290D01*
X78473400Y-44720801D01*
X78473405Y-44720800D01*
X80033158Y-44720800D01*
X80033158Y-45259000D01*
X80083851Y-45528410D01*
X80124772Y-45592003D01*
X80091557Y-45640615D01*
X80033158Y-45929000D01*
X80033158Y-46529000D01*
X80083851Y-46798410D01*
X80186765Y-46958342D01*
X80139400Y-47072690D01*
X80139400Y-47213250D01*
X80298150Y-47372000D01*
X81647400Y-47372000D01*
X81647400Y-47352000D01*
X81901400Y-47352000D01*
X81901400Y-47372000D01*
X83250650Y-47372000D01*
X83409400Y-47213250D01*
X83409400Y-47072690D01*
X83361618Y-46957335D01*
X83457243Y-46817385D01*
X83515642Y-46529000D01*
X83515642Y-45929000D01*
X83464949Y-45659590D01*
X83424028Y-45595997D01*
X83457243Y-45547385D01*
X83515642Y-45259000D01*
X83515642Y-44659000D01*
X83464949Y-44389590D01*
X83424028Y-44325997D01*
X83457243Y-44277385D01*
X83515642Y-43989000D01*
X83515642Y-43450800D01*
X83994800Y-43450800D01*
X83994800Y-51333400D01*
X83994800Y-51333400D01*
G37*
X83994800Y-51333400D02*
X84073341Y-51728253D01*
X84297007Y-52062993D01*
X85437981Y-53203966D01*
X85454533Y-53287179D01*
X85678199Y-53621919D01*
X87510710Y-55454430D01*
X86469416Y-55454430D01*
X83208536Y-52193550D01*
X83291246Y-52140328D01*
X83457243Y-51897385D01*
X83515642Y-51609000D01*
X83515642Y-51009000D01*
X83464949Y-50739590D01*
X83424028Y-50675997D01*
X83457243Y-50627385D01*
X83515642Y-50339000D01*
X83515642Y-49739000D01*
X83464949Y-49469590D01*
X83424028Y-49405997D01*
X83457243Y-49357385D01*
X83515642Y-49069000D01*
X83515642Y-48469000D01*
X83464949Y-48199590D01*
X83362035Y-48039658D01*
X83409400Y-47925310D01*
X83409400Y-47784750D01*
X83250650Y-47626000D01*
X81901400Y-47626000D01*
X81901400Y-47646000D01*
X81647400Y-47646000D01*
X81647400Y-47626000D01*
X80298150Y-47626000D01*
X80139400Y-47784750D01*
X80139400Y-47925310D01*
X80187182Y-48040665D01*
X80091557Y-48180615D01*
X80033158Y-48469000D01*
X80033158Y-49069000D01*
X80083851Y-49338410D01*
X80124772Y-49402003D01*
X80091557Y-49450615D01*
X80033158Y-49739000D01*
X80033158Y-50339000D01*
X80083851Y-50608410D01*
X80124772Y-50672003D01*
X80091557Y-50720615D01*
X80033158Y-51009000D01*
X80033158Y-51609000D01*
X80083851Y-51878410D01*
X80243072Y-52125846D01*
X80486015Y-52291843D01*
X80768550Y-52349057D01*
X80821141Y-52613453D01*
X81044807Y-52948193D01*
X84005985Y-55909371D01*
X77613339Y-55951945D01*
X77660229Y-44335015D01*
X77743807Y-44418593D01*
X78078547Y-44642259D01*
X78144058Y-44655290D01*
X78473400Y-44720801D01*
X78473405Y-44720800D01*
X80033158Y-44720800D01*
X80033158Y-45259000D01*
X80083851Y-45528410D01*
X80124772Y-45592003D01*
X80091557Y-45640615D01*
X80033158Y-45929000D01*
X80033158Y-46529000D01*
X80083851Y-46798410D01*
X80186765Y-46958342D01*
X80139400Y-47072690D01*
X80139400Y-47213250D01*
X80298150Y-47372000D01*
X81647400Y-47372000D01*
X81647400Y-47352000D01*
X81901400Y-47352000D01*
X81901400Y-47372000D01*
X83250650Y-47372000D01*
X83409400Y-47213250D01*
X83409400Y-47072690D01*
X83361618Y-46957335D01*
X83457243Y-46817385D01*
X83515642Y-46529000D01*
X83515642Y-45929000D01*
X83464949Y-45659590D01*
X83424028Y-45595997D01*
X83457243Y-45547385D01*
X83515642Y-45259000D01*
X83515642Y-44659000D01*
X83464949Y-44389590D01*
X83424028Y-44325997D01*
X83457243Y-44277385D01*
X83515642Y-43989000D01*
X83515642Y-43450800D01*
X83994800Y-43450800D01*
X83994800Y-51333400D01*
G36*
X126428331Y-55626845D02*
X109511679Y-55739507D01*
X114927436Y-50323750D01*
X119083400Y-50323750D01*
X119083400Y-51164309D01*
X119180073Y-51397698D01*
X119358701Y-51576327D01*
X119592090Y-51673000D01*
X120732650Y-51673000D01*
X120891400Y-51514250D01*
X120891400Y-50165000D01*
X121145400Y-50165000D01*
X121145400Y-51514250D01*
X121304150Y-51673000D01*
X122444710Y-51673000D01*
X122678099Y-51576327D01*
X122856727Y-51397698D01*
X122953400Y-51164309D01*
X122953400Y-50323750D01*
X122794650Y-50165000D01*
X121145400Y-50165000D01*
X120891400Y-50165000D01*
X119242150Y-50165000D01*
X119083400Y-50323750D01*
X114927436Y-50323750D01*
X115956793Y-49294393D01*
X116003160Y-49225000D01*
X116180459Y-48959653D01*
X116259000Y-48564800D01*
X116259000Y-46726986D01*
X119413175Y-43572811D01*
X119457516Y-43639173D01*
X119530591Y-43688000D01*
X119457516Y-43736827D01*
X119083149Y-44297106D01*
X118951689Y-44958000D01*
X119083149Y-45618894D01*
X119457516Y-46179173D01*
X119530591Y-46228000D01*
X119457516Y-46276827D01*
X119083149Y-46837106D01*
X118951689Y-47498000D01*
X119083149Y-48158894D01*
X119330017Y-48528357D01*
X119180073Y-48678302D01*
X119083400Y-48911691D01*
X119083400Y-49752250D01*
X119242150Y-49911000D01*
X120891400Y-49911000D01*
X120891400Y-49891000D01*
X121145400Y-49891000D01*
X121145400Y-49911000D01*
X122794650Y-49911000D01*
X122953400Y-49752250D01*
X122953400Y-48911691D01*
X122856727Y-48678302D01*
X122706783Y-48528357D01*
X122953651Y-48158894D01*
X123085111Y-47498000D01*
X122953651Y-46837106D01*
X122579284Y-46276827D01*
X122506209Y-46228000D01*
X122579284Y-46179173D01*
X122953651Y-45618894D01*
X123085111Y-44958000D01*
X122953651Y-44297106D01*
X122579284Y-43736827D01*
X122506209Y-43688000D01*
X122579284Y-43639173D01*
X122953651Y-43078894D01*
X123085111Y-42418000D01*
X122953651Y-41757106D01*
X122579284Y-41196827D01*
X122506209Y-41148000D01*
X122579284Y-41099173D01*
X122953651Y-40538894D01*
X123085111Y-39878000D01*
X122953651Y-39217106D01*
X122579284Y-38656827D01*
X122019005Y-38282460D01*
X121358111Y-38151000D01*
X120678689Y-38151000D01*
X120017795Y-38282460D01*
X119457516Y-38656827D01*
X119083149Y-39217106D01*
X118951689Y-39878000D01*
X119083149Y-40538894D01*
X119457516Y-41099173D01*
X119530591Y-41148000D01*
X119457516Y-41196827D01*
X119330981Y-41386200D01*
X119108800Y-41386200D01*
X118713947Y-41464741D01*
X118379207Y-41688407D01*
X114497607Y-45570007D01*
X114273941Y-45904747D01*
X114195400Y-46299600D01*
X114195400Y-48137414D01*
X109947934Y-52384880D01*
X109998343Y-52263482D01*
X109998856Y-51675895D01*
X109774470Y-51132840D01*
X109359346Y-50716991D01*
X108816682Y-50491657D01*
X108503770Y-50491384D01*
X104781793Y-46769407D01*
X104589479Y-46640907D01*
X106711190Y-44519195D01*
X106711193Y-44519193D01*
X106934859Y-44184453D01*
X106954870Y-44083853D01*
X107013401Y-43789600D01*
X107013400Y-43789595D01*
X107013400Y-37785372D01*
X107233009Y-37566146D01*
X107251366Y-37521937D01*
X107268730Y-37563960D01*
X107683854Y-37979809D01*
X108226518Y-38205143D01*
X108814105Y-38205656D01*
X109357160Y-37981270D01*
X109773009Y-37566146D01*
X109998343Y-37023482D01*
X109998856Y-36435895D01*
X109774470Y-35892840D01*
X109549521Y-35667498D01*
X109474859Y-35292147D01*
X109251193Y-34957407D01*
X108082793Y-33789007D01*
X107748053Y-33565341D01*
X107353200Y-33486800D01*
X106362600Y-33486800D01*
X106234905Y-33512200D01*
X78905200Y-33512200D01*
X78510347Y-33590741D01*
X78175607Y-33814407D01*
X77700777Y-34289237D01*
X77707141Y-32712345D01*
X126379282Y-32598251D01*
X126428331Y-55626845D01*
X126428331Y-55626845D01*
G37*
X126428331Y-55626845D02*
X109511679Y-55739507D01*
X114927436Y-50323750D01*
X119083400Y-50323750D01*
X119083400Y-51164309D01*
X119180073Y-51397698D01*
X119358701Y-51576327D01*
X119592090Y-51673000D01*
X120732650Y-51673000D01*
X120891400Y-51514250D01*
X120891400Y-50165000D01*
X121145400Y-50165000D01*
X121145400Y-51514250D01*
X121304150Y-51673000D01*
X122444710Y-51673000D01*
X122678099Y-51576327D01*
X122856727Y-51397698D01*
X122953400Y-51164309D01*
X122953400Y-50323750D01*
X122794650Y-50165000D01*
X121145400Y-50165000D01*
X120891400Y-50165000D01*
X119242150Y-50165000D01*
X119083400Y-50323750D01*
X114927436Y-50323750D01*
X115956793Y-49294393D01*
X116003160Y-49225000D01*
X116180459Y-48959653D01*
X116259000Y-48564800D01*
X116259000Y-46726986D01*
X119413175Y-43572811D01*
X119457516Y-43639173D01*
X119530591Y-43688000D01*
X119457516Y-43736827D01*
X119083149Y-44297106D01*
X118951689Y-44958000D01*
X119083149Y-45618894D01*
X119457516Y-46179173D01*
X119530591Y-46228000D01*
X119457516Y-46276827D01*
X119083149Y-46837106D01*
X118951689Y-47498000D01*
X119083149Y-48158894D01*
X119330017Y-48528357D01*
X119180073Y-48678302D01*
X119083400Y-48911691D01*
X119083400Y-49752250D01*
X119242150Y-49911000D01*
X120891400Y-49911000D01*
X120891400Y-49891000D01*
X121145400Y-49891000D01*
X121145400Y-49911000D01*
X122794650Y-49911000D01*
X122953400Y-49752250D01*
X122953400Y-48911691D01*
X122856727Y-48678302D01*
X122706783Y-48528357D01*
X122953651Y-48158894D01*
X123085111Y-47498000D01*
X122953651Y-46837106D01*
X122579284Y-46276827D01*
X122506209Y-46228000D01*
X122579284Y-46179173D01*
X122953651Y-45618894D01*
X123085111Y-44958000D01*
X122953651Y-44297106D01*
X122579284Y-43736827D01*
X122506209Y-43688000D01*
X122579284Y-43639173D01*
X122953651Y-43078894D01*
X123085111Y-42418000D01*
X122953651Y-41757106D01*
X122579284Y-41196827D01*
X122506209Y-41148000D01*
X122579284Y-41099173D01*
X122953651Y-40538894D01*
X123085111Y-39878000D01*
X122953651Y-39217106D01*
X122579284Y-38656827D01*
X122019005Y-38282460D01*
X121358111Y-38151000D01*
X120678689Y-38151000D01*
X120017795Y-38282460D01*
X119457516Y-38656827D01*
X119083149Y-39217106D01*
X118951689Y-39878000D01*
X119083149Y-40538894D01*
X119457516Y-41099173D01*
X119530591Y-41148000D01*
X119457516Y-41196827D01*
X119330981Y-41386200D01*
X119108800Y-41386200D01*
X118713947Y-41464741D01*
X118379207Y-41688407D01*
X114497607Y-45570007D01*
X114273941Y-45904747D01*
X114195400Y-46299600D01*
X114195400Y-48137414D01*
X109947934Y-52384880D01*
X109998343Y-52263482D01*
X109998856Y-51675895D01*
X109774470Y-51132840D01*
X109359346Y-50716991D01*
X108816682Y-50491657D01*
X108503770Y-50491384D01*
X104781793Y-46769407D01*
X104589479Y-46640907D01*
X106711190Y-44519195D01*
X106711193Y-44519193D01*
X106934859Y-44184453D01*
X106954870Y-44083853D01*
X107013401Y-43789600D01*
X107013400Y-43789595D01*
X107013400Y-37785372D01*
X107233009Y-37566146D01*
X107251366Y-37521937D01*
X107268730Y-37563960D01*
X107683854Y-37979809D01*
X108226518Y-38205143D01*
X108814105Y-38205656D01*
X109357160Y-37981270D01*
X109773009Y-37566146D01*
X109998343Y-37023482D01*
X109998856Y-36435895D01*
X109774470Y-35892840D01*
X109549521Y-35667498D01*
X109474859Y-35292147D01*
X109251193Y-34957407D01*
X108082793Y-33789007D01*
X107748053Y-33565341D01*
X107353200Y-33486800D01*
X106362600Y-33486800D01*
X106234905Y-33512200D01*
X78905200Y-33512200D01*
X78510347Y-33590741D01*
X78175607Y-33814407D01*
X77700777Y-34289237D01*
X77707141Y-32712345D01*
X126379282Y-32598251D01*
X126428331Y-55626845D01*
G36*
X88056207Y-35897207D02*
X87832541Y-36231947D01*
X87754000Y-36626800D01*
X87754000Y-39546014D01*
X86087393Y-37879407D01*
X85752653Y-37655741D01*
X85470593Y-37599636D01*
X85493621Y-37544179D01*
X85493779Y-37363236D01*
X85498600Y-37339000D01*
X85493821Y-37314976D01*
X85493978Y-37135613D01*
X85424880Y-36968382D01*
X85420059Y-36944147D01*
X85406451Y-36923781D01*
X85337956Y-36758011D01*
X85210123Y-36629955D01*
X85196393Y-36609407D01*
X85176024Y-36595797D01*
X85049308Y-36468860D01*
X84882202Y-36399471D01*
X84861653Y-36385741D01*
X84837626Y-36380962D01*
X84671979Y-36312179D01*
X84491036Y-36312021D01*
X84466800Y-36307200D01*
X82821026Y-36307200D01*
X82774400Y-36297758D01*
X80774400Y-36297758D01*
X80504990Y-36348451D01*
X80257554Y-36507672D01*
X80091557Y-36750615D01*
X80033158Y-37039000D01*
X80033158Y-37639000D01*
X80083851Y-37908410D01*
X80124772Y-37972003D01*
X80091557Y-38020615D01*
X80033158Y-38309000D01*
X80033158Y-38909000D01*
X80083851Y-39178410D01*
X80124772Y-39242003D01*
X80091557Y-39290615D01*
X80033158Y-39579000D01*
X80033158Y-40179000D01*
X80083851Y-40448410D01*
X80186765Y-40608342D01*
X80139400Y-40722690D01*
X80139400Y-40863250D01*
X80298150Y-41022000D01*
X81647400Y-41022000D01*
X81647400Y-41002000D01*
X81901400Y-41002000D01*
X81901400Y-41022000D01*
X83250650Y-41022000D01*
X83361850Y-40910800D01*
X83869834Y-40910800D01*
X84346234Y-41387200D01*
X83361850Y-41387200D01*
X83250650Y-41276000D01*
X81901400Y-41276000D01*
X81901400Y-41296000D01*
X81647400Y-41296000D01*
X81647400Y-41276000D01*
X80298150Y-41276000D01*
X80139400Y-41434750D01*
X80139400Y-41575310D01*
X80187182Y-41690665D01*
X80091557Y-41830615D01*
X80033158Y-42119000D01*
X80033158Y-42657200D01*
X78900786Y-42657200D01*
X78743200Y-42499614D01*
X78743200Y-36165186D01*
X79332586Y-35575800D01*
X88377614Y-35575800D01*
X88056207Y-35897207D01*
X88056207Y-35897207D01*
G37*
X88056207Y-35897207D02*
X87832541Y-36231947D01*
X87754000Y-36626800D01*
X87754000Y-39546014D01*
X86087393Y-37879407D01*
X85752653Y-37655741D01*
X85470593Y-37599636D01*
X85493621Y-37544179D01*
X85493779Y-37363236D01*
X85498600Y-37339000D01*
X85493821Y-37314976D01*
X85493978Y-37135613D01*
X85424880Y-36968382D01*
X85420059Y-36944147D01*
X85406451Y-36923781D01*
X85337956Y-36758011D01*
X85210123Y-36629955D01*
X85196393Y-36609407D01*
X85176024Y-36595797D01*
X85049308Y-36468860D01*
X84882202Y-36399471D01*
X84861653Y-36385741D01*
X84837626Y-36380962D01*
X84671979Y-36312179D01*
X84491036Y-36312021D01*
X84466800Y-36307200D01*
X82821026Y-36307200D01*
X82774400Y-36297758D01*
X80774400Y-36297758D01*
X80504990Y-36348451D01*
X80257554Y-36507672D01*
X80091557Y-36750615D01*
X80033158Y-37039000D01*
X80033158Y-37639000D01*
X80083851Y-37908410D01*
X80124772Y-37972003D01*
X80091557Y-38020615D01*
X80033158Y-38309000D01*
X80033158Y-38909000D01*
X80083851Y-39178410D01*
X80124772Y-39242003D01*
X80091557Y-39290615D01*
X80033158Y-39579000D01*
X80033158Y-40179000D01*
X80083851Y-40448410D01*
X80186765Y-40608342D01*
X80139400Y-40722690D01*
X80139400Y-40863250D01*
X80298150Y-41022000D01*
X81647400Y-41022000D01*
X81647400Y-41002000D01*
X81901400Y-41002000D01*
X81901400Y-41022000D01*
X83250650Y-41022000D01*
X83361850Y-40910800D01*
X83869834Y-40910800D01*
X84346234Y-41387200D01*
X83361850Y-41387200D01*
X83250650Y-41276000D01*
X81901400Y-41276000D01*
X81901400Y-41296000D01*
X81647400Y-41296000D01*
X81647400Y-41276000D01*
X80298150Y-41276000D01*
X80139400Y-41434750D01*
X80139400Y-41575310D01*
X80187182Y-41690665D01*
X80091557Y-41830615D01*
X80033158Y-42119000D01*
X80033158Y-42657200D01*
X78900786Y-42657200D01*
X78743200Y-42499614D01*
X78743200Y-36165186D01*
X79332586Y-35575800D01*
X88377614Y-35575800D01*
X88056207Y-35897207D01*
G36*
X33994800Y-76333400D02*
X34073341Y-76728253D01*
X34297007Y-77062993D01*
X35437981Y-78203966D01*
X35454533Y-78287179D01*
X35678199Y-78621919D01*
X37510710Y-80454430D01*
X36469416Y-80454430D01*
X33208536Y-77193550D01*
X33291246Y-77140328D01*
X33457243Y-76897385D01*
X33515642Y-76609000D01*
X33515642Y-76009000D01*
X33464949Y-75739590D01*
X33424028Y-75675997D01*
X33457243Y-75627385D01*
X33515642Y-75339000D01*
X33515642Y-74739000D01*
X33464949Y-74469590D01*
X33424028Y-74405997D01*
X33457243Y-74357385D01*
X33515642Y-74069000D01*
X33515642Y-73469000D01*
X33464949Y-73199590D01*
X33362035Y-73039658D01*
X33409400Y-72925310D01*
X33409400Y-72784750D01*
X33250650Y-72626000D01*
X31901400Y-72626000D01*
X31901400Y-72646000D01*
X31647400Y-72646000D01*
X31647400Y-72626000D01*
X30298150Y-72626000D01*
X30139400Y-72784750D01*
X30139400Y-72925310D01*
X30187182Y-73040665D01*
X30091557Y-73180615D01*
X30033158Y-73469000D01*
X30033158Y-74069000D01*
X30083851Y-74338410D01*
X30124772Y-74402003D01*
X30091557Y-74450615D01*
X30033158Y-74739000D01*
X30033158Y-75339000D01*
X30083851Y-75608410D01*
X30124772Y-75672003D01*
X30091557Y-75720615D01*
X30033158Y-76009000D01*
X30033158Y-76609000D01*
X30083851Y-76878410D01*
X30243072Y-77125846D01*
X30486015Y-77291843D01*
X30768550Y-77349057D01*
X30821141Y-77613453D01*
X31044807Y-77948193D01*
X34005985Y-80909371D01*
X27613339Y-80951945D01*
X27660229Y-69335015D01*
X27743807Y-69418593D01*
X28078547Y-69642259D01*
X28144058Y-69655290D01*
X28473400Y-69720801D01*
X28473405Y-69720800D01*
X30033158Y-69720800D01*
X30033158Y-70259000D01*
X30083851Y-70528410D01*
X30124772Y-70592003D01*
X30091557Y-70640615D01*
X30033158Y-70929000D01*
X30033158Y-71529000D01*
X30083851Y-71798410D01*
X30186765Y-71958342D01*
X30139400Y-72072690D01*
X30139400Y-72213250D01*
X30298150Y-72372000D01*
X31647400Y-72372000D01*
X31647400Y-72352000D01*
X31901400Y-72352000D01*
X31901400Y-72372000D01*
X33250650Y-72372000D01*
X33409400Y-72213250D01*
X33409400Y-72072690D01*
X33361618Y-71957335D01*
X33457243Y-71817385D01*
X33515642Y-71529000D01*
X33515642Y-70929000D01*
X33464949Y-70659590D01*
X33424028Y-70595997D01*
X33457243Y-70547385D01*
X33515642Y-70259000D01*
X33515642Y-69659000D01*
X33464949Y-69389590D01*
X33424028Y-69325997D01*
X33457243Y-69277385D01*
X33515642Y-68989000D01*
X33515642Y-68450800D01*
X33994800Y-68450800D01*
X33994800Y-76333400D01*
X33994800Y-76333400D01*
G37*
X33994800Y-76333400D02*
X34073341Y-76728253D01*
X34297007Y-77062993D01*
X35437981Y-78203966D01*
X35454533Y-78287179D01*
X35678199Y-78621919D01*
X37510710Y-80454430D01*
X36469416Y-80454430D01*
X33208536Y-77193550D01*
X33291246Y-77140328D01*
X33457243Y-76897385D01*
X33515642Y-76609000D01*
X33515642Y-76009000D01*
X33464949Y-75739590D01*
X33424028Y-75675997D01*
X33457243Y-75627385D01*
X33515642Y-75339000D01*
X33515642Y-74739000D01*
X33464949Y-74469590D01*
X33424028Y-74405997D01*
X33457243Y-74357385D01*
X33515642Y-74069000D01*
X33515642Y-73469000D01*
X33464949Y-73199590D01*
X33362035Y-73039658D01*
X33409400Y-72925310D01*
X33409400Y-72784750D01*
X33250650Y-72626000D01*
X31901400Y-72626000D01*
X31901400Y-72646000D01*
X31647400Y-72646000D01*
X31647400Y-72626000D01*
X30298150Y-72626000D01*
X30139400Y-72784750D01*
X30139400Y-72925310D01*
X30187182Y-73040665D01*
X30091557Y-73180615D01*
X30033158Y-73469000D01*
X30033158Y-74069000D01*
X30083851Y-74338410D01*
X30124772Y-74402003D01*
X30091557Y-74450615D01*
X30033158Y-74739000D01*
X30033158Y-75339000D01*
X30083851Y-75608410D01*
X30124772Y-75672003D01*
X30091557Y-75720615D01*
X30033158Y-76009000D01*
X30033158Y-76609000D01*
X30083851Y-76878410D01*
X30243072Y-77125846D01*
X30486015Y-77291843D01*
X30768550Y-77349057D01*
X30821141Y-77613453D01*
X31044807Y-77948193D01*
X34005985Y-80909371D01*
X27613339Y-80951945D01*
X27660229Y-69335015D01*
X27743807Y-69418593D01*
X28078547Y-69642259D01*
X28144058Y-69655290D01*
X28473400Y-69720801D01*
X28473405Y-69720800D01*
X30033158Y-69720800D01*
X30033158Y-70259000D01*
X30083851Y-70528410D01*
X30124772Y-70592003D01*
X30091557Y-70640615D01*
X30033158Y-70929000D01*
X30033158Y-71529000D01*
X30083851Y-71798410D01*
X30186765Y-71958342D01*
X30139400Y-72072690D01*
X30139400Y-72213250D01*
X30298150Y-72372000D01*
X31647400Y-72372000D01*
X31647400Y-72352000D01*
X31901400Y-72352000D01*
X31901400Y-72372000D01*
X33250650Y-72372000D01*
X33409400Y-72213250D01*
X33409400Y-72072690D01*
X33361618Y-71957335D01*
X33457243Y-71817385D01*
X33515642Y-71529000D01*
X33515642Y-70929000D01*
X33464949Y-70659590D01*
X33424028Y-70595997D01*
X33457243Y-70547385D01*
X33515642Y-70259000D01*
X33515642Y-69659000D01*
X33464949Y-69389590D01*
X33424028Y-69325997D01*
X33457243Y-69277385D01*
X33515642Y-68989000D01*
X33515642Y-68450800D01*
X33994800Y-68450800D01*
X33994800Y-76333400D01*
G36*
X76428331Y-80626845D02*
X59511679Y-80739507D01*
X64927436Y-75323750D01*
X69083400Y-75323750D01*
X69083400Y-76164309D01*
X69180073Y-76397698D01*
X69358701Y-76576327D01*
X69592090Y-76673000D01*
X70732650Y-76673000D01*
X70891400Y-76514250D01*
X70891400Y-75165000D01*
X71145400Y-75165000D01*
X71145400Y-76514250D01*
X71304150Y-76673000D01*
X72444710Y-76673000D01*
X72678099Y-76576327D01*
X72856727Y-76397698D01*
X72953400Y-76164309D01*
X72953400Y-75323750D01*
X72794650Y-75165000D01*
X71145400Y-75165000D01*
X70891400Y-75165000D01*
X69242150Y-75165000D01*
X69083400Y-75323750D01*
X64927436Y-75323750D01*
X65956793Y-74294393D01*
X66003160Y-74225000D01*
X66180459Y-73959653D01*
X66259000Y-73564800D01*
X66259000Y-71726986D01*
X69413175Y-68572811D01*
X69457516Y-68639173D01*
X69530591Y-68688000D01*
X69457516Y-68736827D01*
X69083149Y-69297106D01*
X68951689Y-69958000D01*
X69083149Y-70618894D01*
X69457516Y-71179173D01*
X69530591Y-71228000D01*
X69457516Y-71276827D01*
X69083149Y-71837106D01*
X68951689Y-72498000D01*
X69083149Y-73158894D01*
X69330017Y-73528357D01*
X69180073Y-73678302D01*
X69083400Y-73911691D01*
X69083400Y-74752250D01*
X69242150Y-74911000D01*
X70891400Y-74911000D01*
X70891400Y-74891000D01*
X71145400Y-74891000D01*
X71145400Y-74911000D01*
X72794650Y-74911000D01*
X72953400Y-74752250D01*
X72953400Y-73911691D01*
X72856727Y-73678302D01*
X72706783Y-73528357D01*
X72953651Y-73158894D01*
X73085111Y-72498000D01*
X72953651Y-71837106D01*
X72579284Y-71276827D01*
X72506209Y-71228000D01*
X72579284Y-71179173D01*
X72953651Y-70618894D01*
X73085111Y-69958000D01*
X72953651Y-69297106D01*
X72579284Y-68736827D01*
X72506209Y-68688000D01*
X72579284Y-68639173D01*
X72953651Y-68078894D01*
X73085111Y-67418000D01*
X72953651Y-66757106D01*
X72579284Y-66196827D01*
X72506209Y-66148000D01*
X72579284Y-66099173D01*
X72953651Y-65538894D01*
X73085111Y-64878000D01*
X72953651Y-64217106D01*
X72579284Y-63656827D01*
X72019005Y-63282460D01*
X71358111Y-63151000D01*
X70678689Y-63151000D01*
X70017795Y-63282460D01*
X69457516Y-63656827D01*
X69083149Y-64217106D01*
X68951689Y-64878000D01*
X69083149Y-65538894D01*
X69457516Y-66099173D01*
X69530591Y-66148000D01*
X69457516Y-66196827D01*
X69330981Y-66386200D01*
X69108800Y-66386200D01*
X68713947Y-66464741D01*
X68379207Y-66688407D01*
X64497607Y-70570007D01*
X64273941Y-70904747D01*
X64195400Y-71299600D01*
X64195400Y-73137414D01*
X59947934Y-77384880D01*
X59998343Y-77263482D01*
X59998856Y-76675895D01*
X59774470Y-76132840D01*
X59359346Y-75716991D01*
X58816682Y-75491657D01*
X58503770Y-75491384D01*
X54781793Y-71769407D01*
X54589479Y-71640907D01*
X56711190Y-69519195D01*
X56711193Y-69519193D01*
X56934859Y-69184453D01*
X56954870Y-69083853D01*
X57013401Y-68789600D01*
X57013400Y-68789595D01*
X57013400Y-62785372D01*
X57233009Y-62566146D01*
X57251366Y-62521937D01*
X57268730Y-62563960D01*
X57683854Y-62979809D01*
X58226518Y-63205143D01*
X58814105Y-63205656D01*
X59357160Y-62981270D01*
X59773009Y-62566146D01*
X59998343Y-62023482D01*
X59998856Y-61435895D01*
X59774470Y-60892840D01*
X59549521Y-60667498D01*
X59474859Y-60292147D01*
X59251193Y-59957407D01*
X58082793Y-58789007D01*
X57748053Y-58565341D01*
X57353200Y-58486800D01*
X56362600Y-58486800D01*
X56234905Y-58512200D01*
X28905200Y-58512200D01*
X28510347Y-58590741D01*
X28175607Y-58814407D01*
X27700777Y-59289237D01*
X27707141Y-57712345D01*
X76379282Y-57598251D01*
X76428331Y-80626845D01*
X76428331Y-80626845D01*
G37*
X76428331Y-80626845D02*
X59511679Y-80739507D01*
X64927436Y-75323750D01*
X69083400Y-75323750D01*
X69083400Y-76164309D01*
X69180073Y-76397698D01*
X69358701Y-76576327D01*
X69592090Y-76673000D01*
X70732650Y-76673000D01*
X70891400Y-76514250D01*
X70891400Y-75165000D01*
X71145400Y-75165000D01*
X71145400Y-76514250D01*
X71304150Y-76673000D01*
X72444710Y-76673000D01*
X72678099Y-76576327D01*
X72856727Y-76397698D01*
X72953400Y-76164309D01*
X72953400Y-75323750D01*
X72794650Y-75165000D01*
X71145400Y-75165000D01*
X70891400Y-75165000D01*
X69242150Y-75165000D01*
X69083400Y-75323750D01*
X64927436Y-75323750D01*
X65956793Y-74294393D01*
X66003160Y-74225000D01*
X66180459Y-73959653D01*
X66259000Y-73564800D01*
X66259000Y-71726986D01*
X69413175Y-68572811D01*
X69457516Y-68639173D01*
X69530591Y-68688000D01*
X69457516Y-68736827D01*
X69083149Y-69297106D01*
X68951689Y-69958000D01*
X69083149Y-70618894D01*
X69457516Y-71179173D01*
X69530591Y-71228000D01*
X69457516Y-71276827D01*
X69083149Y-71837106D01*
X68951689Y-72498000D01*
X69083149Y-73158894D01*
X69330017Y-73528357D01*
X69180073Y-73678302D01*
X69083400Y-73911691D01*
X69083400Y-74752250D01*
X69242150Y-74911000D01*
X70891400Y-74911000D01*
X70891400Y-74891000D01*
X71145400Y-74891000D01*
X71145400Y-74911000D01*
X72794650Y-74911000D01*
X72953400Y-74752250D01*
X72953400Y-73911691D01*
X72856727Y-73678302D01*
X72706783Y-73528357D01*
X72953651Y-73158894D01*
X73085111Y-72498000D01*
X72953651Y-71837106D01*
X72579284Y-71276827D01*
X72506209Y-71228000D01*
X72579284Y-71179173D01*
X72953651Y-70618894D01*
X73085111Y-69958000D01*
X72953651Y-69297106D01*
X72579284Y-68736827D01*
X72506209Y-68688000D01*
X72579284Y-68639173D01*
X72953651Y-68078894D01*
X73085111Y-67418000D01*
X72953651Y-66757106D01*
X72579284Y-66196827D01*
X72506209Y-66148000D01*
X72579284Y-66099173D01*
X72953651Y-65538894D01*
X73085111Y-64878000D01*
X72953651Y-64217106D01*
X72579284Y-63656827D01*
X72019005Y-63282460D01*
X71358111Y-63151000D01*
X70678689Y-63151000D01*
X70017795Y-63282460D01*
X69457516Y-63656827D01*
X69083149Y-64217106D01*
X68951689Y-64878000D01*
X69083149Y-65538894D01*
X69457516Y-66099173D01*
X69530591Y-66148000D01*
X69457516Y-66196827D01*
X69330981Y-66386200D01*
X69108800Y-66386200D01*
X68713947Y-66464741D01*
X68379207Y-66688407D01*
X64497607Y-70570007D01*
X64273941Y-70904747D01*
X64195400Y-71299600D01*
X64195400Y-73137414D01*
X59947934Y-77384880D01*
X59998343Y-77263482D01*
X59998856Y-76675895D01*
X59774470Y-76132840D01*
X59359346Y-75716991D01*
X58816682Y-75491657D01*
X58503770Y-75491384D01*
X54781793Y-71769407D01*
X54589479Y-71640907D01*
X56711190Y-69519195D01*
X56711193Y-69519193D01*
X56934859Y-69184453D01*
X56954870Y-69083853D01*
X57013401Y-68789600D01*
X57013400Y-68789595D01*
X57013400Y-62785372D01*
X57233009Y-62566146D01*
X57251366Y-62521937D01*
X57268730Y-62563960D01*
X57683854Y-62979809D01*
X58226518Y-63205143D01*
X58814105Y-63205656D01*
X59357160Y-62981270D01*
X59773009Y-62566146D01*
X59998343Y-62023482D01*
X59998856Y-61435895D01*
X59774470Y-60892840D01*
X59549521Y-60667498D01*
X59474859Y-60292147D01*
X59251193Y-59957407D01*
X58082793Y-58789007D01*
X57748053Y-58565341D01*
X57353200Y-58486800D01*
X56362600Y-58486800D01*
X56234905Y-58512200D01*
X28905200Y-58512200D01*
X28510347Y-58590741D01*
X28175607Y-58814407D01*
X27700777Y-59289237D01*
X27707141Y-57712345D01*
X76379282Y-57598251D01*
X76428331Y-80626845D01*
G36*
X38056207Y-60897207D02*
X37832541Y-61231947D01*
X37754000Y-61626800D01*
X37754000Y-64546014D01*
X36087393Y-62879407D01*
X35752653Y-62655741D01*
X35470593Y-62599636D01*
X35493621Y-62544179D01*
X35493779Y-62363236D01*
X35498600Y-62339000D01*
X35493821Y-62314976D01*
X35493978Y-62135613D01*
X35424880Y-61968382D01*
X35420059Y-61944147D01*
X35406451Y-61923781D01*
X35337956Y-61758011D01*
X35210123Y-61629955D01*
X35196393Y-61609407D01*
X35176024Y-61595797D01*
X35049308Y-61468860D01*
X34882202Y-61399471D01*
X34861653Y-61385741D01*
X34837626Y-61380962D01*
X34671979Y-61312179D01*
X34491036Y-61312021D01*
X34466800Y-61307200D01*
X32821026Y-61307200D01*
X32774400Y-61297758D01*
X30774400Y-61297758D01*
X30504990Y-61348451D01*
X30257554Y-61507672D01*
X30091557Y-61750615D01*
X30033158Y-62039000D01*
X30033158Y-62639000D01*
X30083851Y-62908410D01*
X30124772Y-62972003D01*
X30091557Y-63020615D01*
X30033158Y-63309000D01*
X30033158Y-63909000D01*
X30083851Y-64178410D01*
X30124772Y-64242003D01*
X30091557Y-64290615D01*
X30033158Y-64579000D01*
X30033158Y-65179000D01*
X30083851Y-65448410D01*
X30186765Y-65608342D01*
X30139400Y-65722690D01*
X30139400Y-65863250D01*
X30298150Y-66022000D01*
X31647400Y-66022000D01*
X31647400Y-66002000D01*
X31901400Y-66002000D01*
X31901400Y-66022000D01*
X33250650Y-66022000D01*
X33361850Y-65910800D01*
X33869834Y-65910800D01*
X34346234Y-66387200D01*
X33361850Y-66387200D01*
X33250650Y-66276000D01*
X31901400Y-66276000D01*
X31901400Y-66296000D01*
X31647400Y-66296000D01*
X31647400Y-66276000D01*
X30298150Y-66276000D01*
X30139400Y-66434750D01*
X30139400Y-66575310D01*
X30187182Y-66690665D01*
X30091557Y-66830615D01*
X30033158Y-67119000D01*
X30033158Y-67657200D01*
X28900786Y-67657200D01*
X28743200Y-67499614D01*
X28743200Y-61165186D01*
X29332586Y-60575800D01*
X38377614Y-60575800D01*
X38056207Y-60897207D01*
X38056207Y-60897207D01*
G37*
X38056207Y-60897207D02*
X37832541Y-61231947D01*
X37754000Y-61626800D01*
X37754000Y-64546014D01*
X36087393Y-62879407D01*
X35752653Y-62655741D01*
X35470593Y-62599636D01*
X35493621Y-62544179D01*
X35493779Y-62363236D01*
X35498600Y-62339000D01*
X35493821Y-62314976D01*
X35493978Y-62135613D01*
X35424880Y-61968382D01*
X35420059Y-61944147D01*
X35406451Y-61923781D01*
X35337956Y-61758011D01*
X35210123Y-61629955D01*
X35196393Y-61609407D01*
X35176024Y-61595797D01*
X35049308Y-61468860D01*
X34882202Y-61399471D01*
X34861653Y-61385741D01*
X34837626Y-61380962D01*
X34671979Y-61312179D01*
X34491036Y-61312021D01*
X34466800Y-61307200D01*
X32821026Y-61307200D01*
X32774400Y-61297758D01*
X30774400Y-61297758D01*
X30504990Y-61348451D01*
X30257554Y-61507672D01*
X30091557Y-61750615D01*
X30033158Y-62039000D01*
X30033158Y-62639000D01*
X30083851Y-62908410D01*
X30124772Y-62972003D01*
X30091557Y-63020615D01*
X30033158Y-63309000D01*
X30033158Y-63909000D01*
X30083851Y-64178410D01*
X30124772Y-64242003D01*
X30091557Y-64290615D01*
X30033158Y-64579000D01*
X30033158Y-65179000D01*
X30083851Y-65448410D01*
X30186765Y-65608342D01*
X30139400Y-65722690D01*
X30139400Y-65863250D01*
X30298150Y-66022000D01*
X31647400Y-66022000D01*
X31647400Y-66002000D01*
X31901400Y-66002000D01*
X31901400Y-66022000D01*
X33250650Y-66022000D01*
X33361850Y-65910800D01*
X33869834Y-65910800D01*
X34346234Y-66387200D01*
X33361850Y-66387200D01*
X33250650Y-66276000D01*
X31901400Y-66276000D01*
X31901400Y-66296000D01*
X31647400Y-66296000D01*
X31647400Y-66276000D01*
X30298150Y-66276000D01*
X30139400Y-66434750D01*
X30139400Y-66575310D01*
X30187182Y-66690665D01*
X30091557Y-66830615D01*
X30033158Y-67119000D01*
X30033158Y-67657200D01*
X28900786Y-67657200D01*
X28743200Y-67499614D01*
X28743200Y-61165186D01*
X29332586Y-60575800D01*
X38377614Y-60575800D01*
X38056207Y-60897207D01*
G36*
X83994800Y-76333400D02*
X84073341Y-76728253D01*
X84297007Y-77062993D01*
X85437981Y-78203966D01*
X85454533Y-78287179D01*
X85678199Y-78621919D01*
X87510710Y-80454430D01*
X86469416Y-80454430D01*
X83208536Y-77193550D01*
X83291246Y-77140328D01*
X83457243Y-76897385D01*
X83515642Y-76609000D01*
X83515642Y-76009000D01*
X83464949Y-75739590D01*
X83424028Y-75675997D01*
X83457243Y-75627385D01*
X83515642Y-75339000D01*
X83515642Y-74739000D01*
X83464949Y-74469590D01*
X83424028Y-74405997D01*
X83457243Y-74357385D01*
X83515642Y-74069000D01*
X83515642Y-73469000D01*
X83464949Y-73199590D01*
X83362035Y-73039658D01*
X83409400Y-72925310D01*
X83409400Y-72784750D01*
X83250650Y-72626000D01*
X81901400Y-72626000D01*
X81901400Y-72646000D01*
X81647400Y-72646000D01*
X81647400Y-72626000D01*
X80298150Y-72626000D01*
X80139400Y-72784750D01*
X80139400Y-72925310D01*
X80187182Y-73040665D01*
X80091557Y-73180615D01*
X80033158Y-73469000D01*
X80033158Y-74069000D01*
X80083851Y-74338410D01*
X80124772Y-74402003D01*
X80091557Y-74450615D01*
X80033158Y-74739000D01*
X80033158Y-75339000D01*
X80083851Y-75608410D01*
X80124772Y-75672003D01*
X80091557Y-75720615D01*
X80033158Y-76009000D01*
X80033158Y-76609000D01*
X80083851Y-76878410D01*
X80243072Y-77125846D01*
X80486015Y-77291843D01*
X80768550Y-77349057D01*
X80821141Y-77613453D01*
X81044807Y-77948193D01*
X84005985Y-80909371D01*
X77613339Y-80951945D01*
X77660229Y-69335015D01*
X77743807Y-69418593D01*
X78078547Y-69642259D01*
X78144058Y-69655290D01*
X78473400Y-69720801D01*
X78473405Y-69720800D01*
X80033158Y-69720800D01*
X80033158Y-70259000D01*
X80083851Y-70528410D01*
X80124772Y-70592003D01*
X80091557Y-70640615D01*
X80033158Y-70929000D01*
X80033158Y-71529000D01*
X80083851Y-71798410D01*
X80186765Y-71958342D01*
X80139400Y-72072690D01*
X80139400Y-72213250D01*
X80298150Y-72372000D01*
X81647400Y-72372000D01*
X81647400Y-72352000D01*
X81901400Y-72352000D01*
X81901400Y-72372000D01*
X83250650Y-72372000D01*
X83409400Y-72213250D01*
X83409400Y-72072690D01*
X83361618Y-71957335D01*
X83457243Y-71817385D01*
X83515642Y-71529000D01*
X83515642Y-70929000D01*
X83464949Y-70659590D01*
X83424028Y-70595997D01*
X83457243Y-70547385D01*
X83515642Y-70259000D01*
X83515642Y-69659000D01*
X83464949Y-69389590D01*
X83424028Y-69325997D01*
X83457243Y-69277385D01*
X83515642Y-68989000D01*
X83515642Y-68450800D01*
X83994800Y-68450800D01*
X83994800Y-76333400D01*
X83994800Y-76333400D01*
G37*
X83994800Y-76333400D02*
X84073341Y-76728253D01*
X84297007Y-77062993D01*
X85437981Y-78203966D01*
X85454533Y-78287179D01*
X85678199Y-78621919D01*
X87510710Y-80454430D01*
X86469416Y-80454430D01*
X83208536Y-77193550D01*
X83291246Y-77140328D01*
X83457243Y-76897385D01*
X83515642Y-76609000D01*
X83515642Y-76009000D01*
X83464949Y-75739590D01*
X83424028Y-75675997D01*
X83457243Y-75627385D01*
X83515642Y-75339000D01*
X83515642Y-74739000D01*
X83464949Y-74469590D01*
X83424028Y-74405997D01*
X83457243Y-74357385D01*
X83515642Y-74069000D01*
X83515642Y-73469000D01*
X83464949Y-73199590D01*
X83362035Y-73039658D01*
X83409400Y-72925310D01*
X83409400Y-72784750D01*
X83250650Y-72626000D01*
X81901400Y-72626000D01*
X81901400Y-72646000D01*
X81647400Y-72646000D01*
X81647400Y-72626000D01*
X80298150Y-72626000D01*
X80139400Y-72784750D01*
X80139400Y-72925310D01*
X80187182Y-73040665D01*
X80091557Y-73180615D01*
X80033158Y-73469000D01*
X80033158Y-74069000D01*
X80083851Y-74338410D01*
X80124772Y-74402003D01*
X80091557Y-74450615D01*
X80033158Y-74739000D01*
X80033158Y-75339000D01*
X80083851Y-75608410D01*
X80124772Y-75672003D01*
X80091557Y-75720615D01*
X80033158Y-76009000D01*
X80033158Y-76609000D01*
X80083851Y-76878410D01*
X80243072Y-77125846D01*
X80486015Y-77291843D01*
X80768550Y-77349057D01*
X80821141Y-77613453D01*
X81044807Y-77948193D01*
X84005985Y-80909371D01*
X77613339Y-80951945D01*
X77660229Y-69335015D01*
X77743807Y-69418593D01*
X78078547Y-69642259D01*
X78144058Y-69655290D01*
X78473400Y-69720801D01*
X78473405Y-69720800D01*
X80033158Y-69720800D01*
X80033158Y-70259000D01*
X80083851Y-70528410D01*
X80124772Y-70592003D01*
X80091557Y-70640615D01*
X80033158Y-70929000D01*
X80033158Y-71529000D01*
X80083851Y-71798410D01*
X80186765Y-71958342D01*
X80139400Y-72072690D01*
X80139400Y-72213250D01*
X80298150Y-72372000D01*
X81647400Y-72372000D01*
X81647400Y-72352000D01*
X81901400Y-72352000D01*
X81901400Y-72372000D01*
X83250650Y-72372000D01*
X83409400Y-72213250D01*
X83409400Y-72072690D01*
X83361618Y-71957335D01*
X83457243Y-71817385D01*
X83515642Y-71529000D01*
X83515642Y-70929000D01*
X83464949Y-70659590D01*
X83424028Y-70595997D01*
X83457243Y-70547385D01*
X83515642Y-70259000D01*
X83515642Y-69659000D01*
X83464949Y-69389590D01*
X83424028Y-69325997D01*
X83457243Y-69277385D01*
X83515642Y-68989000D01*
X83515642Y-68450800D01*
X83994800Y-68450800D01*
X83994800Y-76333400D01*
G36*
X126428331Y-80626845D02*
X109511679Y-80739507D01*
X114927436Y-75323750D01*
X119083400Y-75323750D01*
X119083400Y-76164309D01*
X119180073Y-76397698D01*
X119358701Y-76576327D01*
X119592090Y-76673000D01*
X120732650Y-76673000D01*
X120891400Y-76514250D01*
X120891400Y-75165000D01*
X121145400Y-75165000D01*
X121145400Y-76514250D01*
X121304150Y-76673000D01*
X122444710Y-76673000D01*
X122678099Y-76576327D01*
X122856727Y-76397698D01*
X122953400Y-76164309D01*
X122953400Y-75323750D01*
X122794650Y-75165000D01*
X121145400Y-75165000D01*
X120891400Y-75165000D01*
X119242150Y-75165000D01*
X119083400Y-75323750D01*
X114927436Y-75323750D01*
X115956793Y-74294393D01*
X116003160Y-74225000D01*
X116180459Y-73959653D01*
X116259000Y-73564800D01*
X116259000Y-71726986D01*
X119413175Y-68572811D01*
X119457516Y-68639173D01*
X119530591Y-68688000D01*
X119457516Y-68736827D01*
X119083149Y-69297106D01*
X118951689Y-69958000D01*
X119083149Y-70618894D01*
X119457516Y-71179173D01*
X119530591Y-71228000D01*
X119457516Y-71276827D01*
X119083149Y-71837106D01*
X118951689Y-72498000D01*
X119083149Y-73158894D01*
X119330017Y-73528357D01*
X119180073Y-73678302D01*
X119083400Y-73911691D01*
X119083400Y-74752250D01*
X119242150Y-74911000D01*
X120891400Y-74911000D01*
X120891400Y-74891000D01*
X121145400Y-74891000D01*
X121145400Y-74911000D01*
X122794650Y-74911000D01*
X122953400Y-74752250D01*
X122953400Y-73911691D01*
X122856727Y-73678302D01*
X122706783Y-73528357D01*
X122953651Y-73158894D01*
X123085111Y-72498000D01*
X122953651Y-71837106D01*
X122579284Y-71276827D01*
X122506209Y-71228000D01*
X122579284Y-71179173D01*
X122953651Y-70618894D01*
X123085111Y-69958000D01*
X122953651Y-69297106D01*
X122579284Y-68736827D01*
X122506209Y-68688000D01*
X122579284Y-68639173D01*
X122953651Y-68078894D01*
X123085111Y-67418000D01*
X122953651Y-66757106D01*
X122579284Y-66196827D01*
X122506209Y-66148000D01*
X122579284Y-66099173D01*
X122953651Y-65538894D01*
X123085111Y-64878000D01*
X122953651Y-64217106D01*
X122579284Y-63656827D01*
X122019005Y-63282460D01*
X121358111Y-63151000D01*
X120678689Y-63151000D01*
X120017795Y-63282460D01*
X119457516Y-63656827D01*
X119083149Y-64217106D01*
X118951689Y-64878000D01*
X119083149Y-65538894D01*
X119457516Y-66099173D01*
X119530591Y-66148000D01*
X119457516Y-66196827D01*
X119330981Y-66386200D01*
X119108800Y-66386200D01*
X118713947Y-66464741D01*
X118379207Y-66688407D01*
X114497607Y-70570007D01*
X114273941Y-70904747D01*
X114195400Y-71299600D01*
X114195400Y-73137414D01*
X109947934Y-77384880D01*
X109998343Y-77263482D01*
X109998856Y-76675895D01*
X109774470Y-76132840D01*
X109359346Y-75716991D01*
X108816682Y-75491657D01*
X108503770Y-75491384D01*
X104781793Y-71769407D01*
X104589479Y-71640907D01*
X106711190Y-69519195D01*
X106711193Y-69519193D01*
X106934859Y-69184453D01*
X106954870Y-69083853D01*
X107013401Y-68789600D01*
X107013400Y-68789595D01*
X107013400Y-62785372D01*
X107233009Y-62566146D01*
X107251366Y-62521937D01*
X107268730Y-62563960D01*
X107683854Y-62979809D01*
X108226518Y-63205143D01*
X108814105Y-63205656D01*
X109357160Y-62981270D01*
X109773009Y-62566146D01*
X109998343Y-62023482D01*
X109998856Y-61435895D01*
X109774470Y-60892840D01*
X109549521Y-60667498D01*
X109474859Y-60292147D01*
X109251193Y-59957407D01*
X108082793Y-58789007D01*
X107748053Y-58565341D01*
X107353200Y-58486800D01*
X106362600Y-58486800D01*
X106234905Y-58512200D01*
X78905200Y-58512200D01*
X78510347Y-58590741D01*
X78175607Y-58814407D01*
X77700777Y-59289237D01*
X77707141Y-57712345D01*
X126379282Y-57598251D01*
X126428331Y-80626845D01*
X126428331Y-80626845D01*
G37*
X126428331Y-80626845D02*
X109511679Y-80739507D01*
X114927436Y-75323750D01*
X119083400Y-75323750D01*
X119083400Y-76164309D01*
X119180073Y-76397698D01*
X119358701Y-76576327D01*
X119592090Y-76673000D01*
X120732650Y-76673000D01*
X120891400Y-76514250D01*
X120891400Y-75165000D01*
X121145400Y-75165000D01*
X121145400Y-76514250D01*
X121304150Y-76673000D01*
X122444710Y-76673000D01*
X122678099Y-76576327D01*
X122856727Y-76397698D01*
X122953400Y-76164309D01*
X122953400Y-75323750D01*
X122794650Y-75165000D01*
X121145400Y-75165000D01*
X120891400Y-75165000D01*
X119242150Y-75165000D01*
X119083400Y-75323750D01*
X114927436Y-75323750D01*
X115956793Y-74294393D01*
X116003160Y-74225000D01*
X116180459Y-73959653D01*
X116259000Y-73564800D01*
X116259000Y-71726986D01*
X119413175Y-68572811D01*
X119457516Y-68639173D01*
X119530591Y-68688000D01*
X119457516Y-68736827D01*
X119083149Y-69297106D01*
X118951689Y-69958000D01*
X119083149Y-70618894D01*
X119457516Y-71179173D01*
X119530591Y-71228000D01*
X119457516Y-71276827D01*
X119083149Y-71837106D01*
X118951689Y-72498000D01*
X119083149Y-73158894D01*
X119330017Y-73528357D01*
X119180073Y-73678302D01*
X119083400Y-73911691D01*
X119083400Y-74752250D01*
X119242150Y-74911000D01*
X120891400Y-74911000D01*
X120891400Y-74891000D01*
X121145400Y-74891000D01*
X121145400Y-74911000D01*
X122794650Y-74911000D01*
X122953400Y-74752250D01*
X122953400Y-73911691D01*
X122856727Y-73678302D01*
X122706783Y-73528357D01*
X122953651Y-73158894D01*
X123085111Y-72498000D01*
X122953651Y-71837106D01*
X122579284Y-71276827D01*
X122506209Y-71228000D01*
X122579284Y-71179173D01*
X122953651Y-70618894D01*
X123085111Y-69958000D01*
X122953651Y-69297106D01*
X122579284Y-68736827D01*
X122506209Y-68688000D01*
X122579284Y-68639173D01*
X122953651Y-68078894D01*
X123085111Y-67418000D01*
X122953651Y-66757106D01*
X122579284Y-66196827D01*
X122506209Y-66148000D01*
X122579284Y-66099173D01*
X122953651Y-65538894D01*
X123085111Y-64878000D01*
X122953651Y-64217106D01*
X122579284Y-63656827D01*
X122019005Y-63282460D01*
X121358111Y-63151000D01*
X120678689Y-63151000D01*
X120017795Y-63282460D01*
X119457516Y-63656827D01*
X119083149Y-64217106D01*
X118951689Y-64878000D01*
X119083149Y-65538894D01*
X119457516Y-66099173D01*
X119530591Y-66148000D01*
X119457516Y-66196827D01*
X119330981Y-66386200D01*
X119108800Y-66386200D01*
X118713947Y-66464741D01*
X118379207Y-66688407D01*
X114497607Y-70570007D01*
X114273941Y-70904747D01*
X114195400Y-71299600D01*
X114195400Y-73137414D01*
X109947934Y-77384880D01*
X109998343Y-77263482D01*
X109998856Y-76675895D01*
X109774470Y-76132840D01*
X109359346Y-75716991D01*
X108816682Y-75491657D01*
X108503770Y-75491384D01*
X104781793Y-71769407D01*
X104589479Y-71640907D01*
X106711190Y-69519195D01*
X106711193Y-69519193D01*
X106934859Y-69184453D01*
X106954870Y-69083853D01*
X107013401Y-68789600D01*
X107013400Y-68789595D01*
X107013400Y-62785372D01*
X107233009Y-62566146D01*
X107251366Y-62521937D01*
X107268730Y-62563960D01*
X107683854Y-62979809D01*
X108226518Y-63205143D01*
X108814105Y-63205656D01*
X109357160Y-62981270D01*
X109773009Y-62566146D01*
X109998343Y-62023482D01*
X109998856Y-61435895D01*
X109774470Y-60892840D01*
X109549521Y-60667498D01*
X109474859Y-60292147D01*
X109251193Y-59957407D01*
X108082793Y-58789007D01*
X107748053Y-58565341D01*
X107353200Y-58486800D01*
X106362600Y-58486800D01*
X106234905Y-58512200D01*
X78905200Y-58512200D01*
X78510347Y-58590741D01*
X78175607Y-58814407D01*
X77700777Y-59289237D01*
X77707141Y-57712345D01*
X126379282Y-57598251D01*
X126428331Y-80626845D01*
G36*
X88056207Y-60897207D02*
X87832541Y-61231947D01*
X87754000Y-61626800D01*
X87754000Y-64546014D01*
X86087393Y-62879407D01*
X85752653Y-62655741D01*
X85470593Y-62599636D01*
X85493621Y-62544179D01*
X85493779Y-62363236D01*
X85498600Y-62339000D01*
X85493821Y-62314976D01*
X85493978Y-62135613D01*
X85424880Y-61968382D01*
X85420059Y-61944147D01*
X85406451Y-61923781D01*
X85337956Y-61758011D01*
X85210123Y-61629955D01*
X85196393Y-61609407D01*
X85176024Y-61595797D01*
X85049308Y-61468860D01*
X84882202Y-61399471D01*
X84861653Y-61385741D01*
X84837626Y-61380962D01*
X84671979Y-61312179D01*
X84491036Y-61312021D01*
X84466800Y-61307200D01*
X82821026Y-61307200D01*
X82774400Y-61297758D01*
X80774400Y-61297758D01*
X80504990Y-61348451D01*
X80257554Y-61507672D01*
X80091557Y-61750615D01*
X80033158Y-62039000D01*
X80033158Y-62639000D01*
X80083851Y-62908410D01*
X80124772Y-62972003D01*
X80091557Y-63020615D01*
X80033158Y-63309000D01*
X80033158Y-63909000D01*
X80083851Y-64178410D01*
X80124772Y-64242003D01*
X80091557Y-64290615D01*
X80033158Y-64579000D01*
X80033158Y-65179000D01*
X80083851Y-65448410D01*
X80186765Y-65608342D01*
X80139400Y-65722690D01*
X80139400Y-65863250D01*
X80298150Y-66022000D01*
X81647400Y-66022000D01*
X81647400Y-66002000D01*
X81901400Y-66002000D01*
X81901400Y-66022000D01*
X83250650Y-66022000D01*
X83361850Y-65910800D01*
X83869834Y-65910800D01*
X84346234Y-66387200D01*
X83361850Y-66387200D01*
X83250650Y-66276000D01*
X81901400Y-66276000D01*
X81901400Y-66296000D01*
X81647400Y-66296000D01*
X81647400Y-66276000D01*
X80298150Y-66276000D01*
X80139400Y-66434750D01*
X80139400Y-66575310D01*
X80187182Y-66690665D01*
X80091557Y-66830615D01*
X80033158Y-67119000D01*
X80033158Y-67657200D01*
X78900786Y-67657200D01*
X78743200Y-67499614D01*
X78743200Y-61165186D01*
X79332586Y-60575800D01*
X88377614Y-60575800D01*
X88056207Y-60897207D01*
X88056207Y-60897207D01*
G37*
X88056207Y-60897207D02*
X87832541Y-61231947D01*
X87754000Y-61626800D01*
X87754000Y-64546014D01*
X86087393Y-62879407D01*
X85752653Y-62655741D01*
X85470593Y-62599636D01*
X85493621Y-62544179D01*
X85493779Y-62363236D01*
X85498600Y-62339000D01*
X85493821Y-62314976D01*
X85493978Y-62135613D01*
X85424880Y-61968382D01*
X85420059Y-61944147D01*
X85406451Y-61923781D01*
X85337956Y-61758011D01*
X85210123Y-61629955D01*
X85196393Y-61609407D01*
X85176024Y-61595797D01*
X85049308Y-61468860D01*
X84882202Y-61399471D01*
X84861653Y-61385741D01*
X84837626Y-61380962D01*
X84671979Y-61312179D01*
X84491036Y-61312021D01*
X84466800Y-61307200D01*
X82821026Y-61307200D01*
X82774400Y-61297758D01*
X80774400Y-61297758D01*
X80504990Y-61348451D01*
X80257554Y-61507672D01*
X80091557Y-61750615D01*
X80033158Y-62039000D01*
X80033158Y-62639000D01*
X80083851Y-62908410D01*
X80124772Y-62972003D01*
X80091557Y-63020615D01*
X80033158Y-63309000D01*
X80033158Y-63909000D01*
X80083851Y-64178410D01*
X80124772Y-64242003D01*
X80091557Y-64290615D01*
X80033158Y-64579000D01*
X80033158Y-65179000D01*
X80083851Y-65448410D01*
X80186765Y-65608342D01*
X80139400Y-65722690D01*
X80139400Y-65863250D01*
X80298150Y-66022000D01*
X81647400Y-66022000D01*
X81647400Y-66002000D01*
X81901400Y-66002000D01*
X81901400Y-66022000D01*
X83250650Y-66022000D01*
X83361850Y-65910800D01*
X83869834Y-65910800D01*
X84346234Y-66387200D01*
X83361850Y-66387200D01*
X83250650Y-66276000D01*
X81901400Y-66276000D01*
X81901400Y-66296000D01*
X81647400Y-66296000D01*
X81647400Y-66276000D01*
X80298150Y-66276000D01*
X80139400Y-66434750D01*
X80139400Y-66575310D01*
X80187182Y-66690665D01*
X80091557Y-66830615D01*
X80033158Y-67119000D01*
X80033158Y-67657200D01*
X78900786Y-67657200D01*
X78743200Y-67499614D01*
X78743200Y-61165186D01*
X79332586Y-60575800D01*
X88377614Y-60575800D01*
X88056207Y-60897207D01*
G36*
X33994800Y-101333400D02*
X34073341Y-101728253D01*
X34297007Y-102062993D01*
X35437981Y-103203966D01*
X35454533Y-103287179D01*
X35678199Y-103621919D01*
X37510710Y-105454430D01*
X36469416Y-105454430D01*
X33208536Y-102193550D01*
X33291246Y-102140328D01*
X33457243Y-101897385D01*
X33515642Y-101609000D01*
X33515642Y-101009000D01*
X33464949Y-100739590D01*
X33424028Y-100675997D01*
X33457243Y-100627385D01*
X33515642Y-100339000D01*
X33515642Y-99739000D01*
X33464949Y-99469590D01*
X33424028Y-99405997D01*
X33457243Y-99357385D01*
X33515642Y-99069000D01*
X33515642Y-98469000D01*
X33464949Y-98199590D01*
X33362035Y-98039658D01*
X33409400Y-97925310D01*
X33409400Y-97784750D01*
X33250650Y-97626000D01*
X31901400Y-97626000D01*
X31901400Y-97646000D01*
X31647400Y-97646000D01*
X31647400Y-97626000D01*
X30298150Y-97626000D01*
X30139400Y-97784750D01*
X30139400Y-97925310D01*
X30187182Y-98040665D01*
X30091557Y-98180615D01*
X30033158Y-98469000D01*
X30033158Y-99069000D01*
X30083851Y-99338410D01*
X30124772Y-99402003D01*
X30091557Y-99450615D01*
X30033158Y-99739000D01*
X30033158Y-100339000D01*
X30083851Y-100608410D01*
X30124772Y-100672003D01*
X30091557Y-100720615D01*
X30033158Y-101009000D01*
X30033158Y-101609000D01*
X30083851Y-101878410D01*
X30243072Y-102125846D01*
X30486015Y-102291843D01*
X30768550Y-102349057D01*
X30821141Y-102613453D01*
X31044807Y-102948193D01*
X34005985Y-105909371D01*
X27613339Y-105951945D01*
X27660229Y-94335015D01*
X27743807Y-94418593D01*
X28078547Y-94642259D01*
X28144058Y-94655290D01*
X28473400Y-94720801D01*
X28473405Y-94720800D01*
X30033158Y-94720800D01*
X30033158Y-95259000D01*
X30083851Y-95528410D01*
X30124772Y-95592003D01*
X30091557Y-95640615D01*
X30033158Y-95929000D01*
X30033158Y-96529000D01*
X30083851Y-96798410D01*
X30186765Y-96958342D01*
X30139400Y-97072690D01*
X30139400Y-97213250D01*
X30298150Y-97372000D01*
X31647400Y-97372000D01*
X31647400Y-97352000D01*
X31901400Y-97352000D01*
X31901400Y-97372000D01*
X33250650Y-97372000D01*
X33409400Y-97213250D01*
X33409400Y-97072690D01*
X33361618Y-96957335D01*
X33457243Y-96817385D01*
X33515642Y-96529000D01*
X33515642Y-95929000D01*
X33464949Y-95659590D01*
X33424028Y-95595997D01*
X33457243Y-95547385D01*
X33515642Y-95259000D01*
X33515642Y-94659000D01*
X33464949Y-94389590D01*
X33424028Y-94325997D01*
X33457243Y-94277385D01*
X33515642Y-93989000D01*
X33515642Y-93450800D01*
X33994800Y-93450800D01*
X33994800Y-101333400D01*
X33994800Y-101333400D01*
G37*
X33994800Y-101333400D02*
X34073341Y-101728253D01*
X34297007Y-102062993D01*
X35437981Y-103203966D01*
X35454533Y-103287179D01*
X35678199Y-103621919D01*
X37510710Y-105454430D01*
X36469416Y-105454430D01*
X33208536Y-102193550D01*
X33291246Y-102140328D01*
X33457243Y-101897385D01*
X33515642Y-101609000D01*
X33515642Y-101009000D01*
X33464949Y-100739590D01*
X33424028Y-100675997D01*
X33457243Y-100627385D01*
X33515642Y-100339000D01*
X33515642Y-99739000D01*
X33464949Y-99469590D01*
X33424028Y-99405997D01*
X33457243Y-99357385D01*
X33515642Y-99069000D01*
X33515642Y-98469000D01*
X33464949Y-98199590D01*
X33362035Y-98039658D01*
X33409400Y-97925310D01*
X33409400Y-97784750D01*
X33250650Y-97626000D01*
X31901400Y-97626000D01*
X31901400Y-97646000D01*
X31647400Y-97646000D01*
X31647400Y-97626000D01*
X30298150Y-97626000D01*
X30139400Y-97784750D01*
X30139400Y-97925310D01*
X30187182Y-98040665D01*
X30091557Y-98180615D01*
X30033158Y-98469000D01*
X30033158Y-99069000D01*
X30083851Y-99338410D01*
X30124772Y-99402003D01*
X30091557Y-99450615D01*
X30033158Y-99739000D01*
X30033158Y-100339000D01*
X30083851Y-100608410D01*
X30124772Y-100672003D01*
X30091557Y-100720615D01*
X30033158Y-101009000D01*
X30033158Y-101609000D01*
X30083851Y-101878410D01*
X30243072Y-102125846D01*
X30486015Y-102291843D01*
X30768550Y-102349057D01*
X30821141Y-102613453D01*
X31044807Y-102948193D01*
X34005985Y-105909371D01*
X27613339Y-105951945D01*
X27660229Y-94335015D01*
X27743807Y-94418593D01*
X28078547Y-94642259D01*
X28144058Y-94655290D01*
X28473400Y-94720801D01*
X28473405Y-94720800D01*
X30033158Y-94720800D01*
X30033158Y-95259000D01*
X30083851Y-95528410D01*
X30124772Y-95592003D01*
X30091557Y-95640615D01*
X30033158Y-95929000D01*
X30033158Y-96529000D01*
X30083851Y-96798410D01*
X30186765Y-96958342D01*
X30139400Y-97072690D01*
X30139400Y-97213250D01*
X30298150Y-97372000D01*
X31647400Y-97372000D01*
X31647400Y-97352000D01*
X31901400Y-97352000D01*
X31901400Y-97372000D01*
X33250650Y-97372000D01*
X33409400Y-97213250D01*
X33409400Y-97072690D01*
X33361618Y-96957335D01*
X33457243Y-96817385D01*
X33515642Y-96529000D01*
X33515642Y-95929000D01*
X33464949Y-95659590D01*
X33424028Y-95595997D01*
X33457243Y-95547385D01*
X33515642Y-95259000D01*
X33515642Y-94659000D01*
X33464949Y-94389590D01*
X33424028Y-94325997D01*
X33457243Y-94277385D01*
X33515642Y-93989000D01*
X33515642Y-93450800D01*
X33994800Y-93450800D01*
X33994800Y-101333400D01*
G36*
X76428331Y-105626845D02*
X59511679Y-105739507D01*
X64927436Y-100323750D01*
X69083400Y-100323750D01*
X69083400Y-101164309D01*
X69180073Y-101397698D01*
X69358701Y-101576327D01*
X69592090Y-101673000D01*
X70732650Y-101673000D01*
X70891400Y-101514250D01*
X70891400Y-100165000D01*
X71145400Y-100165000D01*
X71145400Y-101514250D01*
X71304150Y-101673000D01*
X72444710Y-101673000D01*
X72678099Y-101576327D01*
X72856727Y-101397698D01*
X72953400Y-101164309D01*
X72953400Y-100323750D01*
X72794650Y-100165000D01*
X71145400Y-100165000D01*
X70891400Y-100165000D01*
X69242150Y-100165000D01*
X69083400Y-100323750D01*
X64927436Y-100323750D01*
X65956793Y-99294393D01*
X66003160Y-99225000D01*
X66180459Y-98959653D01*
X66259000Y-98564800D01*
X66259000Y-96726986D01*
X69413175Y-93572811D01*
X69457516Y-93639173D01*
X69530591Y-93688000D01*
X69457516Y-93736827D01*
X69083149Y-94297106D01*
X68951689Y-94958000D01*
X69083149Y-95618894D01*
X69457516Y-96179173D01*
X69530591Y-96228000D01*
X69457516Y-96276827D01*
X69083149Y-96837106D01*
X68951689Y-97498000D01*
X69083149Y-98158894D01*
X69330017Y-98528357D01*
X69180073Y-98678302D01*
X69083400Y-98911691D01*
X69083400Y-99752250D01*
X69242150Y-99911000D01*
X70891400Y-99911000D01*
X70891400Y-99891000D01*
X71145400Y-99891000D01*
X71145400Y-99911000D01*
X72794650Y-99911000D01*
X72953400Y-99752250D01*
X72953400Y-98911691D01*
X72856727Y-98678302D01*
X72706783Y-98528357D01*
X72953651Y-98158894D01*
X73085111Y-97498000D01*
X72953651Y-96837106D01*
X72579284Y-96276827D01*
X72506209Y-96228000D01*
X72579284Y-96179173D01*
X72953651Y-95618894D01*
X73085111Y-94958000D01*
X72953651Y-94297106D01*
X72579284Y-93736827D01*
X72506209Y-93688000D01*
X72579284Y-93639173D01*
X72953651Y-93078894D01*
X73085111Y-92418000D01*
X72953651Y-91757106D01*
X72579284Y-91196827D01*
X72506209Y-91148000D01*
X72579284Y-91099173D01*
X72953651Y-90538894D01*
X73085111Y-89878000D01*
X72953651Y-89217106D01*
X72579284Y-88656827D01*
X72019005Y-88282460D01*
X71358111Y-88151000D01*
X70678689Y-88151000D01*
X70017795Y-88282460D01*
X69457516Y-88656827D01*
X69083149Y-89217106D01*
X68951689Y-89878000D01*
X69083149Y-90538894D01*
X69457516Y-91099173D01*
X69530591Y-91148000D01*
X69457516Y-91196827D01*
X69330981Y-91386200D01*
X69108800Y-91386200D01*
X68713947Y-91464741D01*
X68379207Y-91688407D01*
X64497607Y-95570007D01*
X64273941Y-95904747D01*
X64195400Y-96299600D01*
X64195400Y-98137414D01*
X59947934Y-102384880D01*
X59998343Y-102263482D01*
X59998856Y-101675895D01*
X59774470Y-101132840D01*
X59359346Y-100716991D01*
X58816682Y-100491657D01*
X58503770Y-100491384D01*
X54781793Y-96769407D01*
X54589479Y-96640907D01*
X56711190Y-94519195D01*
X56711193Y-94519193D01*
X56934859Y-94184453D01*
X56954870Y-94083853D01*
X57013401Y-93789600D01*
X57013400Y-93789595D01*
X57013400Y-87785372D01*
X57233009Y-87566146D01*
X57251366Y-87521937D01*
X57268730Y-87563960D01*
X57683854Y-87979809D01*
X58226518Y-88205143D01*
X58814105Y-88205656D01*
X59357160Y-87981270D01*
X59773009Y-87566146D01*
X59998343Y-87023482D01*
X59998856Y-86435895D01*
X59774470Y-85892840D01*
X59549521Y-85667498D01*
X59474859Y-85292147D01*
X59251193Y-84957407D01*
X58082793Y-83789007D01*
X57748053Y-83565341D01*
X57353200Y-83486800D01*
X56362600Y-83486800D01*
X56234905Y-83512200D01*
X28905200Y-83512200D01*
X28510347Y-83590741D01*
X28175607Y-83814407D01*
X27700777Y-84289237D01*
X27707141Y-82712345D01*
X76379282Y-82598251D01*
X76428331Y-105626845D01*
X76428331Y-105626845D01*
G37*
X76428331Y-105626845D02*
X59511679Y-105739507D01*
X64927436Y-100323750D01*
X69083400Y-100323750D01*
X69083400Y-101164309D01*
X69180073Y-101397698D01*
X69358701Y-101576327D01*
X69592090Y-101673000D01*
X70732650Y-101673000D01*
X70891400Y-101514250D01*
X70891400Y-100165000D01*
X71145400Y-100165000D01*
X71145400Y-101514250D01*
X71304150Y-101673000D01*
X72444710Y-101673000D01*
X72678099Y-101576327D01*
X72856727Y-101397698D01*
X72953400Y-101164309D01*
X72953400Y-100323750D01*
X72794650Y-100165000D01*
X71145400Y-100165000D01*
X70891400Y-100165000D01*
X69242150Y-100165000D01*
X69083400Y-100323750D01*
X64927436Y-100323750D01*
X65956793Y-99294393D01*
X66003160Y-99225000D01*
X66180459Y-98959653D01*
X66259000Y-98564800D01*
X66259000Y-96726986D01*
X69413175Y-93572811D01*
X69457516Y-93639173D01*
X69530591Y-93688000D01*
X69457516Y-93736827D01*
X69083149Y-94297106D01*
X68951689Y-94958000D01*
X69083149Y-95618894D01*
X69457516Y-96179173D01*
X69530591Y-96228000D01*
X69457516Y-96276827D01*
X69083149Y-96837106D01*
X68951689Y-97498000D01*
X69083149Y-98158894D01*
X69330017Y-98528357D01*
X69180073Y-98678302D01*
X69083400Y-98911691D01*
X69083400Y-99752250D01*
X69242150Y-99911000D01*
X70891400Y-99911000D01*
X70891400Y-99891000D01*
X71145400Y-99891000D01*
X71145400Y-99911000D01*
X72794650Y-99911000D01*
X72953400Y-99752250D01*
X72953400Y-98911691D01*
X72856727Y-98678302D01*
X72706783Y-98528357D01*
X72953651Y-98158894D01*
X73085111Y-97498000D01*
X72953651Y-96837106D01*
X72579284Y-96276827D01*
X72506209Y-96228000D01*
X72579284Y-96179173D01*
X72953651Y-95618894D01*
X73085111Y-94958000D01*
X72953651Y-94297106D01*
X72579284Y-93736827D01*
X72506209Y-93688000D01*
X72579284Y-93639173D01*
X72953651Y-93078894D01*
X73085111Y-92418000D01*
X72953651Y-91757106D01*
X72579284Y-91196827D01*
X72506209Y-91148000D01*
X72579284Y-91099173D01*
X72953651Y-90538894D01*
X73085111Y-89878000D01*
X72953651Y-89217106D01*
X72579284Y-88656827D01*
X72019005Y-88282460D01*
X71358111Y-88151000D01*
X70678689Y-88151000D01*
X70017795Y-88282460D01*
X69457516Y-88656827D01*
X69083149Y-89217106D01*
X68951689Y-89878000D01*
X69083149Y-90538894D01*
X69457516Y-91099173D01*
X69530591Y-91148000D01*
X69457516Y-91196827D01*
X69330981Y-91386200D01*
X69108800Y-91386200D01*
X68713947Y-91464741D01*
X68379207Y-91688407D01*
X64497607Y-95570007D01*
X64273941Y-95904747D01*
X64195400Y-96299600D01*
X64195400Y-98137414D01*
X59947934Y-102384880D01*
X59998343Y-102263482D01*
X59998856Y-101675895D01*
X59774470Y-101132840D01*
X59359346Y-100716991D01*
X58816682Y-100491657D01*
X58503770Y-100491384D01*
X54781793Y-96769407D01*
X54589479Y-96640907D01*
X56711190Y-94519195D01*
X56711193Y-94519193D01*
X56934859Y-94184453D01*
X56954870Y-94083853D01*
X57013401Y-93789600D01*
X57013400Y-93789595D01*
X57013400Y-87785372D01*
X57233009Y-87566146D01*
X57251366Y-87521937D01*
X57268730Y-87563960D01*
X57683854Y-87979809D01*
X58226518Y-88205143D01*
X58814105Y-88205656D01*
X59357160Y-87981270D01*
X59773009Y-87566146D01*
X59998343Y-87023482D01*
X59998856Y-86435895D01*
X59774470Y-85892840D01*
X59549521Y-85667498D01*
X59474859Y-85292147D01*
X59251193Y-84957407D01*
X58082793Y-83789007D01*
X57748053Y-83565341D01*
X57353200Y-83486800D01*
X56362600Y-83486800D01*
X56234905Y-83512200D01*
X28905200Y-83512200D01*
X28510347Y-83590741D01*
X28175607Y-83814407D01*
X27700777Y-84289237D01*
X27707141Y-82712345D01*
X76379282Y-82598251D01*
X76428331Y-105626845D01*
G36*
X38056207Y-85897207D02*
X37832541Y-86231947D01*
X37754000Y-86626800D01*
X37754000Y-89546014D01*
X36087393Y-87879407D01*
X35752653Y-87655741D01*
X35470593Y-87599636D01*
X35493621Y-87544179D01*
X35493779Y-87363236D01*
X35498600Y-87339000D01*
X35493821Y-87314976D01*
X35493978Y-87135613D01*
X35424880Y-86968382D01*
X35420059Y-86944147D01*
X35406451Y-86923781D01*
X35337956Y-86758011D01*
X35210123Y-86629955D01*
X35196393Y-86609407D01*
X35176024Y-86595797D01*
X35049308Y-86468860D01*
X34882202Y-86399471D01*
X34861653Y-86385741D01*
X34837626Y-86380962D01*
X34671979Y-86312179D01*
X34491036Y-86312021D01*
X34466800Y-86307200D01*
X32821026Y-86307200D01*
X32774400Y-86297758D01*
X30774400Y-86297758D01*
X30504990Y-86348451D01*
X30257554Y-86507672D01*
X30091557Y-86750615D01*
X30033158Y-87039000D01*
X30033158Y-87639000D01*
X30083851Y-87908410D01*
X30124772Y-87972003D01*
X30091557Y-88020615D01*
X30033158Y-88309000D01*
X30033158Y-88909000D01*
X30083851Y-89178410D01*
X30124772Y-89242003D01*
X30091557Y-89290615D01*
X30033158Y-89579000D01*
X30033158Y-90179000D01*
X30083851Y-90448410D01*
X30186765Y-90608342D01*
X30139400Y-90722690D01*
X30139400Y-90863250D01*
X30298150Y-91022000D01*
X31647400Y-91022000D01*
X31647400Y-91002000D01*
X31901400Y-91002000D01*
X31901400Y-91022000D01*
X33250650Y-91022000D01*
X33361850Y-90910800D01*
X33869834Y-90910800D01*
X34346234Y-91387200D01*
X33361850Y-91387200D01*
X33250650Y-91276000D01*
X31901400Y-91276000D01*
X31901400Y-91296000D01*
X31647400Y-91296000D01*
X31647400Y-91276000D01*
X30298150Y-91276000D01*
X30139400Y-91434750D01*
X30139400Y-91575310D01*
X30187182Y-91690665D01*
X30091557Y-91830615D01*
X30033158Y-92119000D01*
X30033158Y-92657200D01*
X28900786Y-92657200D01*
X28743200Y-92499614D01*
X28743200Y-86165186D01*
X29332586Y-85575800D01*
X38377614Y-85575800D01*
X38056207Y-85897207D01*
X38056207Y-85897207D01*
G37*
X38056207Y-85897207D02*
X37832541Y-86231947D01*
X37754000Y-86626800D01*
X37754000Y-89546014D01*
X36087393Y-87879407D01*
X35752653Y-87655741D01*
X35470593Y-87599636D01*
X35493621Y-87544179D01*
X35493779Y-87363236D01*
X35498600Y-87339000D01*
X35493821Y-87314976D01*
X35493978Y-87135613D01*
X35424880Y-86968382D01*
X35420059Y-86944147D01*
X35406451Y-86923781D01*
X35337956Y-86758011D01*
X35210123Y-86629955D01*
X35196393Y-86609407D01*
X35176024Y-86595797D01*
X35049308Y-86468860D01*
X34882202Y-86399471D01*
X34861653Y-86385741D01*
X34837626Y-86380962D01*
X34671979Y-86312179D01*
X34491036Y-86312021D01*
X34466800Y-86307200D01*
X32821026Y-86307200D01*
X32774400Y-86297758D01*
X30774400Y-86297758D01*
X30504990Y-86348451D01*
X30257554Y-86507672D01*
X30091557Y-86750615D01*
X30033158Y-87039000D01*
X30033158Y-87639000D01*
X30083851Y-87908410D01*
X30124772Y-87972003D01*
X30091557Y-88020615D01*
X30033158Y-88309000D01*
X30033158Y-88909000D01*
X30083851Y-89178410D01*
X30124772Y-89242003D01*
X30091557Y-89290615D01*
X30033158Y-89579000D01*
X30033158Y-90179000D01*
X30083851Y-90448410D01*
X30186765Y-90608342D01*
X30139400Y-90722690D01*
X30139400Y-90863250D01*
X30298150Y-91022000D01*
X31647400Y-91022000D01*
X31647400Y-91002000D01*
X31901400Y-91002000D01*
X31901400Y-91022000D01*
X33250650Y-91022000D01*
X33361850Y-90910800D01*
X33869834Y-90910800D01*
X34346234Y-91387200D01*
X33361850Y-91387200D01*
X33250650Y-91276000D01*
X31901400Y-91276000D01*
X31901400Y-91296000D01*
X31647400Y-91296000D01*
X31647400Y-91276000D01*
X30298150Y-91276000D01*
X30139400Y-91434750D01*
X30139400Y-91575310D01*
X30187182Y-91690665D01*
X30091557Y-91830615D01*
X30033158Y-92119000D01*
X30033158Y-92657200D01*
X28900786Y-92657200D01*
X28743200Y-92499614D01*
X28743200Y-86165186D01*
X29332586Y-85575800D01*
X38377614Y-85575800D01*
X38056207Y-85897207D01*
G36*
X83994800Y-101333400D02*
X84073341Y-101728253D01*
X84297007Y-102062993D01*
X85437981Y-103203966D01*
X85454533Y-103287179D01*
X85678199Y-103621919D01*
X87510710Y-105454430D01*
X86469416Y-105454430D01*
X83208536Y-102193550D01*
X83291246Y-102140328D01*
X83457243Y-101897385D01*
X83515642Y-101609000D01*
X83515642Y-101009000D01*
X83464949Y-100739590D01*
X83424028Y-100675997D01*
X83457243Y-100627385D01*
X83515642Y-100339000D01*
X83515642Y-99739000D01*
X83464949Y-99469590D01*
X83424028Y-99405997D01*
X83457243Y-99357385D01*
X83515642Y-99069000D01*
X83515642Y-98469000D01*
X83464949Y-98199590D01*
X83362035Y-98039658D01*
X83409400Y-97925310D01*
X83409400Y-97784750D01*
X83250650Y-97626000D01*
X81901400Y-97626000D01*
X81901400Y-97646000D01*
X81647400Y-97646000D01*
X81647400Y-97626000D01*
X80298150Y-97626000D01*
X80139400Y-97784750D01*
X80139400Y-97925310D01*
X80187182Y-98040665D01*
X80091557Y-98180615D01*
X80033158Y-98469000D01*
X80033158Y-99069000D01*
X80083851Y-99338410D01*
X80124772Y-99402003D01*
X80091557Y-99450615D01*
X80033158Y-99739000D01*
X80033158Y-100339000D01*
X80083851Y-100608410D01*
X80124772Y-100672003D01*
X80091557Y-100720615D01*
X80033158Y-101009000D01*
X80033158Y-101609000D01*
X80083851Y-101878410D01*
X80243072Y-102125846D01*
X80486015Y-102291843D01*
X80768550Y-102349057D01*
X80821141Y-102613453D01*
X81044807Y-102948193D01*
X84005985Y-105909371D01*
X77613339Y-105951945D01*
X77660229Y-94335015D01*
X77743807Y-94418593D01*
X78078547Y-94642259D01*
X78144058Y-94655290D01*
X78473400Y-94720801D01*
X78473405Y-94720800D01*
X80033158Y-94720800D01*
X80033158Y-95259000D01*
X80083851Y-95528410D01*
X80124772Y-95592003D01*
X80091557Y-95640615D01*
X80033158Y-95929000D01*
X80033158Y-96529000D01*
X80083851Y-96798410D01*
X80186765Y-96958342D01*
X80139400Y-97072690D01*
X80139400Y-97213250D01*
X80298150Y-97372000D01*
X81647400Y-97372000D01*
X81647400Y-97352000D01*
X81901400Y-97352000D01*
X81901400Y-97372000D01*
X83250650Y-97372000D01*
X83409400Y-97213250D01*
X83409400Y-97072690D01*
X83361618Y-96957335D01*
X83457243Y-96817385D01*
X83515642Y-96529000D01*
X83515642Y-95929000D01*
X83464949Y-95659590D01*
X83424028Y-95595997D01*
X83457243Y-95547385D01*
X83515642Y-95259000D01*
X83515642Y-94659000D01*
X83464949Y-94389590D01*
X83424028Y-94325997D01*
X83457243Y-94277385D01*
X83515642Y-93989000D01*
X83515642Y-93450800D01*
X83994800Y-93450800D01*
X83994800Y-101333400D01*
X83994800Y-101333400D01*
G37*
X83994800Y-101333400D02*
X84073341Y-101728253D01*
X84297007Y-102062993D01*
X85437981Y-103203966D01*
X85454533Y-103287179D01*
X85678199Y-103621919D01*
X87510710Y-105454430D01*
X86469416Y-105454430D01*
X83208536Y-102193550D01*
X83291246Y-102140328D01*
X83457243Y-101897385D01*
X83515642Y-101609000D01*
X83515642Y-101009000D01*
X83464949Y-100739590D01*
X83424028Y-100675997D01*
X83457243Y-100627385D01*
X83515642Y-100339000D01*
X83515642Y-99739000D01*
X83464949Y-99469590D01*
X83424028Y-99405997D01*
X83457243Y-99357385D01*
X83515642Y-99069000D01*
X83515642Y-98469000D01*
X83464949Y-98199590D01*
X83362035Y-98039658D01*
X83409400Y-97925310D01*
X83409400Y-97784750D01*
X83250650Y-97626000D01*
X81901400Y-97626000D01*
X81901400Y-97646000D01*
X81647400Y-97646000D01*
X81647400Y-97626000D01*
X80298150Y-97626000D01*
X80139400Y-97784750D01*
X80139400Y-97925310D01*
X80187182Y-98040665D01*
X80091557Y-98180615D01*
X80033158Y-98469000D01*
X80033158Y-99069000D01*
X80083851Y-99338410D01*
X80124772Y-99402003D01*
X80091557Y-99450615D01*
X80033158Y-99739000D01*
X80033158Y-100339000D01*
X80083851Y-100608410D01*
X80124772Y-100672003D01*
X80091557Y-100720615D01*
X80033158Y-101009000D01*
X80033158Y-101609000D01*
X80083851Y-101878410D01*
X80243072Y-102125846D01*
X80486015Y-102291843D01*
X80768550Y-102349057D01*
X80821141Y-102613453D01*
X81044807Y-102948193D01*
X84005985Y-105909371D01*
X77613339Y-105951945D01*
X77660229Y-94335015D01*
X77743807Y-94418593D01*
X78078547Y-94642259D01*
X78144058Y-94655290D01*
X78473400Y-94720801D01*
X78473405Y-94720800D01*
X80033158Y-94720800D01*
X80033158Y-95259000D01*
X80083851Y-95528410D01*
X80124772Y-95592003D01*
X80091557Y-95640615D01*
X80033158Y-95929000D01*
X80033158Y-96529000D01*
X80083851Y-96798410D01*
X80186765Y-96958342D01*
X80139400Y-97072690D01*
X80139400Y-97213250D01*
X80298150Y-97372000D01*
X81647400Y-97372000D01*
X81647400Y-97352000D01*
X81901400Y-97352000D01*
X81901400Y-97372000D01*
X83250650Y-97372000D01*
X83409400Y-97213250D01*
X83409400Y-97072690D01*
X83361618Y-96957335D01*
X83457243Y-96817385D01*
X83515642Y-96529000D01*
X83515642Y-95929000D01*
X83464949Y-95659590D01*
X83424028Y-95595997D01*
X83457243Y-95547385D01*
X83515642Y-95259000D01*
X83515642Y-94659000D01*
X83464949Y-94389590D01*
X83424028Y-94325997D01*
X83457243Y-94277385D01*
X83515642Y-93989000D01*
X83515642Y-93450800D01*
X83994800Y-93450800D01*
X83994800Y-101333400D01*
G36*
X126428331Y-105626845D02*
X109511679Y-105739507D01*
X114927436Y-100323750D01*
X119083400Y-100323750D01*
X119083400Y-101164309D01*
X119180073Y-101397698D01*
X119358701Y-101576327D01*
X119592090Y-101673000D01*
X120732650Y-101673000D01*
X120891400Y-101514250D01*
X120891400Y-100165000D01*
X121145400Y-100165000D01*
X121145400Y-101514250D01*
X121304150Y-101673000D01*
X122444710Y-101673000D01*
X122678099Y-101576327D01*
X122856727Y-101397698D01*
X122953400Y-101164309D01*
X122953400Y-100323750D01*
X122794650Y-100165000D01*
X121145400Y-100165000D01*
X120891400Y-100165000D01*
X119242150Y-100165000D01*
X119083400Y-100323750D01*
X114927436Y-100323750D01*
X115956793Y-99294393D01*
X116003160Y-99225000D01*
X116180459Y-98959653D01*
X116259000Y-98564800D01*
X116259000Y-96726986D01*
X119413175Y-93572811D01*
X119457516Y-93639173D01*
X119530591Y-93688000D01*
X119457516Y-93736827D01*
X119083149Y-94297106D01*
X118951689Y-94958000D01*
X119083149Y-95618894D01*
X119457516Y-96179173D01*
X119530591Y-96228000D01*
X119457516Y-96276827D01*
X119083149Y-96837106D01*
X118951689Y-97498000D01*
X119083149Y-98158894D01*
X119330017Y-98528357D01*
X119180073Y-98678302D01*
X119083400Y-98911691D01*
X119083400Y-99752250D01*
X119242150Y-99911000D01*
X120891400Y-99911000D01*
X120891400Y-99891000D01*
X121145400Y-99891000D01*
X121145400Y-99911000D01*
X122794650Y-99911000D01*
X122953400Y-99752250D01*
X122953400Y-98911691D01*
X122856727Y-98678302D01*
X122706783Y-98528357D01*
X122953651Y-98158894D01*
X123085111Y-97498000D01*
X122953651Y-96837106D01*
X122579284Y-96276827D01*
X122506209Y-96228000D01*
X122579284Y-96179173D01*
X122953651Y-95618894D01*
X123085111Y-94958000D01*
X122953651Y-94297106D01*
X122579284Y-93736827D01*
X122506209Y-93688000D01*
X122579284Y-93639173D01*
X122953651Y-93078894D01*
X123085111Y-92418000D01*
X122953651Y-91757106D01*
X122579284Y-91196827D01*
X122506209Y-91148000D01*
X122579284Y-91099173D01*
X122953651Y-90538894D01*
X123085111Y-89878000D01*
X122953651Y-89217106D01*
X122579284Y-88656827D01*
X122019005Y-88282460D01*
X121358111Y-88151000D01*
X120678689Y-88151000D01*
X120017795Y-88282460D01*
X119457516Y-88656827D01*
X119083149Y-89217106D01*
X118951689Y-89878000D01*
X119083149Y-90538894D01*
X119457516Y-91099173D01*
X119530591Y-91148000D01*
X119457516Y-91196827D01*
X119330981Y-91386200D01*
X119108800Y-91386200D01*
X118713947Y-91464741D01*
X118379207Y-91688407D01*
X114497607Y-95570007D01*
X114273941Y-95904747D01*
X114195400Y-96299600D01*
X114195400Y-98137414D01*
X109947934Y-102384880D01*
X109998343Y-102263482D01*
X109998856Y-101675895D01*
X109774470Y-101132840D01*
X109359346Y-100716991D01*
X108816682Y-100491657D01*
X108503770Y-100491384D01*
X104781793Y-96769407D01*
X104589479Y-96640907D01*
X106711190Y-94519195D01*
X106711193Y-94519193D01*
X106934859Y-94184453D01*
X106954870Y-94083853D01*
X107013401Y-93789600D01*
X107013400Y-93789595D01*
X107013400Y-87785372D01*
X107233009Y-87566146D01*
X107251366Y-87521937D01*
X107268730Y-87563960D01*
X107683854Y-87979809D01*
X108226518Y-88205143D01*
X108814105Y-88205656D01*
X109357160Y-87981270D01*
X109773009Y-87566146D01*
X109998343Y-87023482D01*
X109998856Y-86435895D01*
X109774470Y-85892840D01*
X109549521Y-85667498D01*
X109474859Y-85292147D01*
X109251193Y-84957407D01*
X108082793Y-83789007D01*
X107748053Y-83565341D01*
X107353200Y-83486800D01*
X106362600Y-83486800D01*
X106234905Y-83512200D01*
X78905200Y-83512200D01*
X78510347Y-83590741D01*
X78175607Y-83814407D01*
X77700777Y-84289237D01*
X77707141Y-82712345D01*
X126379282Y-82598251D01*
X126428331Y-105626845D01*
X126428331Y-105626845D01*
G37*
X126428331Y-105626845D02*
X109511679Y-105739507D01*
X114927436Y-100323750D01*
X119083400Y-100323750D01*
X119083400Y-101164309D01*
X119180073Y-101397698D01*
X119358701Y-101576327D01*
X119592090Y-101673000D01*
X120732650Y-101673000D01*
X120891400Y-101514250D01*
X120891400Y-100165000D01*
X121145400Y-100165000D01*
X121145400Y-101514250D01*
X121304150Y-101673000D01*
X122444710Y-101673000D01*
X122678099Y-101576327D01*
X122856727Y-101397698D01*
X122953400Y-101164309D01*
X122953400Y-100323750D01*
X122794650Y-100165000D01*
X121145400Y-100165000D01*
X120891400Y-100165000D01*
X119242150Y-100165000D01*
X119083400Y-100323750D01*
X114927436Y-100323750D01*
X115956793Y-99294393D01*
X116003160Y-99225000D01*
X116180459Y-98959653D01*
X116259000Y-98564800D01*
X116259000Y-96726986D01*
X119413175Y-93572811D01*
X119457516Y-93639173D01*
X119530591Y-93688000D01*
X119457516Y-93736827D01*
X119083149Y-94297106D01*
X118951689Y-94958000D01*
X119083149Y-95618894D01*
X119457516Y-96179173D01*
X119530591Y-96228000D01*
X119457516Y-96276827D01*
X119083149Y-96837106D01*
X118951689Y-97498000D01*
X119083149Y-98158894D01*
X119330017Y-98528357D01*
X119180073Y-98678302D01*
X119083400Y-98911691D01*
X119083400Y-99752250D01*
X119242150Y-99911000D01*
X120891400Y-99911000D01*
X120891400Y-99891000D01*
X121145400Y-99891000D01*
X121145400Y-99911000D01*
X122794650Y-99911000D01*
X122953400Y-99752250D01*
X122953400Y-98911691D01*
X122856727Y-98678302D01*
X122706783Y-98528357D01*
X122953651Y-98158894D01*
X123085111Y-97498000D01*
X122953651Y-96837106D01*
X122579284Y-96276827D01*
X122506209Y-96228000D01*
X122579284Y-96179173D01*
X122953651Y-95618894D01*
X123085111Y-94958000D01*
X122953651Y-94297106D01*
X122579284Y-93736827D01*
X122506209Y-93688000D01*
X122579284Y-93639173D01*
X122953651Y-93078894D01*
X123085111Y-92418000D01*
X122953651Y-91757106D01*
X122579284Y-91196827D01*
X122506209Y-91148000D01*
X122579284Y-91099173D01*
X122953651Y-90538894D01*
X123085111Y-89878000D01*
X122953651Y-89217106D01*
X122579284Y-88656827D01*
X122019005Y-88282460D01*
X121358111Y-88151000D01*
X120678689Y-88151000D01*
X120017795Y-88282460D01*
X119457516Y-88656827D01*
X119083149Y-89217106D01*
X118951689Y-89878000D01*
X119083149Y-90538894D01*
X119457516Y-91099173D01*
X119530591Y-91148000D01*
X119457516Y-91196827D01*
X119330981Y-91386200D01*
X119108800Y-91386200D01*
X118713947Y-91464741D01*
X118379207Y-91688407D01*
X114497607Y-95570007D01*
X114273941Y-95904747D01*
X114195400Y-96299600D01*
X114195400Y-98137414D01*
X109947934Y-102384880D01*
X109998343Y-102263482D01*
X109998856Y-101675895D01*
X109774470Y-101132840D01*
X109359346Y-100716991D01*
X108816682Y-100491657D01*
X108503770Y-100491384D01*
X104781793Y-96769407D01*
X104589479Y-96640907D01*
X106711190Y-94519195D01*
X106711193Y-94519193D01*
X106934859Y-94184453D01*
X106954870Y-94083853D01*
X107013401Y-93789600D01*
X107013400Y-93789595D01*
X107013400Y-87785372D01*
X107233009Y-87566146D01*
X107251366Y-87521937D01*
X107268730Y-87563960D01*
X107683854Y-87979809D01*
X108226518Y-88205143D01*
X108814105Y-88205656D01*
X109357160Y-87981270D01*
X109773009Y-87566146D01*
X109998343Y-87023482D01*
X109998856Y-86435895D01*
X109774470Y-85892840D01*
X109549521Y-85667498D01*
X109474859Y-85292147D01*
X109251193Y-84957407D01*
X108082793Y-83789007D01*
X107748053Y-83565341D01*
X107353200Y-83486800D01*
X106362600Y-83486800D01*
X106234905Y-83512200D01*
X78905200Y-83512200D01*
X78510347Y-83590741D01*
X78175607Y-83814407D01*
X77700777Y-84289237D01*
X77707141Y-82712345D01*
X126379282Y-82598251D01*
X126428331Y-105626845D01*
G36*
X88056207Y-85897207D02*
X87832541Y-86231947D01*
X87754000Y-86626800D01*
X87754000Y-89546014D01*
X86087393Y-87879407D01*
X85752653Y-87655741D01*
X85470593Y-87599636D01*
X85493621Y-87544179D01*
X85493779Y-87363236D01*
X85498600Y-87339000D01*
X85493821Y-87314976D01*
X85493978Y-87135613D01*
X85424880Y-86968382D01*
X85420059Y-86944147D01*
X85406451Y-86923781D01*
X85337956Y-86758011D01*
X85210123Y-86629955D01*
X85196393Y-86609407D01*
X85176024Y-86595797D01*
X85049308Y-86468860D01*
X84882202Y-86399471D01*
X84861653Y-86385741D01*
X84837626Y-86380962D01*
X84671979Y-86312179D01*
X84491036Y-86312021D01*
X84466800Y-86307200D01*
X82821026Y-86307200D01*
X82774400Y-86297758D01*
X80774400Y-86297758D01*
X80504990Y-86348451D01*
X80257554Y-86507672D01*
X80091557Y-86750615D01*
X80033158Y-87039000D01*
X80033158Y-87639000D01*
X80083851Y-87908410D01*
X80124772Y-87972003D01*
X80091557Y-88020615D01*
X80033158Y-88309000D01*
X80033158Y-88909000D01*
X80083851Y-89178410D01*
X80124772Y-89242003D01*
X80091557Y-89290615D01*
X80033158Y-89579000D01*
X80033158Y-90179000D01*
X80083851Y-90448410D01*
X80186765Y-90608342D01*
X80139400Y-90722690D01*
X80139400Y-90863250D01*
X80298150Y-91022000D01*
X81647400Y-91022000D01*
X81647400Y-91002000D01*
X81901400Y-91002000D01*
X81901400Y-91022000D01*
X83250650Y-91022000D01*
X83361850Y-90910800D01*
X83869834Y-90910800D01*
X84346234Y-91387200D01*
X83361850Y-91387200D01*
X83250650Y-91276000D01*
X81901400Y-91276000D01*
X81901400Y-91296000D01*
X81647400Y-91296000D01*
X81647400Y-91276000D01*
X80298150Y-91276000D01*
X80139400Y-91434750D01*
X80139400Y-91575310D01*
X80187182Y-91690665D01*
X80091557Y-91830615D01*
X80033158Y-92119000D01*
X80033158Y-92657200D01*
X78900786Y-92657200D01*
X78743200Y-92499614D01*
X78743200Y-86165186D01*
X79332586Y-85575800D01*
X88377614Y-85575800D01*
X88056207Y-85897207D01*
X88056207Y-85897207D01*
G37*
X88056207Y-85897207D02*
X87832541Y-86231947D01*
X87754000Y-86626800D01*
X87754000Y-89546014D01*
X86087393Y-87879407D01*
X85752653Y-87655741D01*
X85470593Y-87599636D01*
X85493621Y-87544179D01*
X85493779Y-87363236D01*
X85498600Y-87339000D01*
X85493821Y-87314976D01*
X85493978Y-87135613D01*
X85424880Y-86968382D01*
X85420059Y-86944147D01*
X85406451Y-86923781D01*
X85337956Y-86758011D01*
X85210123Y-86629955D01*
X85196393Y-86609407D01*
X85176024Y-86595797D01*
X85049308Y-86468860D01*
X84882202Y-86399471D01*
X84861653Y-86385741D01*
X84837626Y-86380962D01*
X84671979Y-86312179D01*
X84491036Y-86312021D01*
X84466800Y-86307200D01*
X82821026Y-86307200D01*
X82774400Y-86297758D01*
X80774400Y-86297758D01*
X80504990Y-86348451D01*
X80257554Y-86507672D01*
X80091557Y-86750615D01*
X80033158Y-87039000D01*
X80033158Y-87639000D01*
X80083851Y-87908410D01*
X80124772Y-87972003D01*
X80091557Y-88020615D01*
X80033158Y-88309000D01*
X80033158Y-88909000D01*
X80083851Y-89178410D01*
X80124772Y-89242003D01*
X80091557Y-89290615D01*
X80033158Y-89579000D01*
X80033158Y-90179000D01*
X80083851Y-90448410D01*
X80186765Y-90608342D01*
X80139400Y-90722690D01*
X80139400Y-90863250D01*
X80298150Y-91022000D01*
X81647400Y-91022000D01*
X81647400Y-91002000D01*
X81901400Y-91002000D01*
X81901400Y-91022000D01*
X83250650Y-91022000D01*
X83361850Y-90910800D01*
X83869834Y-90910800D01*
X84346234Y-91387200D01*
X83361850Y-91387200D01*
X83250650Y-91276000D01*
X81901400Y-91276000D01*
X81901400Y-91296000D01*
X81647400Y-91296000D01*
X81647400Y-91276000D01*
X80298150Y-91276000D01*
X80139400Y-91434750D01*
X80139400Y-91575310D01*
X80187182Y-91690665D01*
X80091557Y-91830615D01*
X80033158Y-92119000D01*
X80033158Y-92657200D01*
X78900786Y-92657200D01*
X78743200Y-92499614D01*
X78743200Y-86165186D01*
X79332586Y-85575800D01*
X88377614Y-85575800D01*
X88056207Y-85897207D01*
G36*
X33994800Y-126333400D02*
X34073341Y-126728253D01*
X34297007Y-127062993D01*
X35437981Y-128203966D01*
X35454533Y-128287179D01*
X35678199Y-128621919D01*
X37510710Y-130454430D01*
X36469416Y-130454430D01*
X33208536Y-127193550D01*
X33291246Y-127140328D01*
X33457243Y-126897385D01*
X33515642Y-126609000D01*
X33515642Y-126009000D01*
X33464949Y-125739590D01*
X33424028Y-125675997D01*
X33457243Y-125627385D01*
X33515642Y-125339000D01*
X33515642Y-124739000D01*
X33464949Y-124469590D01*
X33424028Y-124405997D01*
X33457243Y-124357385D01*
X33515642Y-124069000D01*
X33515642Y-123469000D01*
X33464949Y-123199590D01*
X33362035Y-123039658D01*
X33409400Y-122925310D01*
X33409400Y-122784750D01*
X33250650Y-122626000D01*
X31901400Y-122626000D01*
X31901400Y-122646000D01*
X31647400Y-122646000D01*
X31647400Y-122626000D01*
X30298150Y-122626000D01*
X30139400Y-122784750D01*
X30139400Y-122925310D01*
X30187182Y-123040665D01*
X30091557Y-123180615D01*
X30033158Y-123469000D01*
X30033158Y-124069000D01*
X30083851Y-124338410D01*
X30124772Y-124402003D01*
X30091557Y-124450615D01*
X30033158Y-124739000D01*
X30033158Y-125339000D01*
X30083851Y-125608410D01*
X30124772Y-125672003D01*
X30091557Y-125720615D01*
X30033158Y-126009000D01*
X30033158Y-126609000D01*
X30083851Y-126878410D01*
X30243072Y-127125846D01*
X30486015Y-127291843D01*
X30768550Y-127349057D01*
X30821141Y-127613453D01*
X31044807Y-127948193D01*
X34005985Y-130909371D01*
X27613339Y-130951945D01*
X27660229Y-119335015D01*
X27743807Y-119418593D01*
X28078547Y-119642259D01*
X28144058Y-119655290D01*
X28473400Y-119720801D01*
X28473405Y-119720800D01*
X30033158Y-119720800D01*
X30033158Y-120259000D01*
X30083851Y-120528410D01*
X30124772Y-120592003D01*
X30091557Y-120640615D01*
X30033158Y-120929000D01*
X30033158Y-121529000D01*
X30083851Y-121798410D01*
X30186765Y-121958342D01*
X30139400Y-122072690D01*
X30139400Y-122213250D01*
X30298150Y-122372000D01*
X31647400Y-122372000D01*
X31647400Y-122352000D01*
X31901400Y-122352000D01*
X31901400Y-122372000D01*
X33250650Y-122372000D01*
X33409400Y-122213250D01*
X33409400Y-122072690D01*
X33361618Y-121957335D01*
X33457243Y-121817385D01*
X33515642Y-121529000D01*
X33515642Y-120929000D01*
X33464949Y-120659590D01*
X33424028Y-120595997D01*
X33457243Y-120547385D01*
X33515642Y-120259000D01*
X33515642Y-119659000D01*
X33464949Y-119389590D01*
X33424028Y-119325997D01*
X33457243Y-119277385D01*
X33515642Y-118989000D01*
X33515642Y-118450800D01*
X33994800Y-118450800D01*
X33994800Y-126333400D01*
X33994800Y-126333400D01*
G37*
X33994800Y-126333400D02*
X34073341Y-126728253D01*
X34297007Y-127062993D01*
X35437981Y-128203966D01*
X35454533Y-128287179D01*
X35678199Y-128621919D01*
X37510710Y-130454430D01*
X36469416Y-130454430D01*
X33208536Y-127193550D01*
X33291246Y-127140328D01*
X33457243Y-126897385D01*
X33515642Y-126609000D01*
X33515642Y-126009000D01*
X33464949Y-125739590D01*
X33424028Y-125675997D01*
X33457243Y-125627385D01*
X33515642Y-125339000D01*
X33515642Y-124739000D01*
X33464949Y-124469590D01*
X33424028Y-124405997D01*
X33457243Y-124357385D01*
X33515642Y-124069000D01*
X33515642Y-123469000D01*
X33464949Y-123199590D01*
X33362035Y-123039658D01*
X33409400Y-122925310D01*
X33409400Y-122784750D01*
X33250650Y-122626000D01*
X31901400Y-122626000D01*
X31901400Y-122646000D01*
X31647400Y-122646000D01*
X31647400Y-122626000D01*
X30298150Y-122626000D01*
X30139400Y-122784750D01*
X30139400Y-122925310D01*
X30187182Y-123040665D01*
X30091557Y-123180615D01*
X30033158Y-123469000D01*
X30033158Y-124069000D01*
X30083851Y-124338410D01*
X30124772Y-124402003D01*
X30091557Y-124450615D01*
X30033158Y-124739000D01*
X30033158Y-125339000D01*
X30083851Y-125608410D01*
X30124772Y-125672003D01*
X30091557Y-125720615D01*
X30033158Y-126009000D01*
X30033158Y-126609000D01*
X30083851Y-126878410D01*
X30243072Y-127125846D01*
X30486015Y-127291843D01*
X30768550Y-127349057D01*
X30821141Y-127613453D01*
X31044807Y-127948193D01*
X34005985Y-130909371D01*
X27613339Y-130951945D01*
X27660229Y-119335015D01*
X27743807Y-119418593D01*
X28078547Y-119642259D01*
X28144058Y-119655290D01*
X28473400Y-119720801D01*
X28473405Y-119720800D01*
X30033158Y-119720800D01*
X30033158Y-120259000D01*
X30083851Y-120528410D01*
X30124772Y-120592003D01*
X30091557Y-120640615D01*
X30033158Y-120929000D01*
X30033158Y-121529000D01*
X30083851Y-121798410D01*
X30186765Y-121958342D01*
X30139400Y-122072690D01*
X30139400Y-122213250D01*
X30298150Y-122372000D01*
X31647400Y-122372000D01*
X31647400Y-122352000D01*
X31901400Y-122352000D01*
X31901400Y-122372000D01*
X33250650Y-122372000D01*
X33409400Y-122213250D01*
X33409400Y-122072690D01*
X33361618Y-121957335D01*
X33457243Y-121817385D01*
X33515642Y-121529000D01*
X33515642Y-120929000D01*
X33464949Y-120659590D01*
X33424028Y-120595997D01*
X33457243Y-120547385D01*
X33515642Y-120259000D01*
X33515642Y-119659000D01*
X33464949Y-119389590D01*
X33424028Y-119325997D01*
X33457243Y-119277385D01*
X33515642Y-118989000D01*
X33515642Y-118450800D01*
X33994800Y-118450800D01*
X33994800Y-126333400D01*
G36*
X76428331Y-130626845D02*
X59511679Y-130739507D01*
X64927436Y-125323750D01*
X69083400Y-125323750D01*
X69083400Y-126164309D01*
X69180073Y-126397698D01*
X69358701Y-126576327D01*
X69592090Y-126673000D01*
X70732650Y-126673000D01*
X70891400Y-126514250D01*
X70891400Y-125165000D01*
X71145400Y-125165000D01*
X71145400Y-126514250D01*
X71304150Y-126673000D01*
X72444710Y-126673000D01*
X72678099Y-126576327D01*
X72856727Y-126397698D01*
X72953400Y-126164309D01*
X72953400Y-125323750D01*
X72794650Y-125165000D01*
X71145400Y-125165000D01*
X70891400Y-125165000D01*
X69242150Y-125165000D01*
X69083400Y-125323750D01*
X64927436Y-125323750D01*
X65956793Y-124294393D01*
X66003160Y-124225000D01*
X66180459Y-123959653D01*
X66259000Y-123564800D01*
X66259000Y-121726986D01*
X69413175Y-118572811D01*
X69457516Y-118639173D01*
X69530591Y-118688000D01*
X69457516Y-118736827D01*
X69083149Y-119297106D01*
X68951689Y-119958000D01*
X69083149Y-120618894D01*
X69457516Y-121179173D01*
X69530591Y-121228000D01*
X69457516Y-121276827D01*
X69083149Y-121837106D01*
X68951689Y-122498000D01*
X69083149Y-123158894D01*
X69330017Y-123528357D01*
X69180073Y-123678302D01*
X69083400Y-123911691D01*
X69083400Y-124752250D01*
X69242150Y-124911000D01*
X70891400Y-124911000D01*
X70891400Y-124891000D01*
X71145400Y-124891000D01*
X71145400Y-124911000D01*
X72794650Y-124911000D01*
X72953400Y-124752250D01*
X72953400Y-123911691D01*
X72856727Y-123678302D01*
X72706783Y-123528357D01*
X72953651Y-123158894D01*
X73085111Y-122498000D01*
X72953651Y-121837106D01*
X72579284Y-121276827D01*
X72506209Y-121228000D01*
X72579284Y-121179173D01*
X72953651Y-120618894D01*
X73085111Y-119958000D01*
X72953651Y-119297106D01*
X72579284Y-118736827D01*
X72506209Y-118688000D01*
X72579284Y-118639173D01*
X72953651Y-118078894D01*
X73085111Y-117418000D01*
X72953651Y-116757106D01*
X72579284Y-116196827D01*
X72506209Y-116148000D01*
X72579284Y-116099173D01*
X72953651Y-115538894D01*
X73085111Y-114878000D01*
X72953651Y-114217106D01*
X72579284Y-113656827D01*
X72019005Y-113282460D01*
X71358111Y-113151000D01*
X70678689Y-113151000D01*
X70017795Y-113282460D01*
X69457516Y-113656827D01*
X69083149Y-114217106D01*
X68951689Y-114878000D01*
X69083149Y-115538894D01*
X69457516Y-116099173D01*
X69530591Y-116148000D01*
X69457516Y-116196827D01*
X69330981Y-116386200D01*
X69108800Y-116386200D01*
X68713947Y-116464741D01*
X68379207Y-116688407D01*
X64497607Y-120570007D01*
X64273941Y-120904747D01*
X64195400Y-121299600D01*
X64195400Y-123137414D01*
X59947934Y-127384880D01*
X59998343Y-127263482D01*
X59998856Y-126675895D01*
X59774470Y-126132840D01*
X59359346Y-125716991D01*
X58816682Y-125491657D01*
X58503770Y-125491384D01*
X54781793Y-121769407D01*
X54589479Y-121640907D01*
X56711190Y-119519195D01*
X56711193Y-119519193D01*
X56934859Y-119184453D01*
X56954870Y-119083853D01*
X57013401Y-118789600D01*
X57013400Y-118789595D01*
X57013400Y-112785372D01*
X57233009Y-112566146D01*
X57251366Y-112521937D01*
X57268730Y-112563960D01*
X57683854Y-112979809D01*
X58226518Y-113205143D01*
X58814105Y-113205656D01*
X59357160Y-112981270D01*
X59773009Y-112566146D01*
X59998343Y-112023482D01*
X59998856Y-111435895D01*
X59774470Y-110892840D01*
X59549521Y-110667498D01*
X59474859Y-110292147D01*
X59251193Y-109957407D01*
X58082793Y-108789007D01*
X57748053Y-108565341D01*
X57353200Y-108486800D01*
X56362600Y-108486800D01*
X56234905Y-108512200D01*
X28905200Y-108512200D01*
X28510347Y-108590741D01*
X28175607Y-108814407D01*
X27700777Y-109289237D01*
X27707141Y-107712345D01*
X76379282Y-107598251D01*
X76428331Y-130626845D01*
X76428331Y-130626845D01*
G37*
X76428331Y-130626845D02*
X59511679Y-130739507D01*
X64927436Y-125323750D01*
X69083400Y-125323750D01*
X69083400Y-126164309D01*
X69180073Y-126397698D01*
X69358701Y-126576327D01*
X69592090Y-126673000D01*
X70732650Y-126673000D01*
X70891400Y-126514250D01*
X70891400Y-125165000D01*
X71145400Y-125165000D01*
X71145400Y-126514250D01*
X71304150Y-126673000D01*
X72444710Y-126673000D01*
X72678099Y-126576327D01*
X72856727Y-126397698D01*
X72953400Y-126164309D01*
X72953400Y-125323750D01*
X72794650Y-125165000D01*
X71145400Y-125165000D01*
X70891400Y-125165000D01*
X69242150Y-125165000D01*
X69083400Y-125323750D01*
X64927436Y-125323750D01*
X65956793Y-124294393D01*
X66003160Y-124225000D01*
X66180459Y-123959653D01*
X66259000Y-123564800D01*
X66259000Y-121726986D01*
X69413175Y-118572811D01*
X69457516Y-118639173D01*
X69530591Y-118688000D01*
X69457516Y-118736827D01*
X69083149Y-119297106D01*
X68951689Y-119958000D01*
X69083149Y-120618894D01*
X69457516Y-121179173D01*
X69530591Y-121228000D01*
X69457516Y-121276827D01*
X69083149Y-121837106D01*
X68951689Y-122498000D01*
X69083149Y-123158894D01*
X69330017Y-123528357D01*
X69180073Y-123678302D01*
X69083400Y-123911691D01*
X69083400Y-124752250D01*
X69242150Y-124911000D01*
X70891400Y-124911000D01*
X70891400Y-124891000D01*
X71145400Y-124891000D01*
X71145400Y-124911000D01*
X72794650Y-124911000D01*
X72953400Y-124752250D01*
X72953400Y-123911691D01*
X72856727Y-123678302D01*
X72706783Y-123528357D01*
X72953651Y-123158894D01*
X73085111Y-122498000D01*
X72953651Y-121837106D01*
X72579284Y-121276827D01*
X72506209Y-121228000D01*
X72579284Y-121179173D01*
X72953651Y-120618894D01*
X73085111Y-119958000D01*
X72953651Y-119297106D01*
X72579284Y-118736827D01*
X72506209Y-118688000D01*
X72579284Y-118639173D01*
X72953651Y-118078894D01*
X73085111Y-117418000D01*
X72953651Y-116757106D01*
X72579284Y-116196827D01*
X72506209Y-116148000D01*
X72579284Y-116099173D01*
X72953651Y-115538894D01*
X73085111Y-114878000D01*
X72953651Y-114217106D01*
X72579284Y-113656827D01*
X72019005Y-113282460D01*
X71358111Y-113151000D01*
X70678689Y-113151000D01*
X70017795Y-113282460D01*
X69457516Y-113656827D01*
X69083149Y-114217106D01*
X68951689Y-114878000D01*
X69083149Y-115538894D01*
X69457516Y-116099173D01*
X69530591Y-116148000D01*
X69457516Y-116196827D01*
X69330981Y-116386200D01*
X69108800Y-116386200D01*
X68713947Y-116464741D01*
X68379207Y-116688407D01*
X64497607Y-120570007D01*
X64273941Y-120904747D01*
X64195400Y-121299600D01*
X64195400Y-123137414D01*
X59947934Y-127384880D01*
X59998343Y-127263482D01*
X59998856Y-126675895D01*
X59774470Y-126132840D01*
X59359346Y-125716991D01*
X58816682Y-125491657D01*
X58503770Y-125491384D01*
X54781793Y-121769407D01*
X54589479Y-121640907D01*
X56711190Y-119519195D01*
X56711193Y-119519193D01*
X56934859Y-119184453D01*
X56954870Y-119083853D01*
X57013401Y-118789600D01*
X57013400Y-118789595D01*
X57013400Y-112785372D01*
X57233009Y-112566146D01*
X57251366Y-112521937D01*
X57268730Y-112563960D01*
X57683854Y-112979809D01*
X58226518Y-113205143D01*
X58814105Y-113205656D01*
X59357160Y-112981270D01*
X59773009Y-112566146D01*
X59998343Y-112023482D01*
X59998856Y-111435895D01*
X59774470Y-110892840D01*
X59549521Y-110667498D01*
X59474859Y-110292147D01*
X59251193Y-109957407D01*
X58082793Y-108789007D01*
X57748053Y-108565341D01*
X57353200Y-108486800D01*
X56362600Y-108486800D01*
X56234905Y-108512200D01*
X28905200Y-108512200D01*
X28510347Y-108590741D01*
X28175607Y-108814407D01*
X27700777Y-109289237D01*
X27707141Y-107712345D01*
X76379282Y-107598251D01*
X76428331Y-130626845D01*
G36*
X38056207Y-110897207D02*
X37832541Y-111231947D01*
X37754000Y-111626800D01*
X37754000Y-114546014D01*
X36087393Y-112879407D01*
X35752653Y-112655741D01*
X35470593Y-112599636D01*
X35493621Y-112544179D01*
X35493779Y-112363236D01*
X35498600Y-112339000D01*
X35493821Y-112314976D01*
X35493978Y-112135613D01*
X35424880Y-111968382D01*
X35420059Y-111944147D01*
X35406451Y-111923781D01*
X35337956Y-111758011D01*
X35210123Y-111629955D01*
X35196393Y-111609407D01*
X35176024Y-111595797D01*
X35049308Y-111468860D01*
X34882202Y-111399471D01*
X34861653Y-111385741D01*
X34837626Y-111380962D01*
X34671979Y-111312179D01*
X34491036Y-111312021D01*
X34466800Y-111307200D01*
X32821026Y-111307200D01*
X32774400Y-111297758D01*
X30774400Y-111297758D01*
X30504990Y-111348451D01*
X30257554Y-111507672D01*
X30091557Y-111750615D01*
X30033158Y-112039000D01*
X30033158Y-112639000D01*
X30083851Y-112908410D01*
X30124772Y-112972003D01*
X30091557Y-113020615D01*
X30033158Y-113309000D01*
X30033158Y-113909000D01*
X30083851Y-114178410D01*
X30124772Y-114242003D01*
X30091557Y-114290615D01*
X30033158Y-114579000D01*
X30033158Y-115179000D01*
X30083851Y-115448410D01*
X30186765Y-115608342D01*
X30139400Y-115722690D01*
X30139400Y-115863250D01*
X30298150Y-116022000D01*
X31647400Y-116022000D01*
X31647400Y-116002000D01*
X31901400Y-116002000D01*
X31901400Y-116022000D01*
X33250650Y-116022000D01*
X33361850Y-115910800D01*
X33869834Y-115910800D01*
X34346234Y-116387200D01*
X33361850Y-116387200D01*
X33250650Y-116276000D01*
X31901400Y-116276000D01*
X31901400Y-116296000D01*
X31647400Y-116296000D01*
X31647400Y-116276000D01*
X30298150Y-116276000D01*
X30139400Y-116434750D01*
X30139400Y-116575310D01*
X30187182Y-116690665D01*
X30091557Y-116830615D01*
X30033158Y-117119000D01*
X30033158Y-117657200D01*
X28900786Y-117657200D01*
X28743200Y-117499614D01*
X28743200Y-111165186D01*
X29332586Y-110575800D01*
X38377614Y-110575800D01*
X38056207Y-110897207D01*
X38056207Y-110897207D01*
G37*
X38056207Y-110897207D02*
X37832541Y-111231947D01*
X37754000Y-111626800D01*
X37754000Y-114546014D01*
X36087393Y-112879407D01*
X35752653Y-112655741D01*
X35470593Y-112599636D01*
X35493621Y-112544179D01*
X35493779Y-112363236D01*
X35498600Y-112339000D01*
X35493821Y-112314976D01*
X35493978Y-112135613D01*
X35424880Y-111968382D01*
X35420059Y-111944147D01*
X35406451Y-111923781D01*
X35337956Y-111758011D01*
X35210123Y-111629955D01*
X35196393Y-111609407D01*
X35176024Y-111595797D01*
X35049308Y-111468860D01*
X34882202Y-111399471D01*
X34861653Y-111385741D01*
X34837626Y-111380962D01*
X34671979Y-111312179D01*
X34491036Y-111312021D01*
X34466800Y-111307200D01*
X32821026Y-111307200D01*
X32774400Y-111297758D01*
X30774400Y-111297758D01*
X30504990Y-111348451D01*
X30257554Y-111507672D01*
X30091557Y-111750615D01*
X30033158Y-112039000D01*
X30033158Y-112639000D01*
X30083851Y-112908410D01*
X30124772Y-112972003D01*
X30091557Y-113020615D01*
X30033158Y-113309000D01*
X30033158Y-113909000D01*
X30083851Y-114178410D01*
X30124772Y-114242003D01*
X30091557Y-114290615D01*
X30033158Y-114579000D01*
X30033158Y-115179000D01*
X30083851Y-115448410D01*
X30186765Y-115608342D01*
X30139400Y-115722690D01*
X30139400Y-115863250D01*
X30298150Y-116022000D01*
X31647400Y-116022000D01*
X31647400Y-116002000D01*
X31901400Y-116002000D01*
X31901400Y-116022000D01*
X33250650Y-116022000D01*
X33361850Y-115910800D01*
X33869834Y-115910800D01*
X34346234Y-116387200D01*
X33361850Y-116387200D01*
X33250650Y-116276000D01*
X31901400Y-116276000D01*
X31901400Y-116296000D01*
X31647400Y-116296000D01*
X31647400Y-116276000D01*
X30298150Y-116276000D01*
X30139400Y-116434750D01*
X30139400Y-116575310D01*
X30187182Y-116690665D01*
X30091557Y-116830615D01*
X30033158Y-117119000D01*
X30033158Y-117657200D01*
X28900786Y-117657200D01*
X28743200Y-117499614D01*
X28743200Y-111165186D01*
X29332586Y-110575800D01*
X38377614Y-110575800D01*
X38056207Y-110897207D01*
G36*
X83994800Y-126333400D02*
X84073341Y-126728253D01*
X84297007Y-127062993D01*
X85437981Y-128203966D01*
X85454533Y-128287179D01*
X85678199Y-128621919D01*
X87510710Y-130454430D01*
X86469416Y-130454430D01*
X83208536Y-127193550D01*
X83291246Y-127140328D01*
X83457243Y-126897385D01*
X83515642Y-126609000D01*
X83515642Y-126009000D01*
X83464949Y-125739590D01*
X83424028Y-125675997D01*
X83457243Y-125627385D01*
X83515642Y-125339000D01*
X83515642Y-124739000D01*
X83464949Y-124469590D01*
X83424028Y-124405997D01*
X83457243Y-124357385D01*
X83515642Y-124069000D01*
X83515642Y-123469000D01*
X83464949Y-123199590D01*
X83362035Y-123039658D01*
X83409400Y-122925310D01*
X83409400Y-122784750D01*
X83250650Y-122626000D01*
X81901400Y-122626000D01*
X81901400Y-122646000D01*
X81647400Y-122646000D01*
X81647400Y-122626000D01*
X80298150Y-122626000D01*
X80139400Y-122784750D01*
X80139400Y-122925310D01*
X80187182Y-123040665D01*
X80091557Y-123180615D01*
X80033158Y-123469000D01*
X80033158Y-124069000D01*
X80083851Y-124338410D01*
X80124772Y-124402003D01*
X80091557Y-124450615D01*
X80033158Y-124739000D01*
X80033158Y-125339000D01*
X80083851Y-125608410D01*
X80124772Y-125672003D01*
X80091557Y-125720615D01*
X80033158Y-126009000D01*
X80033158Y-126609000D01*
X80083851Y-126878410D01*
X80243072Y-127125846D01*
X80486015Y-127291843D01*
X80768550Y-127349057D01*
X80821141Y-127613453D01*
X81044807Y-127948193D01*
X84005985Y-130909371D01*
X77613339Y-130951945D01*
X77660229Y-119335015D01*
X77743807Y-119418593D01*
X78078547Y-119642259D01*
X78144058Y-119655290D01*
X78473400Y-119720801D01*
X78473405Y-119720800D01*
X80033158Y-119720800D01*
X80033158Y-120259000D01*
X80083851Y-120528410D01*
X80124772Y-120592003D01*
X80091557Y-120640615D01*
X80033158Y-120929000D01*
X80033158Y-121529000D01*
X80083851Y-121798410D01*
X80186765Y-121958342D01*
X80139400Y-122072690D01*
X80139400Y-122213250D01*
X80298150Y-122372000D01*
X81647400Y-122372000D01*
X81647400Y-122352000D01*
X81901400Y-122352000D01*
X81901400Y-122372000D01*
X83250650Y-122372000D01*
X83409400Y-122213250D01*
X83409400Y-122072690D01*
X83361618Y-121957335D01*
X83457243Y-121817385D01*
X83515642Y-121529000D01*
X83515642Y-120929000D01*
X83464949Y-120659590D01*
X83424028Y-120595997D01*
X83457243Y-120547385D01*
X83515642Y-120259000D01*
X83515642Y-119659000D01*
X83464949Y-119389590D01*
X83424028Y-119325997D01*
X83457243Y-119277385D01*
X83515642Y-118989000D01*
X83515642Y-118450800D01*
X83994800Y-118450800D01*
X83994800Y-126333400D01*
X83994800Y-126333400D01*
G37*
X83994800Y-126333400D02*
X84073341Y-126728253D01*
X84297007Y-127062993D01*
X85437981Y-128203966D01*
X85454533Y-128287179D01*
X85678199Y-128621919D01*
X87510710Y-130454430D01*
X86469416Y-130454430D01*
X83208536Y-127193550D01*
X83291246Y-127140328D01*
X83457243Y-126897385D01*
X83515642Y-126609000D01*
X83515642Y-126009000D01*
X83464949Y-125739590D01*
X83424028Y-125675997D01*
X83457243Y-125627385D01*
X83515642Y-125339000D01*
X83515642Y-124739000D01*
X83464949Y-124469590D01*
X83424028Y-124405997D01*
X83457243Y-124357385D01*
X83515642Y-124069000D01*
X83515642Y-123469000D01*
X83464949Y-123199590D01*
X83362035Y-123039658D01*
X83409400Y-122925310D01*
X83409400Y-122784750D01*
X83250650Y-122626000D01*
X81901400Y-122626000D01*
X81901400Y-122646000D01*
X81647400Y-122646000D01*
X81647400Y-122626000D01*
X80298150Y-122626000D01*
X80139400Y-122784750D01*
X80139400Y-122925310D01*
X80187182Y-123040665D01*
X80091557Y-123180615D01*
X80033158Y-123469000D01*
X80033158Y-124069000D01*
X80083851Y-124338410D01*
X80124772Y-124402003D01*
X80091557Y-124450615D01*
X80033158Y-124739000D01*
X80033158Y-125339000D01*
X80083851Y-125608410D01*
X80124772Y-125672003D01*
X80091557Y-125720615D01*
X80033158Y-126009000D01*
X80033158Y-126609000D01*
X80083851Y-126878410D01*
X80243072Y-127125846D01*
X80486015Y-127291843D01*
X80768550Y-127349057D01*
X80821141Y-127613453D01*
X81044807Y-127948193D01*
X84005985Y-130909371D01*
X77613339Y-130951945D01*
X77660229Y-119335015D01*
X77743807Y-119418593D01*
X78078547Y-119642259D01*
X78144058Y-119655290D01*
X78473400Y-119720801D01*
X78473405Y-119720800D01*
X80033158Y-119720800D01*
X80033158Y-120259000D01*
X80083851Y-120528410D01*
X80124772Y-120592003D01*
X80091557Y-120640615D01*
X80033158Y-120929000D01*
X80033158Y-121529000D01*
X80083851Y-121798410D01*
X80186765Y-121958342D01*
X80139400Y-122072690D01*
X80139400Y-122213250D01*
X80298150Y-122372000D01*
X81647400Y-122372000D01*
X81647400Y-122352000D01*
X81901400Y-122352000D01*
X81901400Y-122372000D01*
X83250650Y-122372000D01*
X83409400Y-122213250D01*
X83409400Y-122072690D01*
X83361618Y-121957335D01*
X83457243Y-121817385D01*
X83515642Y-121529000D01*
X83515642Y-120929000D01*
X83464949Y-120659590D01*
X83424028Y-120595997D01*
X83457243Y-120547385D01*
X83515642Y-120259000D01*
X83515642Y-119659000D01*
X83464949Y-119389590D01*
X83424028Y-119325997D01*
X83457243Y-119277385D01*
X83515642Y-118989000D01*
X83515642Y-118450800D01*
X83994800Y-118450800D01*
X83994800Y-126333400D01*
G36*
X126428331Y-130626845D02*
X109511679Y-130739507D01*
X114927436Y-125323750D01*
X119083400Y-125323750D01*
X119083400Y-126164309D01*
X119180073Y-126397698D01*
X119358701Y-126576327D01*
X119592090Y-126673000D01*
X120732650Y-126673000D01*
X120891400Y-126514250D01*
X120891400Y-125165000D01*
X121145400Y-125165000D01*
X121145400Y-126514250D01*
X121304150Y-126673000D01*
X122444710Y-126673000D01*
X122678099Y-126576327D01*
X122856727Y-126397698D01*
X122953400Y-126164309D01*
X122953400Y-125323750D01*
X122794650Y-125165000D01*
X121145400Y-125165000D01*
X120891400Y-125165000D01*
X119242150Y-125165000D01*
X119083400Y-125323750D01*
X114927436Y-125323750D01*
X115956793Y-124294393D01*
X116003160Y-124225000D01*
X116180459Y-123959653D01*
X116259000Y-123564800D01*
X116259000Y-121726986D01*
X119413175Y-118572811D01*
X119457516Y-118639173D01*
X119530591Y-118688000D01*
X119457516Y-118736827D01*
X119083149Y-119297106D01*
X118951689Y-119958000D01*
X119083149Y-120618894D01*
X119457516Y-121179173D01*
X119530591Y-121228000D01*
X119457516Y-121276827D01*
X119083149Y-121837106D01*
X118951689Y-122498000D01*
X119083149Y-123158894D01*
X119330017Y-123528357D01*
X119180073Y-123678302D01*
X119083400Y-123911691D01*
X119083400Y-124752250D01*
X119242150Y-124911000D01*
X120891400Y-124911000D01*
X120891400Y-124891000D01*
X121145400Y-124891000D01*
X121145400Y-124911000D01*
X122794650Y-124911000D01*
X122953400Y-124752250D01*
X122953400Y-123911691D01*
X122856727Y-123678302D01*
X122706783Y-123528357D01*
X122953651Y-123158894D01*
X123085111Y-122498000D01*
X122953651Y-121837106D01*
X122579284Y-121276827D01*
X122506209Y-121228000D01*
X122579284Y-121179173D01*
X122953651Y-120618894D01*
X123085111Y-119958000D01*
X122953651Y-119297106D01*
X122579284Y-118736827D01*
X122506209Y-118688000D01*
X122579284Y-118639173D01*
X122953651Y-118078894D01*
X123085111Y-117418000D01*
X122953651Y-116757106D01*
X122579284Y-116196827D01*
X122506209Y-116148000D01*
X122579284Y-116099173D01*
X122953651Y-115538894D01*
X123085111Y-114878000D01*
X122953651Y-114217106D01*
X122579284Y-113656827D01*
X122019005Y-113282460D01*
X121358111Y-113151000D01*
X120678689Y-113151000D01*
X120017795Y-113282460D01*
X119457516Y-113656827D01*
X119083149Y-114217106D01*
X118951689Y-114878000D01*
X119083149Y-115538894D01*
X119457516Y-116099173D01*
X119530591Y-116148000D01*
X119457516Y-116196827D01*
X119330981Y-116386200D01*
X119108800Y-116386200D01*
X118713947Y-116464741D01*
X118379207Y-116688407D01*
X114497607Y-120570007D01*
X114273941Y-120904747D01*
X114195400Y-121299600D01*
X114195400Y-123137414D01*
X109947934Y-127384880D01*
X109998343Y-127263482D01*
X109998856Y-126675895D01*
X109774470Y-126132840D01*
X109359346Y-125716991D01*
X108816682Y-125491657D01*
X108503770Y-125491384D01*
X104781793Y-121769407D01*
X104589479Y-121640907D01*
X106711190Y-119519195D01*
X106711193Y-119519193D01*
X106934859Y-119184453D01*
X106954870Y-119083853D01*
X107013401Y-118789600D01*
X107013400Y-118789595D01*
X107013400Y-112785372D01*
X107233009Y-112566146D01*
X107251366Y-112521937D01*
X107268730Y-112563960D01*
X107683854Y-112979809D01*
X108226518Y-113205143D01*
X108814105Y-113205656D01*
X109357160Y-112981270D01*
X109773009Y-112566146D01*
X109998343Y-112023482D01*
X109998856Y-111435895D01*
X109774470Y-110892840D01*
X109549521Y-110667498D01*
X109474859Y-110292147D01*
X109251193Y-109957407D01*
X108082793Y-108789007D01*
X107748053Y-108565341D01*
X107353200Y-108486800D01*
X106362600Y-108486800D01*
X106234905Y-108512200D01*
X78905200Y-108512200D01*
X78510347Y-108590741D01*
X78175607Y-108814407D01*
X77700777Y-109289237D01*
X77707141Y-107712345D01*
X126379282Y-107598251D01*
X126428331Y-130626845D01*
X126428331Y-130626845D01*
G37*
X126428331Y-130626845D02*
X109511679Y-130739507D01*
X114927436Y-125323750D01*
X119083400Y-125323750D01*
X119083400Y-126164309D01*
X119180073Y-126397698D01*
X119358701Y-126576327D01*
X119592090Y-126673000D01*
X120732650Y-126673000D01*
X120891400Y-126514250D01*
X120891400Y-125165000D01*
X121145400Y-125165000D01*
X121145400Y-126514250D01*
X121304150Y-126673000D01*
X122444710Y-126673000D01*
X122678099Y-126576327D01*
X122856727Y-126397698D01*
X122953400Y-126164309D01*
X122953400Y-125323750D01*
X122794650Y-125165000D01*
X121145400Y-125165000D01*
X120891400Y-125165000D01*
X119242150Y-125165000D01*
X119083400Y-125323750D01*
X114927436Y-125323750D01*
X115956793Y-124294393D01*
X116003160Y-124225000D01*
X116180459Y-123959653D01*
X116259000Y-123564800D01*
X116259000Y-121726986D01*
X119413175Y-118572811D01*
X119457516Y-118639173D01*
X119530591Y-118688000D01*
X119457516Y-118736827D01*
X119083149Y-119297106D01*
X118951689Y-119958000D01*
X119083149Y-120618894D01*
X119457516Y-121179173D01*
X119530591Y-121228000D01*
X119457516Y-121276827D01*
X119083149Y-121837106D01*
X118951689Y-122498000D01*
X119083149Y-123158894D01*
X119330017Y-123528357D01*
X119180073Y-123678302D01*
X119083400Y-123911691D01*
X119083400Y-124752250D01*
X119242150Y-124911000D01*
X120891400Y-124911000D01*
X120891400Y-124891000D01*
X121145400Y-124891000D01*
X121145400Y-124911000D01*
X122794650Y-124911000D01*
X122953400Y-124752250D01*
X122953400Y-123911691D01*
X122856727Y-123678302D01*
X122706783Y-123528357D01*
X122953651Y-123158894D01*
X123085111Y-122498000D01*
X122953651Y-121837106D01*
X122579284Y-121276827D01*
X122506209Y-121228000D01*
X122579284Y-121179173D01*
X122953651Y-120618894D01*
X123085111Y-119958000D01*
X122953651Y-119297106D01*
X122579284Y-118736827D01*
X122506209Y-118688000D01*
X122579284Y-118639173D01*
X122953651Y-118078894D01*
X123085111Y-117418000D01*
X122953651Y-116757106D01*
X122579284Y-116196827D01*
X122506209Y-116148000D01*
X122579284Y-116099173D01*
X122953651Y-115538894D01*
X123085111Y-114878000D01*
X122953651Y-114217106D01*
X122579284Y-113656827D01*
X122019005Y-113282460D01*
X121358111Y-113151000D01*
X120678689Y-113151000D01*
X120017795Y-113282460D01*
X119457516Y-113656827D01*
X119083149Y-114217106D01*
X118951689Y-114878000D01*
X119083149Y-115538894D01*
X119457516Y-116099173D01*
X119530591Y-116148000D01*
X119457516Y-116196827D01*
X119330981Y-116386200D01*
X119108800Y-116386200D01*
X118713947Y-116464741D01*
X118379207Y-116688407D01*
X114497607Y-120570007D01*
X114273941Y-120904747D01*
X114195400Y-121299600D01*
X114195400Y-123137414D01*
X109947934Y-127384880D01*
X109998343Y-127263482D01*
X109998856Y-126675895D01*
X109774470Y-126132840D01*
X109359346Y-125716991D01*
X108816682Y-125491657D01*
X108503770Y-125491384D01*
X104781793Y-121769407D01*
X104589479Y-121640907D01*
X106711190Y-119519195D01*
X106711193Y-119519193D01*
X106934859Y-119184453D01*
X106954870Y-119083853D01*
X107013401Y-118789600D01*
X107013400Y-118789595D01*
X107013400Y-112785372D01*
X107233009Y-112566146D01*
X107251366Y-112521937D01*
X107268730Y-112563960D01*
X107683854Y-112979809D01*
X108226518Y-113205143D01*
X108814105Y-113205656D01*
X109357160Y-112981270D01*
X109773009Y-112566146D01*
X109998343Y-112023482D01*
X109998856Y-111435895D01*
X109774470Y-110892840D01*
X109549521Y-110667498D01*
X109474859Y-110292147D01*
X109251193Y-109957407D01*
X108082793Y-108789007D01*
X107748053Y-108565341D01*
X107353200Y-108486800D01*
X106362600Y-108486800D01*
X106234905Y-108512200D01*
X78905200Y-108512200D01*
X78510347Y-108590741D01*
X78175607Y-108814407D01*
X77700777Y-109289237D01*
X77707141Y-107712345D01*
X126379282Y-107598251D01*
X126428331Y-130626845D01*
G36*
X88056207Y-110897207D02*
X87832541Y-111231947D01*
X87754000Y-111626800D01*
X87754000Y-114546014D01*
X86087393Y-112879407D01*
X85752653Y-112655741D01*
X85470593Y-112599636D01*
X85493621Y-112544179D01*
X85493779Y-112363236D01*
X85498600Y-112339000D01*
X85493821Y-112314976D01*
X85493978Y-112135613D01*
X85424880Y-111968382D01*
X85420059Y-111944147D01*
X85406451Y-111923781D01*
X85337956Y-111758011D01*
X85210123Y-111629955D01*
X85196393Y-111609407D01*
X85176024Y-111595797D01*
X85049308Y-111468860D01*
X84882202Y-111399471D01*
X84861653Y-111385741D01*
X84837626Y-111380962D01*
X84671979Y-111312179D01*
X84491036Y-111312021D01*
X84466800Y-111307200D01*
X82821026Y-111307200D01*
X82774400Y-111297758D01*
X80774400Y-111297758D01*
X80504990Y-111348451D01*
X80257554Y-111507672D01*
X80091557Y-111750615D01*
X80033158Y-112039000D01*
X80033158Y-112639000D01*
X80083851Y-112908410D01*
X80124772Y-112972003D01*
X80091557Y-113020615D01*
X80033158Y-113309000D01*
X80033158Y-113909000D01*
X80083851Y-114178410D01*
X80124772Y-114242003D01*
X80091557Y-114290615D01*
X80033158Y-114579000D01*
X80033158Y-115179000D01*
X80083851Y-115448410D01*
X80186765Y-115608342D01*
X80139400Y-115722690D01*
X80139400Y-115863250D01*
X80298150Y-116022000D01*
X81647400Y-116022000D01*
X81647400Y-116002000D01*
X81901400Y-116002000D01*
X81901400Y-116022000D01*
X83250650Y-116022000D01*
X83361850Y-115910800D01*
X83869834Y-115910800D01*
X84346234Y-116387200D01*
X83361850Y-116387200D01*
X83250650Y-116276000D01*
X81901400Y-116276000D01*
X81901400Y-116296000D01*
X81647400Y-116296000D01*
X81647400Y-116276000D01*
X80298150Y-116276000D01*
X80139400Y-116434750D01*
X80139400Y-116575310D01*
X80187182Y-116690665D01*
X80091557Y-116830615D01*
X80033158Y-117119000D01*
X80033158Y-117657200D01*
X78900786Y-117657200D01*
X78743200Y-117499614D01*
X78743200Y-111165186D01*
X79332586Y-110575800D01*
X88377614Y-110575800D01*
X88056207Y-110897207D01*
X88056207Y-110897207D01*
G37*
X88056207Y-110897207D02*
X87832541Y-111231947D01*
X87754000Y-111626800D01*
X87754000Y-114546014D01*
X86087393Y-112879407D01*
X85752653Y-112655741D01*
X85470593Y-112599636D01*
X85493621Y-112544179D01*
X85493779Y-112363236D01*
X85498600Y-112339000D01*
X85493821Y-112314976D01*
X85493978Y-112135613D01*
X85424880Y-111968382D01*
X85420059Y-111944147D01*
X85406451Y-111923781D01*
X85337956Y-111758011D01*
X85210123Y-111629955D01*
X85196393Y-111609407D01*
X85176024Y-111595797D01*
X85049308Y-111468860D01*
X84882202Y-111399471D01*
X84861653Y-111385741D01*
X84837626Y-111380962D01*
X84671979Y-111312179D01*
X84491036Y-111312021D01*
X84466800Y-111307200D01*
X82821026Y-111307200D01*
X82774400Y-111297758D01*
X80774400Y-111297758D01*
X80504990Y-111348451D01*
X80257554Y-111507672D01*
X80091557Y-111750615D01*
X80033158Y-112039000D01*
X80033158Y-112639000D01*
X80083851Y-112908410D01*
X80124772Y-112972003D01*
X80091557Y-113020615D01*
X80033158Y-113309000D01*
X80033158Y-113909000D01*
X80083851Y-114178410D01*
X80124772Y-114242003D01*
X80091557Y-114290615D01*
X80033158Y-114579000D01*
X80033158Y-115179000D01*
X80083851Y-115448410D01*
X80186765Y-115608342D01*
X80139400Y-115722690D01*
X80139400Y-115863250D01*
X80298150Y-116022000D01*
X81647400Y-116022000D01*
X81647400Y-116002000D01*
X81901400Y-116002000D01*
X81901400Y-116022000D01*
X83250650Y-116022000D01*
X83361850Y-115910800D01*
X83869834Y-115910800D01*
X84346234Y-116387200D01*
X83361850Y-116387200D01*
X83250650Y-116276000D01*
X81901400Y-116276000D01*
X81901400Y-116296000D01*
X81647400Y-116296000D01*
X81647400Y-116276000D01*
X80298150Y-116276000D01*
X80139400Y-116434750D01*
X80139400Y-116575310D01*
X80187182Y-116690665D01*
X80091557Y-116830615D01*
X80033158Y-117119000D01*
X80033158Y-117657200D01*
X78900786Y-117657200D01*
X78743200Y-117499614D01*
X78743200Y-111165186D01*
X79332586Y-110575800D01*
X88377614Y-110575800D01*
X88056207Y-110897207D01*
M02*
