G04 #@! TF.FileFunction,Legend,Top*
%FSLAX46Y46*%
G04 Gerber Fmt 4.6, Leading zero omitted, Abs format (unit mm)*
G04 Created by KiCad (PCBNEW 4.0.7-e2-6376~58~ubuntu16.04.1) date Fri Feb 16 09:21:29 2018*
%MOMM*%
%LPD*%
G01*
G04 APERTURE LIST*
%ADD10C,0.100000*%
%ADD11C,0.150000*%
%ADD12C,0.120000*%
G04 APERTURE END LIST*
D10*
D11*
X26695400Y-132054600D02*
X26441400Y-32486600D01*
X125958600Y-131876800D02*
X26695400Y-132054600D01*
X126060200Y-32689800D02*
X125958600Y-131876800D01*
X26441400Y-32486600D02*
X126060200Y-32689800D01*
D12*
X117998400Y-126408000D02*
X123998400Y-126408000D01*
X123998400Y-126408000D02*
X123998400Y-113508000D01*
X123998400Y-113508000D02*
X117998400Y-113508000D01*
X117998400Y-113508000D02*
X117998400Y-126408000D01*
X123998400Y-125038000D02*
X122998400Y-125038000D01*
X122998400Y-125038000D02*
X122998400Y-114878000D01*
X122998400Y-114878000D02*
X123998400Y-114878000D01*
X122998400Y-125038000D02*
X122568400Y-124788000D01*
X122568400Y-124788000D02*
X122568400Y-115128000D01*
X122568400Y-115128000D02*
X122998400Y-114878000D01*
X123998400Y-124788000D02*
X122998400Y-124788000D01*
X123998400Y-115128000D02*
X122998400Y-115128000D01*
X117998400Y-125838000D02*
X118618400Y-125838000D01*
X118618400Y-125838000D02*
X118618400Y-124238000D01*
X118618400Y-124238000D02*
X117998400Y-124238000D01*
X117998400Y-123298000D02*
X118618400Y-123298000D01*
X118618400Y-123298000D02*
X118618400Y-121698000D01*
X118618400Y-121698000D02*
X117998400Y-121698000D01*
X117998400Y-120758000D02*
X118618400Y-120758000D01*
X118618400Y-120758000D02*
X118618400Y-119158000D01*
X118618400Y-119158000D02*
X117998400Y-119158000D01*
X117998400Y-118218000D02*
X118618400Y-118218000D01*
X118618400Y-118218000D02*
X118618400Y-116618000D01*
X118618400Y-116618000D02*
X117998400Y-116618000D01*
X117998400Y-115678000D02*
X118618400Y-115678000D01*
X118618400Y-115678000D02*
X118618400Y-114078000D01*
X118618400Y-114078000D02*
X117998400Y-114078000D01*
X67998400Y-126408000D02*
X73998400Y-126408000D01*
X73998400Y-126408000D02*
X73998400Y-113508000D01*
X73998400Y-113508000D02*
X67998400Y-113508000D01*
X67998400Y-113508000D02*
X67998400Y-126408000D01*
X73998400Y-125038000D02*
X72998400Y-125038000D01*
X72998400Y-125038000D02*
X72998400Y-114878000D01*
X72998400Y-114878000D02*
X73998400Y-114878000D01*
X72998400Y-125038000D02*
X72568400Y-124788000D01*
X72568400Y-124788000D02*
X72568400Y-115128000D01*
X72568400Y-115128000D02*
X72998400Y-114878000D01*
X73998400Y-124788000D02*
X72998400Y-124788000D01*
X73998400Y-115128000D02*
X72998400Y-115128000D01*
X67998400Y-125838000D02*
X68618400Y-125838000D01*
X68618400Y-125838000D02*
X68618400Y-124238000D01*
X68618400Y-124238000D02*
X67998400Y-124238000D01*
X67998400Y-123298000D02*
X68618400Y-123298000D01*
X68618400Y-123298000D02*
X68618400Y-121698000D01*
X68618400Y-121698000D02*
X67998400Y-121698000D01*
X67998400Y-120758000D02*
X68618400Y-120758000D01*
X68618400Y-120758000D02*
X68618400Y-119158000D01*
X68618400Y-119158000D02*
X67998400Y-119158000D01*
X67998400Y-118218000D02*
X68618400Y-118218000D01*
X68618400Y-118218000D02*
X68618400Y-116618000D01*
X68618400Y-116618000D02*
X67998400Y-116618000D01*
X67998400Y-115678000D02*
X68618400Y-115678000D01*
X68618400Y-115678000D02*
X68618400Y-114078000D01*
X68618400Y-114078000D02*
X67998400Y-114078000D01*
X117998400Y-101408000D02*
X123998400Y-101408000D01*
X123998400Y-101408000D02*
X123998400Y-88508000D01*
X123998400Y-88508000D02*
X117998400Y-88508000D01*
X117998400Y-88508000D02*
X117998400Y-101408000D01*
X123998400Y-100038000D02*
X122998400Y-100038000D01*
X122998400Y-100038000D02*
X122998400Y-89878000D01*
X122998400Y-89878000D02*
X123998400Y-89878000D01*
X122998400Y-100038000D02*
X122568400Y-99788000D01*
X122568400Y-99788000D02*
X122568400Y-90128000D01*
X122568400Y-90128000D02*
X122998400Y-89878000D01*
X123998400Y-99788000D02*
X122998400Y-99788000D01*
X123998400Y-90128000D02*
X122998400Y-90128000D01*
X117998400Y-100838000D02*
X118618400Y-100838000D01*
X118618400Y-100838000D02*
X118618400Y-99238000D01*
X118618400Y-99238000D02*
X117998400Y-99238000D01*
X117998400Y-98298000D02*
X118618400Y-98298000D01*
X118618400Y-98298000D02*
X118618400Y-96698000D01*
X118618400Y-96698000D02*
X117998400Y-96698000D01*
X117998400Y-95758000D02*
X118618400Y-95758000D01*
X118618400Y-95758000D02*
X118618400Y-94158000D01*
X118618400Y-94158000D02*
X117998400Y-94158000D01*
X117998400Y-93218000D02*
X118618400Y-93218000D01*
X118618400Y-93218000D02*
X118618400Y-91618000D01*
X118618400Y-91618000D02*
X117998400Y-91618000D01*
X117998400Y-90678000D02*
X118618400Y-90678000D01*
X118618400Y-90678000D02*
X118618400Y-89078000D01*
X118618400Y-89078000D02*
X117998400Y-89078000D01*
X67998400Y-101408000D02*
X73998400Y-101408000D01*
X73998400Y-101408000D02*
X73998400Y-88508000D01*
X73998400Y-88508000D02*
X67998400Y-88508000D01*
X67998400Y-88508000D02*
X67998400Y-101408000D01*
X73998400Y-100038000D02*
X72998400Y-100038000D01*
X72998400Y-100038000D02*
X72998400Y-89878000D01*
X72998400Y-89878000D02*
X73998400Y-89878000D01*
X72998400Y-100038000D02*
X72568400Y-99788000D01*
X72568400Y-99788000D02*
X72568400Y-90128000D01*
X72568400Y-90128000D02*
X72998400Y-89878000D01*
X73998400Y-99788000D02*
X72998400Y-99788000D01*
X73998400Y-90128000D02*
X72998400Y-90128000D01*
X67998400Y-100838000D02*
X68618400Y-100838000D01*
X68618400Y-100838000D02*
X68618400Y-99238000D01*
X68618400Y-99238000D02*
X67998400Y-99238000D01*
X67998400Y-98298000D02*
X68618400Y-98298000D01*
X68618400Y-98298000D02*
X68618400Y-96698000D01*
X68618400Y-96698000D02*
X67998400Y-96698000D01*
X67998400Y-95758000D02*
X68618400Y-95758000D01*
X68618400Y-95758000D02*
X68618400Y-94158000D01*
X68618400Y-94158000D02*
X67998400Y-94158000D01*
X67998400Y-93218000D02*
X68618400Y-93218000D01*
X68618400Y-93218000D02*
X68618400Y-91618000D01*
X68618400Y-91618000D02*
X67998400Y-91618000D01*
X67998400Y-90678000D02*
X68618400Y-90678000D01*
X68618400Y-90678000D02*
X68618400Y-89078000D01*
X68618400Y-89078000D02*
X67998400Y-89078000D01*
X117998400Y-76408000D02*
X123998400Y-76408000D01*
X123998400Y-76408000D02*
X123998400Y-63508000D01*
X123998400Y-63508000D02*
X117998400Y-63508000D01*
X117998400Y-63508000D02*
X117998400Y-76408000D01*
X123998400Y-75038000D02*
X122998400Y-75038000D01*
X122998400Y-75038000D02*
X122998400Y-64878000D01*
X122998400Y-64878000D02*
X123998400Y-64878000D01*
X122998400Y-75038000D02*
X122568400Y-74788000D01*
X122568400Y-74788000D02*
X122568400Y-65128000D01*
X122568400Y-65128000D02*
X122998400Y-64878000D01*
X123998400Y-74788000D02*
X122998400Y-74788000D01*
X123998400Y-65128000D02*
X122998400Y-65128000D01*
X117998400Y-75838000D02*
X118618400Y-75838000D01*
X118618400Y-75838000D02*
X118618400Y-74238000D01*
X118618400Y-74238000D02*
X117998400Y-74238000D01*
X117998400Y-73298000D02*
X118618400Y-73298000D01*
X118618400Y-73298000D02*
X118618400Y-71698000D01*
X118618400Y-71698000D02*
X117998400Y-71698000D01*
X117998400Y-70758000D02*
X118618400Y-70758000D01*
X118618400Y-70758000D02*
X118618400Y-69158000D01*
X118618400Y-69158000D02*
X117998400Y-69158000D01*
X117998400Y-68218000D02*
X118618400Y-68218000D01*
X118618400Y-68218000D02*
X118618400Y-66618000D01*
X118618400Y-66618000D02*
X117998400Y-66618000D01*
X117998400Y-65678000D02*
X118618400Y-65678000D01*
X118618400Y-65678000D02*
X118618400Y-64078000D01*
X118618400Y-64078000D02*
X117998400Y-64078000D01*
X67998400Y-76408000D02*
X73998400Y-76408000D01*
X73998400Y-76408000D02*
X73998400Y-63508000D01*
X73998400Y-63508000D02*
X67998400Y-63508000D01*
X67998400Y-63508000D02*
X67998400Y-76408000D01*
X73998400Y-75038000D02*
X72998400Y-75038000D01*
X72998400Y-75038000D02*
X72998400Y-64878000D01*
X72998400Y-64878000D02*
X73998400Y-64878000D01*
X72998400Y-75038000D02*
X72568400Y-74788000D01*
X72568400Y-74788000D02*
X72568400Y-65128000D01*
X72568400Y-65128000D02*
X72998400Y-64878000D01*
X73998400Y-74788000D02*
X72998400Y-74788000D01*
X73998400Y-65128000D02*
X72998400Y-65128000D01*
X67998400Y-75838000D02*
X68618400Y-75838000D01*
X68618400Y-75838000D02*
X68618400Y-74238000D01*
X68618400Y-74238000D02*
X67998400Y-74238000D01*
X67998400Y-73298000D02*
X68618400Y-73298000D01*
X68618400Y-73298000D02*
X68618400Y-71698000D01*
X68618400Y-71698000D02*
X67998400Y-71698000D01*
X67998400Y-70758000D02*
X68618400Y-70758000D01*
X68618400Y-70758000D02*
X68618400Y-69158000D01*
X68618400Y-69158000D02*
X67998400Y-69158000D01*
X67998400Y-68218000D02*
X68618400Y-68218000D01*
X68618400Y-68218000D02*
X68618400Y-66618000D01*
X68618400Y-66618000D02*
X67998400Y-66618000D01*
X67998400Y-65678000D02*
X68618400Y-65678000D01*
X68618400Y-65678000D02*
X68618400Y-64078000D01*
X68618400Y-64078000D02*
X67998400Y-64078000D01*
X117998400Y-51408000D02*
X123998400Y-51408000D01*
X123998400Y-51408000D02*
X123998400Y-38508000D01*
X123998400Y-38508000D02*
X117998400Y-38508000D01*
X117998400Y-38508000D02*
X117998400Y-51408000D01*
X123998400Y-50038000D02*
X122998400Y-50038000D01*
X122998400Y-50038000D02*
X122998400Y-39878000D01*
X122998400Y-39878000D02*
X123998400Y-39878000D01*
X122998400Y-50038000D02*
X122568400Y-49788000D01*
X122568400Y-49788000D02*
X122568400Y-40128000D01*
X122568400Y-40128000D02*
X122998400Y-39878000D01*
X123998400Y-49788000D02*
X122998400Y-49788000D01*
X123998400Y-40128000D02*
X122998400Y-40128000D01*
X117998400Y-50838000D02*
X118618400Y-50838000D01*
X118618400Y-50838000D02*
X118618400Y-49238000D01*
X118618400Y-49238000D02*
X117998400Y-49238000D01*
X117998400Y-48298000D02*
X118618400Y-48298000D01*
X118618400Y-48298000D02*
X118618400Y-46698000D01*
X118618400Y-46698000D02*
X117998400Y-46698000D01*
X117998400Y-45758000D02*
X118618400Y-45758000D01*
X118618400Y-45758000D02*
X118618400Y-44158000D01*
X118618400Y-44158000D02*
X117998400Y-44158000D01*
X117998400Y-43218000D02*
X118618400Y-43218000D01*
X118618400Y-43218000D02*
X118618400Y-41618000D01*
X118618400Y-41618000D02*
X117998400Y-41618000D01*
X117998400Y-40678000D02*
X118618400Y-40678000D01*
X118618400Y-40678000D02*
X118618400Y-39078000D01*
X118618400Y-39078000D02*
X117998400Y-39078000D01*
X99215600Y-120457000D02*
X98015600Y-120457000D01*
X98015600Y-118697000D02*
X99215600Y-118697000D01*
X49215600Y-120457000D02*
X48015600Y-120457000D01*
X48015600Y-118697000D02*
X49215600Y-118697000D01*
X99215600Y-95457000D02*
X98015600Y-95457000D01*
X98015600Y-93697000D02*
X99215600Y-93697000D01*
X49215600Y-95457000D02*
X48015600Y-95457000D01*
X48015600Y-93697000D02*
X49215600Y-93697000D01*
X99215600Y-70457000D02*
X98015600Y-70457000D01*
X98015600Y-68697000D02*
X99215600Y-68697000D01*
X49215600Y-70457000D02*
X48015600Y-70457000D01*
X48015600Y-68697000D02*
X49215600Y-68697000D01*
X99215600Y-45457000D02*
X98015600Y-45457000D01*
X98015600Y-43697000D02*
X99215600Y-43697000D01*
D11*
X82599400Y-111449000D02*
X82599400Y-111724000D01*
X90349400Y-111449000D02*
X90349400Y-111814000D01*
X90349400Y-127199000D02*
X90349400Y-126834000D01*
X82599400Y-127199000D02*
X82599400Y-126834000D01*
X82599400Y-111449000D02*
X90349400Y-111449000D01*
X82599400Y-127199000D02*
X90349400Y-127199000D01*
X82599400Y-111724000D02*
X80774400Y-111724000D01*
X32599400Y-111449000D02*
X32599400Y-111724000D01*
X40349400Y-111449000D02*
X40349400Y-111814000D01*
X40349400Y-127199000D02*
X40349400Y-126834000D01*
X32599400Y-127199000D02*
X32599400Y-126834000D01*
X32599400Y-111449000D02*
X40349400Y-111449000D01*
X32599400Y-127199000D02*
X40349400Y-127199000D01*
X32599400Y-111724000D02*
X30774400Y-111724000D01*
X82599400Y-86449000D02*
X82599400Y-86724000D01*
X90349400Y-86449000D02*
X90349400Y-86814000D01*
X90349400Y-102199000D02*
X90349400Y-101834000D01*
X82599400Y-102199000D02*
X82599400Y-101834000D01*
X82599400Y-86449000D02*
X90349400Y-86449000D01*
X82599400Y-102199000D02*
X90349400Y-102199000D01*
X82599400Y-86724000D02*
X80774400Y-86724000D01*
X32599400Y-86449000D02*
X32599400Y-86724000D01*
X40349400Y-86449000D02*
X40349400Y-86814000D01*
X40349400Y-102199000D02*
X40349400Y-101834000D01*
X32599400Y-102199000D02*
X32599400Y-101834000D01*
X32599400Y-86449000D02*
X40349400Y-86449000D01*
X32599400Y-102199000D02*
X40349400Y-102199000D01*
X32599400Y-86724000D02*
X30774400Y-86724000D01*
X82599400Y-61449000D02*
X82599400Y-61724000D01*
X90349400Y-61449000D02*
X90349400Y-61814000D01*
X90349400Y-77199000D02*
X90349400Y-76834000D01*
X82599400Y-77199000D02*
X82599400Y-76834000D01*
X82599400Y-61449000D02*
X90349400Y-61449000D01*
X82599400Y-77199000D02*
X90349400Y-77199000D01*
X82599400Y-61724000D02*
X80774400Y-61724000D01*
X32599400Y-61449000D02*
X32599400Y-61724000D01*
X40349400Y-61449000D02*
X40349400Y-61814000D01*
X40349400Y-77199000D02*
X40349400Y-76834000D01*
X32599400Y-77199000D02*
X32599400Y-76834000D01*
X32599400Y-61449000D02*
X40349400Y-61449000D01*
X32599400Y-77199000D02*
X40349400Y-77199000D01*
X32599400Y-61724000D02*
X30774400Y-61724000D01*
X82599400Y-36449000D02*
X82599400Y-36724000D01*
X90349400Y-36449000D02*
X90349400Y-36814000D01*
X90349400Y-52199000D02*
X90349400Y-51834000D01*
X82599400Y-52199000D02*
X82599400Y-51834000D01*
X82599400Y-36449000D02*
X90349400Y-36449000D01*
X82599400Y-52199000D02*
X90349400Y-52199000D01*
X82599400Y-36724000D02*
X80774400Y-36724000D01*
X32599400Y-36449000D02*
X32599400Y-36724000D01*
X40349400Y-36449000D02*
X40349400Y-36814000D01*
X40349400Y-52199000D02*
X40349400Y-51834000D01*
X32599400Y-52199000D02*
X32599400Y-51834000D01*
X32599400Y-36449000D02*
X40349400Y-36449000D01*
X32599400Y-52199000D02*
X40349400Y-52199000D01*
X32599400Y-36724000D02*
X30774400Y-36724000D01*
D12*
X49215600Y-45457000D02*
X48015600Y-45457000D01*
X48015600Y-43697000D02*
X49215600Y-43697000D01*
X67998400Y-51408000D02*
X73998400Y-51408000D01*
X73998400Y-51408000D02*
X73998400Y-38508000D01*
X73998400Y-38508000D02*
X67998400Y-38508000D01*
X67998400Y-38508000D02*
X67998400Y-51408000D01*
X73998400Y-50038000D02*
X72998400Y-50038000D01*
X72998400Y-50038000D02*
X72998400Y-39878000D01*
X72998400Y-39878000D02*
X73998400Y-39878000D01*
X72998400Y-50038000D02*
X72568400Y-49788000D01*
X72568400Y-49788000D02*
X72568400Y-40128000D01*
X72568400Y-40128000D02*
X72998400Y-39878000D01*
X73998400Y-49788000D02*
X72998400Y-49788000D01*
X73998400Y-40128000D02*
X72998400Y-40128000D01*
X67998400Y-50838000D02*
X68618400Y-50838000D01*
X68618400Y-50838000D02*
X68618400Y-49238000D01*
X68618400Y-49238000D02*
X67998400Y-49238000D01*
X67998400Y-48298000D02*
X68618400Y-48298000D01*
X68618400Y-48298000D02*
X68618400Y-46698000D01*
X68618400Y-46698000D02*
X67998400Y-46698000D01*
X67998400Y-45758000D02*
X68618400Y-45758000D01*
X68618400Y-45758000D02*
X68618400Y-44158000D01*
X68618400Y-44158000D02*
X67998400Y-44158000D01*
X67998400Y-43218000D02*
X68618400Y-43218000D01*
X68618400Y-43218000D02*
X68618400Y-41618000D01*
X68618400Y-41618000D02*
X67998400Y-41618000D01*
X67998400Y-40678000D02*
X68618400Y-40678000D01*
X68618400Y-40678000D02*
X68618400Y-39078000D01*
X68618400Y-39078000D02*
X67998400Y-39078000D01*
D11*
X115970781Y-124371333D02*
X116685067Y-124371333D01*
X116827924Y-124418953D01*
X116923162Y-124514191D01*
X116970781Y-124657048D01*
X116970781Y-124752286D01*
X116970781Y-123371333D02*
X116970781Y-123942762D01*
X116970781Y-123657048D02*
X115970781Y-123657048D01*
X116113638Y-123752286D01*
X116208876Y-123847524D01*
X116256495Y-123942762D01*
X65970781Y-124371333D02*
X66685067Y-124371333D01*
X66827924Y-124418953D01*
X66923162Y-124514191D01*
X66970781Y-124657048D01*
X66970781Y-124752286D01*
X66970781Y-123371333D02*
X66970781Y-123942762D01*
X66970781Y-123657048D02*
X65970781Y-123657048D01*
X66113638Y-123752286D01*
X66208876Y-123847524D01*
X66256495Y-123942762D01*
X115970781Y-99371333D02*
X116685067Y-99371333D01*
X116827924Y-99418953D01*
X116923162Y-99514191D01*
X116970781Y-99657048D01*
X116970781Y-99752286D01*
X116970781Y-98371333D02*
X116970781Y-98942762D01*
X116970781Y-98657048D02*
X115970781Y-98657048D01*
X116113638Y-98752286D01*
X116208876Y-98847524D01*
X116256495Y-98942762D01*
X65970781Y-99371333D02*
X66685067Y-99371333D01*
X66827924Y-99418953D01*
X66923162Y-99514191D01*
X66970781Y-99657048D01*
X66970781Y-99752286D01*
X66970781Y-98371333D02*
X66970781Y-98942762D01*
X66970781Y-98657048D02*
X65970781Y-98657048D01*
X66113638Y-98752286D01*
X66208876Y-98847524D01*
X66256495Y-98942762D01*
X115970781Y-74371333D02*
X116685067Y-74371333D01*
X116827924Y-74418953D01*
X116923162Y-74514191D01*
X116970781Y-74657048D01*
X116970781Y-74752286D01*
X116970781Y-73371333D02*
X116970781Y-73942762D01*
X116970781Y-73657048D02*
X115970781Y-73657048D01*
X116113638Y-73752286D01*
X116208876Y-73847524D01*
X116256495Y-73942762D01*
X65970781Y-74371333D02*
X66685067Y-74371333D01*
X66827924Y-74418953D01*
X66923162Y-74514191D01*
X66970781Y-74657048D01*
X66970781Y-74752286D01*
X66970781Y-73371333D02*
X66970781Y-73942762D01*
X66970781Y-73657048D02*
X65970781Y-73657048D01*
X66113638Y-73752286D01*
X66208876Y-73847524D01*
X66256495Y-73942762D01*
X115970781Y-49371333D02*
X116685067Y-49371333D01*
X116827924Y-49418953D01*
X116923162Y-49514191D01*
X116970781Y-49657048D01*
X116970781Y-49752286D01*
X116970781Y-48371333D02*
X116970781Y-48942762D01*
X116970781Y-48657048D02*
X115970781Y-48657048D01*
X116113638Y-48752286D01*
X116208876Y-48847524D01*
X116256495Y-48942762D01*
X98448934Y-118329381D02*
X98115600Y-117853190D01*
X97877505Y-118329381D02*
X97877505Y-117329381D01*
X98258458Y-117329381D01*
X98353696Y-117377000D01*
X98401315Y-117424619D01*
X98448934Y-117519857D01*
X98448934Y-117662714D01*
X98401315Y-117757952D01*
X98353696Y-117805571D01*
X98258458Y-117853190D01*
X97877505Y-117853190D01*
X99401315Y-118329381D02*
X98829886Y-118329381D01*
X99115600Y-118329381D02*
X99115600Y-117329381D01*
X99020362Y-117472238D01*
X98925124Y-117567476D01*
X98829886Y-117615095D01*
X48448934Y-118329381D02*
X48115600Y-117853190D01*
X47877505Y-118329381D02*
X47877505Y-117329381D01*
X48258458Y-117329381D01*
X48353696Y-117377000D01*
X48401315Y-117424619D01*
X48448934Y-117519857D01*
X48448934Y-117662714D01*
X48401315Y-117757952D01*
X48353696Y-117805571D01*
X48258458Y-117853190D01*
X47877505Y-117853190D01*
X49401315Y-118329381D02*
X48829886Y-118329381D01*
X49115600Y-118329381D02*
X49115600Y-117329381D01*
X49020362Y-117472238D01*
X48925124Y-117567476D01*
X48829886Y-117615095D01*
X98448934Y-93329381D02*
X98115600Y-92853190D01*
X97877505Y-93329381D02*
X97877505Y-92329381D01*
X98258458Y-92329381D01*
X98353696Y-92377000D01*
X98401315Y-92424619D01*
X98448934Y-92519857D01*
X98448934Y-92662714D01*
X98401315Y-92757952D01*
X98353696Y-92805571D01*
X98258458Y-92853190D01*
X97877505Y-92853190D01*
X99401315Y-93329381D02*
X98829886Y-93329381D01*
X99115600Y-93329381D02*
X99115600Y-92329381D01*
X99020362Y-92472238D01*
X98925124Y-92567476D01*
X98829886Y-92615095D01*
X48448934Y-93329381D02*
X48115600Y-92853190D01*
X47877505Y-93329381D02*
X47877505Y-92329381D01*
X48258458Y-92329381D01*
X48353696Y-92377000D01*
X48401315Y-92424619D01*
X48448934Y-92519857D01*
X48448934Y-92662714D01*
X48401315Y-92757952D01*
X48353696Y-92805571D01*
X48258458Y-92853190D01*
X47877505Y-92853190D01*
X49401315Y-93329381D02*
X48829886Y-93329381D01*
X49115600Y-93329381D02*
X49115600Y-92329381D01*
X49020362Y-92472238D01*
X48925124Y-92567476D01*
X48829886Y-92615095D01*
X98448934Y-68329381D02*
X98115600Y-67853190D01*
X97877505Y-68329381D02*
X97877505Y-67329381D01*
X98258458Y-67329381D01*
X98353696Y-67377000D01*
X98401315Y-67424619D01*
X98448934Y-67519857D01*
X98448934Y-67662714D01*
X98401315Y-67757952D01*
X98353696Y-67805571D01*
X98258458Y-67853190D01*
X97877505Y-67853190D01*
X99401315Y-68329381D02*
X98829886Y-68329381D01*
X99115600Y-68329381D02*
X99115600Y-67329381D01*
X99020362Y-67472238D01*
X98925124Y-67567476D01*
X98829886Y-67615095D01*
X48448934Y-68329381D02*
X48115600Y-67853190D01*
X47877505Y-68329381D02*
X47877505Y-67329381D01*
X48258458Y-67329381D01*
X48353696Y-67377000D01*
X48401315Y-67424619D01*
X48448934Y-67519857D01*
X48448934Y-67662714D01*
X48401315Y-67757952D01*
X48353696Y-67805571D01*
X48258458Y-67853190D01*
X47877505Y-67853190D01*
X49401315Y-68329381D02*
X48829886Y-68329381D01*
X49115600Y-68329381D02*
X49115600Y-67329381D01*
X49020362Y-67472238D01*
X48925124Y-67567476D01*
X48829886Y-67615095D01*
X98448934Y-43329381D02*
X98115600Y-42853190D01*
X97877505Y-43329381D02*
X97877505Y-42329381D01*
X98258458Y-42329381D01*
X98353696Y-42377000D01*
X98401315Y-42424619D01*
X98448934Y-42519857D01*
X98448934Y-42662714D01*
X98401315Y-42757952D01*
X98353696Y-42805571D01*
X98258458Y-42853190D01*
X97877505Y-42853190D01*
X99401315Y-43329381D02*
X98829886Y-43329381D01*
X99115600Y-43329381D02*
X99115600Y-42329381D01*
X99020362Y-42472238D01*
X98925124Y-42567476D01*
X98829886Y-42615095D01*
X85712495Y-109976381D02*
X85712495Y-110785905D01*
X85760114Y-110881143D01*
X85807733Y-110928762D01*
X85902971Y-110976381D01*
X86093448Y-110976381D01*
X86188686Y-110928762D01*
X86236305Y-110881143D01*
X86283924Y-110785905D01*
X86283924Y-109976381D01*
X87283924Y-110976381D02*
X86712495Y-110976381D01*
X86998209Y-110976381D02*
X86998209Y-109976381D01*
X86902971Y-110119238D01*
X86807733Y-110214476D01*
X86712495Y-110262095D01*
X35712495Y-109976381D02*
X35712495Y-110785905D01*
X35760114Y-110881143D01*
X35807733Y-110928762D01*
X35902971Y-110976381D01*
X36093448Y-110976381D01*
X36188686Y-110928762D01*
X36236305Y-110881143D01*
X36283924Y-110785905D01*
X36283924Y-109976381D01*
X37283924Y-110976381D02*
X36712495Y-110976381D01*
X36998209Y-110976381D02*
X36998209Y-109976381D01*
X36902971Y-110119238D01*
X36807733Y-110214476D01*
X36712495Y-110262095D01*
X85712495Y-84976381D02*
X85712495Y-85785905D01*
X85760114Y-85881143D01*
X85807733Y-85928762D01*
X85902971Y-85976381D01*
X86093448Y-85976381D01*
X86188686Y-85928762D01*
X86236305Y-85881143D01*
X86283924Y-85785905D01*
X86283924Y-84976381D01*
X87283924Y-85976381D02*
X86712495Y-85976381D01*
X86998209Y-85976381D02*
X86998209Y-84976381D01*
X86902971Y-85119238D01*
X86807733Y-85214476D01*
X86712495Y-85262095D01*
X35712495Y-84976381D02*
X35712495Y-85785905D01*
X35760114Y-85881143D01*
X35807733Y-85928762D01*
X35902971Y-85976381D01*
X36093448Y-85976381D01*
X36188686Y-85928762D01*
X36236305Y-85881143D01*
X36283924Y-85785905D01*
X36283924Y-84976381D01*
X37283924Y-85976381D02*
X36712495Y-85976381D01*
X36998209Y-85976381D02*
X36998209Y-84976381D01*
X36902971Y-85119238D01*
X36807733Y-85214476D01*
X36712495Y-85262095D01*
X85712495Y-59976381D02*
X85712495Y-60785905D01*
X85760114Y-60881143D01*
X85807733Y-60928762D01*
X85902971Y-60976381D01*
X86093448Y-60976381D01*
X86188686Y-60928762D01*
X86236305Y-60881143D01*
X86283924Y-60785905D01*
X86283924Y-59976381D01*
X87283924Y-60976381D02*
X86712495Y-60976381D01*
X86998209Y-60976381D02*
X86998209Y-59976381D01*
X86902971Y-60119238D01*
X86807733Y-60214476D01*
X86712495Y-60262095D01*
X35712495Y-59976381D02*
X35712495Y-60785905D01*
X35760114Y-60881143D01*
X35807733Y-60928762D01*
X35902971Y-60976381D01*
X36093448Y-60976381D01*
X36188686Y-60928762D01*
X36236305Y-60881143D01*
X36283924Y-60785905D01*
X36283924Y-59976381D01*
X37283924Y-60976381D02*
X36712495Y-60976381D01*
X36998209Y-60976381D02*
X36998209Y-59976381D01*
X36902971Y-60119238D01*
X36807733Y-60214476D01*
X36712495Y-60262095D01*
X85712495Y-34976381D02*
X85712495Y-35785905D01*
X85760114Y-35881143D01*
X85807733Y-35928762D01*
X85902971Y-35976381D01*
X86093448Y-35976381D01*
X86188686Y-35928762D01*
X86236305Y-35881143D01*
X86283924Y-35785905D01*
X86283924Y-34976381D01*
X87283924Y-35976381D02*
X86712495Y-35976381D01*
X86998209Y-35976381D02*
X86998209Y-34976381D01*
X86902971Y-35119238D01*
X86807733Y-35214476D01*
X86712495Y-35262095D01*
X35712495Y-34976381D02*
X35712495Y-35785905D01*
X35760114Y-35881143D01*
X35807733Y-35928762D01*
X35902971Y-35976381D01*
X36093448Y-35976381D01*
X36188686Y-35928762D01*
X36236305Y-35881143D01*
X36283924Y-35785905D01*
X36283924Y-34976381D01*
X37283924Y-35976381D02*
X36712495Y-35976381D01*
X36998209Y-35976381D02*
X36998209Y-34976381D01*
X36902971Y-35119238D01*
X36807733Y-35214476D01*
X36712495Y-35262095D01*
X48448934Y-43329381D02*
X48115600Y-42853190D01*
X47877505Y-43329381D02*
X47877505Y-42329381D01*
X48258458Y-42329381D01*
X48353696Y-42377000D01*
X48401315Y-42424619D01*
X48448934Y-42519857D01*
X48448934Y-42662714D01*
X48401315Y-42757952D01*
X48353696Y-42805571D01*
X48258458Y-42853190D01*
X47877505Y-42853190D01*
X49401315Y-43329381D02*
X48829886Y-43329381D01*
X49115600Y-43329381D02*
X49115600Y-42329381D01*
X49020362Y-42472238D01*
X48925124Y-42567476D01*
X48829886Y-42615095D01*
X65970781Y-49371333D02*
X66685067Y-49371333D01*
X66827924Y-49418953D01*
X66923162Y-49514191D01*
X66970781Y-49657048D01*
X66970781Y-49752286D01*
X66970781Y-48371333D02*
X66970781Y-48942762D01*
X66970781Y-48657048D02*
X65970781Y-48657048D01*
X66113638Y-48752286D01*
X66208876Y-48847524D01*
X66256495Y-48942762D01*
M02*
